<?xml version="1.0" encoding="UTF-8" standalone="no"?><!DOCTYPE svg PUBLIC "-//W3C//DTD SVG 1.1//EN" "http://www.w3.org/Graphics/SVG/1.1/DTD/svg11.dtd"><svg width="100%" height="100%" viewBox="0 0 500 500" version="1.1" xmlns="http://www.w3.org/2000/svg" xmlns:xlink="http://www.w3.org/1999/xlink" xml:space="preserve" style="fill-rule:evenodd;clip-rule:evenodd;stroke-linejoin:round;stroke-miterlimit:1.41421;"><g id="instagram"><path d="M249.999,45.046c66.752,0 74.658,0.255 101.023,1.458c24.374,1.112 37.61,5.184 46.421,8.608c10.858,4.007 20.681,10.398 28.745,18.701c8.302,8.064 14.693,17.887 18.701,28.745c3.423,8.809 7.496,22.047 8.608,46.422c1.202,26.362 1.457,34.268 1.457,101.023c0,66.756 -0.255,74.66 -1.457,101.024c-1.113,24.375 -5.186,37.611 -8.608,46.422c-8.407,21.792 -25.654,39.04 -47.446,47.446c-8.81,3.424 -22.047,7.497 -46.421,8.608c-26.358,1.203 -34.264,1.458 -101.023,1.458c-66.76,0 -74.663,-0.255 -101.024,-1.458c-24.374,-1.112 -37.61,-5.185 -46.421,-8.608c-10.858,-4.007 -20.681,-10.398 -28.745,-18.701c-8.302,-8.064 -14.693,-17.887 -18.701,-28.745c-3.423,-8.81 -7.496,-22.047 -8.608,-46.422c-1.202,-26.361 -1.457,-34.268 -1.457,-101.024c0,-66.755 0.255,-74.659 1.457,-101.023c1.113,-24.375 5.185,-37.612 8.608,-46.422c4.008,-10.859 10.4,-20.682 18.703,-28.746c8.064,-8.303 17.887,-14.694 28.745,-18.701c8.81,-3.424 22.047,-7.497 46.421,-8.608c26.363,-1.203 34.269,-1.458 101.023,-1.458m0,-45.045c-67.895,0 -76.412,0.288 -103.073,1.504c-26.61,1.215 -44.782,5.441 -60.684,11.621c-16.681,6.277 -31.793,16.119 -44.28,28.836c-12.72,12.486 -22.563,27.598 -28.843,44.28c-6.175,15.902 -10.401,34.075 -11.611,60.685c-1.221,26.662 -1.509,35.178 -1.509,103.074c0,67.897 0.288,76.413 1.509,103.075c1.215,26.61 5.441,44.783 11.621,60.684c6.277,16.681 16.118,31.793 28.835,44.28c12.487,12.717 27.599,22.559 44.28,28.836c15.902,6.18 34.075,10.406 60.684,11.621c26.665,1.216 35.179,1.504 103.073,1.504c67.895,0 76.413,-0.288 103.074,-1.504c26.61,-1.215 44.782,-5.441 60.684,-11.621c33.564,-12.982 60.134,-39.551 73.115,-73.116c6.18,-15.902 10.406,-34.075 11.621,-60.684c1.216,-26.665 1.504,-35.179 1.504,-103.075c0,-67.895 -0.288,-76.412 -1.504,-103.074c-1.215,-26.61 -5.441,-44.783 -11.621,-60.685c-6.277,-16.68 -16.118,-31.792 -28.835,-44.279c-12.487,-12.72 -27.601,-22.563 -44.283,-28.842c-15.903,-6.175 -34.075,-10.401 -60.685,-11.611c-26.661,-1.221 -35.178,-1.509 -103.073,-1.509l0.001,0Z" style="fill:#f58572;fill-rule:nonzero;"/><path d="M249.999,121.622c-70.426,0 -128.378,57.952 -128.378,128.378c0,70.427 57.952,128.379 128.378,128.379c70.425,0 128.377,-57.952 128.377,-128.379c0,-70.426 -57.952,-128.378 -128.377,-128.378l0,0Zm0,211.711c-45.715,0 -83.332,-37.618 -83.332,-83.333c0,-45.715 37.618,-83.332 83.333,-83.332c45.714,0 83.332,37.617 83.332,83.332c-0.001,45.716 -37.619,83.333 -83.333,83.333l0,0Z" style="fill:#f58572;fill-rule:nonzero;"/><ellipse cx="383.448" cy="116.55" rx="29.999" ry="30" style="fill:#f58572;"/></g></svg>
