<svg xmlns="http://www.w3.org/2000/svg" width="641" height="481" viewBox="0 0 641 481">
  <title>chat</title>
  <g id="Layer_2" data-name="Layer 2">
    <rect x="0.5" y="0.5" width="640" height="480" fill="#fff" stroke="#000" stroke-miterlimit="10"/>
  </g>
  <g id="Layer_3" data-name="Layer 3">
    <polygon points="465.19 434.27 455.7 443.76 446.21 434.27 465.19 434.27" fill="#fff" opacity="0.35"/>
    <polygon points="512.35 395.98 507.61 400.72 502.86 395.98 512.35 395.98" fill="#fff" opacity="0.37"/>
    <polygon points="620.41 315.32 615.31 320.42 610.21 315.32 620.41 315.32" fill="#fff" opacity="0.45"/>
    <polygon points="162.07 316.18 156.97 321.28 151.87 316.18 162.07 316.18" fill="#fff" opacity="0.45"/>
    <polygon points="135.68 351.61 132.53 354.76 129.38 351.61 135.68 351.61" fill="#fff" opacity="0.45"/>
    <polygon points="495.11 298.49 487.17 306.43 479.23 298.49 495.11 298.49" fill="#fff" opacity="0.45"/>
    <polygon points="184.58 337.93 176.64 345.87 168.7 337.93 184.58 337.93" fill="#fff" opacity="0.45"/>
    <polygon points="552.68 271.6 540.08 284.2 527.48 271.6 552.68 271.6" fill="#fff" opacity="0.33"/>
    <polygon points="591.78 232.54 586.68 237.64 581.58 232.54 591.78 232.54" fill="#fff" opacity="0.45"/>
    <polygon points="105.47 123.19 97.53 131.13 89.59 123.19 105.47 123.19" fill="#fff" opacity="0.45"/>
    <polygon points="102.19 219.26 89.59 231.86 76.99 219.26 102.19 219.26" fill="#fff" opacity="0.33"/>
    <polygon points="556.29 168.04 550.25 174.08 544.21 168.04 556.29 168.04" fill="#fff" opacity="0.33"/>
    <polygon points="312.04 84.7 306 90.74 299.96 84.7 312.04 84.7" fill="#fff" opacity="0.33"/>
    <polygon points="479.82 99.84 474.69 104.97 469.56 99.84 479.82 99.84" fill="#fff" opacity="0.45"/>
    <polygon points="247.6 64.95 238.12 74.44 228.64 64.95 247.6 64.95" fill="#fff" opacity="0.33"/>
    <polygon points="217.83 41.44 204.38 54.89 190.93 41.44 217.83 41.44" fill="#fff" opacity="0.45"/>
    <polygon points="201.59 177.61 181.12 177.61 181.12 157.14 201.59 177.61" fill="#fdffff" stroke="#fff" stroke-miterlimit="10" stroke-width="0.1" opacity="0.93"/>
    <polygon points="181.12 157.14 181.12 177.61 160.66 177.61 181.12 157.14" fill="#fdffff" stroke="#fff" stroke-miterlimit="10" stroke-width="0.1" opacity="0.9"/>
    <polygon points="181.12 157.14 201.59 157.14 201.59 177.61 181.12 157.14" fill="#fdffff" stroke="#fff" stroke-miterlimit="10" stroke-width="0.1" opacity="0.98"/>
    <polygon points="283.6 157.14 283.6 177.61 304.07 177.61 283.6 157.14" fill="#fdffff" stroke="#fff" stroke-miterlimit="10" stroke-width="0.1" opacity="0.98"/>
    <polygon points="222.21 177.61 201.74 177.61 201.74 157.14 222.21 177.61" fill="#fdffff" stroke="#fff" stroke-miterlimit="10" stroke-width="0.1" opacity="0.93"/>
    <polygon points="201.74 157.14 222.21 157.14 222.21 177.61 201.74 157.14" fill="#fdffff" stroke="#fff" stroke-miterlimit="10" stroke-width="0.1" opacity="0.98"/>
    <polygon points="242.67 177.61 222.21 177.61 222.21 157.14 242.67 177.61" fill="#fdffff" stroke="#fff" stroke-miterlimit="10" stroke-width="0.1" opacity="0.93"/>
    <polygon points="222.21 157.14 242.67 157.14 242.67 177.61 222.21 157.14" fill="#fdffff" stroke="#fff" stroke-miterlimit="10" stroke-width="0.1" opacity="0.98"/>
    <polygon points="263.14 177.61 242.67 177.61 242.67 157.14 263.14 177.61" fill="#fdffff" stroke="#fff" stroke-miterlimit="10" stroke-width="0.1" opacity="0.93"/>
    <polygon points="242.67 157.14 263.14 157.14 263.14 177.61 242.67 157.14" fill="#fdffff" stroke="#fff" stroke-miterlimit="10" stroke-width="0.1" opacity="0.98"/>
    <polygon points="283.6 177.61 263.14 177.61 263.14 157.14 283.6 177.61" fill="#fdffff" stroke="#fff" stroke-miterlimit="10" stroke-width="0.1" opacity="0.93"/>
    <polygon points="263.14 157.14 283.6 157.14 283.6 177.61 263.14 157.14" fill="#fdffff" stroke="#fff" stroke-miterlimit="10" stroke-width="0.1" opacity="0.98"/>
    <polygon points="201.59 198.19 181.12 198.19 181.12 177.73 201.59 198.19" fill="#fdffff" stroke="#fff" stroke-miterlimit="10" stroke-width="0.1" opacity="0.93"/>
    <polygon points="181.12 177.73 201.59 177.73 201.59 198.19 181.12 177.73" fill="#fdffff" stroke="#fff" stroke-miterlimit="10" stroke-width="0.1" opacity="0.98"/>
    <polygon points="181.12 198.19 160.66 198.19 160.66 177.73 181.12 198.19" fill="#fdffff" stroke="#fff" stroke-miterlimit="10" stroke-width="0.1" opacity="0.93"/>
    <polygon points="160.66 177.73 181.12 177.73 181.12 198.19 160.66 177.73" fill="#fdffff" stroke="#fff" stroke-miterlimit="10" stroke-width="0.1" opacity="0.98"/>
    <polygon points="304.07 198.19 283.6 198.19 283.6 177.73 304.07 198.19" fill="#fdffff" stroke="#fff" stroke-miterlimit="10" stroke-width="0.1" opacity="0.93"/>
    <polygon points="283.6 177.73 304.07 177.73 304.07 198.19 283.6 177.73" fill="#fdffff" stroke="#fff" stroke-miterlimit="10" stroke-width="0.1" opacity="0.98"/>
    <polygon points="222.21 198.19 201.74 198.19 201.74 177.73 222.21 198.19" fill="#fdffff" stroke="#fff" stroke-miterlimit="10" stroke-width="0.1" opacity="0.9"/>
    <polygon points="201.74 177.73 222.21 177.73 222.21 198.19 201.74 177.73" fill="#fdffff" stroke="#fff" stroke-miterlimit="10" stroke-width="0.1" opacity="0.98"/>
    <polygon points="242.67 198.19 222.21 198.19 222.21 177.73 242.67 198.19" fill="#fdffff" stroke="#fff" stroke-miterlimit="10" stroke-width="0.1" opacity="0.9"/>
    <polygon points="222.21 177.73 242.67 177.73 242.67 198.19 222.21 177.73" fill="#f0f9fc" stroke="#fff" stroke-miterlimit="10" stroke-width="0.1" opacity="0.89"/>
    <polygon points="263.14 198.19 242.67 198.19 242.67 177.73 263.14 198.19" fill="#fdffff" stroke="#fff" stroke-miterlimit="10" stroke-width="0.1" opacity="0.9"/>
    <polygon points="242.67 177.73 263.14 177.73 263.14 198.19 242.67 177.73" fill="#fdffff" stroke="#fff" stroke-miterlimit="10" stroke-width="0.1" opacity="0.98"/>
    <polygon points="283.6 198.19 263.14 198.19 263.14 177.73 283.6 198.19" fill="#fdffff" stroke="#fff" stroke-miterlimit="10" stroke-width="0.1" opacity="0.93"/>
    <polygon points="263.14 177.73 283.6 177.73 283.6 198.19 263.14 177.73" fill="#fdffff" stroke="#fff" stroke-miterlimit="10" stroke-width="0.1" opacity="0.98"/>
    <polygon points="201.59 218.78 181.12 218.78 181.12 198.31 201.59 218.78" fill="#fdffff" stroke="#fff" stroke-miterlimit="10" stroke-width="0.1" opacity="0.93"/>
    <polygon points="181.12 198.31 201.59 198.31 201.59 218.78 181.12 198.31" fill="#fdffff" stroke="#fff" stroke-miterlimit="10" stroke-width="0.1" opacity="0.98"/>
    <polygon points="181.12 218.78 160.66 218.78 160.66 198.31 181.12 218.78" fill="#fdffff" stroke="#fff" stroke-miterlimit="10" stroke-width="0.1" opacity="0.93"/>
    <polygon points="160.66 198.31 181.12 198.31 181.12 218.78 160.66 198.31" fill="#fdffff" stroke="#fff" stroke-miterlimit="10" stroke-width="0.1" opacity="0.98"/>
    <polygon points="304.07 218.78 283.6 218.78 283.6 198.31 304.07 218.78" fill="#fdffff" stroke="#fff" stroke-miterlimit="10" stroke-width="0.1" opacity="0.93"/>
    <polygon points="283.6 198.31 304.07 198.31 304.07 218.78 283.6 198.31" fill="#fdffff" stroke="#fff" stroke-miterlimit="10" stroke-width="0.1" opacity="0.98"/>
    <polygon points="222.21 218.78 201.74 218.78 201.74 198.31 222.21 218.78" fill="#fdffff" stroke="#fff" stroke-miterlimit="10" stroke-width="0.1" opacity="0.9"/>
    <polygon points="201.74 198.31 222.21 198.31 222.21 218.78 201.74 198.31" fill="#fdffff" stroke="#fff" stroke-miterlimit="10" stroke-width="0.1" opacity="0.98"/>
    <polygon points="242.67 218.78 222.21 218.78 222.21 198.31 242.67 218.78" fill="#fdffff" stroke="#fff" stroke-miterlimit="10" stroke-width="0.1" opacity="0.9"/>
    <polygon points="222.21 198.31 242.67 198.31 242.67 218.78 222.21 198.31" fill="#fdffff" stroke="#fff" stroke-miterlimit="10" stroke-width="0.1" opacity="0.98"/>
    <polygon points="263.14 218.78 242.67 218.78 242.67 198.31 263.14 218.78" fill="#fdffff" stroke="#fff" stroke-miterlimit="10" stroke-width="0.1" opacity="0.9"/>
    <polygon points="242.67 198.31 263.14 198.31 263.14 218.78 242.67 198.31" fill="#fdffff" stroke="#fff" stroke-miterlimit="10" stroke-width="0.1" opacity="0.98"/>
    <polygon points="283.6 218.78 263.14 218.78 263.14 198.31 283.6 218.78" fill="#fdffff" stroke="#fff" stroke-miterlimit="10" stroke-width="0.1" opacity="0.93"/>
    <polygon points="263.14 198.31 283.6 198.31 283.6 218.78 263.14 198.31" fill="#fdffff" stroke="#fff" stroke-miterlimit="10" stroke-width="0.1" opacity="0.98"/>
    <polygon points="181.12 218.9 201.59 218.9 201.59 239.36 181.12 218.9" fill="#fdffff" stroke="#fff" stroke-miterlimit="10" stroke-width="0.1" opacity="0.98"/>
    <polygon points="201.59 239.36 181.12 239.36 181.12 218.9 201.59 239.36" fill="#fdffff" stroke="#fff" stroke-miterlimit="10" stroke-width="0.1" opacity="0.9"/>
    <polygon points="181.12 239.36 160.66 239.36 160.66 218.9 181.12 239.36" fill="#fdffff" stroke="#fff" stroke-miterlimit="10" stroke-width="0.1" opacity="0.9"/>
    <polygon points="160.66 218.9 181.12 218.9 181.12 239.36 160.66 218.9" fill="#fdffff" stroke="#fff" stroke-miterlimit="10" stroke-width="0.1" opacity="0.98"/>
    <polygon points="304.07 239.36 283.6 239.36 283.6 218.9 304.07 239.36" fill="#fdffff" stroke="#fff" stroke-miterlimit="10" stroke-width="0.1" opacity="0.93"/>
    <polygon points="249.2 260.23 283.6 260.23 283.6 300.72 249.2 260.23" fill="#fdffff" stroke="#fff" stroke-miterlimit="10" stroke-width="0.1" opacity="0.83"/>
    <polygon points="283.6 218.9 304.07 218.9 304.07 239.36 283.6 218.9" fill="#fdffff" stroke="#fff" stroke-miterlimit="10" stroke-width="0.1" opacity="0.98"/>
    <polygon points="222.21 239.36 201.74 239.36 201.74 218.9 222.21 239.36" fill="#fdffff" stroke="#fff" stroke-miterlimit="10" stroke-width="0.1" opacity="0.9"/>
    <polygon points="201.74 218.9 222.21 218.9 222.21 239.36 201.74 218.9" fill="#fdffff" stroke="#fff" stroke-miterlimit="10" stroke-width="0.1" opacity="0.98"/>
    <polygon points="242.67 239.36 222.21 239.36 222.21 218.9 242.67 239.36" fill="#fdffff" stroke="#fff" stroke-miterlimit="10" stroke-width="0.1" opacity="0.9"/>
    <polygon points="222.21 218.9 242.67 218.9 242.67 239.36 222.21 218.9" fill="#fdffff" stroke="#fff" stroke-miterlimit="10" stroke-width="0.1" opacity="0.98"/>
    <polygon points="263.14 239.36 242.67 239.36 242.67 218.9 263.14 239.36" fill="#fdffff" stroke="#fff" stroke-miterlimit="10" stroke-width="0.1" opacity="0.9"/>
    <polygon points="242.67 218.9 263.14 218.9 263.14 239.36 242.67 218.9" fill="#fdffff" stroke="#fff" stroke-miterlimit="10" stroke-width="0.1" opacity="0.98"/>
    <polygon points="283.6 239.36 263.14 239.36 263.14 218.9 283.6 239.36" fill="#fdffff" stroke="#fff" stroke-miterlimit="10" stroke-width="0.1" opacity="0.93"/>
    <polygon points="263.14 218.9 283.6 218.9 283.6 239.36 263.14 218.9" fill="#fdffff" stroke="#fff" stroke-miterlimit="10" stroke-width="0.1" opacity="0.98"/>
    <polygon points="181.12 239.56 181.12 260.03 201.59 260.03 181.12 239.56" fill="#fdffff" stroke="#fff" stroke-miterlimit="10" stroke-width="0.1" opacity="0.83"/>
    <polygon points="181.12 260.03 181.12 239.56 160.66 239.56 181.12 260.03" fill="#fdffff" stroke="#fff" stroke-miterlimit="10" stroke-width="0.1" opacity="0.83"/>
    <polygon points="201.59 260.03 201.59 239.56 181.12 239.56 201.59 260.03" fill="#fdffff" stroke="#fff" stroke-miterlimit="10" stroke-width="0.1" opacity="0.9"/>
    <polygon points="283.6 260.03 283.6 239.56 304.07 239.56 283.6 260.03" fill="#fdffff" stroke="#fff" stroke-miterlimit="10" stroke-width="0.1" opacity="0.9"/>
    <polygon points="201.74 239.56 201.74 260.03 222.21 260.03 201.74 239.56" fill="#fdffff" stroke="#fff" stroke-miterlimit="10" stroke-width="0.1" opacity="0.83"/>
    <polygon points="222.21 260.03 222.21 239.56 201.74 239.56 222.21 260.03" fill="#fdffff" stroke="#fff" stroke-miterlimit="10" stroke-width="0.1" opacity="0.9"/>
    <polygon points="222.21 239.56 222.21 260.03 242.67 260.03 222.21 239.56" fill="#fdffff" stroke="#fff" stroke-miterlimit="10" stroke-width="0.1" opacity="0.83"/>
    <polygon points="242.67 260.03 242.67 239.56 222.21 239.56 242.67 260.03" fill="#fdffff" stroke="#fff" stroke-miterlimit="10" stroke-width="0.1" opacity="0.9"/>
    <polygon points="242.67 239.56 242.67 260.03 263.14 260.03 242.67 239.56" fill="#fdffff" stroke="#fff" stroke-miterlimit="10" stroke-width="0.1" opacity="0.83"/>
    <polygon points="263.14 260.03 263.14 239.56 242.67 239.56 263.14 260.03" fill="#fdffff" stroke="#fff" stroke-miterlimit="10" stroke-width="0.1" opacity="0.9"/>
    <polygon points="263.14 239.56 263.14 260.03 283.6 260.03 263.14 239.56" fill="#fdffff" stroke="#fff" stroke-miterlimit="10" stroke-width="0.1" opacity="0.83"/>
    <polygon points="283.6 260.03 283.6 239.56 263.14 239.56 283.6 260.03" fill="#fdffff" stroke="#fff" stroke-miterlimit="10" stroke-width="0.1" opacity="0.9"/>
    <polygon points="420.03 209.88 440.5 209.88 440.5 189.42 420.03 209.88" fill="#fdffff" stroke="#fff" stroke-miterlimit="10" stroke-width="0.1" opacity="0.93"/>
    <polygon points="440.5 189.42 440.5 209.88 460.96 209.88 440.5 189.42" fill="#fdffff" stroke="#fff" stroke-miterlimit="10" stroke-width="0.1" opacity="0.9"/>
    <polygon points="440.5 189.42 420.03 189.42 420.03 209.88 440.5 189.42" fill="#fdffff" stroke="#fff" stroke-miterlimit="10" stroke-width="0.1" opacity="0.98"/>
    <polygon points="338.01 189.42 338.01 209.88 317.55 209.88 338.01 189.42" fill="#fdffff" stroke="#fff" stroke-miterlimit="10" stroke-width="0.1" opacity="0.98"/>
    <polygon points="399.41 209.88 419.88 209.88 419.88 189.42 399.41 209.88" fill="#fdffff" stroke="#fff" stroke-miterlimit="10" stroke-width="0.1" opacity="0.93"/>
    <polygon points="419.88 189.42 399.41 189.42 399.41 209.88 419.88 189.42" fill="#fdffff" stroke="#fff" stroke-miterlimit="10" stroke-width="0.1" opacity="0.98"/>
    <polygon points="378.94 209.88 399.41 209.88 399.41 189.42 378.94 209.88" fill="#fdffff" stroke="#fff" stroke-miterlimit="10" stroke-width="0.1" opacity="0.93"/>
    <polygon points="399.41 189.42 378.94 189.42 378.94 209.88 399.41 189.42" fill="#fdffff" stroke="#fff" stroke-miterlimit="10" stroke-width="0.1" opacity="0.98"/>
    <polygon points="358.48 209.88 378.94 209.88 378.94 189.42 358.48 209.88" fill="#fdffff" stroke="#fff" stroke-miterlimit="10" stroke-width="0.1" opacity="0.93"/>
    <polygon points="378.94 189.42 358.48 189.42 358.48 209.88 378.94 189.42" fill="#fdffff" stroke="#fff" stroke-miterlimit="10" stroke-width="0.1" opacity="0.98"/>
    <polygon points="338.01 209.88 358.48 209.88 358.48 189.42 338.01 209.88" fill="#fdffff" stroke="#fff" stroke-miterlimit="10" stroke-width="0.1" opacity="0.93"/>
    <polygon points="358.48 189.42 338.01 189.42 338.01 209.88 358.48 189.42" fill="#fdffff" stroke="#fff" stroke-miterlimit="10" stroke-width="0.1" opacity="0.98"/>
    <polygon points="420.03 230.47 440.5 230.47 440.5 210 420.03 230.47" fill="#fdffff" stroke="#fff" stroke-miterlimit="10" stroke-width="0.1" opacity="0.93"/>
    <polygon points="440.5 210 420.03 210 420.03 230.47 440.5 210" fill="#fdffff" stroke="#fff" stroke-miterlimit="10" stroke-width="0.1" opacity="0.98"/>
    <polygon points="440.5 230.47 460.96 230.47 460.96 210 440.5 230.47" fill="#fdffff" stroke="#fff" stroke-miterlimit="10" stroke-width="0.1" opacity="0.93"/>
    <polygon points="460.96 210 440.5 210 440.5 230.47 460.96 210" fill="#fdffff" stroke="#fff" stroke-miterlimit="10" stroke-width="0.1" opacity="0.98"/>
    <polygon points="317.55 230.47 338.01 230.47 338.01 210 317.55 230.47" fill="#fdffff" stroke="#fff" stroke-miterlimit="10" stroke-width="0.1" opacity="0.93"/>
    <polygon points="338.01 210 317.55 210 317.55 230.47 338.01 210" fill="#fdffff" stroke="#fff" stroke-miterlimit="10" stroke-width="0.1" opacity="0.98"/>
    <polygon points="399.41 230.47 419.88 230.47 419.88 210 399.41 230.47" fill="#fdffff" stroke="#fff" stroke-miterlimit="10" stroke-width="0.1" opacity="0.9"/>
    <polygon points="419.88 210 399.41 210 399.41 230.47 419.88 210" fill="#fdffff" stroke="#fff" stroke-miterlimit="10" stroke-width="0.1" opacity="0.98"/>
    <polygon points="378.94 230.47 399.41 230.47 399.41 210 378.94 230.47" fill="#fdffff" stroke="#fff" stroke-miterlimit="10" stroke-width="0.1" opacity="0.9"/>
    <polygon points="399.41 210 378.94 210 378.94 230.47 399.41 210" fill="#fdffff" stroke="#fff" stroke-miterlimit="10" stroke-width="0.1" opacity="0.98"/>
    <polygon points="358.48 230.47 378.94 230.47 378.94 210 358.48 230.47" fill="#fdffff" stroke="#fff" stroke-miterlimit="10" stroke-width="0.1" opacity="0.9"/>
    <polygon points="378.94 210 358.48 210 358.48 230.47 378.94 210" fill="#fdffff" stroke="#fff" stroke-miterlimit="10" stroke-width="0.1" opacity="0.98"/>
    <polygon points="338.01 230.47 358.48 230.47 358.48 210 338.01 230.47" fill="#fdffff" stroke="#fff" stroke-miterlimit="10" stroke-width="0.1" opacity="0.93"/>
    <polygon points="358.48 210 338.01 210 338.01 230.47 358.48 210" fill="#fdffff" stroke="#fff" stroke-miterlimit="10" stroke-width="0.1" opacity="0.98"/>
    <polygon points="420.03 251.05 440.5 251.05 440.5 230.59 420.03 251.05" fill="#fdffff" stroke="#fff" stroke-miterlimit="10" stroke-width="0.1" opacity="0.93"/>
    <polygon points="440.5 230.59 420.03 230.59 420.03 251.05 440.5 230.59" fill="#fdffff" stroke="#fff" stroke-miterlimit="10" stroke-width="0.1" opacity="0.98"/>
    <polygon points="440.5 251.05 460.96 251.05 460.96 230.59 440.5 251.05" fill="#fdffff" stroke="#fff" stroke-miterlimit="10" stroke-width="0.1" opacity="0.93"/>
    <polygon points="460.96 230.59 440.5 230.59 440.5 251.05 460.96 230.59" fill="#fdffff" stroke="#fff" stroke-miterlimit="10" stroke-width="0.1" opacity="0.98"/>
    <polygon points="317.55 251.05 338.01 251.05 338.01 230.59 317.55 251.05" fill="#fdffff" stroke="#fff" stroke-miterlimit="10" stroke-width="0.1" opacity="0.93"/>
    <polygon points="338.01 230.59 317.55 230.59 317.55 251.05 338.01 230.59" fill="#fdffff" stroke="#fff" stroke-miterlimit="10" stroke-width="0.1" opacity="0.98"/>
    <polygon points="399.41 251.05 419.88 251.05 419.88 230.59 399.41 251.05" fill="#fdffff" stroke="#fff" stroke-miterlimit="10" stroke-width="0.1" opacity="0.9"/>
    <polygon points="419.88 230.59 399.41 230.59 399.41 251.05 419.88 230.59" fill="#fdffff" stroke="#fff" stroke-miterlimit="10" stroke-width="0.1" opacity="0.98"/>
    <polygon points="378.94 251.05 399.41 251.05 399.41 230.59 378.94 251.05" fill="#fdffff" stroke="#fff" stroke-miterlimit="10" stroke-width="0.1" opacity="0.9"/>
    <polygon points="399.41 230.59 378.94 230.59 378.94 251.05 399.41 230.59" fill="#fdffff" stroke="#fff" stroke-miterlimit="10" stroke-width="0.1" opacity="0.98"/>
    <polygon points="358.48 251.05 378.94 251.05 378.94 230.59 358.48 251.05" fill="#fdffff" stroke="#fff" stroke-miterlimit="10" stroke-width="0.1" opacity="0.9"/>
    <polygon points="378.94 230.59 358.48 230.59 358.48 251.05 378.94 230.59" fill="#fdffff" stroke="#fff" stroke-miterlimit="10" stroke-width="0.1" opacity="0.98"/>
    <polygon points="338.01 251.05 358.48 251.05 358.48 230.59 338.01 251.05" fill="#fdffff" stroke="#fff" stroke-miterlimit="10" stroke-width="0.1" opacity="0.93"/>
    <polygon points="358.48 230.59 338.01 230.59 338.01 251.05 358.48 230.59" fill="#fdffff" stroke="#fff" stroke-miterlimit="10" stroke-width="0.1" opacity="0.98"/>
    <polygon points="440.5 251.17 420.03 251.17 420.03 271.64 440.5 251.17" fill="#fdffff" stroke="#fff" stroke-miterlimit="10" stroke-width="0.1" opacity="0.98"/>
    <polygon points="420.03 271.64 440.5 271.64 440.5 251.17 420.03 271.64" fill="#fdffff" stroke="#fff" stroke-miterlimit="10" stroke-width="0.1" opacity="0.9"/>
    <polygon points="440.5 271.64 460.96 271.64 460.96 251.17 440.5 271.64" fill="#fdffff" stroke="#fff" stroke-miterlimit="10" stroke-width="0.1" opacity="0.9"/>
    <polygon points="460.96 251.17 440.5 251.17 440.5 271.64 460.96 251.17" fill="#fdffff" stroke="#fff" stroke-miterlimit="10" stroke-width="0.1" opacity="0.98"/>
    <polygon points="317.55 271.64 338.01 271.64 338.01 251.17 317.55 271.64" fill="#fdffff" stroke="#fff" stroke-miterlimit="10" stroke-width="0.1" opacity="0.93"/>
    <polygon points="372.41 292.5 338.01 292.5 338.01 332.99 372.41 292.5" fill="#fdffff" stroke="#fff" stroke-miterlimit="10" stroke-width="0.1" opacity="0.83"/>
    <polygon points="338.01 251.17 317.55 251.17 317.55 271.64 338.01 251.17" fill="#fdffff" stroke="#fff" stroke-miterlimit="10" stroke-width="0.1" opacity="0.98"/>
    <polygon points="399.41 271.64 419.88 271.64 419.88 251.17 399.41 271.64" fill="#fdffff" stroke="#fff" stroke-miterlimit="10" stroke-width="0.1" opacity="0.9"/>
    <polygon points="419.88 251.17 399.41 251.17 399.41 271.64 419.88 251.17" fill="#fdffff" stroke="#fff" stroke-miterlimit="10" stroke-width="0.1" opacity="0.98"/>
    <polygon points="378.94 271.64 399.41 271.64 399.41 251.17 378.94 271.64" fill="#fdffff" stroke="#fff" stroke-miterlimit="10" stroke-width="0.1" opacity="0.9"/>
    <polygon points="399.41 251.17 378.94 251.17 378.94 271.64 399.41 251.17" fill="#fdffff" stroke="#fff" stroke-miterlimit="10" stroke-width="0.1" opacity="0.98"/>
    <polygon points="358.48 271.64 378.94 271.64 378.94 251.17 358.48 271.64" fill="#fdffff" stroke="#fff" stroke-miterlimit="10" stroke-width="0.1" opacity="0.9"/>
    <polygon points="378.94 251.17 358.48 251.17 358.48 271.64 378.94 251.17" fill="#fdffff" stroke="#fff" stroke-miterlimit="10" stroke-width="0.1" opacity="0.98"/>
    <polygon points="338.01 271.64 358.48 271.64 358.48 251.17 338.01 271.64" fill="#fdffff" stroke="#fff" stroke-miterlimit="10" stroke-width="0.1" opacity="0.93"/>
    <polygon points="358.48 251.17 338.01 251.17 338.01 271.64 358.48 251.17" fill="#fdffff" stroke="#fff" stroke-miterlimit="10" stroke-width="0.1" opacity="0.98"/>
    <polygon points="440.5 271.84 440.5 292.3 420.03 292.3 440.5 271.84" fill="#fdffff" stroke="#fff" stroke-miterlimit="10" stroke-width="0.1" opacity="0.83"/>
    <polygon points="440.5 292.3 440.5 271.84 460.96 271.84 440.5 292.3" fill="#fdffff" stroke="#fff" stroke-miterlimit="10" stroke-width="0.1" opacity="0.83"/>
    <polygon points="420.03 292.3 420.03 271.84 440.5 271.84 420.03 292.3" fill="#fdffff" stroke="#fff" stroke-miterlimit="10" stroke-width="0.1" opacity="0.9"/>
    <polygon points="338.01 292.3 338.01 271.84 317.55 271.84 338.01 292.3" fill="#fdffff" stroke="#fff" stroke-miterlimit="10" stroke-width="0.1" opacity="0.9"/>
    <polygon points="419.88 271.84 419.88 292.3 399.41 292.3 419.88 271.84" fill="#fdffff" stroke="#fff" stroke-miterlimit="10" stroke-width="0.1" opacity="0.83"/>
    <polygon points="399.41 292.3 399.41 271.84 419.88 271.84 399.41 292.3" fill="#fdffff" stroke="#fff" stroke-miterlimit="10" stroke-width="0.1" opacity="0.9"/>
    <polygon points="399.41 271.84 399.41 292.3 378.94 292.3 399.41 271.84" fill="#fdffff" stroke="#fff" stroke-miterlimit="10" stroke-width="0.1" opacity="0.83"/>
    <polygon points="378.94 292.3 378.94 271.84 399.41 271.84 378.94 292.3" fill="#fdffff" stroke="#fff" stroke-miterlimit="10" stroke-width="0.1" opacity="0.9"/>
    <polygon points="378.94 271.84 378.94 292.3 358.48 292.3 378.94 271.84" fill="#fdffff" stroke="#fff" stroke-miterlimit="10" stroke-width="0.1" opacity="0.83"/>
    <polygon points="358.48 292.3 358.48 271.84 378.94 271.84 358.48 292.3" fill="#fdffff" stroke="#fff" stroke-miterlimit="10" stroke-width="0.1" opacity="0.9"/>
    <polygon points="358.48 271.84 358.48 292.3 338.01 292.3 358.48 271.84" fill="#fdffff" stroke="#fff" stroke-miterlimit="10" stroke-width="0.1" opacity="0.83"/>
    <polygon points="338.01 292.3 338.01 271.84 358.48 271.84 338.01 292.3" fill="#fdffff" stroke="#fff" stroke-miterlimit="10" stroke-width="0.1" opacity="0.9"/>
    <polygon points="224.79 202.93 211.28 202.93 211.28 189.42 224.79 202.93" fill="#ffca4b" stroke="#fff" stroke-miterlimit="10" stroke-width="0.34" opacity="0.95"/>
    <polygon points="211.28 189.42 224.79 189.42 224.79 202.93 211.28 189.42" fill="#ffca4b" stroke="#fff" stroke-miterlimit="10" stroke-width="0.34" opacity="0.95"/>
    <polygon points="224.79 175.9 224.79 189.42 211.28 189.42 224.79 175.9" fill="#ffca4b" stroke="#fff" stroke-miterlimit="10" stroke-width="0.34" opacity="0.95"/>
    <polygon points="238.31 189.42 224.79 189.42 224.79 175.9 238.31 189.42" fill="#ffca4b" stroke="#fff" stroke-miterlimit="10" stroke-width="0.34" opacity="0.95"/>
    <polygon points="224.79 175.9 238.31 175.9 238.31 189.42 224.79 175.9" fill="#ffca4b" stroke="#fff" stroke-miterlimit="10" stroke-width="0.34" opacity="0.95"/>
    <polygon points="251.83 202.93 238.31 202.93 238.31 189.42 251.83 202.93" fill="#ffca4b" stroke="#fff" stroke-miterlimit="10" stroke-width="0.34" opacity="0.95"/>
    <polygon points="238.31 189.42 251.83 189.42 251.83 202.93 238.31 189.42" fill="#ffca4b" stroke="#fff" stroke-miterlimit="10" stroke-width="0.34" opacity="0.95"/>
    <polygon points="238.31 216.45 238.31 202.93 251.83 202.93 238.31 216.45" fill="#ffca4b" stroke="#fff" stroke-miterlimit="10" stroke-width="0.34" opacity="0.95"/>
    <polygon points="224.79 229.97 224.79 216.45 238.31 216.45 224.79 229.97" fill="#ffca4b" stroke="#fff" stroke-miterlimit="10" stroke-width="0.34" opacity="0.95"/>
    <polygon points="238.31 202.93 238.31 216.45 224.79 216.45 238.31 202.93" fill="#ffca4b" stroke="#fff" stroke-miterlimit="10" stroke-width="0.34" opacity="0.95"/>
    <polygon points="238.31 216.45 238.31 229.97 224.79 229.97 238.31 216.45" fill="#ffca4b" stroke="#fff" stroke-miterlimit="10" stroke-width="0.34" opacity="0.95"/>
    <polygon points="226.18 245.26 226.18 234.51 236.93 234.51 226.18 245.26" fill="#ffca4b" stroke="#fff" stroke-miterlimit="10" stroke-width="0.34" opacity="0.95"/>
    <polygon points="236.93 234.51 236.93 245.26 226.18 245.26 236.93 234.51" fill="#ffca4b" stroke="#fff" stroke-miterlimit="10" stroke-width="0.34" opacity="0.95"/>
    <polygon points="251.83 189.42 238.31 189.42 238.31 175.9 251.83 189.42" fill="#ffca4b" stroke="#fff" stroke-miterlimit="10" stroke-width="0.34" opacity="0.95"/>
    <polygon points="350.65 248.04 350.65 234.53 364.17 234.53 350.65 248.04" fill="#ffca4b" stroke="#fff" stroke-miterlimit="10" stroke-width="0.34" opacity="0.95"/>
    <polygon points="364.17 234.53 364.17 248.04 350.65 248.04 364.17 234.53" fill="#ffca4b" stroke="#fff" stroke-miterlimit="10" stroke-width="0.34" opacity="0.95"/>
    <polygon points="381.35 248.04 381.35 234.53 394.86 234.53 381.35 248.04" fill="#ffca4b" stroke="#fff" stroke-miterlimit="10" stroke-width="0.34" opacity="0.95"/>
    <polygon points="394.86 234.53 394.86 248.04 381.35 248.04 394.86 234.53" fill="#ffca4b" stroke="#fff" stroke-miterlimit="10" stroke-width="0.34" opacity="0.95"/>
    <polygon points="412.2 248.04 412.2 234.53 425.72 234.53 412.2 248.04" fill="#ffca4b" stroke="#fff" stroke-miterlimit="10" stroke-width="0.34" opacity="0.95"/>
    <polygon points="425.72 234.53 425.72 248.04 412.2 248.04 425.72 234.53" fill="#ffca4b" stroke="#fff" stroke-miterlimit="10" stroke-width="0.34" opacity="0.95"/>
  </g>
</svg>
