<?xml version="1.0" encoding="utf-8"?>
<!-- Generator: Adobe Illustrator 22.0.1, SVG Export Plug-In . SVG Version: 6.00 Build 0)  -->
<svg version="1.1" id="Layer_1" xmlns="http://www.w3.org/2000/svg" xmlns:xlink="http://www.w3.org/1999/xlink" x="0px" y="0px"
	 viewBox="0 0 641 481" style="enable-background:new 0 0 641 481;" xml:space="preserve">
<style type="text/css">
	.st0{fill:none;}
	.st1{fill:none;stroke:#000000;stroke-width:0.5;stroke-miterlimit:10;}
</style>
<title>chat</title>
<g id="Layer_2_1_">
	<rect x="0.5" y="0.5" class="st0" width="640" height="480"/>
</g>
<g id="Layer_3">
	<polygon class="st1" points="465.2,434.3 455.7,443.8 446.2,434.3 	"/>
	<polygon class="st1" points="512.3,396 507.6,400.7 502.9,396 	"/>
	<polygon class="st1" points="620.4,315.3 615.3,320.4 610.2,315.3 	"/>
	<polygon class="st1" points="162.1,316.2 157,321.3 151.9,316.2 	"/>
	<polygon class="st1" points="135.7,351.6 132.5,354.8 129.4,351.6 	"/>
	<polygon class="st1" points="495.1,298.5 487.2,306.4 479.2,298.5 	"/>
	<polygon class="st1" points="184.6,337.9 176.6,345.9 168.7,337.9 	"/>
	<polygon class="st1" points="552.7,271.6 540.1,284.2 527.5,271.6 	"/>
	<polygon class="st1" points="591.8,232.5 586.7,237.6 581.6,232.5 	"/>
	<polygon class="st1" points="105.5,123.2 97.5,131.1 89.6,123.2 	"/>
	<polygon class="st1" points="102.2,219.3 89.6,231.9 77,219.3 	"/>
	<polygon class="st1" points="556.3,168 550.2,174.1 544.2,168 	"/>
	<polygon class="st1" points="312,84.7 306,90.7 300,84.7 	"/>
	<polygon class="st1" points="479.8,99.8 474.7,105 469.6,99.8 	"/>
	<polygon class="st1" points="247.6,64.9 238.1,74.4 228.6,64.9 	"/>
	<polygon class="st1" points="217.8,41.4 204.4,54.9 190.9,41.4 	"/>
	<polygon class="st1" points="201.6,177.6 181.1,177.6 181.1,157.1 	"/>
	<polygon class="st1" points="181.1,157.1 181.1,177.6 160.7,177.6 	"/>
	<polygon class="st1" points="181.1,157.1 201.6,157.1 201.6,177.6 	"/>
	<polygon class="st1" points="283.6,157.1 283.6,177.6 304.1,177.6 	"/>
	<polygon class="st1" points="222.2,177.6 201.7,177.6 201.7,157.1 	"/>
	<polygon class="st1" points="201.7,157.1 222.2,157.1 222.2,177.6 	"/>
	<polygon class="st1" points="242.7,177.6 222.2,177.6 222.2,157.1 	"/>
	<polygon class="st1" points="222.2,157.1 242.7,157.1 242.7,177.6 	"/>
	<polygon class="st1" points="263.1,177.6 242.7,177.6 242.7,157.1 	"/>
	<polygon class="st1" points="242.7,157.1 263.1,157.1 263.1,177.6 	"/>
	<polygon class="st1" points="283.6,177.6 263.1,177.6 263.1,157.1 	"/>
	<polygon class="st1" points="263.1,157.1 283.6,157.1 283.6,177.6 	"/>
	<polygon class="st1" points="201.6,198.2 181.1,198.2 181.1,177.7 	"/>
	<polygon class="st1" points="181.1,177.7 201.6,177.7 201.6,198.2 	"/>
	<polygon class="st1" points="181.1,198.2 160.7,198.2 160.7,177.7 	"/>
	<polygon class="st1" points="160.7,177.7 181.1,177.7 181.1,198.2 	"/>
	<polygon class="st1" points="304.1,198.2 283.6,198.2 283.6,177.7 	"/>
	<polygon class="st1" points="283.6,177.7 304.1,177.7 304.1,198.2 	"/>
	<polygon class="st1" points="222.2,198.2 201.7,198.2 201.7,177.7 	"/>
	<polygon class="st1" points="201.7,177.7 222.2,177.7 222.2,198.2 	"/>
	<polygon class="st1" points="242.7,198.2 222.2,198.2 222.2,177.7 	"/>
	<polygon class="st1" points="222.2,177.7 242.7,177.7 242.7,198.2 	"/>
	<polygon class="st1" points="263.1,198.2 242.7,198.2 242.7,177.7 	"/>
	<polygon class="st1" points="242.7,177.7 263.1,177.7 263.1,198.2 	"/>
	<polygon class="st1" points="283.6,198.2 263.1,198.2 263.1,177.7 	"/>
	<polygon class="st1" points="263.1,177.7 283.6,177.7 283.6,198.2 	"/>
	<polygon class="st1" points="201.6,218.8 181.1,218.8 181.1,198.3 	"/>
	<polygon class="st1" points="181.1,198.3 201.6,198.3 201.6,218.8 	"/>
	<polygon class="st1" points="181.1,218.8 160.7,218.8 160.7,198.3 	"/>
	<polygon class="st1" points="160.7,198.3 181.1,198.3 181.1,218.8 	"/>
	<polygon class="st1" points="304.1,218.8 283.6,218.8 283.6,198.3 	"/>
	<polygon class="st1" points="283.6,198.3 304.1,198.3 304.1,218.8 	"/>
	<polygon class="st1" points="222.2,218.8 201.7,218.8 201.7,198.3 	"/>
	<polygon class="st1" points="201.7,198.3 222.2,198.3 222.2,218.8 	"/>
	<polygon class="st1" points="242.7,218.8 222.2,218.8 222.2,198.3 	"/>
	<polygon class="st1" points="222.2,198.3 242.7,198.3 242.7,218.8 	"/>
	<polygon class="st1" points="263.1,218.8 242.7,218.8 242.7,198.3 	"/>
	<polygon class="st1" points="242.7,198.3 263.1,198.3 263.1,218.8 	"/>
	<polygon class="st1" points="283.6,218.8 263.1,218.8 263.1,198.3 	"/>
	<polygon class="st1" points="263.1,198.3 283.6,198.3 283.6,218.8 	"/>
	<polygon class="st1" points="181.1,218.9 201.6,218.9 201.6,239.4 	"/>
	<polygon class="st1" points="201.6,239.4 181.1,239.4 181.1,218.9 	"/>
	<polygon class="st1" points="181.1,239.4 160.7,239.4 160.7,218.9 	"/>
	<polygon class="st1" points="160.7,218.9 181.1,218.9 181.1,239.4 	"/>
	<polygon class="st1" points="304.1,239.4 283.6,239.4 283.6,218.9 	"/>
	<polygon class="st1" points="249.2,260.2 283.6,260.2 283.6,300.7 	"/>
	<polygon class="st1" points="283.6,218.9 304.1,218.9 304.1,239.4 	"/>
	<polygon class="st1" points="222.2,239.4 201.7,239.4 201.7,218.9 	"/>
	<polygon class="st1" points="201.7,218.9 222.2,218.9 222.2,239.4 	"/>
	<polygon class="st1" points="242.7,239.4 222.2,239.4 222.2,218.9 	"/>
	<polygon class="st1" points="222.2,218.9 242.7,218.9 242.7,239.4 	"/>
	<polygon class="st1" points="263.1,239.4 242.7,239.4 242.7,218.9 	"/>
	<polygon class="st1" points="242.7,218.9 263.1,218.9 263.1,239.4 	"/>
	<polygon class="st1" points="283.6,239.4 263.1,239.4 263.1,218.9 	"/>
	<polygon class="st1" points="263.1,218.9 283.6,218.9 283.6,239.4 	"/>
	<polygon class="st1" points="181.1,239.6 181.1,260 201.6,260 	"/>
	<polygon class="st1" points="181.1,260 181.1,239.6 160.7,239.6 	"/>
	<polygon class="st1" points="201.6,260 201.6,239.6 181.1,239.6 	"/>
	<polygon class="st1" points="283.6,260 283.6,239.6 304.1,239.6 	"/>
	<polygon class="st1" points="201.7,239.6 201.7,260 222.2,260 	"/>
	<polygon class="st1" points="222.2,260 222.2,239.6 201.7,239.6 	"/>
	<polygon class="st1" points="222.2,239.6 222.2,260 242.7,260 	"/>
	<polygon class="st1" points="242.7,260 242.7,239.6 222.2,239.6 	"/>
	<polygon class="st1" points="242.7,239.6 242.7,260 263.1,260 	"/>
	<polygon class="st1" points="263.1,260 263.1,239.6 242.7,239.6 	"/>
	<polygon class="st1" points="263.1,239.6 263.1,260 283.6,260 	"/>
	<polygon class="st1" points="283.6,260 283.6,239.6 263.1,239.6 	"/>
	<polygon class="st1" points="420,209.9 440.5,209.9 440.5,189.4 	"/>
	<polygon class="st1" points="440.5,189.4 440.5,209.9 461,209.9 	"/>
	<polygon class="st1" points="440.5,189.4 420,189.4 420,209.9 	"/>
	<polygon class="st1" points="338,189.4 338,209.9 317.5,209.9 	"/>
	<polygon class="st1" points="399.4,209.9 419.9,209.9 419.9,189.4 	"/>
	<polygon class="st1" points="419.9,189.4 399.4,189.4 399.4,209.9 	"/>
	<polygon class="st1" points="378.9,209.9 399.4,209.9 399.4,189.4 	"/>
	<polygon class="st1" points="399.4,189.4 378.9,189.4 378.9,209.9 	"/>
	<polygon class="st1" points="358.5,209.9 378.9,209.9 378.9,189.4 	"/>
	<polygon class="st1" points="378.9,189.4 358.5,189.4 358.5,209.9 	"/>
	<polygon class="st1" points="338,209.9 358.5,209.9 358.5,189.4 	"/>
	<polygon class="st1" points="358.5,189.4 338,189.4 338,209.9 	"/>
	<polygon class="st1" points="420,230.5 440.5,230.5 440.5,210 	"/>
	<polygon class="st1" points="440.5,210 420,210 420,230.5 	"/>
	<polygon class="st1" points="440.5,230.5 461,230.5 461,210 	"/>
	<polygon class="st1" points="461,210 440.5,210 440.5,230.5 	"/>
	<polygon class="st1" points="317.5,230.5 338,230.5 338,210 	"/>
	<polygon class="st1" points="338,210 317.5,210 317.5,230.5 	"/>
	<polygon class="st1" points="399.4,230.5 419.9,230.5 419.9,210 	"/>
	<polygon class="st1" points="419.9,210 399.4,210 399.4,230.5 	"/>
	<polygon class="st1" points="378.9,230.5 399.4,230.5 399.4,210 	"/>
	<polygon class="st1" points="399.4,210 378.9,210 378.9,230.5 	"/>
	<polygon class="st1" points="358.5,230.5 378.9,230.5 378.9,210 	"/>
	<polygon class="st1" points="378.9,210 358.5,210 358.5,230.5 	"/>
	<polygon class="st1" points="338,230.5 358.5,230.5 358.5,210 	"/>
	<polygon class="st1" points="358.5,210 338,210 338,230.5 	"/>
	<polygon class="st1" points="420,251 440.5,251 440.5,230.6 	"/>
	<polygon class="st1" points="440.5,230.6 420,230.6 420,251 	"/>
	<polygon class="st1" points="440.5,251 461,251 461,230.6 	"/>
	<polygon class="st1" points="461,230.6 440.5,230.6 440.5,251 	"/>
	<polygon class="st1" points="317.5,251 338,251 338,230.6 	"/>
	<polygon class="st1" points="338,230.6 317.5,230.6 317.5,251 	"/>
	<polygon class="st1" points="399.4,251 419.9,251 419.9,230.6 	"/>
	<polygon class="st1" points="419.9,230.6 399.4,230.6 399.4,251 	"/>
	<polygon class="st1" points="378.9,251 399.4,251 399.4,230.6 	"/>
	<polygon class="st1" points="399.4,230.6 378.9,230.6 378.9,251 	"/>
	<polygon class="st1" points="358.5,251 378.9,251 378.9,230.6 	"/>
	<polygon class="st1" points="378.9,230.6 358.5,230.6 358.5,251 	"/>
	<polygon class="st1" points="338,251 358.5,251 358.5,230.6 	"/>
	<polygon class="st1" points="358.5,230.6 338,230.6 338,251 	"/>
	<polygon class="st1" points="440.5,251.2 420,251.2 420,271.6 	"/>
	<polygon class="st1" points="420,271.6 440.5,271.6 440.5,251.2 	"/>
	<polygon class="st1" points="440.5,271.6 461,271.6 461,251.2 	"/>
	<polygon class="st1" points="461,251.2 440.5,251.2 440.5,271.6 	"/>
	<polygon class="st1" points="317.5,271.6 338,271.6 338,251.2 	"/>
	<polygon class="st1" points="372.4,292.5 338,292.5 338,333 	"/>
	<polygon class="st1" points="338,251.2 317.5,251.2 317.5,271.6 	"/>
	<polygon class="st1" points="399.4,271.6 419.9,271.6 419.9,251.2 	"/>
	<polygon class="st1" points="419.9,251.2 399.4,251.2 399.4,271.6 	"/>
	<polygon class="st1" points="378.9,271.6 399.4,271.6 399.4,251.2 	"/>
	<polygon class="st1" points="399.4,251.2 378.9,251.2 378.9,271.6 	"/>
	<polygon class="st1" points="358.5,271.6 378.9,271.6 378.9,251.2 	"/>
	<polygon class="st1" points="378.9,251.2 358.5,251.2 358.5,271.6 	"/>
	<polygon class="st1" points="338,271.6 358.5,271.6 358.5,251.2 	"/>
	<polygon class="st1" points="358.5,251.2 338,251.2 338,271.6 	"/>
	<polygon class="st1" points="440.5,271.8 440.5,292.3 420,292.3 	"/>
	<polygon class="st1" points="440.5,292.3 440.5,271.8 461,271.8 	"/>
	<polygon class="st1" points="420,292.3 420,271.8 440.5,271.8 	"/>
	<polygon class="st1" points="338,292.3 338,271.8 317.5,271.8 	"/>
	<polygon class="st1" points="419.9,271.8 419.9,292.3 399.4,292.3 	"/>
	<polygon class="st1" points="399.4,292.3 399.4,271.8 419.9,271.8 	"/>
	<polygon class="st1" points="399.4,271.8 399.4,292.3 378.9,292.3 	"/>
	<polygon class="st1" points="378.9,292.3 378.9,271.8 399.4,271.8 	"/>
	<polygon class="st1" points="378.9,271.8 378.9,292.3 358.5,292.3 	"/>
	<polygon class="st1" points="358.5,292.3 358.5,271.8 378.9,271.8 	"/>
	<polygon class="st1" points="358.5,271.8 358.5,292.3 338,292.3 	"/>
	<polygon class="st1" points="338,292.3 338,271.8 358.5,271.8 	"/>
	<polygon class="st1" points="224.8,202.9 211.3,202.9 211.3,189.4 	"/>
	<polygon class="st1" points="211.3,189.4 224.8,189.4 224.8,202.9 	"/>
	<polygon class="st1" points="224.8,175.9 224.8,189.4 211.3,189.4 	"/>
	<polygon class="st1" points="238.3,189.4 224.8,189.4 224.8,175.9 	"/>
	<polygon class="st1" points="224.8,175.9 238.3,175.9 238.3,189.4 	"/>
	<polygon class="st1" points="251.8,202.9 238.3,202.9 238.3,189.4 	"/>
	<polygon class="st1" points="238.3,189.4 251.8,189.4 251.8,202.9 	"/>
	<polygon class="st1" points="238.3,216.4 238.3,202.9 251.8,202.9 	"/>
	<polygon class="st1" points="224.8,230 224.8,216.4 238.3,216.4 	"/>
	<polygon class="st1" points="238.3,202.9 238.3,216.4 224.8,216.4 	"/>
	<polygon class="st1" points="238.3,216.4 238.3,230 224.8,230 	"/>
	<polygon class="st1" points="226.2,245.3 226.2,234.5 236.9,234.5 	"/>
	<polygon class="st1" points="236.9,234.5 236.9,245.3 226.2,245.3 	"/>
	<polygon class="st1" points="251.8,189.4 238.3,189.4 238.3,175.9 	"/>
	<polygon class="st1" points="350.6,248 350.6,234.5 364.2,234.5 	"/>
	<polygon class="st1" points="364.2,234.5 364.2,248 350.6,248 	"/>
	<polygon class="st1" points="381.4,248 381.4,234.5 394.9,234.5 	"/>
	<polygon class="st1" points="394.9,234.5 394.9,248 381.4,248 	"/>
	<polygon class="st1" points="412.2,248 412.2,234.5 425.7,234.5 	"/>
	<polygon class="st1" points="425.7,234.5 425.7,248 412.2,248 	"/>
</g>
</svg>
