<svg xmlns="http://www.w3.org/2000/svg" width="641" height="481" viewBox="0 0 641 481">
  <title>design</title>
  <g id="Layer_2" data-name="Layer 2">
    <rect x="0.5" y="0.5" width="640" height="480" fill="#fff" stroke="#000" stroke-miterlimit="10"/>
  </g>
  <g id="Layer_3" data-name="Layer 3">
    <polygon points="178.01 140.05 178.01 167.15 150.91 167.15 178.01 140.05" fill="#ff8d68" stroke="#fff" stroke-miterlimit="10" stroke-width="0.3" opacity="0.85"/>
    <polygon points="232.22 167.15 205.12 167.15 205.12 140.05 232.22 167.15" fill="#ff8d68" stroke="#fff" stroke-miterlimit="10" stroke-width="0.3" opacity="0.95"/>
    <polygon points="259.33 194.26 232.23 194.26 232.23 167.16 259.33 194.26" fill="#ff8d68" stroke="#fff" stroke-miterlimit="10" stroke-width="0.3" opacity="0.95"/>
    <polygon points="178.01 167.15 178.01 140.05 205.12 140.05 178.01 167.15" fill="#ff8d68" stroke="#fff" stroke-miterlimit="10" stroke-width="0.3" opacity="0.85"/>
    <polygon points="205.1 140.05 205.1 167.15 178 167.15 205.1 140.05" fill="#ff8d68" stroke="#fff" stroke-miterlimit="10" stroke-width="0.3" opacity="0.85"/>
    <polygon points="178.01 136.77 178.01 123.21 191.57 123.21 178.01 136.77" fill="#ff8d68" stroke="#fff" stroke-miterlimit="10" stroke-width="0.3" opacity="0.85"/>
    <polygon points="191.56 123.21 191.56 136.77 178 136.77 191.56 123.21" fill="#ff8d68" stroke="#fff" stroke-miterlimit="10" stroke-width="0.3" opacity="0.85"/>
    <polygon points="191.57 136.77 191.57 123.21 205.13 123.21 191.57 136.77" fill="#ff8d68" stroke="#fff" stroke-miterlimit="10" stroke-width="0.3" opacity="0.95"/>
    <polygon points="205.13 123.21 205.13 136.77 191.57 136.77 205.13 123.21" fill="#ff8d68" stroke="#fff" stroke-miterlimit="10" stroke-width="0.3" opacity="0.95"/>
    <polygon points="184.77 116.44 184.77 123.21 178 123.21 184.77 116.44" fill="#ff8d68" stroke="#fff" stroke-miterlimit="10" stroke-width="0.3" opacity="0.85"/>
    <polygon points="184.78 123.21 184.78 116.44 191.55 116.44 184.78 123.21" fill="#ff8d68" stroke="#fff" stroke-miterlimit="10" stroke-width="0.3" opacity="0.85"/>
    <polygon points="191.55 116.44 191.55 123.21 184.78 123.21 191.55 116.44" fill="#ff8d68" stroke="#fff" stroke-miterlimit="10" stroke-width="0.3" opacity="0.85"/>
    <polygon points="198.35 116.44 198.35 123.21 205.12 123.21 198.35 116.44" fill="#ff8d68" stroke="#fff" stroke-miterlimit="10" stroke-width="0.3" opacity="0.95"/>
    <polygon points="198.34 123.21 198.34 116.44 191.57 116.44 198.34 123.21" fill="#ff8d68" stroke="#fff" stroke-miterlimit="10" stroke-width="0.3" opacity="0.95"/>
    <polygon points="191.57 116.44 191.57 123.21 198.34 123.21 191.57 116.44" fill="#ff8d68" stroke="#fff" stroke-miterlimit="10" stroke-width="0.3" opacity="0.95"/>
    <polygon points="150.91 366.13 171.19 366.13 171.19 386.42 150.91 366.13" fill="#fff" stroke="#fff" stroke-miterlimit="10" stroke-width="0.3" opacity="0.1"/>
    <polygon points="211.75 386.42 211.75 366.13 232.03 366.13 211.75 386.42" fill="#fff" stroke="#fff" stroke-miterlimit="10" stroke-width="0.3" opacity="0.1"/>
    <polygon points="150.91 167.15 150.91 194.26 123.8 194.26 150.91 167.15" fill="#ff8d68" stroke="#fff" stroke-miterlimit="10" stroke-width="0.3" opacity="0.85"/>
    <polygon points="150.91 194.26 150.91 167.15 178.01 167.15 150.91 194.26" fill="#ff8d68" stroke="#fff" stroke-miterlimit="10" stroke-width="0.3" opacity="0.85"/>
    <polygon points="178 167.15 178 194.26 150.89 194.26 178 167.15" fill="#ff8d68" stroke="#fff" stroke-miterlimit="10" stroke-width="0.3" opacity="0.85"/>
    <polygon points="178.02 194.26 178.02 167.15 205.13 167.15 178.02 194.26" fill="#ff8d68" stroke="#fff" stroke-miterlimit="10" stroke-width="0.3" opacity="0.85"/>
    <polygon points="205.11 167.15 205.11 194.26 178.01 194.26 205.11 167.15" fill="#ff8d68" stroke="#fff" stroke-miterlimit="10" stroke-width="0.3" opacity="0.85"/>
    <polygon points="205.13 194.26 205.13 167.15 232.23 167.15 205.13 194.26" fill="#ff8d68" stroke="#fff" stroke-miterlimit="10" stroke-width="0.3" opacity="0.85"/>
    <polygon points="232.22 167.15 232.22 194.26 205.11 194.26 232.22 167.15" fill="#ff8d68" stroke="#fff" stroke-miterlimit="10" stroke-width="0.3" opacity="0.95"/>
    <polygon points="123.79 232.11 123.79 205.01 150.9 205.01 123.79 232.11" fill="#ff8d68" stroke="#fff" stroke-miterlimit="10" stroke-width="0.3" opacity="0.95"/>
    <polygon points="150.88 205.01 150.88 232.11 123.78 232.11 150.88 205.01" fill="#ff8d68" stroke="#fff" stroke-miterlimit="10" stroke-width="0.3" opacity="0.95"/>
    <polygon points="150.91 366.13 150.91 345.81 171.23 345.81 150.91 366.13" fill="#fff" stroke="#fff" stroke-miterlimit="10" stroke-width="0.3" opacity="0.21"/>
    <polygon points="171.22 345.81 171.22 366.13 150.9 366.13 171.22 345.81" fill="#fff" stroke="#fff" stroke-miterlimit="10" stroke-width="0.3" opacity="0.21"/>
    <polygon points="171.18 345.81 191.5 345.81 191.5 366.14 171.18 345.81" fill="#fff" stroke="#fff" stroke-miterlimit="10" stroke-width="0.3" opacity="0.21"/>
    <polygon points="191.5 366.13 171.18 366.13 171.18 345.81 191.5 366.13" fill="#fff" stroke="#fff" stroke-miterlimit="10" stroke-width="0.3" opacity="0.21"/>
    <polygon points="191.48 366.13 191.48 345.81 211.8 345.81 191.48 366.13" fill="#fff" stroke="#fff" stroke-miterlimit="10" stroke-width="0.3" opacity="0.21"/>
    <polygon points="211.79 345.81 211.79 366.13 191.47 366.13 211.79 345.81" fill="#fff" stroke="#fff" stroke-miterlimit="10" stroke-width="0.3" opacity="0.21"/>
    <polygon points="211.75 345.81 232.07 345.81 232.07 366.14 211.75 345.81" fill="#fff" stroke="#fff" stroke-miterlimit="10" stroke-width="0.3" opacity="0.21"/>
    <polygon points="232.07 366.13 211.75 366.13 211.75 345.81 232.07 366.13" fill="#fff" stroke="#fff" stroke-miterlimit="10" stroke-width="0.3" opacity="0.21"/>
    <polygon points="123.83 340.52 123.83 232.11 232.24 232.11 123.83 340.52" fill="#ff8d68" stroke="#fff" stroke-miterlimit="10" stroke-width="0.3" opacity="0.84"/>
    <polygon points="232.18 232.11 232.18 340.52 123.78 340.52 232.18 232.11" fill="#ff8d68" stroke="#fff" stroke-miterlimit="10" stroke-width="0.3" opacity="0.84"/>
    <polygon points="308.7 340.54 263.46 340.54 263.46 295.29 308.7 340.54" fill="#fff" stroke="#fff" stroke-miterlimit="10" stroke-width="0.3" opacity="0.32"/>
    <polygon points="277.25 340.54 308.7 340.54 308.7 371.99 277.25 340.54" fill="#fff" stroke="#fff" stroke-miterlimit="10" stroke-width="0.3" opacity="0.21"/>
    <polygon points="286.46 349.75 308.7 371.99 286.46 394.23 286.46 349.75" fill="#fff" stroke="#fff" stroke-miterlimit="10" stroke-width="0.3" opacity="0.1"/>
    <polygon points="74.41 340.54 119.66 340.54 119.66 295.29 74.41 340.54" fill="#ff8d68" stroke="#fff" stroke-miterlimit="10" stroke-width="0.3" opacity="0.8"/>
    <polygon points="105.86 340.54 74.41 340.54 74.41 371.99 105.86 340.54" fill="#ff8d68" stroke="#fff" stroke-miterlimit="10" stroke-width="0.3" opacity="0.85"/>
    <polygon points="96.65 349.75 74.41 371.99 96.65 394.23 96.65 349.75" fill="#ff8d68" stroke="#fff" stroke-miterlimit="10" stroke-width="0.3" opacity="0.95"/>
    <polygon points="150.9 232.11 150.9 205.01 178.01 205.01 150.9 232.11" fill="#ff8d68" stroke="#fff" stroke-miterlimit="10" stroke-width="0.3" opacity="0.95"/>
    <polygon points="178 205.01 178 232.11 150.89 232.11 178 205.01" fill="#ff8d68" stroke="#fff" stroke-miterlimit="10" stroke-width="0.3" opacity="0.95"/>
    <polygon points="147.27 316.77 147.27 289.67 174.38 289.67 147.27 316.77" fill="#ff8d68" stroke="#fff" stroke-miterlimit="10" stroke-width="0.3" opacity="0.84"/>
    <polygon points="174.36 289.67 174.36 316.77 147.26 316.77 174.36 289.67" fill="#ff8d68" stroke="#fff" stroke-miterlimit="10" stroke-width="0.3" opacity="0.32"/>
    <polygon points="178.01 232.11 178.01 205.01 205.12 205.01 178.01 232.11" fill="#ff8d68" stroke="#fff" stroke-miterlimit="10" stroke-width="0.3" opacity="0.95"/>
    <polygon points="205.1 205.01 205.1 232.11 178 232.11 205.1 205.01" fill="#ff8d68" stroke="#fff" stroke-miterlimit="10" stroke-width="0.3" opacity="0.95"/>
    <polygon points="205.13 232.11 205.13 205.01 232.24 205.01 205.13 232.11" fill="#ff8d68" stroke="#fff" stroke-miterlimit="10" stroke-width="0.3" opacity="0.95"/>
    <polygon points="232.22 205.01 232.22 232.11 205.12 232.11 232.22 205.01" fill="#ff8d68" stroke="#fff" stroke-miterlimit="10" stroke-width="0.3" opacity="0.95"/>
    <polygon points="232.24 232.11 232.24 205.01 259.34 205.01 232.24 232.11" fill="#ff8d68" stroke="#fff" stroke-miterlimit="10" stroke-width="0.3" opacity="0.95"/>
    <polygon points="259.33 205.01 259.33 232.11 232.22 232.11 259.33 205.01" fill="#ff8d68" stroke="#fff" stroke-miterlimit="10" stroke-width="0.3" opacity="0.95"/>
    <polygon points="259.33 232.11 245.78 245.67 232.22 232.11 259.33 232.11" fill="#ff8d68" stroke="#fff" stroke-miterlimit="10" stroke-width="0.3" opacity="0.95"/>
    <polygon points="232.22 232.11 245.78 245.67 232.22 259.22 232.22 232.11" fill="#ff8d68" stroke="#fff" stroke-miterlimit="10" stroke-width="0.3" opacity="0.95"/>
    <polygon points="232.22 259.22 245.78 245.67 259.33 259.22 232.22 259.22" fill="#ff8d68" stroke="#fff" stroke-miterlimit="10" stroke-width="0.3" opacity="0.95"/>
    <polygon points="259.33 259.22 245.78 245.67 259.33 232.11 259.33 259.22" fill="#ff8d68" stroke="#fff" stroke-miterlimit="10" stroke-width="0.3" opacity="0.95"/>
    <polygon points="259.33 259.22 245.78 272.77 232.22 259.22 259.33 259.22" fill="#ff8d68" stroke="#fff" stroke-miterlimit="10" stroke-width="0.3" opacity="0.95"/>
    <polygon points="232.22 259.22 245.78 272.77 232.22 286.32 232.22 259.22" fill="#ff8d68" stroke="#fff" stroke-miterlimit="10" stroke-width="0.3" opacity="0.95"/>
    <polygon points="232.22 286.32 245.78 272.77 259.33 286.32 232.22 286.32" fill="#ff8d68" stroke="#fff" stroke-miterlimit="10" stroke-width="0.3" opacity="0.95"/>
    <polygon points="259.33 286.32 245.78 272.77 259.33 259.22 259.33 286.32" fill="#ff8d68" stroke="#fff" stroke-miterlimit="10" stroke-width="0.3" opacity="0.95"/>
    <polygon points="259.33 286.32 245.78 299.88 232.22 286.32 259.33 286.32" fill="#fff" stroke="#fff" stroke-miterlimit="10" stroke-width="0.3" opacity="0.32"/>
    <polygon points="232.22 286.32 245.78 299.88 232.22 313.43 232.22 286.32" fill="#fff" stroke="#fff" stroke-miterlimit="10" stroke-width="0.3" opacity="0.32"/>
    <polygon points="232.22 313.43 245.78 299.88 259.33 313.43 232.22 313.43" fill="#fff" stroke="#fff" stroke-miterlimit="10" stroke-width="0.3" opacity="0.32"/>
    <polygon points="259.33 313.43 245.78 299.88 259.33 286.32 259.33 313.43" fill="#fff" stroke="#fff" stroke-miterlimit="10" stroke-width="0.3" opacity="0.32"/>
    <polygon points="259.33 313.43 245.78 326.98 232.22 313.43 259.33 313.43" fill="#fff" stroke="#fff" stroke-miterlimit="10" stroke-width="0.3" opacity="0.32"/>
    <polygon points="232.22 313.43 245.78 326.98 232.22 340.54 232.22 313.43" fill="#fff" stroke="#fff" stroke-miterlimit="10" stroke-width="0.3" opacity="0.32"/>
    <polygon points="232.22 340.54 245.78 326.98 259.33 340.54 232.22 340.54" fill="#fff" stroke="#fff" stroke-miterlimit="10" stroke-width="0.3" opacity="0.32"/>
    <polygon points="259.33 340.54 245.78 326.98 259.33 313.43 259.33 340.54" fill="#fff" stroke="#fff" stroke-miterlimit="10" stroke-width="0.3" opacity="0.32"/>
    <polygon points="191.48 366.13 181.34 376.27 171.2 366.13 191.48 366.13" fill="#fff" stroke="#fff" stroke-miterlimit="10" stroke-width="0.3" opacity="0.1"/>
    <polygon points="171.2 366.13 181.34 376.27 171.2 386.42 171.2 366.13" fill="#fff" stroke="#fff" stroke-miterlimit="10" stroke-width="0.3" opacity="0.1"/>
    <polygon points="171.2 386.42 181.34 376.27 191.48 386.42 171.2 386.42" fill="#fff" stroke="#fff" stroke-miterlimit="10" stroke-width="0.3" opacity="0.1"/>
    <polygon points="191.48 386.42 181.34 376.27 191.48 366.13 191.48 386.42" fill="#fff" stroke="#fff" stroke-miterlimit="10" stroke-width="0.3" opacity="0.1"/>
    <polygon points="211.77 366.13 201.63 376.27 191.49 366.13 211.77 366.13" fill="#fff" stroke="#fff" stroke-miterlimit="10" stroke-width="0.3" opacity="0.1"/>
    <polygon points="191.49 366.13 201.63 376.27 191.49 386.42 191.49 366.13" fill="#fff" stroke="#fff" stroke-miterlimit="10" stroke-width="0.3" opacity="0.1"/>
    <polygon points="191.49 386.42 201.63 376.27 211.77 386.42 191.49 386.42" fill="#fff" stroke="#fff" stroke-miterlimit="10" stroke-width="0.3" opacity="0.1"/>
    <polygon points="211.77 386.42 201.63 376.27 211.77 366.13 211.77 386.42" fill="#fff" stroke="#fff" stroke-miterlimit="10" stroke-width="0.3" opacity="0.1"/>
    <polygon points="397.19 258.95 392.56 263.58 387.94 258.95 397.19 258.95" fill="#d6284c" opacity="0.55"/>
    <polygon points="61.21 409.8 53.78 417.23 46.36 409.8 61.21 409.8" fill="#d6284c" opacity="0.45"/>
    <polygon points="124.71 430.48 120.12 435.07 115.53 430.48 124.71 430.48" fill="#d6284c" opacity="0.45"/>
    <polygon points="341.01 240.87 333.81 248.06 326.62 240.87 341.01 240.87" fill="#d6284c" opacity="0.55"/>
    <polygon points="93.98 441.47 82.42 453.03 70.86 441.47 93.98 441.47" fill="#d6284c" opacity="0.45"/>
    <polygon points="369.67 266.15 358.25 277.57 346.82 266.15 369.67 266.15" fill="#d6284c" opacity="0.43"/>
    <polygon points="603.15 399.54 600.49 402.21 597.83 399.54 603.15 399.54" fill="#d6284c" opacity="0.55"/>
    <polygon points="570.81 389.13 566.67 393.28 562.52 389.13 570.81 389.13" fill="#d6284c" opacity="0.55"/>
    <polygon points="512.65 443.96 506.07 450.54 499.5 443.96 512.65 443.96" fill="#d6284c" opacity="0.43"/>
    <polygon points="293.67 27.97 287.07 34.57 280.46 27.97 293.67 27.97" fill="#d6284c" opacity="0.33"/>
    <polygon points="562.49 123.21 555.02 130.68 547.55 123.21 562.49 123.21" fill="#d6284c" opacity="0.45"/>
    <polygon points="323.34 96.38 312.98 106.74 302.61 96.38 323.34 96.38" fill="#d6284c" opacity="0.33"/>
    <polygon points="120.57 75.28 105.86 89.99 91.16 75.28 120.57 75.28" fill="#d6284c" opacity="0.45"/>
    <polygon points="406.69 388.36 410.42 388.93 409.84 392.66 406.69 388.36" fill="#262838" stroke="#fff" stroke-miterlimit="10" stroke-width="0.3" opacity="0.9"/>
    <polygon points="412.86 349.42 416.57 349.99 410.41 388.93 412.86 349.42" fill="#262838" stroke="#fff" stroke-miterlimit="10" stroke-width="0.3" opacity="0.9"/>
    <polygon points="410.41 388.93 406.7 388.36 412.86 349.42 410.41 388.93" fill="#262838" stroke="#fff" stroke-miterlimit="10" stroke-width="0.3" opacity="0.9"/>
    <polygon points="503.58 388.68 500.64 389.13 501.09 392.07 503.58 388.68" fill="#262838" stroke="#fff" stroke-miterlimit="10" stroke-width="0.3" opacity="0.9"/>
    <polygon points="498.25 353.96 495.31 354.42 500.64 389.13 498.25 353.96" fill="#262838" stroke="#fff" stroke-miterlimit="10" stroke-width="0.3" opacity="0.9"/>
    <polygon points="500.64 389.13 503.58 388.68 498.25 353.96 500.64 389.13" fill="#262838" stroke="#fff" stroke-miterlimit="10" stroke-width="0.3" opacity="0.9"/>
    <polygon points="487.01 330.15 476.69 322.55 484.3 312.23 487.01 330.15" fill="#262838" stroke="#fff" stroke-miterlimit="10" stroke-width="0.3" opacity="0.9"/>
    <polygon points="495.75 311.18 506.07 318.78 498.47 329.1 495.75 311.18" fill="#262838" stroke="#fff" stroke-miterlimit="10" stroke-width="0.3" opacity="0.9"/>
    <polygon points="432.95 194.16 444.22 195.9 445.97 184.63 432.95 194.16" fill="#262838" stroke="#fff" stroke-miterlimit="10" stroke-width="0.3" opacity="0.9"/>
    <polygon points="406.92 362.29 418.18 364.03 416.44 375.3 406.92 362.29" fill="#262838" stroke="#fff" stroke-miterlimit="10" stroke-width="0.3" opacity="0.9"/>
    <polygon points="432.97 194.16 444.21 195.9 418.17 364.03 432.97 194.16" fill="#262838" stroke="#fff" stroke-miterlimit="10" stroke-width="0.3" opacity="0.9"/>
    <polygon points="418.17 364.03 406.93 362.29 432.97 194.16 418.17 364.03" fill="#262838" stroke="#fff" stroke-miterlimit="10" stroke-width="0.3" opacity="0.9"/>
    <polygon points="477.56 194.16 466.29 195.9 464.55 184.63 477.56 194.16" fill="#262838" stroke="#fff" stroke-miterlimit="10" stroke-width="0.3" opacity="0.9"/>
    <polygon points="503.6 362.29 492.33 364.03 494.08 375.3 503.6 362.29" fill="#262838" stroke="#fff" stroke-miterlimit="10" stroke-width="0.3" opacity="0.9"/>
    <polygon points="477.55 194.16 466.31 195.9 492.34 364.03 477.55 194.16" fill="#262838" stroke="#fff" stroke-miterlimit="10" stroke-width="0.3" opacity="0.9"/>
    <polygon points="492.34 364.03 503.59 362.29 477.55 194.16 492.34 364.03" fill="#262838" stroke="#fff" stroke-miterlimit="10" stroke-width="0.3" opacity="0.9"/>
    <polygon points="463.41 114.86 463.41 128.16 450.11 128.16 463.41 114.86" fill="#262838" stroke="#fff" stroke-miterlimit="10" stroke-width="0.3" opacity="0.9"/>
    <polygon points="450.11 128.16 450.11 114.86 463.41 114.86 450.11 128.16" fill="#262838" stroke="#fff" stroke-miterlimit="10" stroke-width="0.3" opacity="0.9"/>
    <polygon points="459.02 128.16 459.02 132.69 454.49 132.69 459.02 128.16" fill="#262838" stroke="#fff" stroke-miterlimit="10" stroke-width="0.3" opacity="0.9"/>
    <polygon points="454.49 132.69 454.49 128.16 459.02 128.16 454.49 132.69" fill="#262838" stroke="#fff" stroke-miterlimit="10" stroke-width="0.3" opacity="0.9"/>
    <polygon points="463.41 101.56 463.41 114.86 450.11 114.86 463.41 101.56" fill="#262838" stroke="#fff" stroke-miterlimit="10" stroke-width="0.3" opacity="0.9"/>
    <polygon points="450.11 114.86 450.11 101.56 463.41 101.56 450.11 114.86" fill="#262838" stroke="#fff" stroke-miterlimit="10" stroke-width="0.3" opacity="0.9"/>
    <polygon points="461.22 186.09 461.22 194.49 452.81 194.49 461.22 186.09" fill="#262838" stroke="#fff" stroke-miterlimit="10" stroke-width="0.3" opacity="0.9"/>
    <polygon points="452.81 194.49 452.81 186.09 461.22 186.09 452.81 194.49" fill="#262838" stroke="#fff" stroke-miterlimit="10" stroke-width="0.3" opacity="0.9"/>
    <polygon points="439.39 134.32 439.39 143 430.72 143 439.39 134.32" fill="#262838" stroke="#fff" stroke-miterlimit="10" stroke-width="0.3" opacity="0.9"/>
    <polygon points="439.4 143 439.4 151.67 430.73 151.67 439.4 143" fill="#262838" stroke="#fff" stroke-miterlimit="10" stroke-width="0.3" opacity="0.9"/>
    <polygon points="430.73 151.67 430.73 143 439.4 143 430.73 151.67" fill="#262838" stroke="#fff" stroke-miterlimit="10" stroke-width="0.3" opacity="0.9"/>
    <polygon points="439.4 151.66 439.4 160.34 430.73 160.34 439.4 151.66" fill="#262838" stroke="#fff" stroke-miterlimit="10" stroke-width="0.3" opacity="0.9"/>
    <polygon points="430.73 160.34 430.73 151.66 439.4 151.66 430.73 160.34" fill="#262838" stroke="#fff" stroke-miterlimit="10" stroke-width="0.3" opacity="0.9"/>
    <polygon points="448.07 143.04 439.4 143.04 439.4 151.72 448.07 143.04" fill="#262838" stroke="#fff" stroke-miterlimit="10" stroke-width="0.3" opacity="0.9"/>
    <polygon points="448.07 143.05 448.07 134.38 439.4 134.38 448.07 143.05" fill="#262838" stroke="#fff" stroke-miterlimit="10" stroke-width="0.3" opacity="0.9"/>
    <polygon points="439.4 134.38 439.4 143.05 448.07 143.05 439.4 134.38" fill="#262838" stroke="#fff" stroke-miterlimit="10" stroke-width="0.3" opacity="0.9"/>
    <polygon points="456.75 143.05 456.75 134.38 448.07 134.38 456.75 143.05" fill="#262838" stroke="#fff" stroke-miterlimit="10" stroke-width="0.3" opacity="0.9"/>
    <polygon points="448.07 134.38 448.07 143.05 456.75 143.05 448.07 134.38" fill="#262838" stroke="#fff" stroke-miterlimit="10" stroke-width="0.3" opacity="0.9"/>
    <polygon points="430.73 177.68 439.4 177.68 439.4 186.35 430.73 177.68" fill="#262838" stroke="#fff" stroke-miterlimit="10" stroke-width="0.3" opacity="0.9"/>
    <polygon points="439.4 177.67 448.07 177.67 448.07 186.34 439.4 177.67" fill="#262838" stroke="#fff" stroke-miterlimit="10" stroke-width="0.3" opacity="0.9"/>
    <polygon points="448.07 186.34 439.4 186.34 439.4 177.67 448.07 186.34" fill="#262838" stroke="#fff" stroke-miterlimit="10" stroke-width="0.3" opacity="0.9"/>
    <polygon points="448.07 177.67 456.74 177.67 456.74 186.34 448.07 177.67" fill="#262838" stroke="#fff" stroke-miterlimit="10" stroke-width="0.3" opacity="0.9"/>
    <polygon points="456.74 186.34 448.07 186.34 448.07 177.67 456.74 186.34" fill="#262838" stroke="#fff" stroke-miterlimit="10" stroke-width="0.3" opacity="0.9"/>
    <polygon points="439.45 169 439.45 177.67 448.12 177.67 439.45 169" fill="#262838" stroke="#fff" stroke-miterlimit="10" stroke-width="0.3" opacity="0.9"/>
    <polygon points="439.45 169 430.78 169 430.78 177.67 439.45 169" fill="#262838" stroke="#fff" stroke-miterlimit="10" stroke-width="0.3" opacity="0.9"/>
    <polygon points="430.78 177.67 439.45 177.67 439.45 169 430.78 177.67" fill="#262838" stroke="#fff" stroke-miterlimit="10" stroke-width="0.3" opacity="0.9"/>
    <polygon points="439.45 160.32 430.78 160.32 430.78 169 439.45 160.32" fill="#262838" stroke="#fff" stroke-miterlimit="10" stroke-width="0.3" opacity="0.9"/>
    <polygon points="430.78 169 439.45 169 439.45 160.32 430.78 169" fill="#262838" stroke="#fff" stroke-miterlimit="10" stroke-width="0.3" opacity="0.9"/>
    <polygon points="474.11 186.35 474.11 177.68 482.78 177.68 474.11 186.35" fill="#262838" stroke="#fff" stroke-miterlimit="10" stroke-width="0.3" opacity="0.9"/>
    <polygon points="474.1 177.68 474.1 169.01 482.77 169.01 474.1 177.68" fill="#262838" stroke="#fff" stroke-miterlimit="10" stroke-width="0.3" opacity="0.9"/>
    <polygon points="482.77 169.01 482.77 177.68 474.1 177.68 482.77 169.01" fill="#262838" stroke="#fff" stroke-miterlimit="10" stroke-width="0.3" opacity="0.9"/>
    <polygon points="474.1 169.01 474.1 160.34 482.77 160.34 474.1 169.01" fill="#262838" stroke="#fff" stroke-miterlimit="10" stroke-width="0.3" opacity="0.9"/>
    <polygon points="482.77 160.34 482.77 169.01 474.1 169.01 482.77 160.34" fill="#262838" stroke="#fff" stroke-miterlimit="10" stroke-width="0.3" opacity="0.9"/>
    <polygon points="465.42 177.63 474.09 177.63 474.09 168.96 465.42 177.63" fill="#262838" stroke="#fff" stroke-miterlimit="10" stroke-width="0.3" opacity="0.9"/>
    <polygon points="465.42 177.63 465.42 186.3 474.09 186.3 465.42 177.63" fill="#262838" stroke="#fff" stroke-miterlimit="10" stroke-width="0.3" opacity="0.9"/>
    <polygon points="474.09 186.3 474.09 177.63 465.42 177.63 474.09 186.3" fill="#262838" stroke="#fff" stroke-miterlimit="10" stroke-width="0.3" opacity="0.9"/>
    <polygon points="456.75 177.63 456.75 186.3 465.42 186.3 456.75 177.63" fill="#262838" stroke="#fff" stroke-miterlimit="10" stroke-width="0.3" opacity="0.9"/>
    <polygon points="465.42 186.3 465.42 177.63 456.75 177.63 465.42 186.3" fill="#262838" stroke="#fff" stroke-miterlimit="10" stroke-width="0.3" opacity="0.9"/>
    <polygon points="482.77 143 474.1 143 474.1 134.32 482.77 143" fill="#262838" stroke="#fff" stroke-miterlimit="10" stroke-width="0.3" opacity="0.9"/>
    <polygon points="474.1 143 465.43 143 465.43 134.33 474.1 143" fill="#262838" stroke="#fff" stroke-miterlimit="10" stroke-width="0.3" opacity="0.9"/>
    <polygon points="465.43 134.33 474.1 134.33 474.1 143 465.43 134.33" fill="#262838" stroke="#fff" stroke-miterlimit="10" stroke-width="0.3" opacity="0.9"/>
    <polygon points="465.43 143 456.76 143 456.76 134.33 465.43 143" fill="#262838" stroke="#fff" stroke-miterlimit="10" stroke-width="0.3" opacity="0.9"/>
    <polygon points="456.76 134.33 465.43 134.33 465.43 143 456.76 134.33" fill="#262838" stroke="#fff" stroke-miterlimit="10" stroke-width="0.3" opacity="0.9"/>
    <polygon points="474.05 151.68 474.05 143.01 465.38 143.01 474.05 151.68" fill="#262838" stroke="#fff" stroke-miterlimit="10" stroke-width="0.3" opacity="0.9"/>
    <polygon points="474.05 151.68 482.72 151.68 482.72 143.01 474.05 151.68" fill="#262838" stroke="#fff" stroke-miterlimit="10" stroke-width="0.3" opacity="0.9"/>
    <polygon points="482.72 143.01 474.05 143.01 474.05 151.68 482.72 143.01" fill="#262838" stroke="#fff" stroke-miterlimit="10" stroke-width="0.3" opacity="0.9"/>
    <polygon points="474.05 160.35 482.72 160.35 482.72 151.68 474.05 160.35" fill="#262838" stroke="#fff" stroke-miterlimit="10" stroke-width="0.3" opacity="0.9"/>
    <polygon points="482.72 151.68 474.05 151.68 474.05 160.35 482.72 151.68" fill="#262838" stroke="#fff" stroke-miterlimit="10" stroke-width="0.3" opacity="0.9"/>
    <polygon points="252.96 281.22 244.9 274.65 238.32 282.71 252.96 281.22" fill="#262838" stroke="#fff" stroke-miterlimit="10" stroke-width="0.3" opacity="0.9"/>
    <polygon points="233.26 288.9 238.04 288.41 237.56 283.63 233.26 288.9" fill="#262838" stroke="#fff" stroke-miterlimit="10" stroke-width="0.3" opacity="0.9"/>
    <polygon points="232.78 284.12 237.56 283.63 237.07 278.86 232.78 284.12" fill="#262838" stroke="#fff" stroke-miterlimit="10" stroke-width="0.3" opacity="0.9"/>
    <polygon points="237.56 283.63 232.78 284.12 233.26 288.9 237.56 283.63" fill="#262838" stroke="#fff" stroke-miterlimit="10" stroke-width="0.3" opacity="0.9"/>
    <polygon points="383.64 109.97 378.25 105.58 373.87 110.96 383.64 109.97" fill="#262838" stroke="#fff" stroke-miterlimit="10" stroke-width="0.3" opacity="0.9"/>
    <polygon points="373.87 110.96 379.25 115.35 383.64 109.97 373.87 110.96" fill="#262838" stroke="#fff" stroke-miterlimit="10" stroke-width="0.3" opacity="0.9"/>
    <polygon points="384.63 119.74 376.56 113.15 369.98 121.23 384.63 119.74" fill="#262838" stroke="#fff" stroke-miterlimit="10" stroke-width="0.3" opacity="0.9"/>
    <polygon points="369.98 121.23 378.05 127.81 384.63 119.74 369.98 121.23" fill="#262838" stroke="#fff" stroke-miterlimit="10" stroke-width="0.3" opacity="0.9"/>
    <polygon points="376.56 113.15 368.48 106.57 361.9 114.65 376.56 113.15" fill="#262838" stroke="#fff" stroke-miterlimit="10" stroke-width="0.3" opacity="0.9"/>
    <polygon points="361.9 114.65 369.98 121.23 376.56 113.15 361.9 114.65" fill="#262838" stroke="#fff" stroke-miterlimit="10" stroke-width="0.3" opacity="0.9"/>
    <polygon points="368.48 106.57 373.87 110.96 378.25 105.58 368.48 106.57" fill="#262838" stroke="#fff" stroke-miterlimit="10" stroke-width="0.3" opacity="0.9"/>
    <polygon points="384.63 119.74 379.25 115.35 383.64 109.97 384.63 119.74" fill="#262838" stroke="#fff" stroke-miterlimit="10" stroke-width="0.3" opacity="0.9"/>
    <polygon points="242.34 283.15 237.56 283.63 238.04 288.41 242.34 283.15" fill="#262838" stroke="#fff" stroke-miterlimit="10" stroke-width="0.3" opacity="0.9"/>
    <polygon points="374.93 131.57 366.88 125.01 244.91 274.65 374.93 131.57" fill="#262838" stroke="#fff" stroke-miterlimit="10" stroke-width="0.3" opacity="0.9"/>
    <polygon points="244.91 274.65 252.96 281.21 374.93 131.57 244.91 274.65" fill="#262838" stroke="#fff" stroke-miterlimit="10" stroke-width="0.3" opacity="0.9"/>
    <polygon points="236.83 268.07 244.9 274.65 238.32 282.71 236.83 268.07" fill="#262838" stroke="#fff" stroke-miterlimit="10" stroke-width="0.3" opacity="0.9"/>
    <polygon points="358.81 118.43 366.86 124.99 244.89 274.64 358.81 118.43" fill="#262838" stroke="#fff" stroke-miterlimit="10" stroke-width="0.3" opacity="0.9"/>
    <polygon points="244.89 274.64 236.84 268.08 358.81 118.43 244.89 274.64" fill="#262838" stroke="#fff" stroke-miterlimit="10" stroke-width="0.3" opacity="0.9"/>
  </g>
</svg>
