<?xml version="1.0" encoding="utf-8"?>
<!-- Generator: Adobe Illustrator 22.0.1, SVG Export Plug-In . SVG Version: 6.00 Build 0)  -->
<svg version="1.1" id="Layer_1" xmlns="http://www.w3.org/2000/svg" xmlns:xlink="http://www.w3.org/1999/xlink" x="0px" y="0px"
	 viewBox="0 0 641 481" style="enable-background:new 0 0 641 481;" xml:space="preserve">
<style type="text/css">
	.st0{fill:none;}
	.st1{fill:none;stroke:#000000;stroke-width:0.5;stroke-miterlimit:10;}
</style>
<title>design</title>
<g id="Layer_2_1_">
	<rect x="0.5" y="0.5" class="st0" width="640" height="480"/>
</g>
<g id="Layer_3">
	<polygon class="st1" points="178,140 178,167.1 150.9,167.1 	"/>
	<polygon class="st1" points="232.2,167.1 205.1,167.1 205.1,140 	"/>
	<polygon class="st1" points="259.3,194.3 232.2,194.3 232.2,167.2 	"/>
	<polygon class="st1" points="178,167.1 178,140 205.1,140 	"/>
	<polygon class="st1" points="205.1,140 205.1,167.1 178,167.1 	"/>
	<polygon class="st1" points="178,136.8 178,123.2 191.6,123.2 	"/>
	<polygon class="st1" points="191.6,123.2 191.6,136.8 178,136.8 	"/>
	<polygon class="st1" points="191.6,136.8 191.6,123.2 205.1,123.2 	"/>
	<polygon class="st1" points="205.1,123.2 205.1,136.8 191.6,136.8 	"/>
	<polygon class="st1" points="184.8,116.4 184.8,123.2 178,123.2 	"/>
	<polygon class="st1" points="184.8,123.2 184.8,116.4 191.6,116.4 	"/>
	<polygon class="st1" points="191.6,116.4 191.6,123.2 184.8,123.2 	"/>
	<polygon class="st1" points="198.4,116.4 198.4,123.2 205.1,123.2 	"/>
	<polygon class="st1" points="198.3,123.2 198.3,116.4 191.6,116.4 	"/>
	<polygon class="st1" points="191.6,116.4 191.6,123.2 198.3,123.2 	"/>
	<polygon class="st1" points="150.9,366.1 171.2,366.1 171.2,386.4 	"/>
	<polygon class="st1" points="211.8,386.4 211.8,366.1 232,366.1 	"/>
	<polygon class="st1" points="150.9,167.1 150.9,194.3 123.8,194.3 	"/>
	<polygon class="st1" points="150.9,194.3 150.9,167.1 178,167.1 	"/>
	<polygon class="st1" points="178,167.1 178,194.3 150.9,194.3 	"/>
	<polygon class="st1" points="178,194.3 178,167.1 205.1,167.1 	"/>
	<polygon class="st1" points="205.1,167.1 205.1,194.3 178,194.3 	"/>
	<polygon class="st1" points="205.1,194.3 205.1,167.1 232.2,167.1 	"/>
	<polygon class="st1" points="232.2,167.1 232.2,194.3 205.1,194.3 	"/>
	<polygon class="st1" points="123.8,232.1 123.8,205 150.9,205 	"/>
	<polygon class="st1" points="150.9,205 150.9,232.1 123.8,232.1 	"/>
	<polygon class="st1" points="150.9,366.1 150.9,345.8 171.2,345.8 	"/>
	<polygon class="st1" points="171.2,345.8 171.2,366.1 150.9,366.1 	"/>
	<polygon class="st1" points="171.2,345.8 191.5,345.8 191.5,366.1 	"/>
	<polygon class="st1" points="191.5,366.1 171.2,366.1 171.2,345.8 	"/>
	<polygon class="st1" points="191.5,366.1 191.5,345.8 211.8,345.8 	"/>
	<polygon class="st1" points="211.8,345.8 211.8,366.1 191.5,366.1 	"/>
	<polygon class="st1" points="211.8,345.8 232.1,345.8 232.1,366.1 	"/>
	<polygon class="st1" points="232.1,366.1 211.8,366.1 211.8,345.8 	"/>
	<polygon class="st1" points="123.8,340.5 123.8,232.1 232.2,232.1 	"/>
	<polygon class="st1" points="232.2,232.1 232.2,340.5 123.8,340.5 	"/>
	<polygon class="st1" points="308.7,340.5 263.5,340.5 263.5,295.3 	"/>
	<polygon class="st1" points="277.2,340.5 308.7,340.5 308.7,372 	"/>
	<polygon class="st1" points="286.5,349.8 308.7,372 286.5,394.2 	"/>
	<polygon class="st1" points="74.4,340.5 119.7,340.5 119.7,295.3 	"/>
	<polygon class="st1" points="105.9,340.5 74.4,340.5 74.4,372 	"/>
	<polygon class="st1" points="96.7,349.8 74.4,372 96.7,394.2 	"/>
	<polygon class="st1" points="150.9,232.1 150.9,205 178,205 	"/>
	<polygon class="st1" points="178,205 178,232.1 150.9,232.1 	"/>
	<polygon class="st1" points="147.3,316.8 147.3,289.7 174.4,289.7 	"/>
	<polygon class="st1" points="174.4,289.7 174.4,316.8 147.3,316.8 	"/>
	<polygon class="st1" points="178,232.1 178,205 205.1,205 	"/>
	<polygon class="st1" points="205.1,205 205.1,232.1 178,232.1 	"/>
	<polygon class="st1" points="205.1,232.1 205.1,205 232.2,205 	"/>
	<polygon class="st1" points="232.2,205 232.2,232.1 205.1,232.1 	"/>
	<polygon class="st1" points="232.2,232.1 232.2,205 259.3,205 	"/>
	<polygon class="st1" points="259.3,205 259.3,232.1 232.2,232.1 	"/>
	<polygon class="st1" points="259.3,232.1 245.8,245.7 232.2,232.1 	"/>
	<polygon class="st1" points="232.2,232.1 245.8,245.7 232.2,259.2 	"/>
	<polygon class="st1" points="232.2,259.2 245.8,245.7 259.3,259.2 	"/>
	<polygon class="st1" points="259.3,259.2 245.8,245.7 259.3,232.1 	"/>
	<polygon class="st1" points="259.3,259.2 245.8,272.8 232.2,259.2 	"/>
	<polygon class="st1" points="232.2,259.2 245.8,272.8 232.2,286.3 	"/>
	<polygon class="st1" points="232.2,286.3 245.8,272.8 259.3,286.3 	"/>
	<polygon class="st1" points="259.3,286.3 245.8,272.8 259.3,259.2 	"/>
	<polygon class="st1" points="259.3,286.3 245.8,299.9 232.2,286.3 	"/>
	<polygon class="st1" points="232.2,286.3 245.8,299.9 232.2,313.4 	"/>
	<polygon class="st1" points="232.2,313.4 245.8,299.9 259.3,313.4 	"/>
	<polygon class="st1" points="259.3,313.4 245.8,299.9 259.3,286.3 	"/>
	<polygon class="st1" points="259.3,313.4 245.8,327 232.2,313.4 	"/>
	<polygon class="st1" points="232.2,313.4 245.8,327 232.2,340.5 	"/>
	<polygon class="st1" points="232.2,340.5 245.8,327 259.3,340.5 	"/>
	<polygon class="st1" points="259.3,340.5 245.8,327 259.3,313.4 	"/>
	<polygon class="st1" points="191.5,366.1 181.3,376.3 171.2,366.1 	"/>
	<polygon class="st1" points="171.2,366.1 181.3,376.3 171.2,386.4 	"/>
	<polygon class="st1" points="171.2,386.4 181.3,376.3 191.5,386.4 	"/>
	<polygon class="st1" points="191.5,386.4 181.3,376.3 191.5,366.1 	"/>
	<polygon class="st1" points="211.8,366.1 201.6,376.3 191.5,366.1 	"/>
	<polygon class="st1" points="191.5,366.1 201.6,376.3 191.5,386.4 	"/>
	<polygon class="st1" points="191.5,386.4 201.6,376.3 211.8,386.4 	"/>
	<polygon class="st1" points="211.8,386.4 201.6,376.3 211.8,366.1 	"/>
	<polygon class="st1" points="397.2,259 392.6,263.6 387.9,259 	"/>
	<polygon class="st1" points="61.2,409.8 53.8,417.2 46.4,409.8 	"/>
	<polygon class="st1" points="124.7,430.5 120.1,435.1 115.5,430.5 	"/>
	<polygon class="st1" points="341,240.9 333.8,248.1 326.6,240.9 	"/>
	<polygon class="st1" points="94,441.5 82.4,453 70.9,441.5 	"/>
	<polygon class="st1" points="369.7,266.1 358.2,277.6 346.8,266.1 	"/>
	<polygon class="st1" points="603.2,399.5 600.5,402.2 597.8,399.5 	"/>
	<polygon class="st1" points="570.8,389.1 566.7,393.3 562.5,389.1 	"/>
	<polygon class="st1" points="512.7,444 506.1,450.5 499.5,444 	"/>
	<polygon class="st1" points="293.7,28 287.1,34.6 280.5,28 	"/>
	<polygon class="st1" points="562.5,123.2 555,130.7 547.5,123.2 	"/>
	<polygon class="st1" points="323.3,96.4 313,106.7 302.6,96.4 	"/>
	<polygon class="st1" points="120.6,75.3 105.9,90 91.2,75.3 	"/>
	<polygon class="st1" points="406.7,388.4 410.4,388.9 409.8,392.7 	"/>
	<polygon class="st1" points="412.9,349.4 416.6,350 410.4,388.9 	"/>
	<polygon class="st1" points="410.4,388.9 406.7,388.4 412.9,349.4 	"/>
	<polygon class="st1" points="503.6,388.7 500.6,389.1 501.1,392.1 	"/>
	<polygon class="st1" points="498.2,354 495.3,354.4 500.6,389.1 	"/>
	<polygon class="st1" points="500.6,389.1 503.6,388.7 498.2,354 	"/>
	<polygon class="st1" points="487,330.1 476.7,322.5 484.3,312.2 	"/>
	<polygon class="st1" points="495.8,311.2 506.1,318.8 498.5,329.1 	"/>
	<polygon class="st1" points="433,194.2 444.2,195.9 446,184.6 	"/>
	<polygon class="st1" points="406.9,362.3 418.2,364 416.4,375.3 	"/>
	<polygon class="st1" points="433,194.2 444.2,195.9 418.2,364 	"/>
	<polygon class="st1" points="418.2,364 406.9,362.3 433,194.2 	"/>
	<polygon class="st1" points="477.6,194.2 466.3,195.9 464.5,184.6 	"/>
	<polygon class="st1" points="503.6,362.3 492.3,364 494.1,375.3 	"/>
	<polygon class="st1" points="477.5,194.2 466.3,195.9 492.3,364 	"/>
	<polygon class="st1" points="492.3,364 503.6,362.3 477.5,194.2 	"/>
	<polygon class="st1" points="463.4,114.9 463.4,128.2 450.1,128.2 	"/>
	<polygon class="st1" points="450.1,128.2 450.1,114.9 463.4,114.9 	"/>
	<polygon class="st1" points="459,128.2 459,132.7 454.5,132.7 	"/>
	<polygon class="st1" points="454.5,132.7 454.5,128.2 459,128.2 	"/>
	<polygon class="st1" points="463.4,101.6 463.4,114.9 450.1,114.9 	"/>
	<polygon class="st1" points="450.1,114.9 450.1,101.6 463.4,101.6 	"/>
	<polygon class="st1" points="461.2,186.1 461.2,194.5 452.8,194.5 	"/>
	<polygon class="st1" points="452.8,194.5 452.8,186.1 461.2,186.1 	"/>
	<polygon class="st1" points="439.4,134.3 439.4,143 430.7,143 	"/>
	<polygon class="st1" points="439.4,143 439.4,151.7 430.7,151.7 	"/>
	<polygon class="st1" points="430.7,151.7 430.7,143 439.4,143 	"/>
	<polygon class="st1" points="439.4,151.7 439.4,160.3 430.7,160.3 	"/>
	<polygon class="st1" points="430.7,160.3 430.7,151.7 439.4,151.7 	"/>
	<polygon class="st1" points="448.1,143 439.4,143 439.4,151.7 	"/>
	<polygon class="st1" points="448.1,143 448.1,134.4 439.4,134.4 	"/>
	<polygon class="st1" points="439.4,134.4 439.4,143 448.1,143 	"/>
	<polygon class="st1" points="456.8,143 456.8,134.4 448.1,134.4 	"/>
	<polygon class="st1" points="448.1,134.4 448.1,143 456.8,143 	"/>
	<polygon class="st1" points="430.7,177.7 439.4,177.7 439.4,186.3 	"/>
	<polygon class="st1" points="439.4,177.7 448.1,177.7 448.1,186.3 	"/>
	<polygon class="st1" points="448.1,186.3 439.4,186.3 439.4,177.7 	"/>
	<polygon class="st1" points="448.1,177.7 456.7,177.7 456.7,186.3 	"/>
	<polygon class="st1" points="456.7,186.3 448.1,186.3 448.1,177.7 	"/>
	<polygon class="st1" points="439.5,169 439.5,177.7 448.1,177.7 	"/>
	<polygon class="st1" points="439.5,169 430.8,169 430.8,177.7 	"/>
	<polygon class="st1" points="430.8,177.7 439.5,177.7 439.5,169 	"/>
	<polygon class="st1" points="439.5,160.3 430.8,160.3 430.8,169 	"/>
	<polygon class="st1" points="430.8,169 439.5,169 439.5,160.3 	"/>
	<polygon class="st1" points="474.1,186.3 474.1,177.7 482.8,177.7 	"/>
	<polygon class="st1" points="474.1,177.7 474.1,169 482.8,169 	"/>
	<polygon class="st1" points="482.8,169 482.8,177.7 474.1,177.7 	"/>
	<polygon class="st1" points="474.1,169 474.1,160.3 482.8,160.3 	"/>
	<polygon class="st1" points="482.8,160.3 482.8,169 474.1,169 	"/>
	<polygon class="st1" points="465.4,177.6 474.1,177.6 474.1,169 	"/>
	<polygon class="st1" points="465.4,177.6 465.4,186.3 474.1,186.3 	"/>
	<polygon class="st1" points="474.1,186.3 474.1,177.6 465.4,177.6 	"/>
	<polygon class="st1" points="456.8,177.6 456.8,186.3 465.4,186.3 	"/>
	<polygon class="st1" points="465.4,186.3 465.4,177.6 456.8,177.6 	"/>
	<polygon class="st1" points="482.8,143 474.1,143 474.1,134.3 	"/>
	<polygon class="st1" points="474.1,143 465.4,143 465.4,134.3 	"/>
	<polygon class="st1" points="465.4,134.3 474.1,134.3 474.1,143 	"/>
	<polygon class="st1" points="465.4,143 456.8,143 456.8,134.3 	"/>
	<polygon class="st1" points="456.8,134.3 465.4,134.3 465.4,143 	"/>
	<polygon class="st1" points="474,151.7 474,143 465.4,143 	"/>
	<polygon class="st1" points="474,151.7 482.7,151.7 482.7,143 	"/>
	<polygon class="st1" points="482.7,143 474,143 474,151.7 	"/>
	<polygon class="st1" points="474,160.3 482.7,160.3 482.7,151.7 	"/>
	<polygon class="st1" points="482.7,151.7 474,151.7 474,160.3 	"/>
	<polygon class="st1" points="253,281.2 244.9,274.6 238.3,282.7 	"/>
	<polygon class="st1" points="233.3,288.9 238,288.4 237.6,283.6 	"/>
	<polygon class="st1" points="232.8,284.1 237.6,283.6 237.1,278.9 	"/>
	<polygon class="st1" points="237.6,283.6 232.8,284.1 233.3,288.9 	"/>
	<polygon class="st1" points="383.6,110 378.2,105.6 373.9,111 	"/>
	<polygon class="st1" points="373.9,111 379.2,115.3 383.6,110 	"/>
	<polygon class="st1" points="384.6,119.7 376.6,113.1 370,121.2 	"/>
	<polygon class="st1" points="370,121.2 378,127.8 384.6,119.7 	"/>
	<polygon class="st1" points="376.6,113.1 368.5,106.6 361.9,114.6 	"/>
	<polygon class="st1" points="361.9,114.6 370,121.2 376.6,113.1 	"/>
	<polygon class="st1" points="368.5,106.6 373.9,111 378.2,105.6 	"/>
	<polygon class="st1" points="384.6,119.7 379.2,115.3 383.6,110 	"/>
	<polygon class="st1" points="242.3,283.1 237.6,283.6 238,288.4 	"/>
	<polygon class="st1" points="374.9,131.6 366.9,125 244.9,274.6 	"/>
	<polygon class="st1" points="244.9,274.6 253,281.2 374.9,131.6 	"/>
	<polygon class="st1" points="236.8,268.1 244.9,274.6 238.3,282.7 	"/>
	<polygon class="st1" points="358.8,118.4 366.9,125 244.9,274.6 	"/>
	<polygon class="st1" points="244.9,274.6 236.8,268.1 358.8,118.4 	"/>
</g>
</svg>
