<svg xmlns="http://www.w3.org/2000/svg" width="641" height="481" viewBox="0 0 641 481">
  <title>digitalcontent</title>
  <g id="Layer_2" data-name="Layer 2">
    <rect x="0.5" y="0.5" width="640" height="480" fill="#fff" stroke="#000" stroke-miterlimit="10"/>
  </g>
  <g id="Layer_3" data-name="Layer 3">
    <polygon points="114.82 270.02 104.79 280.05 94.76 270.02 114.82 270.02" fill="#00c6ad" opacity="0.45"/>
    <polygon points="591.49 408.37 575.58 424.29 559.66 408.37 591.49 408.37" fill="#00c6ad" opacity="0.33"/>
    <polygon points="540.09 393.36 532 401.45 523.91 393.36 540.09 393.36" fill="#00c6ad" opacity="0.7"/>
    <polygon points="89.06 76.39 82.62 82.83 76.17 76.39 89.06 76.39" fill="#00c6ad" opacity="0.45"/>
    <polygon points="74.09 154.88 64.05 164.91 54.02 154.88 74.09 154.88" fill="#00c6ad" opacity="0.7"/>
    <polygon points="617.93 385.86 610.3 393.49 602.67 385.86 617.93 385.86" fill="#00c6ad" opacity="0.33"/>
    <polygon points="594.83 91.07 583.86 102.05 572.88 91.07 594.83 91.07" fill="#00c6ad" opacity="0.45"/>
    <polygon points="287.08 96.55 281.58 102.05 276.09 96.55 287.08 96.55" fill="#00c6ad" opacity="0.33"/>
    <polygon points="573.64 55.13 567.15 61.61 560.67 55.13 573.64 55.13" fill="#00c6ad" opacity="0.7"/>
    <polygon points="253.66 52.79 245.04 61.42 236.41 52.79 253.66 52.79" fill="#00c6ad" opacity="0.33"/>
    <polygon points="59.45 309.23 42.45 326.22 25.46 309.23 59.45 309.23" fill="#00c6ad" opacity="0.45"/>
    <polygon points="209.86 351.59 181.41 380.04 152.97 351.59 209.86 351.59" fill="#262838" stroke="#fff" stroke-miterlimit="10" stroke-width="0.3" opacity="0.75"/>
    <polygon points="152.97 351.57 181.41 323.13 209.86 351.57 152.97 351.57" fill="#262838" stroke="#fff" stroke-miterlimit="10" stroke-width="0.3" opacity="0.67"/>
    <polygon points="238.43 323.02 209.98 351.47 181.54 323.02 238.43 323.02" fill="#262838" stroke="#fff" stroke-miterlimit="10" stroke-width="0.3" opacity="0.75"/>
    <polygon points="181.54 323.01 209.98 294.56 238.43 323.01 181.54 323.01" fill="#262838" stroke="#fff" stroke-miterlimit="10" stroke-width="0.3" opacity="0.67"/>
    <polygon points="266.88 294.57 238.43 323.02 209.99 294.57 266.88 294.57" fill="#262838" stroke="#fff" stroke-miterlimit="10" stroke-width="0.3" opacity="0.75"/>
    <polygon points="209.99 294.55 238.43 266.11 266.88 294.55 209.99 294.55" fill="#262838" stroke="#fff" stroke-miterlimit="10" stroke-width="0.3" opacity="0.55"/>
    <polygon points="161.57 341.49 148.99 354.07 136.41 341.49 161.57 341.49" fill="#262838" stroke="#fff" stroke-miterlimit="10" stroke-width="0.3" opacity="0.85"/>
    <polygon points="213.72 380.14 197.62 396.24 181.52 380.14 213.72 380.14" fill="#262838" stroke="#fff" stroke-miterlimit="10" stroke-width="0.3" opacity="0.75"/>
    <polygon points="181.52 380.12 209.96 351.68 238.41 380.12 181.52 380.12" fill="#262838" stroke="#fff" stroke-miterlimit="10" stroke-width="0.3" opacity="0.67"/>
    <polygon points="266.98 351.57 238.53 380.02 210.09 351.57 266.98 351.57" fill="#262838" stroke="#fff" stroke-miterlimit="10" stroke-width="0.3" opacity="0.75"/>
    <polygon points="240.15 382.5 264.49 382.5 264.49 406.84 240.15 382.5" fill="#262838" stroke="#fff" stroke-miterlimit="10" stroke-width="0.3" opacity="0.85"/>
    <polygon points="264.59 406.74 240.25 406.74 240.25 382.4 264.59 406.74" fill="#262838" stroke="#fff" stroke-miterlimit="10" stroke-width="0.3" opacity="0.82"/>
    <polygon points="264.63 406.83 252.51 418.95 240.39 406.83 264.63 406.83" fill="#262838" stroke="#fff" stroke-miterlimit="10" stroke-width="0.3" opacity="0.9"/>
    <polygon points="264.54 358.11 264.54 382.45 240.2 382.45 264.54 358.11" fill="#262838" stroke="#fff" stroke-miterlimit="10" stroke-width="0.3" opacity="0.9"/>
    <polygon points="210.09 351.56 238.53 323.11 266.98 351.56 210.09 351.56" fill="#262838" stroke="#fff" stroke-miterlimit="10" stroke-width="0.3" opacity="0.67"/>
    <polygon points="295.43 323.12 266.98 351.57 238.54 323.12 295.43 323.12" fill="#262838" stroke="#fff" stroke-miterlimit="10" stroke-width="0.3" opacity="0.75"/>
    <polygon points="238.54 323.1 266.98 294.66 295.43 323.1 238.54 323.1" fill="#262838" stroke="#fff" stroke-miterlimit="10" stroke-width="0.3" opacity="0.55"/>
    <polygon points="245.89 313.18 196.58 362.49 184.5 350.42 245.89 313.18" fill="#262838" stroke="#fff" stroke-miterlimit="10" stroke-width="0.3" opacity="0.9"/>
    <polygon points="184.52 350.4 233.83 301.09 245.9 313.16 184.52 350.4" fill="#262838" stroke="#fff" stroke-miterlimit="10" stroke-width="0.3" opacity="0.72"/>
    <polygon points="181.44 309.29 186.48 314.34 175.34 325.48 181.44 309.29" fill="#262838" stroke="#fff" stroke-miterlimit="10" stroke-width="0.3" opacity="0.85"/>
    <polygon points="175.34 325.48 170.29 320.44 181.44 309.29 175.34 325.48" fill="#262838" stroke="#fff" stroke-miterlimit="10" stroke-width="0.3" opacity="0.85"/>
    <polygon points="184.28 316.4 185.84 317.96 178.96 324.84 184.28 316.4" fill="#262838" stroke="#fff" stroke-miterlimit="10" stroke-width="0.3" opacity="0.85"/>
    <polygon points="178.96 324.84 177.4 323.28 184.28 316.4 178.96 324.84" fill="#262838" stroke="#fff" stroke-miterlimit="10" stroke-width="0.3" opacity="0.85"/>
    <polygon points="241.87 280.94 241.87 289.47 233.35 289.47 241.87 280.94" fill="#f6715e" stroke="#fff" stroke-miterlimit="10" stroke-width="0.3" opacity="0.9"/>
    <polygon points="233.35 289.47 233.35 280.94 241.87 280.94 233.35 289.47" fill="#f6715e" stroke="#fff" stroke-miterlimit="10" stroke-width="0.3"/>
    <polygon points="297.29 273.89 273.11 298.06 248.93 273.89 297.29 273.89" fill="#262838" stroke="#fff" stroke-miterlimit="10" stroke-width="0.3" opacity="0.9"/>
    <polygon points="248.93 273.87 273.11 249.69 297.29 273.87 248.93 273.87" fill="#262838" stroke="#fff" stroke-miterlimit="10" stroke-width="0.3" opacity="0.72"/>
    <polygon points="305.17 266.01 297.12 274.06 272.94 249.88 305.17 266.01" fill="#262838" stroke="#fff" stroke-miterlimit="10" stroke-width="0.3" opacity="0.9"/>
    <polygon points="272.93 249.87 280.98 241.82 305.16 266 272.93 249.87" fill="#262838" stroke="#fff" stroke-miterlimit="10" stroke-width="0.3" opacity="0.9"/>
    <polygon points="280.18 210.96 294.41 225.18 280.18 239.41 280.18 210.96" fill="#262838" stroke="#fff" stroke-miterlimit="10" stroke-width="0.3" opacity="0.85"/>
    <polygon points="308.65 267.87 322.88 253.64 337.1 267.87 308.65 267.87" fill="#262838" stroke="#fff" stroke-miterlimit="10" stroke-width="0.3" opacity="0.93"/>
    <polygon points="308.7 239.31 294.48 253.53 308.7 267.76 308.7 239.31" fill="#262838" stroke="#fff" stroke-miterlimit="10" stroke-width="0.3" opacity="0.93"/>
    <polygon points="308.7 267.76 322.93 253.53 308.7 239.31 308.7 267.76" fill="#262838" stroke="#fff" stroke-miterlimit="10" stroke-width="0.3" opacity="0.88"/>
    <polygon points="294.48 225.08 280.25 239.31 294.48 253.53 294.48 225.08" fill="#262838" stroke="#fff" stroke-miterlimit="10" stroke-width="0.3" opacity="0.88"/>
    <polygon points="294.48 253.53 308.7 239.31 294.48 225.08 294.48 253.53" fill="#262838" stroke="#fff" stroke-miterlimit="10" stroke-width="0.3" opacity="0.85"/>
    <polygon points="280.34 210.97 337.18 267.8 344.29 260.68 280.34 210.97" fill="#262838" stroke="#fff" stroke-miterlimit="10" stroke-width="0.3" opacity="0.89"/>
    <polygon points="344.29 260.68 287.46 203.85 280.34 210.97 344.29 260.68" fill="#262838" stroke="#fff" stroke-miterlimit="10" stroke-width="0.3" opacity="0.72"/>
    <polygon points="145.38 351.81 135.61 361.58 125.84 351.81 145.38 351.81" fill="#262838" stroke="#fff" stroke-miterlimit="10" stroke-width="0.3" opacity="0.85"/>
    <polygon points="125.84 351.81 135.61 342.04 145.38 351.81 125.84 351.81" fill="#262838" stroke="#fff" stroke-miterlimit="10" stroke-width="0.3" opacity="0.72"/>
    <polygon points="135.15 373.62 129.81 368.28 135.15 362.94 135.15 373.62" fill="#262838" stroke="#fff" stroke-miterlimit="10" stroke-width="0.3" opacity="0.85"/>
    <polygon points="124.47 352.27 119.13 357.61 113.8 352.27 124.47 352.27" fill="#262838" stroke="#fff" stroke-miterlimit="10" stroke-width="0.3" opacity="0.93"/>
    <polygon points="129.78 368.31 135.12 362.98 124.45 352.31 129.78 368.31" fill="#262838" stroke="#fff" stroke-miterlimit="10" stroke-width="0.3" opacity="0.93"/>
    <polygon points="124.45 352.31 119.11 357.65 129.78 368.31 124.45 352.31" fill="#262838" stroke="#fff" stroke-miterlimit="10" stroke-width="0.3" opacity="0.88"/>
    <polygon points="132.45 376.32 135.12 373.65 113.77 352.3 132.45 376.32" fill="#262838" stroke="#fff" stroke-miterlimit="10" stroke-width="0.3" opacity="0.93"/>
    <polygon points="113.77 352.3 111.11 354.97 132.45 376.32 113.77 352.3" fill="#262838" stroke="#fff" stroke-miterlimit="10" stroke-width="0.3" opacity="0.89"/>
    <polygon points="455.22 336.98 455.22 326.55 465.65 326.55 455.22 336.98" fill="#fff" stroke="#fff" stroke-miterlimit="10" stroke-width="0.3" opacity="0.13"/>
    <polygon points="465.65 326.55 455.22 326.55 455.22 316.11 465.65 326.55" fill="#fff" stroke="#fff" stroke-miterlimit="10" stroke-width="0.3" opacity="0.13"/>
    <polygon points="455.22 316.11 455.22 326.55 444.78 326.55 455.22 316.11" fill="#fff" stroke="#fff" stroke-miterlimit="10" stroke-width="0.3" opacity="0.13"/>
    <polygon points="444.78 326.55 455.22 326.55 455.22 336.98 444.78 326.55" fill="#fff" stroke="#fff" stroke-miterlimit="10" stroke-width="0.3" opacity="0.13"/>
    <polygon points="455.22 345.06 455.22 341.04 459.24 341.04 455.22 345.06" fill="#fff" stroke="#fff" stroke-miterlimit="10" stroke-width="0.3" opacity="0.13"/>
    <polygon points="459.24 341.04 455.22 341.04 455.22 337.02 459.24 341.04" fill="#fff" stroke="#fff" stroke-miterlimit="10" stroke-width="0.3" opacity="0.13"/>
    <polygon points="455.22 337.02 455.22 341.04 451.2 341.04 455.22 337.02" fill="#fff" stroke="#fff" stroke-miterlimit="10" stroke-width="0.3" opacity="0.13"/>
    <polygon points="451.2 341.04 455.22 341.04 455.22 345.06 451.2 341.04" fill="#fff" stroke="#fff" stroke-miterlimit="10" stroke-width="0.3" opacity="0.13"/>
    <polygon points="469.66 283.09 469.66 275.86 476.89 275.86 469.66 283.09" fill="#fff" stroke="#fff" stroke-miterlimit="10" stroke-width="0.3" opacity="0.13"/>
    <polygon points="476.89 275.86 469.66 275.86 469.66 268.63 476.89 275.86" fill="#fff" stroke="#fff" stroke-miterlimit="10" stroke-width="0.3" opacity="0.13"/>
    <polygon points="469.66 268.63 469.66 275.86 462.43 275.86 469.66 268.63" fill="#fff" stroke="#fff" stroke-miterlimit="10" stroke-width="0.3" opacity="0.13"/>
    <polygon points="462.43 275.86 469.66 275.86 469.66 283.09 462.43 275.86" fill="#fff" stroke="#fff" stroke-miterlimit="10" stroke-width="0.3" opacity="0.13"/>
    <polygon points="469.66 288.68 469.66 285.9 472.45 285.9 469.66 288.68" fill="#fff" stroke="#fff" stroke-miterlimit="10" stroke-width="0.3" opacity="0.13"/>
    <polygon points="472.45 285.9 469.66 285.9 469.66 283.11 472.45 285.9" fill="#fff" stroke="#fff" stroke-miterlimit="10" stroke-width="0.3" opacity="0.13"/>
    <polygon points="469.66 283.11 469.66 285.9 466.88 285.9 469.66 283.11" fill="#fff" stroke="#fff" stroke-miterlimit="10" stroke-width="0.3" opacity="0.13"/>
    <polygon points="466.88 285.9 469.66 285.9 469.66 288.68 466.88 285.9" fill="#fff" stroke="#fff" stroke-miterlimit="10" stroke-width="0.3" opacity="0.13"/>
    <polygon points="469.55 324.5 469.55 317.27 476.77 317.27 469.55 324.5" fill="#fff" stroke="#fff" stroke-miterlimit="10" stroke-width="0.3" opacity="0.13"/>
    <polygon points="476.77 317.27 469.55 317.27 469.55 310.05 476.77 317.27" fill="#fff" stroke="#fff" stroke-miterlimit="10" stroke-width="0.3" opacity="0.13"/>
    <polygon points="469.55 310.05 469.55 317.27 462.32 317.27 469.55 310.05" fill="#fff" stroke="#fff" stroke-miterlimit="10" stroke-width="0.3" opacity="0.13"/>
    <polygon points="462.32 317.27 469.55 317.27 469.55 324.5 462.32 317.27" fill="#fff" stroke="#fff" stroke-miterlimit="10" stroke-width="0.3" opacity="0.13"/>
    <polygon points="469.55 330.1 469.55 327.31 472.33 327.31 469.55 330.1" fill="#fff" stroke="#fff" stroke-miterlimit="10" stroke-width="0.3" opacity="0.13"/>
    <polygon points="472.33 327.31 469.55 327.31 469.55 324.53 472.33 327.31" fill="#fff" stroke="#fff" stroke-miterlimit="10" stroke-width="0.3" opacity="0.13"/>
    <polygon points="469.55 324.53 469.55 327.31 466.76 327.31 469.55 324.53" fill="#fff" stroke="#fff" stroke-miterlimit="10" stroke-width="0.3" opacity="0.13"/>
    <polygon points="466.76 327.31 469.55 327.31 469.55 330.1 466.76 327.31" fill="#fff" stroke="#fff" stroke-miterlimit="10" stroke-width="0.3" opacity="0.13"/>
    <polygon points="440.18 359.88 440.18 349.45 450.62 349.45 440.18 359.88" fill="#fff" stroke="#fff" stroke-miterlimit="10" stroke-width="0.16" opacity="0.13"/>
    <polygon points="450.62 349.45 440.18 349.45 440.18 339.01 450.62 349.45" fill="#fff" stroke="#fff" stroke-miterlimit="10" stroke-width="0.16" opacity="0.13"/>
    <polygon points="440.18 339.01 440.18 349.45 429.75 349.45 440.18 339.01" fill="#fff" stroke="#fff" stroke-miterlimit="10" stroke-width="0.16" opacity="0.13"/>
    <polygon points="429.75 349.45 440.18 349.45 440.18 359.88 429.75 349.45" fill="#fff" stroke="#fff" stroke-miterlimit="10" stroke-width="0.16" opacity="0.13"/>
    <polygon points="440.18 367.96 440.18 363.94 444.2 363.94 440.18 367.96" fill="#fff" stroke="#fff" stroke-miterlimit="10" stroke-width="0.16" opacity="0.13"/>
    <polygon points="444.2 363.94 440.18 363.94 440.18 359.92 444.2 363.94" fill="#fff" stroke="#fff" stroke-miterlimit="10" stroke-width="0.16" opacity="0.13"/>
    <polygon points="440.18 359.92 440.18 363.94 436.16 363.94 440.18 359.92" fill="#fff" stroke="#fff" stroke-miterlimit="10" stroke-width="0.16" opacity="0.13"/>
    <polygon points="436.16 363.94 440.18 363.94 440.18 367.96 436.16 363.94" fill="#fff" stroke="#fff" stroke-miterlimit="10" stroke-width="0.16" opacity="0.13"/>
    <polygon points="436.16 342.97 436.16 338.95 440.18 338.95 436.16 342.97" fill="#fff" stroke="#fff" stroke-miterlimit="10" stroke-width="0.16" opacity="0.1"/>
    <polygon points="440.18 338.95 436.16 338.95 436.16 334.93 440.18 338.95" fill="#fff" stroke="#fff" stroke-miterlimit="10" stroke-width="0.16" opacity="0.1"/>
    <polygon points="436.16 334.93 436.16 338.95 432.14 338.95 436.16 334.93" fill="#fff" stroke="#fff" stroke-miterlimit="10" stroke-width="0.16" opacity="0.1"/>
    <polygon points="432.14 338.95 436.16 338.95 436.16 342.97 432.14 338.95" fill="#fff" stroke="#fff" stroke-miterlimit="10" stroke-width="0.16" opacity="0.1"/>
    <polygon points="438.99 375.24 438.99 371.21 443.01 371.21 438.99 375.24" fill="#fff" stroke="#fff" stroke-miterlimit="10" stroke-width="0.16" opacity="0.07"/>
    <polygon points="443.01 371.21 438.99 371.21 438.99 367.19 443.01 371.21" fill="#fff" stroke="#fff" stroke-miterlimit="10" stroke-width="0.16" opacity="0.07"/>
    <polygon points="438.99 367.19 438.99 371.21 434.97 371.21 438.99 367.19" fill="#fff" stroke="#fff" stroke-miterlimit="10" stroke-width="0.16" opacity="0.07"/>
    <polygon points="434.97 371.21 438.99 371.21 438.99 375.24 434.97 371.21" fill="#fff" stroke="#fff" stroke-miterlimit="10" stroke-width="0.16" opacity="0.07"/>
    <polygon points="469.66 297.74 469.66 293.53 473.88 293.53 469.66 297.74" fill="#fff" stroke="#fff" stroke-miterlimit="10" stroke-width="0.3" opacity="0.13"/>
    <polygon points="473.88 293.53 469.66 293.53 469.66 289.31 473.88 293.53" fill="#fff" stroke="#fff" stroke-miterlimit="10" stroke-width="0.3" opacity="0.13"/>
    <polygon points="469.66 289.31 469.66 293.53 465.44 293.53 469.66 289.31" fill="#fff" stroke="#fff" stroke-miterlimit="10" stroke-width="0.3" opacity="0.13"/>
    <polygon points="465.44 293.53 469.66 293.53 469.66 297.74 465.44 293.53" fill="#fff" stroke="#fff" stroke-miterlimit="10" stroke-width="0.3" opacity="0.13"/>
    <polygon points="469.66 301.01 469.66 299.38 471.29 299.38 469.66 301.01" fill="#fff" stroke="#fff" stroke-miterlimit="10" stroke-width="0.3" opacity="0.13"/>
    <polygon points="471.29 299.38 469.66 299.38 469.66 297.76 471.29 299.38" fill="#fff" stroke="#fff" stroke-miterlimit="10" stroke-width="0.3" opacity="0.13"/>
    <polygon points="469.66 297.76 469.66 299.38 468.04 299.38 469.66 297.76" fill="#fff" stroke="#fff" stroke-miterlimit="10" stroke-width="0.3" opacity="0.13"/>
    <polygon points="468.04 299.38 469.66 299.38 469.66 301.01 468.04 299.38" fill="#fff" stroke="#fff" stroke-miterlimit="10" stroke-width="0.3" opacity="0.13"/>
    <polygon points="444.78 298.03 444.78 288.83 453.98 288.83 444.78 298.03" fill="#f8feff" opacity="0.74"/>
    <polygon points="453.98 288.83 444.78 288.83 444.78 279.63 453.98 288.83" fill="#f8feff"/>
    <polygon points="444.78 279.63 444.78 288.83 435.58 288.83 444.78 279.63" fill="#def2f9"/>
    <polygon points="435.58 288.83 444.78 288.83 444.78 298.03 435.58 288.83" fill="#fdffff" opacity="0.74"/>
    <polygon points="469.55 265.12 469.55 255.92 478.74 255.92 469.55 265.12" fill="#f8feff" opacity="0.74"/>
    <polygon points="478.74 255.92 469.55 255.92 469.55 246.72 478.74 255.92" fill="#f8feff"/>
    <polygon points="469.55 246.72 469.55 255.92 460.35 255.92 469.55 246.72" fill="#def2f9"/>
    <polygon points="460.35 255.92 469.55 255.92 469.55 265.12 460.35 255.92" fill="#fdffff" opacity="0.74"/>
    <polygon points="444.78 326.53 444.78 310.66 460.65 310.66 444.78 326.53" fill="#fdffff"/>
    <polygon points="460.65 310.66 444.78 310.66 444.78 294.8 460.65 310.66" fill="#f8feff"/>
    <polygon points="444.78 294.8 444.78 310.66 428.92 310.66 444.78 294.8" fill="#def2f9"/>
    <polygon points="428.92 310.66 444.78 310.66 444.78 326.53 428.92 310.66" fill="#f0f9fc" opacity="0.89"/>
    <polygon points="440.35 338.95 440.45 330.56 448.83 330.66 440.35 338.95" fill="#f8feff" opacity="0.74"/>
    <polygon points="448.81 330.59 440.42 330.59 440.42 322.2 448.81 330.59" fill="#f0f9fc" opacity="0.74"/>
    <polygon points="440.42 322.2 440.42 330.59 432.04 330.59 440.42 322.2" fill="#def2f9" opacity="0.74"/>
    <polygon points="432.04 330.59 440.42 330.59 440.42 338.98 432.04 330.59" fill="#fdffff" opacity="0.74"/>
    <polygon points="446.93 255.44 443.1 251.61 446.93 247.78 446.93 255.44" fill="#00c6ad" stroke="#fff" stroke-miterlimit="10" stroke-width="0.3" opacity="0.84"/>
    <polygon points="446.93 247.78 450.77 251.61 446.93 255.44 446.93 247.78" fill="#00c6ad" stroke="#fff" stroke-miterlimit="10" stroke-width="0.3" opacity="0.84"/>
    <polygon points="428.14 242.87 427.17 243.83 426.21 242.87 428.14 242.87" fill="#00c6ad" stroke="#fff" stroke-miterlimit="10" stroke-width="0.3" opacity="0.84"/>
    <polygon points="466.6 229.48 463.78 232.31 460.95 229.48 466.6 229.48" fill="#00c6ad" stroke="#fff" stroke-miterlimit="10" stroke-width="0.3" opacity="0.84"/>
    <polygon points="460.95 229.48 463.78 226.65 466.6 229.48 460.95 229.48" fill="#00c6ad" stroke="#fff" stroke-miterlimit="10" stroke-width="0.3" opacity="0.84"/>
    <polygon points="446.7 225.88 448.7 223.88 450.7 225.88 446.7 225.88" fill="#00c6ad" stroke="#fff" stroke-miterlimit="10" stroke-width="0.3" opacity="0.84"/>
    <polygon points="435.68 259.36 436.85 258.19 438.01 259.36 435.68 259.36" fill="#00c6ad" stroke="#fff" stroke-miterlimit="10" stroke-width="0.3" opacity="0.84"/>
    <polygon points="449.26 238.47 448.1 239.64 446.93 238.47 449.26 238.47" fill="#00c6ad" stroke="#fff" stroke-miterlimit="10" stroke-width="0.3" opacity="0.84"/>
    <polygon points="433.5 206.81 431.94 208.37 430.39 206.81 433.5 206.81" fill="#00c6ad" stroke="#fff" stroke-miterlimit="10" stroke-width="0.3" opacity="0.84"/>
    <polygon points="429.4 236.41 427.17 234.18 429.4 231.95 429.4 236.41" fill="#00c6ad" stroke="#fff" stroke-miterlimit="10" stroke-width="0.3" opacity="0.84"/>
    <polygon points="429.4 231.95 431.62 234.18 429.4 236.41 429.4 231.95" fill="#00c6ad" stroke="#fff" stroke-miterlimit="10" stroke-width="0.3" opacity="0.84"/>
    <polygon points="438.01 224.88 433.75 220.62 438.01 216.35 438.01 224.88" fill="#00c6ad" stroke="#fff" stroke-miterlimit="10" stroke-width="0.3" opacity="0.84"/>
    <polygon points="438.01 216.35 442.27 220.62 438.01 224.88 438.01 216.35" fill="#00c6ad" stroke="#fff" stroke-miterlimit="10" stroke-width="0.3" opacity="0.84"/>
    <polygon points="451.77 214.5 449.11 211.85 451.77 209.19 451.77 214.5" fill="#00c6ad" stroke="#fff" stroke-miterlimit="10" stroke-width="0.3" opacity="0.84"/>
    <polygon points="451.77 209.19 454.42 211.85 451.77 214.5 451.77 209.19" fill="#00c6ad" stroke="#fff" stroke-miterlimit="10" stroke-width="0.3" opacity="0.84"/>
    <polygon points="438.79 60.72 438.79 76.16 423.35 76.16 438.79 60.72" fill="#00c6ad" stroke="#fff" stroke-miterlimit="10" stroke-width="0.3" opacity="0.85"/>
    <polygon points="469.65 76.16 454.22 76.16 454.22 60.72 469.65 76.16" fill="#00c6ad" stroke="#fff" stroke-miterlimit="10" stroke-width="0.3" opacity="0.95"/>
    <polygon points="485.09 91.59 469.65 91.59 469.65 76.16 485.09 91.59" fill="#00c6ad" stroke="#fff" stroke-miterlimit="10" stroke-width="0.3" opacity="0.95"/>
    <polygon points="438.79 76.16 438.79 60.72 454.22 60.72 438.79 76.16" fill="#00c6ad" stroke="#fff" stroke-miterlimit="10" stroke-width="0.3" opacity="0.85"/>
    <polygon points="454.21 60.72 454.21 76.16 438.78 76.16 454.21 60.72" fill="#00c6ad" stroke="#fff" stroke-miterlimit="10" stroke-width="0.3" opacity="0.85"/>
    <polygon points="438.78 58.86 438.78 51.14 454.23 51.14 438.78 58.86" fill="#00c6ad" stroke="#fff" stroke-miterlimit="10" stroke-width="0.3" opacity="0.95"/>
    <polygon points="454.22 51.14 454.22 58.86 438.77 58.86 454.22 51.14" fill="#00c6ad" stroke="#fff" stroke-miterlimit="10" stroke-width="0.3" opacity="0.95"/>
    <polygon points="442.64 47.28 442.64 51.14 438.78 51.14 442.64 47.28" fill="#00c6ad" stroke="#fff" stroke-miterlimit="10" stroke-width="0.3" opacity="0.85"/>
    <polygon points="442.64 51.14 442.64 47.28 450.37 47.28 442.64 51.14" fill="#00c6ad" stroke="#fff" stroke-miterlimit="10" stroke-width="0.3" opacity="0.85"/>
    <polygon points="450.37 47.28 450.37 51.14 442.64 51.14 450.37 47.28" fill="#00c6ad" stroke="#fff" stroke-miterlimit="10" stroke-width="0.3" opacity="0.85"/>
    <polygon points="450.37 47.28 450.37 51.14 454.22 51.14 450.37 47.28" fill="#00c6ad" stroke="#fff" stroke-miterlimit="10" stroke-width="0.3" opacity="0.95"/>
    <polygon points="423.35 189.45 434.9 189.45 434.9 201 423.35 189.45" fill="#00c6ad" stroke="#fff" stroke-miterlimit="10" stroke-width="0.3" opacity="0.95"/>
    <polygon points="458 201 458 189.45 469.55 189.45 458 201" fill="#00c6ad" stroke="#fff" stroke-miterlimit="10" stroke-width="0.3" opacity="0.95"/>
    <polygon points="423.35 76.16 423.35 91.59 407.92 91.59 423.35 76.16" fill="#00c6ad" stroke="#fff" stroke-miterlimit="10" stroke-width="0.3" opacity="0.85"/>
    <polygon points="423.35 91.59 423.35 76.16 469.55 76.16 423.35 91.59" fill="#00c6ad" stroke="#fff" stroke-miterlimit="10" stroke-width="0.3" opacity="0.85"/>
    <polygon points="469.55 76.16 469.55 91.59 423.35 91.59 469.55 76.16" fill="#00c6ad" stroke="#fff" stroke-miterlimit="10" stroke-width="0.3" opacity="0.85"/>
    <polygon points="407.92 113.14 407.92 97.71 469.67 97.71 407.92 113.14" fill="#00c6ad" stroke="#fff" stroke-miterlimit="10" stroke-width="0.3" opacity="0.95"/>
    <polygon points="469.66 97.71 469.66 113.14 407.91 113.14 469.66 97.71" fill="#00c6ad" stroke="#fff" stroke-miterlimit="10" stroke-width="0.3" opacity="0.95"/>
    <polygon points="434.9 177.88 434.9 189.45 423.34 189.45 434.9 177.88" fill="#00c6ad" stroke="#fff" stroke-miterlimit="10" stroke-width="0.3" opacity="0.95"/>
    <polygon points="423.34 189.45 423.34 177.88 434.91 177.88 423.34 189.45" fill="#00c6ad" stroke="#fff" stroke-miterlimit="10" stroke-width="0.3" opacity="0.95"/>
    <polygon points="434.9 189.45 434.9 177.88 458 177.88 434.9 189.45" fill="#00c6ad" stroke="#fff" stroke-miterlimit="10" stroke-width="0.3" opacity="0.95"/>
    <polygon points="458 177.88 458 189.45 434.9 189.45 458 177.88" fill="#00c6ad" stroke="#fff" stroke-miterlimit="10" stroke-width="0.3" opacity="0.95"/>
    <polygon points="434.9 201 434.9 189.44 458 189.44 434.9 201" fill="#00c6ad" stroke="#fff" stroke-miterlimit="10" stroke-width="0.3" opacity="0.95"/>
    <polygon points="458 189.44 458 201 434.9 201 458 189.44" fill="#00c6ad" stroke="#fff" stroke-miterlimit="10" stroke-width="0.3" opacity="0.95"/>
    <polygon points="458 177.89 469.56 177.89 469.56 189.45 458 177.89" fill="#00c6ad" stroke="#fff" stroke-miterlimit="10" stroke-width="0.3" opacity="0.95"/>
    <polygon points="469.56 189.44 458 189.44 458 177.88 469.56 189.44" fill="#00c6ad" stroke="#fff" stroke-miterlimit="10" stroke-width="0.3" opacity="0.95"/>
    <polygon points="407.94 174.86 407.94 113.14 469.66 113.14 407.94 174.86" fill="#00c6ad" stroke="#fff" stroke-miterlimit="10" stroke-width="0.3" opacity="0.84"/>
    <polygon points="469.63 113.14 469.63 174.86 407.91 174.86 469.63 113.14" fill="#00c6ad" stroke="#fff" stroke-miterlimit="10" stroke-width="0.3" opacity="0.84"/>
    <polygon points="513.2 174.87 487.44 174.87 487.44 149.11 513.2 174.87" fill="#00c6ad" stroke="#fff" stroke-miterlimit="10" stroke-width="0.3" opacity="0.8"/>
    <polygon points="495.29 174.87 513.2 174.87 513.2 192.78 495.29 174.87" fill="#00c6ad" stroke="#fff" stroke-miterlimit="10" stroke-width="0.3" opacity="0.85"/>
    <polygon points="500.54 180.12 513.2 192.78 500.54 205.45 500.54 180.12" fill="#00c6ad" stroke="#fff" stroke-miterlimit="10" stroke-width="0.3" opacity="0.95"/>
    <polygon points="379.8 174.87 405.56 174.87 405.56 149.11 379.8 174.87" fill="#00c6ad" stroke="#fff" stroke-miterlimit="10" stroke-width="0.3" opacity="0.8"/>
    <polygon points="397.71 174.87 379.8 174.87 379.8 192.78 397.71 174.87" fill="#00c6ad" stroke="#fff" stroke-miterlimit="10" stroke-width="0.3" opacity="0.85"/>
    <polygon points="392.46 180.12 379.8 192.78 392.46 205.45 392.46 180.12" fill="#00c6ad" stroke="#fff" stroke-miterlimit="10" stroke-width="0.3" opacity="0.95"/>
    <polygon points="421.28 161.34 421.28 145.91 436.72 145.91 421.28 161.34" fill="#00c6ad" stroke="#fff" stroke-miterlimit="10" stroke-width="0.3" opacity="0.84"/>
    <polygon points="436.71 145.91 436.71 161.34 421.28 161.34 436.71 145.91" fill="#00c6ad" stroke="#fff" stroke-miterlimit="10" stroke-width="0.3" opacity="0.84"/>
    <polygon points="469.66 113.14 469.66 97.71 485.09 97.71 469.66 113.14" fill="#00c6ad" stroke="#fff" stroke-miterlimit="10" stroke-width="0.3" opacity="0.95"/>
    <polygon points="485.09 97.71 485.09 113.14 469.65 113.14 485.09 97.71" fill="#00c6ad" stroke="#fff" stroke-miterlimit="10" stroke-width="0.3" opacity="0.95"/>
    <polygon points="469.66 159.44 469.66 113.14 485.09 113.14 469.66 159.44" fill="#00c6ad" stroke="#fff" stroke-miterlimit="10" stroke-width="0.3" opacity="0.95"/>
    <polygon points="485.09 113.14 485.09 159.71 469.65 159.71 485.09 113.14" fill="#00c6ad" stroke="#fff" stroke-miterlimit="10" stroke-width="0.3" opacity="0.95"/>
    <polygon points="469.66 174.87 469.66 159.44 485.09 159.44 469.66 174.87" fill="#00c6ad" stroke="#fff" stroke-miterlimit="10" stroke-width="0.3" opacity="0.95"/>
    <polygon points="485.09 159.44 485.09 174.87 469.65 174.87 485.09 159.44" fill="#00c6ad" stroke="#fff" stroke-miterlimit="10" stroke-width="0.3" opacity="0.95"/>
  </g>
</svg>
