<svg id="Layer_1" data-name="Layer 1" xmlns="http://www.w3.org/2000/svg" viewBox="0 0 640 241.4">
  <title>footer</title>
  <g id="Layer_2" data-name="Layer 2">
    <rect width="640" height="240.88" fill="none"/>
  </g>
  <g id="Layer_3" data-name="Layer 3">
    <polygon points="192.22 234.76 195.21 234.76 195.21 237.75 192.22 234.76" fill="#1C1D28" stroke="#fff" stroke-miterlimit="10" stroke-width="0.2"/>
    <polygon points="201.18 237.75 201.18 234.76 204.17 234.76 201.18 237.75" fill="#1C1D28" stroke="#fff" stroke-miterlimit="10" stroke-width="0.2"/>
    <polygon points="204.16 231.78 204.16 234.76 192.22 234.76 204.16 231.78" fill="#1C1D28" stroke="#fff" stroke-miterlimit="10" stroke-width="0.2"/>
    <polygon points="192.22 234.76 192.22 231.78 204.17 231.78 192.22 234.76" fill="#1C1D28" stroke="#fff" stroke-miterlimit="10" stroke-width="0.2"/>
    <polygon points="195.21 237.75 195.21 234.76 201.18 234.76 195.21 237.75" fill="#1C1D28" stroke="#fff" stroke-miterlimit="10" stroke-width="0.2"/>
    <polygon points="201.18 234.76 201.18 237.75 195.21 237.75 201.18 234.76" fill="#1C1D28" stroke="#fff" stroke-miterlimit="10" stroke-width="0.2"/>
    <polygon points="220.09 231.13 211.64 231.13 211.64 222.68 220.09 231.13" fill="#1C1D28" stroke="#fff" stroke-miterlimit="10" stroke-width="0.2"/>
    <polygon points="214.21 231.13 220.09 231.13 220.09 237 214.21 231.13" fill="#1C1D28" stroke="#fff" stroke-miterlimit="10" stroke-width="0.2"/>
    <polygon points="215.93 232.84 220.09 237 215.93 241.16 215.93 232.84" fill="#1C1D28" stroke="#fff" stroke-miterlimit="10" stroke-width="0.2"/>
    <polygon points="176.34 231.13 184.78 231.13 184.78 222.68 176.34 231.13" fill="#1C1D28" stroke="#fff" stroke-miterlimit="10" stroke-width="0.2"/>
    <polygon points="182.21 231.13 176.34 231.13 176.34 237 182.21 231.13" fill="#1C1D28" stroke="#fff" stroke-miterlimit="10" stroke-width="0.2"/>
    <polygon points="180.49 232.84 176.34 237 180.49 241.16 180.49 232.84" fill="#1C1D28" stroke="#fff" stroke-miterlimit="10" stroke-width="0.2"/>
    <polygon points="185.57 231.13 185.57 205.82 210.87 205.82 185.57 231.13" fill="#1C1D28" stroke="#fff" stroke-miterlimit="10" stroke-width="0.2"/>
    <polygon points="185.89 203.84 198.37 191.34 210.86 203.84 185.89 203.84" fill="#1C1D28" stroke="#fff" stroke-miterlimit="10" stroke-width="0.2"/>
    <polygon points="210.86 205.82 210.86 231.13 185.56 231.13 210.86 205.82" fill="#1C1D28" stroke="#fff" stroke-miterlimit="10" stroke-width="0.2"/>
    <polygon points="189.94 226.69 189.94 221.63 195 221.63 189.94 226.69" fill="#1C1D28" stroke="#fff" stroke-miterlimit="10" stroke-width="0.2"/>
    <polygon points="195 221.63 195 226.69 189.94 226.69 195 221.63" fill="#1C1D28" stroke="#fff" stroke-miterlimit="10" stroke-width="0.2"/>
    <polygon points="196.08 193.69 196.08 191.35 200.75 191.35 196.08 193.69" fill="#1C1D28" stroke="#fff" stroke-miterlimit="10" stroke-width="0.2"/>
    <polygon points="200.74 191.35 200.74 193.69 196.07 193.69 200.74 191.35" fill="#1C1D28" stroke="#fff" stroke-miterlimit="10" stroke-width="0.2"/>
    <polygon points="197.24 190.19 197.24 191.35 196.08 191.35 197.24 190.19" fill="#1C1D28" stroke="#fff" stroke-miterlimit="10" stroke-width="0.2"/>
    <polygon points="197.25 191.35 197.25 190.19 199.58 190.19 197.25 191.35" fill="#1C1D28" stroke="#fff" stroke-miterlimit="10" stroke-width="0.2"/>
    <polygon points="199.58 190.19 199.58 191.35 197.24 191.35 199.58 190.19" fill="#1C1D28" stroke="#fff" stroke-miterlimit="10" stroke-width="0.2"/>
    <polygon points="199.58 190.19 199.58 191.35 200.74 191.35 199.58 190.19" fill="#1C1D28" stroke="#fff" stroke-miterlimit="10" stroke-width="0.2"/>
    <polygon points="345.05 217.24 345.05 214.84 349.85 214.84 345.05 217.24" fill="#f6715e" opacity="0.95" style="isolation: isolate"/>
    <polygon points="349.85 214.84 349.85 217.24 345.05 217.24 349.85 214.84" fill="#f6715e" opacity="0.95" style="isolation: isolate"/>
    <polygon points="349.8 233.97 349.8 219.63 366.7 219.63 349.8 233.97" fill="#f6715e" opacity="0.95" style="isolation: isolate"/>
    <polygon points="366.7 219.63 366.7 233.97 349.79 233.97 366.7 219.63" fill="#f6715e" opacity="0.95" style="isolation: isolate"/>
    <polygon points="354.69 224.41 354.69 222.01 359.52 222.01 354.69 224.41" fill="#dd5143" opacity="0.95" style="isolation: isolate"/>
    <polygon points="359.52 222.01 359.52 224.41 354.69 224.41 359.52 222.01" fill="#dd5143" opacity="0.95" style="isolation: isolate"/>
    <polygon points="352.3 226.81 352.3 224.41 361.93 224.41 352.3 226.81" fill="#dd5143" opacity="0.95" style="isolation: isolate"/>
    <polygon points="361.93 224.41 361.93 226.81 352.3 226.81 361.93 224.41" fill="#dd5143" opacity="0.95" style="isolation: isolate"/>
    <polygon points="352.3 229.19 352.3 226.81 361.93 226.81 352.3 229.19" fill="#fff"/>
    <polygon points="361.93 226.81 361.93 229.19 352.29 229.19 361.93 226.81" fill="#fff"/>
    <polygon points="354.72 231.59 354.72 224.41 359.48 224.41 354.72 231.59" fill="#fff" stroke="#fff" stroke-miterlimit="10" stroke-width="0.06"/>
    <polygon points="359.47 224.41 359.47 231.59 354.72 231.59 359.47 224.41" fill="#fff" stroke="#fff" stroke-miterlimit="10" stroke-width="0.06"/>
    <polygon points="354.73 241.16 371.52 241.16 371.52 236.37 354.73 241.16" fill="#f6715e" opacity="0.95" style="isolation: isolate"/>
    <polygon points="354.74 241.16 354.74 236.37 371.53 236.37 354.74 241.16" fill="#f6715e" opacity="0.95" style="isolation: isolate"/>
    <polygon points="352.29 238.76 369.09 238.76 369.09 233.97 352.29 238.76" fill="#f6715e" opacity="0.95" style="isolation: isolate"/>
    <polygon points="352.3 238.76 352.3 233.97 369.1 233.97 352.3 238.76" fill="#f6715e" opacity="0.95" style="isolation: isolate"/>
    <polygon points="364.33 238.76 364.33 233.97 359.49 233.97 364.33 238.76" fill="#dd5143" opacity="0.95" style="isolation: isolate"/>
    <polygon points="359.5 233.97 359.5 238.76 364.33 238.76 359.5 233.97" fill="#dd5143" opacity="0.95" style="isolation: isolate"/>
    <polygon points="347.48 229.19 347.48 224.41 349.87 224.41 347.48 229.19" fill="#dd5143" opacity="0.95" style="isolation: isolate"/>
    <polygon points="349.87 224.41 349.87 229.19 347.48 229.19 349.87 224.41" fill="#dd5143" opacity="0.95" style="isolation: isolate"/>
    <polygon points="366.73 229.19 366.73 224.41 369.12 224.41 366.73 229.19" fill="#dd5143" opacity="0.95" style="isolation: isolate"/>
    <polygon points="369.12 224.41 369.12 229.19 366.73 229.19 369.12 224.41" fill="#dd5143" opacity="0.95" style="isolation: isolate"/>
    <polygon points="347.45 219.63 347.45 217.24 352.29 217.24 347.45 219.63" fill="#f6715e" opacity="0.95" style="isolation: isolate"/>
    <polygon points="352.28 217.24 352.28 219.63 347.44 219.63 352.28 217.24" fill="#f6715e" opacity="0.95" style="isolation: isolate"/>
    <polygon points="345.04 217.24 345.04 214.84 347.43 214.84 345.04 217.24" fill="#dd5143" opacity="0.95" style="isolation: isolate"/>
    <polygon points="347.43 214.84 347.43 217.24 345.04 217.24 347.43 214.84" fill="#dd5143" opacity="0.95" style="isolation: isolate"/>
    <polygon points="357.04 214.84 357.04 212.44 361.86 212.44 357.04 214.84" fill="#f6715e" opacity="0.95" style="isolation: isolate"/>
    <polygon points="361.85 212.44 361.85 214.84 357.04 214.84 361.85 212.44" fill="#f6715e" opacity="0.95" style="isolation: isolate"/>
    <polygon points="359.46 217.24 359.46 214.84 364.26 214.84 359.46 217.24" fill="#f6715e" opacity="0.95" style="isolation: isolate"/>
    <polygon points="364.26 214.84 364.26 217.24 359.46 217.24 364.26 214.84" fill="#f6715e" opacity="0.95" style="isolation: isolate"/>
    <polygon points="361.86 219.63 361.86 217.24 366.7 217.24 361.86 219.63" fill="#f6715e" opacity="0.95" style="isolation: isolate"/>
    <polygon points="366.69 217.24 366.69 219.63 361.86 219.63 366.69 217.24" fill="#f6715e" opacity="0.95" style="isolation: isolate"/>
    <polygon points="359.45 217.24 359.45 214.84 361.84 214.84 359.45 217.24" fill="#dd5143" opacity="0.95" style="isolation: isolate"/>
    <polygon points="361.84 214.84 361.84 217.24 359.45 217.24 361.84 214.84" fill="#dd5143" opacity="0.95" style="isolation: isolate"/>
    <polygon points="357.04 214.84 357.04 212.44 359.43 212.44 357.04 214.84" fill="#dd5143" opacity="0.95" style="isolation: isolate"/>
    <polygon points="359.43 212.44 359.43 214.84 357.04 214.84 359.43 212.44" fill="#dd5143" opacity="0.95" style="isolation: isolate"/>
    <polygon points="354.71 229.18 354.71 226.78 357.11 226.78 354.71 229.18" fill="#1C1D28"/>
    <polygon points="357.11 226.78 357.11 229.18 354.71 229.18 357.11 226.78" fill="#1C1D28"/>
    <polygon points="359.47 236.37 359.47 233.97 357.08 233.97 359.47 236.37" fill="#dd5143" opacity="0.95" style="isolation: isolate"/>
    <polygon points="357.08 233.97 357.08 236.37 359.47 236.37 357.08 233.97" fill="#dd5143" opacity="0.95" style="isolation: isolate"/>
    <polygon points="371.55 238.76 371.55 241.16 373.94 241.16 371.55 238.76" fill="#dd5143" opacity="0.95" style="isolation: isolate"/>
    <polygon points="103.48 241.16 121.14 223.5 138.8 241.16 103.48 241.16" fill="#1C1D28" opacity="0.3" style="isolation: isolate"/>
    <polygon points="52.22 241.16 69.87 223.5 87.53 241.16 52.22 241.16" fill="#1C1D28" opacity="0.3" style="isolation: isolate"/>
    <polygon points="0 241.16 34.7 206.46 69.4 241.16 0 241.16" fill="#1C1D28" opacity="0.3" style="isolation: isolate"/>
    <polygon points="417.99 241.16 452.69 206.46 487.39 241.16 417.99 241.16" fill="#1C1D28" opacity="0.3" style="isolation: isolate"/>
    <polygon points="504.72 241.16 529.76 216.12 554.8 241.16 504.72 241.16" fill="#1C1D28" opacity="0.3" style="isolation: isolate"/>
    <polygon points="398.31 241.16 416.96 222.5 435.62 241.16 398.31 241.16" fill="#1C1D28" opacity="0.3" style="isolation: isolate"/>
    <polygon points="613.36 241.16 626.68 227.84 640 241.16 613.36 241.16" fill="#1C1D28" opacity="0.3" style="isolation: isolate"/>
    <polygon points="135.82 241.16 145.47 231.5 155.13 241.16 135.82 241.16" fill="#1C1D28" opacity="0.3" style="isolation: isolate"/>
    <polygon points="157.02 241.16 163.54 234.63 170.05 241.16 157.02 241.16" fill="#1C1D28" opacity="0.3" style="isolation: isolate"/>
    <polygon points="240.87 238.71 240.87 228.84 265.58 228.84 240.87 238.71" fill="#15ce52"/>
    <polygon points="265.57 228.84 265.57 238.71 240.86 238.71 265.57 228.84" fill="#15ce52"/>
    <polygon points="243.31 233.85 243.31 214.06 263.12 214.06 243.31 233.85" fill="#15ce52"/>
    <polygon points="263.11 214.06 263.11 233.85 243.3 233.85 263.11 214.06" fill="#15ce52"/>
    <polygon points="245.78 225.96 245.78 221.03 248.24 221.03 245.78 225.96" fill="#2fa00a"/>
    <polygon points="248.24 221.03 248.24 225.96 245.78 225.96 248.24 221.03" fill="#2fa00a"/>
    <polygon points="250.75 221.01 250.75 217.56 255.71 217.56 250.75 221.01" fill="#2fa00a"/>
    <polygon points="255.71 217.56 255.71 221.01 250.75 221.01 255.71 217.56" fill="#2fa00a"/>
    <polygon points="248.25 223.5 248.25 218.56 250.71 218.56 248.25 223.5" fill="#2fa00a"/>
    <polygon points="250.71 218.56 250.71 223.5 248.25 223.5 250.71 218.56" fill="#2fa00a"/>
    <polygon points="248.27 228.43 248.27 223.5 250.74 223.5 248.27 228.43" fill="#fff"/>
    <polygon points="250.73 223.5 250.73 228.43 248.27 228.43 250.73 223.5" fill="#fff"/>
    <polygon points="250.77 225.96 250.77 221.03 255.69 221.03 250.77 225.96" fill="#fff"/>
    <polygon points="255.69 221.03 255.69 225.96 250.76 225.96 255.69 221.03" fill="#fff"/>
    <polygon points="250.77 230.88 250.77 225.97 255.69 225.97 250.77 230.88" fill="#fff"/>
    <polygon points="255.69 225.97 255.69 230.88 250.76 230.88 255.69 225.97" fill="#fff"/>
    <polygon points="245.76 233.78 245.76 231.31 248.23 231.31 245.76 233.78" fill="#2fa00a"/>
    <polygon points="248.23 231.31 248.23 233.78 245.76 233.78 248.23 231.31" fill="#2fa00a"/>
    <polygon points="248.24 236.24 248.24 233.78 258.2 233.78 248.24 236.24" fill="#2fa00a"/>
    <polygon points="258.2 233.78 258.2 236.24 248.24 236.24 258.2 233.78" fill="#2fa00a"/>
    <polygon points="238.37 241.16 238.37 238.71 240.83 238.71 238.37 241.16" fill="#2fa00a"/>
    <polygon points="240.83 238.71 240.83 241.16 238.37 241.16 240.83 238.71" fill="#2fa00a"/>
    <polygon points="268.05 241.16 268.05 238.71 265.58 238.71 268.05 241.16" fill="#2fa00a"/>
    <polygon points="265.58 238.71 265.58 241.16 268.05 241.16 265.58 238.71" fill="#2fa00a"/>
    <polygon points="248.28 241.16 248.28 238.71 250.74 238.71 248.28 241.16" fill="#15ce52"/>
    <polygon points="240.83 241.16 240.83 238.71 243.3 238.71 240.83 241.16" fill="#15ce52"/>
    <polygon points="263.11 238.71 265.57 238.71 265.57 241.16 263.11 238.71" fill="#15ce52"/>
    <polygon points="245.81 241.16 245.81 238.71 248.28 238.71 245.81 241.16" fill="#2fa00a"/>
    <polygon points="248.28 238.71 248.28 241.16 245.81 241.16 248.28 238.71" fill="#2fa00a"/>
    <polygon points="260.64 225.96 260.64 221.03 258.18 221.03 260.64 225.96" fill="#2fa00a"/>
    <polygon points="258.18 221.03 258.18 225.96 260.64 225.96 258.18 221.03" fill="#2fa00a"/>
    <polygon points="258.18 223.5 258.18 218.56 255.71 218.56 258.18 223.5" fill="#2fa00a"/>
    <polygon points="255.71 218.56 255.71 223.5 258.18 223.5 255.71 218.56" fill="#2fa00a"/>
    <polygon points="258.15 228.43 258.15 223.5 255.69 223.5 258.15 228.43" fill="#fff"/>
    <polygon points="255.69 223.5 255.69 228.43 258.15 228.43 255.69 223.5" fill="#fff"/>
    <polygon points="260.66 233.78 260.66 231.31 258.19 231.31 260.66 233.78" fill="#2fa00a"/>
    <polygon points="258.2 231.31 258.2 233.78 260.66 233.78 258.2 231.31" fill="#2fa00a"/>
    <polygon points="258.15 241.16 258.15 238.71 255.68 238.71 258.15 241.16" fill="#15ce52"/>
    <polygon points="260.61 241.16 260.61 238.71 258.15 238.71 260.61 241.16" fill="#2fa00a"/>
    <polygon points="258.15 238.71 258.15 241.16 260.61 241.16 258.15 238.71" fill="#2fa00a"/>
    <polygon points="255.67 228.43 255.67 225.96 253.2 225.96 255.67 228.43" fill="#1C1D28"/>
    <polygon points="253.21 225.96 253.21 228.43 255.67 228.43 253.21 225.96" fill="#1C1D28"/>
    <polygon points="82.47 241.16 97.45 226.18 112.42 241.16 82.47 241.16" fill="#1C1D28"/>
    <polygon points="94.58 241.16 106.41 229.32 118.24 241.16 94.58 241.16" fill="#1C1D28"/>
    <polygon points="59.77 241.16 66.32 234.59 72.88 241.16 59.77 241.16" fill="#1C1D28"/>
    <polygon points="116.63 241.16 123.18 234.59 129.74 241.16 116.63 241.16" fill="#1C1D28"/>
    <polygon points="379.87 241.16 386.43 234.59 392.99 241.16 379.87 241.16" fill="#1C1D28"/>
    <polygon points="439.57 241.16 446.13 234.59 452.69 241.16 439.57 241.16" fill="#1C1D28"/>
    <polygon points="448.23 241.16 454.79 234.59 461.34 241.16 448.23 241.16" fill="#1C1D28"/>
    <polygon points="453.7 241.16 469.39 225.47 485.08 241.16 453.7 241.16" fill="#1C1D28"/>
    <polygon points="461.34 241.16 477.03 225.47 492.72 241.16 461.34 241.16" fill="#1C1D28"/>
    <polygon points="468.38 241.16 502.36 207.18 536.34 241.16 468.38 241.16" fill="#1C1D28"/>
    <polygon points="534.39 241.16 553.67 221.88 572.95 241.16 534.39 241.16" fill="#1C1D28"/>
    <polygon points="578.85 241.16 583.42 236.59 587.99 241.16 578.85 241.16" fill="#1C1D28"/>
    <polygon points="595.99 241.16 602.91 234.22 609.84 241.16 595.99 241.16" fill="#1C1D28"/>
    <polygon points="140.73 241.16 144.37 237.51 148 241.16 140.73 241.16" fill="#1C1D28"/>
    <polygon points="393.6 241.16 397.23 237.51 400.87 241.16 393.6 241.16" fill="#1C1D28"/>
    <polygon points="53.27 145.43 55.17 143.53 57.07 145.43 53.27 145.43" fill="#fff" stroke="#fff" stroke-miterlimit="10" stroke-width="0.02" opacity="0.24" style="isolation: isolate"/>
    <polygon points="57.07 145.43 55.17 147.32 53.27 145.43 57.07 145.43" fill="#fff" stroke="#fff" stroke-miterlimit="10" stroke-width="0.02" opacity="0.24" style="isolation: isolate"/>
    <polygon points="49.84 144.93 51.74 143.03 53.64 144.93 49.84 144.93" fill="#fff" stroke="#fff" stroke-miterlimit="10" stroke-width="0.02" opacity="0.24" style="isolation: isolate"/>
    <polygon points="53.64 144.93 51.74 146.82 49.84 144.93 53.64 144.93" fill="#fff" stroke="#fff" stroke-miterlimit="10" stroke-width="0.02" opacity="0.24" style="isolation: isolate"/>
    <polygon points="40.03 144.93 44.94 140.01 49.85 144.93 40.03 144.93" fill="#fff" stroke="#fff" stroke-miterlimit="10" stroke-width="0.05" opacity="0.24" style="isolation: isolate"/>
    <polygon points="49.85 144.91 44.94 149.82 40.03 144.91 49.85 144.91" fill="#fff" stroke="#fff" stroke-miterlimit="10" stroke-width="0.05" opacity="0.24" style="isolation: isolate"/>
    <polygon points="129.51 149 131.19 147.31 132.87 149 129.51 149" fill="#fff" stroke="#fff" stroke-miterlimit="10" stroke-width="0.02" opacity="0.24" style="isolation: isolate"/>
    <polygon points="132.87 149 131.19 150.66 129.51 149 132.87 149" fill="#fff" stroke="#fff" stroke-miterlimit="10" stroke-width="0.02" opacity="0.24" style="isolation: isolate"/>
    <polygon points="126.49 148.56 128.16 146.88 129.84 148.56 126.49 148.56" fill="#fff" stroke="#fff" stroke-miterlimit="10" stroke-width="0.02" opacity="0.24" style="isolation: isolate"/>
    <polygon points="129.84 148.56 128.16 150.22 126.49 148.56 129.84 148.56" fill="#fff" stroke="#fff" stroke-miterlimit="10" stroke-width="0.02" opacity="0.24" style="isolation: isolate"/>
    <polygon points="117.82 148.56 122.16 144.22 126.49 148.56 117.82 148.56" fill="#fff" stroke="#fff" stroke-miterlimit="10" stroke-width="0.04" opacity="0.24" style="isolation: isolate"/>
    <polygon points="126.49 148.54 122.16 152.88 117.82 148.54 126.49 148.54" fill="#fff" stroke="#fff" stroke-miterlimit="10" stroke-width="0.04" opacity="0.24" style="isolation: isolate"/>
    <polygon points="138.81 130.56 140.29 129.09 141.76 130.56 138.81 130.56" fill="#fff" stroke="#fff" stroke-miterlimit="10" stroke-width="0.01" opacity="0.24" style="isolation: isolate"/>
    <polygon points="141.76 130.56 140.29 132.03 138.81 130.56 141.76 130.56" fill="#fff" stroke="#fff" stroke-miterlimit="10" stroke-width="0.01" opacity="0.24" style="isolation: isolate"/>
    <polygon points="136.15 130.18 137.62 128.71 139.1 130.18 136.15 130.18" fill="#fff" stroke="#fff" stroke-miterlimit="10" stroke-width="0.01" opacity="0.24" style="isolation: isolate"/>
    <polygon points="139.1 130.18 137.62 131.66 136.15 130.18 139.1 130.18" fill="#fff" stroke="#fff" stroke-miterlimit="10" stroke-width="0.01" opacity="0.24" style="isolation: isolate"/>
    <polygon points="128.52 130.18 132.34 126.36 136.15 130.18 128.52 130.18" fill="#fff" stroke="#fff" stroke-miterlimit="10" stroke-width="0.04" opacity="0.24" style="isolation: isolate"/>
    <polygon points="136.15 130.18 132.34 134 128.52 130.18 136.15 130.18" fill="#fff" stroke="#fff" stroke-miterlimit="10" stroke-width="0.04" opacity="0.24" style="isolation: isolate"/>
    <polygon points="113.63 127.14 116.31 124.45 119 127.14 113.63 127.14" fill="#fff" stroke="#fff" stroke-miterlimit="10" stroke-width="0.03" opacity="0.24" style="isolation: isolate"/>
    <polygon points="119 127.14 116.31 129.81 113.63 127.14 119 127.14" fill="#fff" stroke="#fff" stroke-miterlimit="10" stroke-width="0.03" opacity="0.24" style="isolation: isolate"/>
    <polygon points="119.9 127.14 122.59 124.45 125.27 127.14 119.9 127.14" fill="#fff" stroke="#fff" stroke-miterlimit="10" stroke-width="0.03" opacity="0.24" style="isolation: isolate"/>
    <polygon points="125.27 127.14 122.59 129.81 119.9 127.14 125.27 127.14" fill="#fff" stroke="#fff" stroke-miterlimit="10" stroke-width="0.03" opacity="0.24" style="isolation: isolate"/>
    <polygon points="104.08 130.28 110.36 124 116.65 130.28 104.08 130.28" fill="#fff" stroke="#fff" stroke-miterlimit="10" stroke-width="0.06" opacity="0.24" style="isolation: isolate"/>
    <polygon points="116.65 130.26 110.36 136.54 104.08 130.26 116.65 130.26" fill="#fff" stroke="#fff" stroke-miterlimit="10" stroke-width="0.06" opacity="0.24" style="isolation: isolate"/>
    <polygon points="39.24 132.75 69.69 132.75 69.69 138.71 39.24 132.75" fill="#f8feff" opacity="0.6" style="isolation: isolate"/>
    <polygon points="69.69 138.71 39.24 138.71 39.24 132.75 69.69 138.71" fill="#def2f9" opacity="0.64" style="isolation: isolate"/>
    <polygon points="39.24 132.75 39.24 138.71 33.3 138.71 39.24 132.75" fill="#f0f9fc" opacity="0.68" style="isolation: isolate"/>
    <polygon points="46.44 127.94 57.01 117.36 67.57 127.94 46.44 127.94" fill="#f8feff" opacity="0.95" style="isolation: isolate"/>
    <polygon points="67.57 127.92 57.01 138.49 46.44 127.92 67.57 127.92" fill="#def2f9"/>
    <polygon points="59.69 120.09 63.22 116.56 66.76 120.09 59.69 120.09" fill="#f8feff" opacity="0.74" style="isolation: isolate"/>
    <polygon points="66.76 120.09 63.22 123.63 59.69 120.09 66.76 120.09" fill="#f0f9fc" opacity="0.89" style="isolation: isolate"/>
    <polygon points="85.4 116.11 88.93 112.58 92.47 116.11 85.4 116.11" fill="#f8feff"/>
    <polygon points="92.47 116.09 88.93 119.64 85.4 116.09 92.47 116.09" fill="#def2f9"/>
    <polygon points="88.19 139.06 91.72 142.59 88.19 146.13 88.19 139.06" fill="#f8feff" opacity="0.89" style="isolation: isolate"/>
    <polygon points="88.19 146.13 84.66 142.59 88.19 139.06 88.19 146.13" fill="#def2f9" opacity="0.89" style="isolation: isolate"/>
    <polygon points="88.98 119.64 98.32 110.3 107.66 119.64 88.98 119.64" fill="#f8feff" opacity="0.89" style="isolation: isolate"/>
    <polygon points="107.66 119.63 98.32 128.97 88.98 119.63 107.66 119.63" fill="#def2f9" opacity="0.89" style="isolation: isolate"/>
    <polygon points="88.19 139.03 100.54 126.69 112.89 139.03 88.19 139.03" fill="#f8feff" opacity="0.89" style="isolation: isolate"/>
    <polygon points="112.89 139.03 100.54 151.38 88.19 139.03 112.89 139.03" fill="#def2f9" opacity="0.89" style="isolation: isolate"/>
    <polygon points="100.54 126.73 104.07 123.2 107.61 126.73 100.54 126.73" fill="#f8feff" opacity="0.89" style="isolation: isolate"/>
    <polygon points="107.61 126.73 104.07 130.26 100.54 126.73 107.61 126.73" fill="#fdffff" opacity="0.74" style="isolation: isolate"/>
    <polygon points="114.5 132.5 118.56 136.56 114.5 140.62 114.5 132.5" fill="#def2f9" opacity="0.89" style="isolation: isolate"/>
    <polygon points="114.5 140.62 110.45 136.56 114.5 132.5 114.5 140.62" fill="#f0f9fc" opacity="0.89" style="isolation: isolate"/>
    <polygon points="114.48 140.62 119.99 135.1 125.5 140.62 114.48 140.62" fill="#f0f9fc" opacity="0.89" style="isolation: isolate"/>
    <polygon points="125.5 140.62 119.99 146.13 114.48 140.62 125.5 140.62" fill="#def2f9" opacity="0.89" style="isolation: isolate"/>
    <polygon points="57.86 128.97 78.09 108.73 98.32 128.97 57.86 128.97" fill="#f8feff"/>
    <polygon points="98.32 128.94 78.09 149.18 57.86 128.94 98.32 128.94" fill="#def2f9"/>
  </g>
</svg>
