<svg id="Layer_1" data-name="Layer 1" xmlns="http://www.w3.org/2000/svg" viewBox="0 0 641.21 241.77">
  <title>footer-wire</title>
  <g id="Layer_2" data-name="Layer 2">
    <rect x="0.6" width="640" height="240.88" fill="none"/>
  </g>
  <g id="Layer_3" data-name="Layer 3">
    <polygon points="192.82 234.76 195.81 234.76 195.81 237.75 192.82 234.76" fill="none" stroke="#000" stroke-miterlimit="10" stroke-width="0.5"/>
    <polygon points="201.78 237.75 201.78 234.76 204.77 234.76 201.78 237.75" fill="none" stroke="#000" stroke-miterlimit="10" stroke-width="0.5"/>
    <polygon points="204.76 231.78 204.76 234.76 192.82 234.76 204.76 231.78" fill="none" stroke="#000" stroke-miterlimit="10" stroke-width="0.5"/>
    <polygon points="192.82 234.76 192.82 231.78 204.77 231.78 192.82 234.76" fill="none" stroke="#000" stroke-miterlimit="10" stroke-width="0.5"/>
    <polygon points="195.81 237.75 195.81 234.76 201.78 234.76 195.81 237.75" fill="none" stroke="#000" stroke-miterlimit="10" stroke-width="0.5"/>
    <polygon points="201.78 234.76 201.78 237.75 195.81 237.75 201.78 234.76" fill="none" stroke="#000" stroke-miterlimit="10" stroke-width="0.5"/>
    <polygon points="220.69 231.13 212.24 231.13 212.24 222.68 220.69 231.13" fill="none" stroke="#000" stroke-miterlimit="10" stroke-width="0.5"/>
    <polygon points="214.81 231.13 220.69 231.13 220.69 237 214.81 231.13" fill="none" stroke="#000" stroke-miterlimit="10" stroke-width="0.5"/>
    <polygon points="216.53 232.84 220.69 237 216.53 241.16 216.53 232.84" fill="none" stroke="#000" stroke-miterlimit="10" stroke-width="0.5"/>
    <polygon points="176.94 231.13 185.38 231.13 185.38 222.68 176.94 231.13" fill="none" stroke="#000" stroke-miterlimit="10" stroke-width="0.5"/>
    <polygon points="182.81 231.13 176.94 231.13 176.94 237 182.81 231.13" fill="none" stroke="#000" stroke-miterlimit="10" stroke-width="0.5"/>
    <polygon points="181.09 232.84 176.94 237 181.09 241.16 181.09 232.84" fill="none" stroke="#000" stroke-miterlimit="10" stroke-width="0.5"/>
    <polygon points="186.17 231.13 186.17 205.82 211.47 205.82 186.17 231.13" fill="none" stroke="#000" stroke-miterlimit="10" stroke-width="0.5"/>
    <polygon points="186.49 203.84 198.97 191.34 211.46 203.84 186.49 203.84" fill="none" stroke="#000" stroke-miterlimit="10" stroke-width="0.5"/>
    <polygon points="211.46 205.82 211.46 231.13 186.16 231.13 211.46 205.82" fill="none" stroke="#000" stroke-miterlimit="10" stroke-width="0.5"/>
    <polygon points="190.54 226.69 190.54 221.63 195.6 221.63 190.54 226.69" fill="none" stroke="#000" stroke-miterlimit="10" stroke-width="0.5"/>
    <polygon points="195.6 221.63 195.6 226.69 190.54 226.69 195.6 221.63" fill="none" stroke="#000" stroke-miterlimit="10" stroke-width="0.5"/>
    <polygon points="196.68 193.69 196.68 191.35 201.35 191.35 196.68 193.69" fill="none" stroke="#000" stroke-miterlimit="10" stroke-width="0.5"/>
    <polygon points="201.34 191.35 201.34 193.69 196.67 193.69 201.34 191.35" fill="none" stroke="#000" stroke-miterlimit="10" stroke-width="0.5"/>
    <polygon points="197.84 190.19 197.84 191.35 196.68 191.35 197.84 190.19" fill="none" stroke="#000" stroke-miterlimit="10" stroke-width="0.5"/>
    <polygon points="197.85 191.35 197.85 190.19 200.18 190.19 197.85 191.35" fill="none" stroke="#000" stroke-miterlimit="10" stroke-width="0.5"/>
    <polygon points="200.18 190.19 200.18 191.35 197.84 191.35 200.18 190.19" fill="none" stroke="#000" stroke-miterlimit="10" stroke-width="0.5"/>
    <polygon points="200.18 190.19 200.18 191.35 201.34 191.35 200.18 190.19" fill="none" stroke="#000" stroke-miterlimit="10" stroke-width="0.5"/>
    <polygon points="345.65 217.24 345.65 214.84 350.45 214.84 345.65 217.24" fill="none" stroke="#000" stroke-miterlimit="10" stroke-width="0.5" opacity="0.95" style="isolation: isolate"/>
    <polygon points="350.45 214.84 350.45 217.24 345.65 217.24 350.45 214.84" fill="none" stroke="#000" stroke-miterlimit="10" stroke-width="0.5" opacity="0.95" style="isolation: isolate"/>
    <polygon points="350.4 233.97 350.4 219.63 367.3 219.63 350.4 233.97" fill="none" stroke="#000" stroke-miterlimit="10" stroke-width="0.5" opacity="0.95" style="isolation: isolate"/>
    <polygon points="367.3 219.63 367.3 233.97 350.39 233.97 367.3 219.63" fill="none" stroke="#000" stroke-miterlimit="10" stroke-width="0.5" opacity="0.95" style="isolation: isolate"/>
    <polygon points="355.29 224.41 355.29 222.01 360.12 222.01 355.29 224.41" fill="none" stroke="#000" stroke-miterlimit="10" stroke-width="0.5" opacity="0.95" style="isolation: isolate"/>
    <polygon points="360.12 222.01 360.12 224.41 355.29 224.41 360.12 222.01" fill="none" stroke="#000" stroke-miterlimit="10" stroke-width="0.5" opacity="0.95" style="isolation: isolate"/>
    <polygon points="352.9 226.81 352.9 224.41 362.53 224.41 352.9 226.81" fill="none" stroke="#000" stroke-miterlimit="10" stroke-width="0.5" opacity="0.95" style="isolation: isolate"/>
    <polygon points="362.53 224.41 362.53 226.81 352.9 226.81 362.53 224.41" fill="none" stroke="#000" stroke-miterlimit="10" stroke-width="0.5" opacity="0.95" style="isolation: isolate"/>
    <polygon points="352.9 229.19 352.9 226.81 362.53 226.81 352.9 229.19" fill="none" stroke="#000" stroke-miterlimit="10" stroke-width="0.5"/>
    <polygon points="362.53 226.81 362.53 229.19 352.89 229.19 362.53 226.81" fill="none" stroke="#000" stroke-miterlimit="10" stroke-width="0.5"/>
    <polygon points="355.32 231.59 355.32 224.41 360.08 224.41 355.32 231.59" fill="none" stroke="#000" stroke-miterlimit="10" stroke-width="0.5"/>
    <polygon points="360.07 224.41 360.07 231.59 355.32 231.59 360.07 224.41" fill="none" stroke="#000" stroke-miterlimit="10" stroke-width="0.5"/>
    <polygon points="355.33 241.16 372.12 241.16 372.12 236.37 355.33 241.16" fill="none" stroke="#000" stroke-miterlimit="10" stroke-width="0.5" opacity="0.95" style="isolation: isolate"/>
    <polygon points="355.34 241.16 355.34 236.37 372.13 236.37 355.34 241.16" fill="none" stroke="#000" stroke-miterlimit="10" stroke-width="0.5" opacity="0.95" style="isolation: isolate"/>
    <polygon points="352.89 238.76 369.69 238.76 369.69 233.97 352.89 238.76" fill="none" stroke="#000" stroke-miterlimit="10" stroke-width="0.5" opacity="0.95" style="isolation: isolate"/>
    <polygon points="352.9 238.76 352.9 233.97 369.7 233.97 352.9 238.76" fill="none" stroke="#000" stroke-miterlimit="10" stroke-width="0.5" opacity="0.95" style="isolation: isolate"/>
    <polygon points="364.93 238.76 364.93 233.97 360.09 233.97 364.93 238.76" fill="none" stroke="#000" stroke-miterlimit="10" stroke-width="0.5" opacity="0.95" style="isolation: isolate"/>
    <polygon points="360.1 233.97 360.1 238.76 364.93 238.76 360.1 233.97" fill="none" stroke="#000" stroke-miterlimit="10" stroke-width="0.5" opacity="0.95" style="isolation: isolate"/>
    <polygon points="348.08 229.19 348.08 224.41 350.47 224.41 348.08 229.19" fill="none" stroke="#000" stroke-miterlimit="10" stroke-width="0.5" opacity="0.95" style="isolation: isolate"/>
    <polygon points="350.47 224.41 350.47 229.19 348.08 229.19 350.47 224.41" fill="none" stroke="#000" stroke-miterlimit="10" stroke-width="0.5" opacity="0.95" style="isolation: isolate"/>
    <polygon points="367.33 229.19 367.33 224.41 369.72 224.41 367.33 229.19" fill="none" stroke="#000" stroke-miterlimit="10" stroke-width="0.5" opacity="0.95" style="isolation: isolate"/>
    <polygon points="369.72 224.41 369.72 229.19 367.33 229.19 369.72 224.41" fill="none" stroke="#000" stroke-miterlimit="10" stroke-width="0.5" opacity="0.95" style="isolation: isolate"/>
    <polygon points="348.05 219.63 348.05 217.24 352.89 217.24 348.05 219.63" fill="none" stroke="#000" stroke-miterlimit="10" stroke-width="0.5" opacity="0.95" style="isolation: isolate"/>
    <polygon points="352.88 217.24 352.88 219.63 348.04 219.63 352.88 217.24" fill="none" stroke="#000" stroke-miterlimit="10" stroke-width="0.5" opacity="0.95" style="isolation: isolate"/>
    <polygon points="345.64 217.24 345.64 214.84 348.03 214.84 345.64 217.24" fill="none" stroke="#000" stroke-miterlimit="10" stroke-width="0.5" opacity="0.95" style="isolation: isolate"/>
    <polygon points="348.03 214.84 348.03 217.24 345.64 217.24 348.03 214.84" fill="none" stroke="#000" stroke-miterlimit="10" stroke-width="0.5" opacity="0.95" style="isolation: isolate"/>
    <polygon points="357.64 214.84 357.64 212.44 362.46 212.44 357.64 214.84" fill="none" stroke="#000" stroke-miterlimit="10" stroke-width="0.5" opacity="0.95" style="isolation: isolate"/>
    <polygon points="362.45 212.44 362.45 214.84 357.64 214.84 362.45 212.44" fill="none" stroke="#000" stroke-miterlimit="10" stroke-width="0.5" opacity="0.95" style="isolation: isolate"/>
    <polygon points="360.06 217.24 360.06 214.84 364.86 214.84 360.06 217.24" fill="none" stroke="#000" stroke-miterlimit="10" stroke-width="0.5" opacity="0.95" style="isolation: isolate"/>
    <polygon points="364.86 214.84 364.86 217.24 360.06 217.24 364.86 214.84" fill="none" stroke="#000" stroke-miterlimit="10" stroke-width="0.5" opacity="0.95" style="isolation: isolate"/>
    <polygon points="362.46 219.63 362.46 217.24 367.3 217.24 362.46 219.63" fill="none" stroke="#000" stroke-miterlimit="10" stroke-width="0.5" opacity="0.95" style="isolation: isolate"/>
    <polygon points="367.29 217.24 367.29 219.63 362.46 219.63 367.29 217.24" fill="none" stroke="#000" stroke-miterlimit="10" stroke-width="0.5" opacity="0.95" style="isolation: isolate"/>
    <polygon points="360.05 217.24 360.05 214.84 362.44 214.84 360.05 217.24" fill="none" stroke="#000" stroke-miterlimit="10" stroke-width="0.5" opacity="0.95" style="isolation: isolate"/>
    <polygon points="362.44 214.84 362.44 217.24 360.05 217.24 362.44 214.84" fill="none" stroke="#000" stroke-miterlimit="10" stroke-width="0.5" opacity="0.95" style="isolation: isolate"/>
    <polygon points="357.64 214.84 357.64 212.44 360.03 212.44 357.64 214.84" fill="none" stroke="#000" stroke-miterlimit="10" stroke-width="0.5" opacity="0.95" style="isolation: isolate"/>
    <polygon points="360.03 212.44 360.03 214.84 357.64 214.84 360.03 212.44" fill="none" stroke="#000" stroke-miterlimit="10" stroke-width="0.5" opacity="0.95" style="isolation: isolate"/>
    <polygon points="355.31 229.18 355.31 226.78 357.71 226.78 355.31 229.18" fill="none" stroke="#000" stroke-miterlimit="10" stroke-width="0.5"/>
    <polygon points="357.71 226.78 357.71 229.18 355.31 229.18 357.71 226.78" fill="none" stroke="#000" stroke-miterlimit="10" stroke-width="0.5"/>
    <polygon points="360.07 236.37 360.07 233.97 357.68 233.97 360.07 236.37" fill="none" stroke="#000" stroke-miterlimit="10" stroke-width="0.5" opacity="0.95" style="isolation: isolate"/>
    <polygon points="357.68 233.97 357.68 236.37 360.07 236.37 357.68 233.97" fill="none" stroke="#000" stroke-miterlimit="10" stroke-width="0.5" opacity="0.95" style="isolation: isolate"/>
    <polygon points="372.15 238.76 372.15 241.16 374.54 241.16 372.15 238.76" fill="none" stroke="#000" stroke-miterlimit="10" stroke-width="0.5" opacity="0.95" style="isolation: isolate"/>
    <polygon points="104.08 241.16 121.74 223.5 139.4 241.16 104.08 241.16" fill="none" stroke="#000" stroke-miterlimit="10" stroke-width="0.5" opacity="0.3" style="isolation: isolate"/>
    <polygon points="52.82 241.16 70.47 223.5 88.13 241.16 52.82 241.16" fill="none" stroke="#000" stroke-miterlimit="10" stroke-width="0.5" opacity="0.3" style="isolation: isolate"/>
    <polygon points="0.6 241.16 35.3 206.46 70 241.16 0.6 241.16" fill="none" stroke="#000" stroke-miterlimit="10" stroke-width="0.5" opacity="0.3" style="isolation: isolate"/>
    <polygon points="418.59 241.16 453.29 206.46 487.99 241.16 418.59 241.16" fill="none" stroke="#000" stroke-miterlimit="10" stroke-width="0.5" opacity="0.3" style="isolation: isolate"/>
    <polygon points="505.32 241.16 530.36 216.12 555.4 241.16 505.32 241.16" fill="none" stroke="#000" stroke-miterlimit="10" stroke-width="0.5" opacity="0.3" style="isolation: isolate"/>
    <polygon points="398.91 241.16 417.56 222.5 436.22 241.16 398.91 241.16" fill="none" stroke="#000" stroke-miterlimit="10" stroke-width="0.5" opacity="0.3" style="isolation: isolate"/>
    <polygon points="613.96 241.16 627.28 227.84 640.6 241.16 613.96 241.16" fill="none" stroke="#000" stroke-miterlimit="10" stroke-width="0.5" opacity="0.3" style="isolation: isolate"/>
    <polygon points="136.42 241.16 146.07 231.5 155.73 241.16 136.42 241.16" fill="none" stroke="#000" stroke-miterlimit="10" stroke-width="0.5" opacity="0.3" style="isolation: isolate"/>
    <polygon points="157.62 241.16 164.14 234.63 170.65 241.16 157.62 241.16" fill="none" stroke="#000" stroke-miterlimit="10" stroke-width="0.5" opacity="0.3" style="isolation: isolate"/>
    <polygon points="241.47 238.71 241.47 228.84 266.18 228.84 241.47 238.71" fill="none" stroke="#000" stroke-miterlimit="10" stroke-width="0.5"/>
    <polygon points="266.17 228.84 266.17 238.71 241.46 238.71 266.17 228.84" fill="none" stroke="#000" stroke-miterlimit="10" stroke-width="0.5"/>
    <polygon points="243.91 233.85 243.91 214.06 263.72 214.06 243.91 233.85" fill="none" stroke="#000" stroke-miterlimit="10" stroke-width="0.5"/>
    <polygon points="263.71 214.06 263.71 233.85 243.9 233.85 263.71 214.06" fill="none" stroke="#000" stroke-miterlimit="10" stroke-width="0.5"/>
    <polygon points="246.38 225.96 246.38 221.03 248.84 221.03 246.38 225.96" fill="none" stroke="#000" stroke-miterlimit="10" stroke-width="0.5"/>
    <polygon points="248.84 221.03 248.84 225.96 246.38 225.96 248.84 221.03" fill="none" stroke="#000" stroke-miterlimit="10" stroke-width="0.5"/>
    <polygon points="251.35 221.01 251.35 217.56 256.31 217.56 251.35 221.01" fill="none" stroke="#000" stroke-miterlimit="10" stroke-width="0.5"/>
    <polygon points="256.31 217.56 256.31 221.01 251.35 221.01 256.31 217.56" fill="none" stroke="#000" stroke-miterlimit="10" stroke-width="0.5"/>
    <polygon points="248.85 223.5 248.85 218.56 251.31 218.56 248.85 223.5" fill="none" stroke="#000" stroke-miterlimit="10" stroke-width="0.5"/>
    <polygon points="251.31 218.56 251.31 223.5 248.85 223.5 251.31 218.56" fill="none" stroke="#000" stroke-miterlimit="10" stroke-width="0.5"/>
    <polygon points="248.87 228.43 248.87 223.5 251.34 223.5 248.87 228.43" fill="none" stroke="#000" stroke-miterlimit="10" stroke-width="0.5"/>
    <polygon points="251.33 223.5 251.33 228.43 248.87 228.43 251.33 223.5" fill="none" stroke="#000" stroke-miterlimit="10" stroke-width="0.5"/>
    <polygon points="251.37 225.96 251.37 221.03 256.29 221.03 251.37 225.96" fill="none" stroke="#000" stroke-miterlimit="10" stroke-width="0.5"/>
    <polygon points="256.29 221.03 256.29 225.96 251.36 225.96 256.29 221.03" fill="none" stroke="#000" stroke-miterlimit="10" stroke-width="0.5"/>
    <polygon points="251.37 230.88 251.37 225.97 256.29 225.97 251.37 230.88" fill="none" stroke="#000" stroke-miterlimit="10" stroke-width="0.5"/>
    <polygon points="256.29 225.97 256.29 230.88 251.36 230.88 256.29 225.97" fill="none" stroke="#000" stroke-miterlimit="10" stroke-width="0.5"/>
    <polygon points="246.36 233.78 246.36 231.31 248.83 231.31 246.36 233.78" fill="none" stroke="#000" stroke-miterlimit="10" stroke-width="0.5"/>
    <polygon points="248.83 231.31 248.83 233.78 246.36 233.78 248.83 231.31" fill="none" stroke="#000" stroke-miterlimit="10" stroke-width="0.5"/>
    <polygon points="248.84 236.24 248.84 233.78 258.8 233.78 248.84 236.24" fill="none" stroke="#000" stroke-miterlimit="10" stroke-width="0.5"/>
    <polygon points="258.8 233.78 258.8 236.24 248.84 236.24 258.8 233.78" fill="none" stroke="#000" stroke-miterlimit="10" stroke-width="0.5"/>
    <polygon points="238.97 241.16 238.97 238.71 241.43 238.71 238.97 241.16" fill="none" stroke="#000" stroke-miterlimit="10" stroke-width="0.5"/>
    <polygon points="241.43 238.71 241.43 241.16 238.97 241.16 241.43 238.71" fill="none" stroke="#000" stroke-miterlimit="10" stroke-width="0.5"/>
    <polygon points="268.65 241.16 268.65 238.71 266.18 238.71 268.65 241.16" fill="none" stroke="#000" stroke-miterlimit="10" stroke-width="0.5"/>
    <polygon points="266.18 238.71 266.18 241.16 268.65 241.16 266.18 238.71" fill="none" stroke="#000" stroke-miterlimit="10" stroke-width="0.5"/>
    <polygon points="248.88 241.16 248.88 238.71 251.34 238.71 248.88 241.16" fill="none" stroke="#000" stroke-miterlimit="10" stroke-width="0.5"/>
    <polygon points="241.43 241.16 241.43 238.71 243.9 238.71 241.43 241.16" fill="none" stroke="#000" stroke-miterlimit="10" stroke-width="0.5"/>
    <polygon points="263.71 238.71 266.17 238.71 266.17 241.16 263.71 238.71" fill="none" stroke="#000" stroke-miterlimit="10" stroke-width="0.5"/>
    <polygon points="246.41 241.16 246.41 238.71 248.88 238.71 246.41 241.16" fill="none" stroke="#000" stroke-miterlimit="10" stroke-width="0.5"/>
    <polygon points="248.88 238.71 248.88 241.16 246.41 241.16 248.88 238.71" fill="none" stroke="#000" stroke-miterlimit="10" stroke-width="0.5"/>
    <polygon points="261.24 225.96 261.24 221.03 258.78 221.03 261.24 225.96" fill="none" stroke="#000" stroke-miterlimit="10" stroke-width="0.5"/>
    <polygon points="258.78 221.03 258.78 225.96 261.24 225.96 258.78 221.03" fill="none" stroke="#000" stroke-miterlimit="10" stroke-width="0.5"/>
    <polygon points="258.78 223.5 258.78 218.56 256.31 218.56 258.78 223.5" fill="none" stroke="#000" stroke-miterlimit="10" stroke-width="0.5"/>
    <polygon points="256.31 218.56 256.31 223.5 258.78 223.5 256.31 218.56" fill="none" stroke="#000" stroke-miterlimit="10" stroke-width="0.5"/>
    <polygon points="258.75 228.43 258.75 223.5 256.29 223.5 258.75 228.43" fill="none" stroke="#000" stroke-miterlimit="10" stroke-width="0.5"/>
    <polygon points="256.29 223.5 256.29 228.43 258.75 228.43 256.29 223.5" fill="none" stroke="#000" stroke-miterlimit="10" stroke-width="0.5"/>
    <polygon points="261.26 233.78 261.26 231.31 258.79 231.31 261.26 233.78" fill="none" stroke="#000" stroke-miterlimit="10" stroke-width="0.5"/>
    <polygon points="258.8 231.31 258.8 233.78 261.26 233.78 258.8 231.31" fill="none" stroke="#000" stroke-miterlimit="10" stroke-width="0.5"/>
    <polygon points="258.75 241.16 258.75 238.71 256.28 238.71 258.75 241.16" fill="none" stroke="#000" stroke-miterlimit="10" stroke-width="0.5"/>
    <polygon points="261.21 241.16 261.21 238.71 258.75 238.71 261.21 241.16" fill="none" stroke="#000" stroke-miterlimit="10" stroke-width="0.5"/>
    <polygon points="258.75 238.71 258.75 241.16 261.21 241.16 258.75 238.71" fill="none" stroke="#000" stroke-miterlimit="10" stroke-width="0.5"/>
    <polygon points="256.27 228.43 256.27 225.96 253.8 225.96 256.27 228.43" fill="none" stroke="#000" stroke-miterlimit="10" stroke-width="0.5"/>
    <polygon points="253.81 225.96 253.81 228.43 256.27 228.43 253.81 225.96" fill="none" stroke="#000" stroke-miterlimit="10" stroke-width="0.5"/>
    <polygon points="83.07 241.16 98.05 226.18 113.02 241.16 83.07 241.16" fill="none" stroke="#000" stroke-miterlimit="10" stroke-width="0.5"/>
    <polygon points="95.18 241.16 107.01 229.32 118.84 241.16 95.18 241.16" fill="none" stroke="#000" stroke-miterlimit="10" stroke-width="0.5"/>
    <polygon points="60.37 241.16 66.92 234.59 73.48 241.16 60.37 241.16" fill="none" stroke="#000" stroke-miterlimit="10" stroke-width="0.5"/>
    <polygon points="117.23 241.16 123.78 234.59 130.34 241.16 117.23 241.16" fill="none" stroke="#000" stroke-miterlimit="10" stroke-width="0.5"/>
    <polygon points="380.47 241.16 387.03 234.59 393.59 241.16 380.47 241.16" fill="none" stroke="#000" stroke-miterlimit="10" stroke-width="0.5"/>
    <polygon points="440.17 241.16 446.73 234.59 453.29 241.16 440.17 241.16" fill="none" stroke="#000" stroke-miterlimit="10" stroke-width="0.5"/>
    <polygon points="448.83 241.16 455.39 234.59 461.94 241.16 448.83 241.16" fill="none" stroke="#000" stroke-miterlimit="10" stroke-width="0.5"/>
    <polygon points="454.3 241.16 469.99 225.47 485.68 241.16 454.3 241.16" fill="none" stroke="#000" stroke-miterlimit="10" stroke-width="0.5"/>
    <polygon points="461.94 241.16 477.63 225.47 493.32 241.16 461.94 241.16" fill="none" stroke="#000" stroke-miterlimit="10" stroke-width="0.5"/>
    <polygon points="468.98 241.16 502.96 207.18 536.94 241.16 468.98 241.16" fill="none" stroke="#000" stroke-miterlimit="10" stroke-width="0.5"/>
    <polygon points="534.99 241.16 554.27 221.88 573.55 241.16 534.99 241.16" fill="none" stroke="#000" stroke-miterlimit="10" stroke-width="0.5"/>
    <polygon points="579.45 241.16 584.02 236.59 588.59 241.16 579.45 241.16" fill="none" stroke="#000" stroke-miterlimit="10" stroke-width="0.5"/>
    <polygon points="596.59 241.16 603.51 234.22 610.44 241.16 596.59 241.16" fill="none" stroke="#000" stroke-miterlimit="10" stroke-width="0.5"/>
    <polygon points="141.33 241.16 144.97 237.51 148.6 241.16 141.33 241.16" fill="none" stroke="#000" stroke-miterlimit="10" stroke-width="0.5"/>
    <polygon points="394.2 241.16 397.83 237.51 401.47 241.16 394.2 241.16" fill="none" stroke="#000" stroke-miterlimit="10" stroke-width="0.5"/>
    <polygon points="53.87 145.43 55.77 143.53 57.67 145.43 53.87 145.43" fill="none" stroke="#000" stroke-miterlimit="10" stroke-width="0.5" opacity="0.24" style="isolation: isolate"/>
    <polygon points="57.67 145.43 55.77 147.32 53.87 145.43 57.67 145.43" fill="none" stroke="#000" stroke-miterlimit="10" stroke-width="0.5" opacity="0.24" style="isolation: isolate"/>
    <polygon points="50.44 144.93 52.34 143.03 54.24 144.93 50.44 144.93" fill="none" stroke="#000" stroke-miterlimit="10" stroke-width="0.5" opacity="0.24" style="isolation: isolate"/>
    <polygon points="54.24 144.93 52.34 146.82 50.44 144.93 54.24 144.93" fill="none" stroke="#000" stroke-miterlimit="10" stroke-width="0.5" opacity="0.24" style="isolation: isolate"/>
    <polygon points="40.63 144.93 45.54 140.01 50.45 144.93 40.63 144.93" fill="none" stroke="#000" stroke-miterlimit="10" stroke-width="0.5" opacity="0.24" style="isolation: isolate"/>
    <polygon points="50.45 144.91 45.54 149.82 40.63 144.91 50.45 144.91" fill="none" stroke="#000" stroke-miterlimit="10" stroke-width="0.5" opacity="0.24" style="isolation: isolate"/>
    <polygon points="130.11 149 131.79 147.31 133.47 149 130.11 149" fill="none" stroke="#000" stroke-miterlimit="10" stroke-width="0.5" opacity="0.24" style="isolation: isolate"/>
    <polygon points="133.47 149 131.79 150.66 130.11 149 133.47 149" fill="none" stroke="#000" stroke-miterlimit="10" stroke-width="0.5" opacity="0.24" style="isolation: isolate"/>
    <polygon points="127.09 148.56 128.76 146.88 130.44 148.56 127.09 148.56" fill="none" stroke="#000" stroke-miterlimit="10" stroke-width="0.5" opacity="0.24" style="isolation: isolate"/>
    <polygon points="130.44 148.56 128.76 150.22 127.09 148.56 130.44 148.56" fill="none" stroke="#000" stroke-miterlimit="10" stroke-width="0.5" opacity="0.24" style="isolation: isolate"/>
    <polygon points="118.42 148.56 122.76 144.22 127.09 148.56 118.42 148.56" fill="none" stroke="#000" stroke-miterlimit="10" stroke-width="0.5" opacity="0.24" style="isolation: isolate"/>
    <polygon points="127.09 148.54 122.76 152.88 118.42 148.54 127.09 148.54" fill="none" stroke="#000" stroke-miterlimit="10" stroke-width="0.5" opacity="0.24" style="isolation: isolate"/>
    <polygon points="139.41 130.56 140.89 129.09 142.36 130.56 139.41 130.56" fill="none" stroke="#000" stroke-miterlimit="10" stroke-width="0.5" opacity="0.24" style="isolation: isolate"/>
    <polygon points="142.36 130.56 140.89 132.03 139.41 130.56 142.36 130.56" fill="none" stroke="#000" stroke-miterlimit="10" stroke-width="0.5" opacity="0.24" style="isolation: isolate"/>
    <polygon points="136.75 130.18 138.22 128.71 139.7 130.18 136.75 130.18" fill="none" stroke="#000" stroke-miterlimit="10" stroke-width="0.5" opacity="0.24" style="isolation: isolate"/>
    <polygon points="139.7 130.18 138.22 131.66 136.75 130.18 139.7 130.18" fill="none" stroke="#000" stroke-miterlimit="10" stroke-width="0.5" opacity="0.24" style="isolation: isolate"/>
    <polygon points="129.12 130.18 132.94 126.36 136.75 130.18 129.12 130.18" fill="none" stroke="#000" stroke-miterlimit="10" stroke-width="0.5" opacity="0.24" style="isolation: isolate"/>
    <polygon points="136.75 130.18 132.94 134 129.12 130.18 136.75 130.18" fill="none" stroke="#000" stroke-miterlimit="10" stroke-width="0.5" opacity="0.24" style="isolation: isolate"/>
    <polygon points="114.23 127.14 116.91 124.45 119.6 127.14 114.23 127.14" fill="none" stroke="#000" stroke-miterlimit="10" stroke-width="0.5" opacity="0.24" style="isolation: isolate"/>
    <polygon points="119.6 127.14 116.91 129.81 114.23 127.14 119.6 127.14" fill="none" stroke="#000" stroke-miterlimit="10" stroke-width="0.5" opacity="0.24" style="isolation: isolate"/>
    <polygon points="120.5 127.14 123.19 124.45 125.87 127.14 120.5 127.14" fill="none" stroke="#000" stroke-miterlimit="10" stroke-width="0.5" opacity="0.24" style="isolation: isolate"/>
    <polygon points="125.87 127.14 123.19 129.81 120.5 127.14 125.87 127.14" fill="none" stroke="#000" stroke-miterlimit="10" stroke-width="0.5" opacity="0.24" style="isolation: isolate"/>
    <polygon points="104.68 130.28 110.96 124 117.25 130.28 104.68 130.28" fill="none" stroke="#000" stroke-miterlimit="10" stroke-width="0.5" opacity="0.24" style="isolation: isolate"/>
    <polygon points="117.25 130.26 110.96 136.54 104.68 130.26 117.25 130.26" fill="none" stroke="#000" stroke-miterlimit="10" stroke-width="0.5" opacity="0.24" style="isolation: isolate"/>
    <polygon points="39.84 132.75 70.29 132.75 70.29 138.71 39.84 132.75" fill="none" stroke="#000" stroke-miterlimit="10" stroke-width="0.5" opacity="0.6" style="isolation: isolate"/>
    <polygon points="70.29 138.71 39.84 138.71 39.84 132.75 70.29 138.71" fill="none" stroke="#000" stroke-miterlimit="10" stroke-width="0.5" opacity="0.64" style="isolation: isolate"/>
    <polygon points="39.84 132.75 39.84 138.71 33.9 138.71 39.84 132.75" fill="none" stroke="#000" stroke-miterlimit="10" stroke-width="0.5" opacity="0.68" style="isolation: isolate"/>
    <polygon points="47.04 127.94 57.61 117.36 68.17 127.94 47.04 127.94" fill="none" stroke="#000" stroke-miterlimit="10" stroke-width="0.5" opacity="0.95" style="isolation: isolate"/>
    <polygon points="68.17 127.92 57.61 138.49 47.04 127.92 68.17 127.92" fill="none" stroke="#000" stroke-miterlimit="10" stroke-width="0.5"/>
    <polygon points="60.29 120.09 63.82 116.56 67.36 120.09 60.29 120.09" fill="none" stroke="#000" stroke-miterlimit="10" stroke-width="0.5" opacity="0.74" style="isolation: isolate"/>
    <polygon points="67.36 120.09 63.82 123.63 60.29 120.09 67.36 120.09" fill="none" stroke="#000" stroke-miterlimit="10" stroke-width="0.5" opacity="0.89" style="isolation: isolate"/>
    <polygon points="86 116.11 89.53 112.58 93.07 116.11 86 116.11" fill="none" stroke="#000" stroke-miterlimit="10" stroke-width="0.5"/>
    <polygon points="93.07 116.09 89.53 119.64 86 116.09 93.07 116.09" fill="none" stroke="#000" stroke-miterlimit="10" stroke-width="0.5"/>
    <polygon points="88.79 139.06 92.32 142.59 88.79 146.13 88.79 139.06" fill="none" stroke="#000" stroke-miterlimit="10" stroke-width="0.5" opacity="0.89" style="isolation: isolate"/>
    <polygon points="88.79 146.13 85.26 142.59 88.79 139.06 88.79 146.13" fill="none" stroke="#000" stroke-miterlimit="10" stroke-width="0.5" opacity="0.89" style="isolation: isolate"/>
    <polygon points="89.58 119.64 98.92 110.3 108.26 119.64 89.58 119.64" fill="none" stroke="#000" stroke-miterlimit="10" stroke-width="0.5" opacity="0.89" style="isolation: isolate"/>
    <polygon points="108.26 119.63 98.92 128.97 89.58 119.63 108.26 119.63" fill="none" stroke="#000" stroke-miterlimit="10" stroke-width="0.5" opacity="0.89" style="isolation: isolate"/>
    <polygon points="88.79 139.03 101.14 126.69 113.49 139.03 88.79 139.03" fill="none" stroke="#000" stroke-miterlimit="10" stroke-width="0.5" opacity="0.89" style="isolation: isolate"/>
    <polygon points="113.49 139.03 101.14 151.38 88.79 139.03 113.49 139.03" fill="none" stroke="#000" stroke-miterlimit="10" stroke-width="0.5" opacity="0.89" style="isolation: isolate"/>
    <polygon points="101.14 126.73 104.67 123.2 108.21 126.73 101.14 126.73" fill="none" stroke="#000" stroke-miterlimit="10" stroke-width="0.5" opacity="0.89" style="isolation: isolate"/>
    <polygon points="108.21 126.73 104.67 130.26 101.14 126.73 108.21 126.73" fill="none" stroke="#000" stroke-miterlimit="10" stroke-width="0.5" opacity="0.74" style="isolation: isolate"/>
    <polygon points="115.1 132.5 119.16 136.56 115.1 140.62 115.1 132.5" fill="none" stroke="#000" stroke-miterlimit="10" stroke-width="0.5" opacity="0.89" style="isolation: isolate"/>
    <polygon points="115.1 140.62 111.05 136.56 115.1 132.5 115.1 140.62" fill="none" stroke="#000" stroke-miterlimit="10" stroke-width="0.5" opacity="0.89" style="isolation: isolate"/>
    <polygon points="115.08 140.62 120.59 135.1 126.1 140.62 115.08 140.62" fill="none" stroke="#000" stroke-miterlimit="10" stroke-width="0.5" opacity="0.89" style="isolation: isolate"/>
    <polygon points="126.1 140.62 120.59 146.13 115.08 140.62 126.1 140.62" fill="none" stroke="#000" stroke-miterlimit="10" stroke-width="0.5" opacity="0.89" style="isolation: isolate"/>
    <polygon points="58.46 128.97 78.69 108.73 98.92 128.97 58.46 128.97" fill="none" stroke="#000" stroke-miterlimit="10" stroke-width="0.5"/>
    <polygon points="98.92 128.94 78.69 149.18 58.46 128.94 98.92 128.94" fill="none" stroke="#000" stroke-miterlimit="10" stroke-width="0.5"/>
  </g>
</svg>
