<svg xmlns="http://www.w3.org/2000/svg" width="641" height="481" viewBox="0 0 641 481">
  <title>heart</title>
  <g id="Layer_2" data-name="Layer 2">
    <rect x="0.5" y="0.5" width="640" height="480" fill="transparent" stroke-miterlimit="10"/>
  </g>
  <g id="Layer_3" data-name="Layer 3">
    <polygon points="74.27 103.88 57.08 121.07 39.89 103.88 74.27 103.88" fill="#fff" opacity="0.71"/>
    <polygon points="52.43 245.75 35.25 262.94 18.06 245.75 52.43 245.75" fill="#fff" opacity="0.17"/>
    <polygon points="101.46 178.46 92.86 187.06 84.27 178.46 101.46 178.46" fill="#fff" opacity="0.31"/>
    <polygon points="43.84 201.32 35.25 209.91 26.65 201.32 43.84 201.32" fill="#fff" opacity="0.31"/>
    <polygon points="615.78 186.16 607.59 194.36 599.39 186.16 615.78 186.16" fill="#fff" opacity="0.71"/>
    <polygon points="599.39 261.43 591.19 269.63 582.99 261.43 599.39 261.43" fill="#fff" opacity="0.35"/>
    <polygon points="619.76 327.58 611.56 335.78 603.36 327.58 619.76 327.58" fill="#fff" opacity="0.16"/>
    <polygon points="640.13 228.35 636.03 232.45 631.93 228.35 640.13 228.35" fill="#fff" opacity="0.37"/>
    <polygon points="277.96 137.71 256.4 159.26 234.84 137.71 277.96 137.71" fill="#EF0045" stroke="#fff" stroke-miterlimit="10" stroke-width="0.3"/>
    <polygon points="191.73 180.82 213.29 202.38 191.73 223.93 191.73 180.82" fill="#EF0045" stroke="#fff" stroke-miterlimit="10" stroke-width="0.3" opacity="0.95"/>
    <polygon points="277.96 137.71 299.56 159.31 277.96 180.91 277.96 137.71" fill="#EF0045" stroke="#fff" stroke-miterlimit="10" stroke-width="0.3" opacity="0.9"/>
    <polygon points="277.97 180.9 256.37 159.3 277.97 137.69 277.97 180.9" fill="#EF0045" stroke="#fff" stroke-miterlimit="10" stroke-width="0.3" opacity="0.95"/>
    <polygon points="278.01 180.85 256.41 202.45 234.81 180.85 278.01 180.85" fill="#EF0045" stroke="#fff" stroke-miterlimit="10" stroke-width="0.3" opacity="0.95"/>
    <polygon points="234.82 180.86 256.42 159.26 278.02 180.86 234.82 180.86" fill="#EF0045" stroke="#fff" stroke-miterlimit="10" stroke-width="0.3" opacity="0.9"/>
    <polygon points="234.83 180.83 256.44 202.43 234.83 224.03 234.83 180.83" fill="#EF0045" stroke="#fff" stroke-miterlimit="10" stroke-width="0.3" opacity="0.95"/>
    <polygon points="234.84 224.02 213.24 202.42 234.84 180.82 234.84 224.02" fill="#EF0045" stroke="#fff" stroke-miterlimit="10" stroke-width="0.3" opacity="0.86"/>
    <polygon points="234.88 223.97 213.28 245.57 191.68 223.97 234.88 223.97" fill="#EF0045" stroke="#fff" stroke-miterlimit="10" stroke-width="0.3" opacity="0.71"/>
    <polygon points="191.69 223.98 213.29 202.38 234.89 223.98 191.69 223.98" fill="#EF0045" stroke="#fff" stroke-miterlimit="10" stroke-width="0.3" opacity="0.95"/>
    <polygon points="256.44 245.53 234.84 267.13 213.24 245.53 256.44 245.53" fill="#EF0045" stroke="#fff" stroke-miterlimit="10" stroke-width="0.3" opacity="0.95"/>
    <polygon points="213.25 245.54 234.85 223.94 256.45 245.54 213.25 245.54" fill="#EF0045" stroke="#fff" stroke-miterlimit="10" stroke-width="0.3" opacity="0.83"/>
    <polygon points="256.41 288.69 234.81 267.09 256.41 245.49 256.41 288.69" fill="#EF0045" stroke="#fff" stroke-miterlimit="10" stroke-width="0.3" opacity="0.83"/>
    <polygon points="256.4 245.5 278 267.1 256.4 288.7 256.4 245.5" fill="#EF0045" stroke="#fff" stroke-miterlimit="10" stroke-width="0.3" opacity="0.83"/>
    <polygon points="277.95 267.05 299.55 288.65 277.95 310.25 277.95 267.05" fill="#EF0045" stroke="#fff" stroke-miterlimit="10" stroke-width="0.3" opacity="0.95"/>
    <polygon points="277.96 310.24 256.36 288.64 277.96 267.04 277.96 310.24" fill="#EF0045" stroke="#fff" stroke-miterlimit="10" stroke-width="0.3" opacity="0.8"/>
    <polygon points="256.36 245.62 234.76 224.02 256.36 202.41 256.36 245.62" fill="#EF0045" stroke="#fff" stroke-miterlimit="10" stroke-width="0.3" opacity="0.95"/>
    <polygon points="256.35 202.43 277.95 224.03 256.35 245.63 256.35 202.43" fill="#EF0045" stroke="#fff" stroke-miterlimit="10" stroke-width="0.3" opacity="0.95"/>
    <polygon points="299.51 245.57 277.91 267.18 256.31 245.57 299.51 245.57" fill="#EF0045" stroke="#fff" stroke-miterlimit="10" stroke-width="0.3" opacity="0.95"/>
    <polygon points="256.32 245.59 277.92 223.99 299.52 245.59 256.32 245.59" fill="#EF0045" stroke="#fff" stroke-miterlimit="10" stroke-width="0.3" opacity="0.86"/>
    <polygon points="299.47 288.73 277.87 267.13 299.47 245.53 299.47 288.73" fill="#EF0045" stroke="#fff" stroke-miterlimit="10" stroke-width="0.3" opacity="0.95"/>
    <polygon points="299.46 245.54 321.06 267.14 299.46 288.74 299.46 245.54" fill="#EF0045" stroke="#fff" stroke-miterlimit="10" stroke-width="0.3" opacity="0.83"/>
    <polygon points="299.5 202.47 277.9 224.07 256.3 202.47 299.5 202.47" fill="#EF0045" stroke="#fff" stroke-miterlimit="10" stroke-width="0.3" opacity="0.95"/>
    <polygon points="256.31 202.48 277.91 180.88 299.51 202.48 256.31 202.48" fill="#EF0045" stroke="#fff" stroke-miterlimit="10" stroke-width="0.3" opacity="0.9"/>
    <polygon points="299.47 245.63 277.87 224.03 299.47 202.43 299.47 245.63" fill="#EF0045" stroke="#fff" stroke-miterlimit="10" stroke-width="0.3" opacity="0.95"/>
    <polygon points="299.46 202.44 321.06 224.04 299.46 245.64 299.46 202.44" fill="#EF0045" stroke="#fff" stroke-miterlimit="10" stroke-width="0.3" opacity="0.86"/>
    <polygon points="321.02 267.18 299.42 245.58 321.02 223.98 321.02 267.18" fill="#EF0045" stroke="#fff" stroke-miterlimit="10" stroke-width="0.3" opacity="0.95"/>
    <polygon points="321.01 223.99 342.61 245.59 321.01 267.19 321.01 223.99" fill="#EF0045" stroke="#fff" stroke-miterlimit="10" stroke-width="0.3" opacity="0.95"/>
    <polygon points="299.46 202.52 277.86 180.92 299.46 159.32 299.46 202.52" fill="#EF0045" stroke="#fff" stroke-miterlimit="10" stroke-width="0.3" opacity="0.95"/>
    <polygon points="299.45 159.33 321.05 180.93 299.45 202.53 299.45 159.33" fill="#EF0045" stroke="#fff" stroke-miterlimit="10" stroke-width="0.3"/>
    <polygon points="342.61 202.48 321.01 224.08 299.41 202.48 342.61 202.48" fill="#EF0045" stroke="#fff" stroke-miterlimit="10" stroke-width="0.3" opacity="0.95"/>
    <polygon points="299.42 202.49 321.02 180.89 342.62 202.49 299.42 202.49" fill="#EF0045" stroke="#fff" stroke-miterlimit="10" stroke-width="0.3" opacity="0.95"/>
    <polygon points="364.16 224.03 342.56 245.63 320.96 224.03 364.16 224.03" fill="#EF0045" stroke="#fff" stroke-miterlimit="10" stroke-width="0.3" opacity="0.83"/>
    <polygon points="320.97 224.04 342.57 202.44 364.18 224.04 320.97 224.04" fill="#EF0045" stroke="#fff" stroke-miterlimit="10" stroke-width="0.3" opacity="0.95"/>
    <polygon points="234.83 180.83 234.83 159.27 256.39 159.27 234.83 180.83" fill="#EF0045" stroke="#fff" stroke-miterlimit="10" stroke-width="0.3" opacity="0.95"/>
    <polygon points="256.39 159.27 234.83 159.27 234.83 137.72 256.39 159.27" fill="#EF0045" stroke="#fff" stroke-miterlimit="10" stroke-width="0.3" opacity="0.95"/>
    <polygon points="234.83 137.72 234.83 159.27 213.28 159.27 234.83 137.72" fill="#EF0045" stroke="#fff" stroke-miterlimit="10" stroke-width="0.3"/>
    <polygon points="213.28 159.27 234.83 159.27 234.83 180.83 213.28 159.27" fill="#EF0045" stroke="#fff" stroke-miterlimit="10" stroke-width="0.3" opacity="0.95"/>
    <polygon points="213.27 202.4 213.27 180.84 234.82 180.84 213.27 202.4" fill="#EF0045" stroke="#fff" stroke-miterlimit="10" stroke-width="0.3" opacity="0.95"/>
    <polygon points="234.82 180.84 213.27 180.84 213.27 159.28 234.82 180.84" fill="#EF0045" stroke="#fff" stroke-miterlimit="10" stroke-width="0.3" opacity="0.95"/>
    <polygon points="213.27 159.28 213.27 180.84 191.71 180.84 213.27 159.28" fill="#EF0045" stroke="#fff" stroke-miterlimit="10" stroke-width="0.3" opacity="0.23"/>
    <polygon points="191.71 180.84 213.27 180.84 213.27 202.4 191.71 180.84" fill="#EF0045" stroke="#fff" stroke-miterlimit="10" stroke-width="0.3" opacity="0.95"/>
    <polygon points="364.11 137.69 385.67 159.25 407.23 137.69 364.11 137.69" fill="#EF0045" stroke="#fff" stroke-miterlimit="10" stroke-width="0.3"/>
    <polygon points="450.34 180.81 428.78 202.36 450.34 223.92 450.34 180.81" fill="#EF0045" stroke="#fff" stroke-miterlimit="10" stroke-width="0.3"/>
    <polygon points="364.11 137.69 342.51 159.29 364.11 180.89 364.11 137.69" fill="#EF0045" stroke="#fff" stroke-miterlimit="10" stroke-width="0.3"/>
    <polygon points="364.1 180.88 385.7 159.28 364.1 137.68 364.1 180.88" fill="#EF0045" stroke="#fff" stroke-miterlimit="10" stroke-width="0.3" opacity="0.83"/>
    <polygon points="364.06 180.83 385.66 202.43 407.26 180.83 364.06 180.83" fill="#EF0045" stroke="#fff" stroke-miterlimit="10" stroke-width="0.3" opacity="0.95"/>
    <polygon points="407.25 180.84 385.65 159.24 364.05 180.84 407.25 180.84" fill="#EF0045" stroke="#fff" stroke-miterlimit="10" stroke-width="0.3" opacity="0.95"/>
    <polygon points="407.24 180.81 385.63 202.41 407.24 224.02 407.24 180.81" fill="#EF0045" stroke="#fff" stroke-miterlimit="10" stroke-width="0.3" opacity="0.95"/>
    <polygon points="407.22 224 428.82 202.41 407.22 180.8 407.22 224" fill="#EF0045" stroke="#fff" stroke-miterlimit="10" stroke-width="0.3" opacity="0.76"/>
    <polygon points="407.19 223.96 428.79 245.56 450.39 223.96 407.19 223.96" fill="#EF0045" stroke="#fff" stroke-miterlimit="10" stroke-width="0.3" opacity="0.36"/>
    <polygon points="450.38 223.97 428.78 202.37 407.18 223.97 450.38 223.97" fill="#EF0045" stroke="#fff" stroke-miterlimit="10" stroke-width="0.3" opacity="0.95"/>
    <polygon points="385.63 245.51 407.23 267.11 428.83 245.51 385.63 245.51" fill="#EF0045" stroke="#fff" stroke-miterlimit="10" stroke-width="0.3" opacity="0.76"/>
    <polygon points="428.82 245.52 407.22 223.92 385.62 245.52 428.82 245.52" fill="#EF0045" stroke="#fff" stroke-miterlimit="10" stroke-width="0.3" opacity="0.9"/>
    <polygon points="521.18 52.13 504.21 69.09 521.18 86.06 521.18 52.13" fill="#EF0045" stroke="#fff" stroke-miterlimit="10" stroke-width="0.23" opacity="0.95"/>
    <polygon points="521.17 86.05 538.13 69.08 521.17 52.12 521.17 86.05" fill="#EF0045" stroke="#fff" stroke-miterlimit="10" stroke-width="0.23" opacity="0.95"/>
    <polygon points="504.2 69.09 512.61 60.69 504.2 52.29 504.2 69.09" fill="#EF0045" stroke="#fff" stroke-miterlimit="10" stroke-width="0.23" opacity="0.95"/>
    <polygon points="504.21 52.29 495.81 60.69 504.21 69.1 504.21 52.29" fill="#EF0045" stroke="#fff" stroke-miterlimit="10" stroke-width="0.23" opacity="0.95"/>
    <polygon points="504.29 52.21 512.69 60.61 521.09 52.21 504.29 52.21" fill="#EF0045" stroke="#fff" stroke-miterlimit="10" stroke-width="0.23" opacity="0.95"/>
    <polygon points="521.09 52.21 512.69 43.81 504.28 52.21 521.09 52.21" fill="#EF0045" stroke="#fff" stroke-miterlimit="10" stroke-width="0.23" opacity="0.95"/>
    <polygon points="537.98 52.25 529.58 43.85 521.17 52.25 537.98 52.25" fill="#EF0045" stroke="#fff" stroke-miterlimit="10" stroke-width="0.23" opacity="0.95"/>
    <polygon points="521.18 52.25 529.58 60.65 537.98 52.25 521.18 52.25" fill="#EF0045" stroke="#fff" stroke-miterlimit="10" stroke-width="0.23" opacity="0.95"/>
    <polygon points="538.06 52.33 529.66 60.73 538.06 69.14 538.06 52.33" fill="#EF0045" stroke="#fff" stroke-miterlimit="10" stroke-width="0.23" opacity="0.95"/>
    <polygon points="538.06 69.13 546.46 60.73 538.06 52.33 538.06 69.13" fill="#EF0045" stroke="#fff" stroke-miterlimit="10" stroke-width="0.23" opacity="0.95"/>
    <polygon points="481.97 334.85 485.99 338.86 490.01 334.85 481.97 334.85" fill="#EF0045" stroke="#fff" stroke-miterlimit="10" stroke-width="0.16" opacity="0.95"/>
    <polygon points="490.01 334.85 485.99 330.83 481.97 334.85 490.01 334.85" fill="#EF0045" stroke="#fff" stroke-miterlimit="10" stroke-width="0.16" opacity="0.66"/>
    <polygon points="481.97 334.85 483.96 332.86 481.97 330.87 481.97 334.85" fill="#EF0045" stroke="#fff" stroke-miterlimit="10" stroke-width="0.16" opacity="0.95"/>
    <polygon points="481.97 330.87 479.98 332.86 481.97 334.85 481.97 330.87" fill="#EF0045" stroke="#fff" stroke-miterlimit="10" stroke-width="0.16" opacity="0.66"/>
    <polygon points="481.99 330.85 483.98 332.84 485.97 330.85 481.99 330.85" fill="#EF0045" stroke="#fff" stroke-miterlimit="10" stroke-width="0.16" opacity="0.95"/>
    <polygon points="485.97 330.85 483.98 328.86 481.99 330.85 485.97 330.85" fill="#EF0045" stroke="#fff" stroke-miterlimit="10" stroke-width="0.16" opacity="0.95"/>
    <polygon points="489.97 330.86 487.98 328.87 485.99 330.86 489.97 330.86" fill="#EF0045" stroke="#fff" stroke-miterlimit="10" stroke-width="0.16" opacity="0.66"/>
    <polygon points="485.99 330.86 487.98 332.85 489.97 330.86 485.99 330.86" fill="#EF0045" stroke="#fff" stroke-miterlimit="10" stroke-width="0.16" opacity="0.95"/>
    <polygon points="489.99 330.88 488 332.87 489.99 334.86 489.99 330.88" fill="#EF0045" stroke="#fff" stroke-miterlimit="10" stroke-width="0.16" opacity="0.66"/>
    <polygon points="489.99 334.86 491.98 332.87 489.99 330.88 489.99 334.86" fill="#EF0045" stroke="#fff" stroke-miterlimit="10" stroke-width="0.16" opacity="0.95"/>
    <polygon points="129.47 100.39 142.42 113.34 155.38 100.39 129.47 100.39" fill="#EF0045" stroke="#fff" stroke-miterlimit="10" stroke-width="0.14" opacity="0.95"/>
    <polygon points="155.37 100.39 142.42 87.44 129.46 100.39 155.37 100.39" fill="#EF0045" stroke="#fff" stroke-miterlimit="10" stroke-width="0.14" opacity="0.95"/>
    <polygon points="129.46 100.39 135.88 93.97 129.46 87.56 129.46 100.39" fill="#EF0045" stroke="#fff" stroke-miterlimit="10" stroke-width="0.07" opacity="0.95"/>
    <polygon points="129.46 87.56 123.04 93.98 129.46 100.4 129.46 87.56" fill="#EF0045" stroke="#fff" stroke-miterlimit="10" stroke-width="0.07" opacity="0.95"/>
    <polygon points="129.52 87.5 135.94 93.92 142.36 87.5 129.52 87.5" fill="#EF0045" stroke="#fff" stroke-miterlimit="10" stroke-width="0.07" opacity="0.95"/>
    <polygon points="142.35 87.5 135.94 81.08 129.52 87.5 142.35 87.5" fill="#EF0045" stroke="#fff" stroke-miterlimit="10" stroke-width="0.07" opacity="0.95"/>
    <polygon points="155.25 87.53 148.84 81.11 142.42 87.53 155.25 87.53" fill="#EF0045" stroke="#fff" stroke-miterlimit="10" stroke-width="0.07" opacity="0.95"/>
    <polygon points="142.42 87.53 148.84 93.95 155.26 87.53 142.42 87.53" fill="#EF0045" stroke="#fff" stroke-miterlimit="10" stroke-width="0.07" opacity="0.95"/>
    <polygon points="155.32 87.59 148.9 94.01 155.32 100.43 155.32 87.59" fill="#EF0045" stroke="#fff" stroke-miterlimit="10" stroke-width="0.07" opacity="0.95"/>
    <polygon points="155.31 100.42 161.73 94.01 155.31 87.59 155.31 100.42" fill="#EF0045" stroke="#fff" stroke-miterlimit="10" stroke-width="0.07" opacity="0.95"/>
    <polygon points="188.65 374.3 172.82 390.13 188.65 405.96 188.65 374.3" fill="#EF0045" stroke="#fff" stroke-miterlimit="10" stroke-width="0.16" opacity="0.78"/>
    <polygon points="188.64 405.95 204.47 390.12 188.64 374.29 188.64 405.95" fill="#EF0045" stroke="#fff" stroke-miterlimit="10" stroke-width="0.16" opacity="0.95"/>
    <polygon points="172.81 390.13 180.65 382.28 172.81 374.44 172.81 390.13" fill="#EF0045" stroke="#fff" stroke-miterlimit="10" stroke-width="0.16" opacity="0.95"/>
    <polygon points="172.81 374.45 164.97 382.29 172.81 390.13 172.81 374.45" fill="#EF0045" stroke="#fff" stroke-miterlimit="10" stroke-width="0.16" opacity="0.78"/>
    <polygon points="172.89 374.37 180.73 382.21 188.57 374.37 172.89 374.37" fill="#EF0045" stroke="#fff" stroke-miterlimit="10" stroke-width="0.16" opacity="0.75"/>
    <polygon points="188.57 374.37 180.73 366.53 172.88 374.37 188.57 374.37" fill="#EF0045" stroke="#fff" stroke-miterlimit="10" stroke-width="0.16" opacity="0.75"/>
    <polygon points="204.33 374.41 196.49 366.57 188.65 374.41 204.33 374.41" fill="#EF0045" stroke="#fff" stroke-miterlimit="10" stroke-width="0.16" opacity="0.75"/>
    <polygon points="188.65 374.41 196.49 382.25 204.34 374.41 188.65 374.41" fill="#EF0045" stroke="#fff" stroke-miterlimit="10" stroke-width="0.16" opacity="0.95"/>
    <polygon points="204.41 374.49 196.57 382.33 204.41 390.17 204.41 374.49" fill="#EF0045" stroke="#fff" stroke-miterlimit="10" stroke-width="0.16" opacity="0.75"/>
    <polygon points="204.41 390.17 212.25 382.32 204.41 374.48 204.41 390.17" fill="#EF0045" stroke="#fff" stroke-miterlimit="10" stroke-width="0.16" opacity="0.95"/>
    <polygon points="546.94 340.81 553.65 347.52 560.37 340.81 546.94 340.81" fill="#EF0045" stroke="#fff" stroke-miterlimit="10" stroke-width="0.16" opacity="0.95"/>
    <polygon points="560.37 340.81 553.65 334.09 546.93 340.81 560.37 340.81" fill="#EF0045" stroke="#fff" stroke-miterlimit="10" stroke-width="0.16" opacity="0.95"/>
    <polygon points="80.91 363.98 84.27 367.34 87.63 363.98 80.91 363.98" fill="#EF0045" stroke="#fff" stroke-miterlimit="10" stroke-width="0.16" opacity="0.75"/>
    <polygon points="87.63 363.99 84.27 360.63 80.91 363.99 87.63 363.99" fill="#EF0045" stroke="#fff" stroke-miterlimit="10" stroke-width="0.16" opacity="0.75"/>
    <polygon points="427.33 414.18 433.61 420.46 439.88 414.18 427.33 414.18" fill="#EF0045" stroke="#fff" stroke-miterlimit="10" stroke-width="0.31" opacity="0.75"/>
    <polygon points="439.88 414.19 433.61 407.91 427.33 414.19 439.88 414.19" fill="#EF0045" stroke="#fff" stroke-miterlimit="10" stroke-width="0.31" opacity="0.75"/>
    <polygon points="540.67 423.59 543.8 426.72 546.93 423.59 540.67 423.59" fill="#EF0045" stroke="#fff" stroke-miterlimit="10" stroke-width="0.15" opacity="0.75"/>
    <polygon points="546.93 423.59 543.8 420.46 540.66 423.59 546.93 423.59" fill="#EF0045" stroke="#fff" stroke-miterlimit="10" stroke-width="0.15" opacity="0.75"/>
    <polygon points="133.45 449.92 136.8 453.28 140.16 449.92 133.45 449.92" fill="#EF0045" stroke="#fff" stroke-miterlimit="10" stroke-width="0.16" opacity="0.75"/>
    <polygon points="140.16 449.92 136.8 446.57 133.44 449.92 140.16 449.92" fill="#EF0045" stroke="#fff" stroke-miterlimit="10" stroke-width="0.16" opacity="0.75"/>
    <polygon points="407.26 267.08 385.66 245.48 364.06 267.08 407.26 267.08" fill="#EF0045" stroke="#fff" stroke-miterlimit="10" stroke-width="0.3" opacity="0.95"/>
    <polygon points="364.07 267.07 385.67 288.67 407.27 267.07 364.07 267.07" fill="#EF0045" stroke="#fff" stroke-miterlimit="10" stroke-width="0.3" opacity="0.66"/>
    <polygon points="385.71 245.6 407.31 224 385.71 202.4 385.71 245.6" fill="#EF0045" stroke="#fff" stroke-miterlimit="10" stroke-width="0.3" opacity="0.95"/>
    <polygon points="385.72 202.41 364.12 224.01 385.72 245.61 385.72 202.41" fill="#EF0045" stroke="#fff" stroke-miterlimit="10" stroke-width="0.3" opacity="0.95"/>
    <polygon points="342.56 245.56 364.16 267.16 385.76 245.56 342.56 245.56" fill="#EF0045" stroke="#fff" stroke-miterlimit="10" stroke-width="0.3" opacity="0.95"/>
    <polygon points="385.75 245.57 364.15 223.97 342.55 245.57 385.75 245.57" fill="#EF0045" stroke="#fff" stroke-miterlimit="10" stroke-width="0.3" opacity="0.95"/>
    <polygon points="342.57 288.57 364.17 310.17 385.77 288.57 342.57 288.57" fill="#EF0045" stroke="#fff" stroke-miterlimit="10" stroke-width="0.3" opacity="0.66"/>
    <polygon points="385.76 288.58 364.16 266.98 342.56 288.58 385.76 288.58" fill="#EF0045" stroke="#fff" stroke-miterlimit="10" stroke-width="0.3" opacity="0.95"/>
    <polygon points="321.06 267.06 342.66 288.66 364.26 267.06 321.06 267.06" fill="#EF0045" stroke="#fff" stroke-miterlimit="10" stroke-width="0.3" opacity="0.9"/>
    <polygon points="364.25 267.07 342.65 245.47 321.05 267.07 364.25 267.07" fill="#EF0045" stroke="#fff" stroke-miterlimit="10" stroke-width="0.3" opacity="0.83"/>
    <polygon points="364.22 310.13 342.62 288.53 321.01 310.13 364.22 310.13" fill="#EF0045" stroke="#fff" stroke-miterlimit="10" stroke-width="0.3" opacity="0.95"/>
    <polygon points="321.02 310.12 342.63 331.72 364.23 310.12 321.02 310.12" fill="#EF0045" stroke="#fff" stroke-miterlimit="10" stroke-width="0.3" opacity="0.66"/>
    <polygon points="299.51 288.6 321.11 310.2 342.71 288.6 299.51 288.6" fill="#EF0045" stroke="#fff" stroke-miterlimit="10" stroke-width="0.3" opacity="0.95"/>
    <polygon points="342.7 288.62 321.1 267.01 299.5 288.62 342.7 288.62" fill="#EF0045" stroke="#fff" stroke-miterlimit="10" stroke-width="0.3" opacity="0.95"/>
    <polygon points="321.03 353.3 342.63 331.7 321.03 310.1 321.03 353.3" fill="#EF0045" stroke="#fff" stroke-miterlimit="10" stroke-width="0.3" opacity="0.95"/>
    <polygon points="321.04 310.11 299.44 331.71 321.04 353.31 321.04 310.11" fill="#EF0045" stroke="#fff" stroke-miterlimit="10" stroke-width="0.3" opacity="0.66"/>
    <polygon points="277.93 310.19 299.53 331.79 321.13 310.19 277.93 310.19" fill="#EF0045" stroke="#fff" stroke-miterlimit="10" stroke-width="0.3" opacity="0.95"/>
    <polygon points="321.12 310.2 299.52 288.6 277.92 310.2 321.12 310.2" fill="#EF0045" stroke="#fff" stroke-miterlimit="10" stroke-width="0.3" opacity="0.83"/>
    <polygon points="342.57 202.45 364.17 224.05 385.77 202.45 342.57 202.45" fill="#EF0045" stroke="#fff" stroke-miterlimit="10" stroke-width="0.3" opacity="0.95"/>
    <polygon points="385.76 202.46 364.16 180.86 342.56 202.46 385.76 202.46" fill="#EF0045" stroke="#fff" stroke-miterlimit="10" stroke-width="0.3" opacity="0.83"/>
    <polygon points="342.61 202.5 364.21 180.9 342.61 159.3 342.61 202.5" fill="#EF0045" stroke="#fff" stroke-miterlimit="10" stroke-width="0.3" opacity="0.95"/>
    <polygon points="342.62 159.31 321.02 180.91 342.62 202.51 342.62 159.31" fill="#EF0045" stroke="#fff" stroke-miterlimit="10" stroke-width="0.3"/>
    <polygon points="407.24 180.82 407.24 159.26 385.68 159.26 407.24 180.82" fill="#EF0045" stroke="#fff" stroke-miterlimit="10" stroke-width="0.3" opacity="0.76"/>
    <polygon points="385.68 159.26 407.24 159.26 407.24 137.7 385.68 159.26" fill="#EF0045" stroke="#fff" stroke-miterlimit="10" stroke-width="0.3" opacity="0.95"/>
    <polygon points="407.24 137.7 407.24 159.26 428.79 159.26 407.24 137.7" fill="#EF0045" stroke="#fff" stroke-miterlimit="10" stroke-width="0.3" opacity="0.76"/>
    <polygon points="428.79 159.26 407.24 159.26 407.24 180.82 428.79 159.26" fill="#EF0045" stroke="#fff" stroke-miterlimit="10" stroke-width="0.3" opacity="0.95"/>
    <polygon points="428.8 202.38 428.8 180.83 407.25 180.83 428.8 202.38" fill="#EF0045" stroke="#fff" stroke-miterlimit="10" stroke-width="0.3"/>
    <polygon points="407.25 180.83 428.8 180.83 428.8 159.27 407.25 180.83" fill="#EF0045" stroke="#fff" stroke-miterlimit="10" stroke-width="0.3" opacity="0.95"/>
    <polygon points="428.8 159.27 428.8 180.83 450.36 180.83 428.8 159.27" fill="#EF0045" stroke="#fff" stroke-miterlimit="10" stroke-width="0.3" opacity="0.37"/>
    <polygon points="450.36 180.83 428.8 180.83 428.8 202.38 450.36 180.83" fill="#EF0045" stroke="#fff" stroke-miterlimit="10" stroke-width="0.3" opacity="0.76"/>
  </g>
</svg>
