<?xml version="1.0" encoding="utf-8"?>
<!-- Generator: Adobe Illustrator 22.0.1, SVG Export Plug-In . SVG Version: 6.00 Build 0)  -->
<svg version="1.1" id="Layer_1" xmlns="http://www.w3.org/2000/svg" xmlns:xlink="http://www.w3.org/1999/xlink" x="0px" y="0px"
	 viewBox="0 0 641 481" style="enable-background:new 0 0 641 481;" xml:space="preserve">
<style type="text/css">
	.st0{fill:none;stroke:#000000;stroke-width:0.5;stroke-miterlimit:10;}
</style>
<title>heart</title>
<g id="Layer_2_1_">
	<rect x="0.5" y="0.5" fill="none" width="640" height="480"/>
</g>
<g id="Layer_3">
	<polygon class="st0" points="74.3,103.9 57.1,121.1 39.9,103.9 	"/>
	<polygon class="st0" points="52.4,245.7 35.2,262.9 18.1,245.7 	"/>
	<polygon class="st0" points="101.5,178.5 92.9,187.1 84.3,178.5 	"/>
	<polygon class="st0" points="43.8,201.3 35.2,209.9 26.6,201.3 	"/>
	<polygon class="st0" points="615.8,186.2 607.6,194.4 599.4,186.2 	"/>
	<polygon class="st0" points="599.4,261.4 591.2,269.6 583,261.4 	"/>
	<polygon class="st0" points="619.8,327.6 611.6,335.8 603.4,327.6 	"/>
	<polygon class="st0" points="640.1,228.3 636,232.4 631.9,228.3 	"/>
	<polygon class="st0" points="278,137.7 256.4,159.3 234.8,137.7 	"/>
	<polygon class="st0" points="191.7,180.8 213.3,202.4 191.7,223.9 	"/>
	<polygon class="st0" points="278,137.7 299.6,159.3 278,180.9 	"/>
	<polygon class="st0" points="278,180.9 256.4,159.3 278,137.7 	"/>
	<polygon class="st0" points="278,180.8 256.4,202.4 234.8,180.8 	"/>
	<polygon class="st0" points="234.8,180.9 256.4,159.3 278,180.9 	"/>
	<polygon class="st0" points="234.8,180.8 256.4,202.4 234.8,224 	"/>
	<polygon class="st0" points="234.8,224 213.2,202.4 234.8,180.8 	"/>
	<polygon class="st0" points="234.9,224 213.3,245.6 191.7,224 	"/>
	<polygon class="st0" points="191.7,224 213.3,202.4 234.9,224 	"/>
	<polygon class="st0" points="256.4,245.5 234.8,267.1 213.2,245.5 	"/>
	<polygon class="st0" points="213.2,245.5 234.9,223.9 256.5,245.5 	"/>
	<polygon class="st0" points="256.4,288.7 234.8,267.1 256.4,245.5 	"/>
	<polygon class="st0" points="256.4,245.5 278,267.1 256.4,288.7 	"/>
	<polygon class="st0" points="278,267 299.5,288.6 278,310.2 	"/>
	<polygon class="st0" points="278,310.2 256.4,288.6 278,267 	"/>
	<polygon class="st0" points="256.4,245.6 234.8,224 256.4,202.4 	"/>
	<polygon class="st0" points="256.4,202.4 278,224 256.4,245.6 	"/>
	<polygon class="st0" points="299.5,245.6 277.9,267.2 256.3,245.6 	"/>
	<polygon class="st0" points="256.3,245.6 277.9,224 299.5,245.6 	"/>
	<polygon class="st0" points="299.5,288.7 277.9,267.1 299.5,245.5 	"/>
	<polygon class="st0" points="299.5,245.5 321.1,267.1 299.5,288.7 	"/>
	<polygon class="st0" points="299.5,202.5 277.9,224.1 256.3,202.5 	"/>
	<polygon class="st0" points="256.3,202.5 277.9,180.9 299.5,202.5 	"/>
	<polygon class="st0" points="299.5,245.6 277.9,224 299.5,202.4 	"/>
	<polygon class="st0" points="299.5,202.4 321.1,224 299.5,245.6 	"/>
	<polygon class="st0" points="321,267.2 299.4,245.6 321,224 	"/>
	<polygon class="st0" points="321,224 342.6,245.6 321,267.2 	"/>
	<polygon class="st0" points="299.5,202.5 277.9,180.9 299.5,159.3 	"/>
	<polygon class="st0" points="299.5,159.3 321,180.9 299.5,202.5 	"/>
	<polygon class="st0" points="342.6,202.5 321,224.1 299.4,202.5 	"/>
	<polygon class="st0" points="299.4,202.5 321,180.9 342.6,202.5 	"/>
	<polygon class="st0" points="364.2,224 342.6,245.6 321,224 	"/>
	<polygon class="st0" points="321,224 342.6,202.4 364.2,224 	"/>
	<polygon class="st0" points="234.8,180.8 234.8,159.3 256.4,159.3 	"/>
	<polygon class="st0" points="256.4,159.3 234.8,159.3 234.8,137.7 	"/>
	<polygon class="st0" points="234.8,137.7 234.8,159.3 213.3,159.3 	"/>
	<polygon class="st0" points="213.3,159.3 234.8,159.3 234.8,180.8 	"/>
	<polygon class="st0" points="213.3,202.4 213.3,180.8 234.8,180.8 	"/>
	<polygon class="st0" points="234.8,180.8 213.3,180.8 213.3,159.3 	"/>
	<polygon class="st0" points="213.3,159.3 213.3,180.8 191.7,180.8 	"/>
	<polygon class="st0" points="191.7,180.8 213.3,180.8 213.3,202.4 	"/>
	<polygon class="st0" points="364.1,137.7 385.7,159.2 407.2,137.7 	"/>
	<polygon class="st0" points="450.3,180.8 428.8,202.4 450.3,223.9 	"/>
	<polygon class="st0" points="364.1,137.7 342.5,159.3 364.1,180.9 	"/>
	<polygon class="st0" points="364.1,180.9 385.7,159.3 364.1,137.7 	"/>
	<polygon class="st0" points="364.1,180.8 385.7,202.4 407.3,180.8 	"/>
	<polygon class="st0" points="407.2,180.8 385.6,159.2 364,180.8 	"/>
	<polygon class="st0" points="407.2,180.8 385.6,202.4 407.2,224 	"/>
	<polygon class="st0" points="407.2,224 428.8,202.4 407.2,180.8 	"/>
	<polygon class="st0" points="407.2,224 428.8,245.6 450.4,224 	"/>
	<polygon class="st0" points="450.4,224 428.8,202.4 407.2,224 	"/>
	<polygon class="st0" points="385.6,245.5 407.2,267.1 428.8,245.5 	"/>
	<polygon class="st0" points="428.8,245.5 407.2,223.9 385.6,245.5 	"/>
	<polygon class="st0" points="521.2,52.1 504.2,69.1 521.2,86.1 	"/>
	<polygon class="st0" points="521.2,86 538.1,69.1 521.2,52.1 	"/>
	<polygon class="st0" points="504.2,69.1 512.6,60.7 504.2,52.3 	"/>
	<polygon class="st0" points="504.2,52.3 495.8,60.7 504.2,69.1 	"/>
	<polygon class="st0" points="504.3,52.2 512.7,60.6 521.1,52.2 	"/>
	<polygon class="st0" points="521.1,52.2 512.7,43.8 504.3,52.2 	"/>
	<polygon class="st0" points="538,52.2 529.6,43.8 521.2,52.2 	"/>
	<polygon class="st0" points="521.2,52.2 529.6,60.6 538,52.2 	"/>
	<polygon class="st0" points="538.1,52.3 529.7,60.7 538.1,69.1 	"/>
	<polygon class="st0" points="538.1,69.1 546.5,60.7 538.1,52.3 	"/>
	<polygon class="st0" points="482,334.9 486,338.9 490,334.9 	"/>
	<polygon class="st0" points="490,334.9 486,330.8 482,334.9 	"/>
	<polygon class="st0" points="482,334.9 484,332.9 482,330.9 	"/>
	<polygon class="st0" points="482,330.9 480,332.9 482,334.9 	"/>
	<polygon class="st0" points="482,330.9 484,332.8 486,330.9 	"/>
	<polygon class="st0" points="486,330.9 484,328.9 482,330.9 	"/>
	<polygon class="st0" points="490,330.9 488,328.9 486,330.9 	"/>
	<polygon class="st0" points="486,330.9 488,332.9 490,330.9 	"/>
	<polygon class="st0" points="490,330.9 488,332.9 490,334.9 	"/>
	<polygon class="st0" points="490,334.9 492,332.9 490,330.9 	"/>
	<polygon class="st0" points="129.5,100.4 142.4,113.3 155.4,100.4 	"/>
	<polygon class="st0" points="155.4,100.4 142.4,87.4 129.5,100.4 	"/>
	<polygon class="st0" points="129.5,100.4 135.9,94 129.5,87.6 	"/>
	<polygon class="st0" points="129.5,87.6 123,94 129.5,100.4 	"/>
	<polygon class="st0" points="129.5,87.5 135.9,93.9 142.4,87.5 	"/>
	<polygon class="st0" points="142.4,87.5 135.9,81.1 129.5,87.5 	"/>
	<polygon class="st0" points="155.2,87.5 148.8,81.1 142.4,87.5 	"/>
	<polygon class="st0" points="142.4,87.5 148.8,93.9 155.3,87.5 	"/>
	<polygon class="st0" points="155.3,87.6 148.9,94 155.3,100.4 	"/>
	<polygon class="st0" points="155.3,100.4 161.7,94 155.3,87.6 	"/>
	<polygon class="st0" points="188.6,374.3 172.8,390.1 188.6,406 	"/>
	<polygon class="st0" points="188.6,406 204.5,390.1 188.6,374.3 	"/>
	<polygon class="st0" points="172.8,390.1 180.6,382.3 172.8,374.4 	"/>
	<polygon class="st0" points="172.8,374.5 165,382.3 172.8,390.1 	"/>
	<polygon class="st0" points="172.9,374.4 180.7,382.2 188.6,374.4 	"/>
	<polygon class="st0" points="188.6,374.4 180.7,366.5 172.9,374.4 	"/>
	<polygon class="st0" points="204.3,374.4 196.5,366.6 188.6,374.4 	"/>
	<polygon class="st0" points="188.6,374.4 196.5,382.2 204.3,374.4 	"/>
	<polygon class="st0" points="204.4,374.5 196.6,382.3 204.4,390.2 	"/>
	<polygon class="st0" points="204.4,390.2 212.2,382.3 204.4,374.5 	"/>
	<polygon class="st0" points="546.9,340.8 553.7,347.5 560.4,340.8 	"/>
	<polygon class="st0" points="560.4,340.8 553.7,334.1 546.9,340.8 	"/>
	<polygon class="st0" points="80.9,364 84.3,367.3 87.6,364 	"/>
	<polygon class="st0" points="87.6,364 84.3,360.6 80.9,364 	"/>
	<polygon class="st0" points="427.3,414.2 433.6,420.5 439.9,414.2 	"/>
	<polygon class="st0" points="439.9,414.2 433.6,407.9 427.3,414.2 	"/>
	<polygon class="st0" points="540.7,423.6 543.8,426.7 546.9,423.6 	"/>
	<polygon class="st0" points="546.9,423.6 543.8,420.5 540.7,423.6 	"/>
	<polygon class="st0" points="133.4,449.9 136.8,453.3 140.2,449.9 	"/>
	<polygon class="st0" points="140.2,449.9 136.8,446.6 133.4,449.9 	"/>
	<polygon class="st0" points="407.3,267.1 385.7,245.5 364.1,267.1 	"/>
	<polygon class="st0" points="364.1,267.1 385.7,288.7 407.3,267.1 	"/>
	<polygon class="st0" points="385.7,245.6 407.3,224 385.7,202.4 	"/>
	<polygon class="st0" points="385.7,202.4 364.1,224 385.7,245.6 	"/>
	<polygon class="st0" points="342.6,245.6 364.2,267.2 385.8,245.6 	"/>
	<polygon class="st0" points="385.8,245.6 364.1,224 342.5,245.6 	"/>
	<polygon class="st0" points="342.6,288.6 364.2,310.2 385.8,288.6 	"/>
	<polygon class="st0" points="385.8,288.6 364.2,267 342.6,288.6 	"/>
	<polygon class="st0" points="321.1,267.1 342.7,288.7 364.3,267.1 	"/>
	<polygon class="st0" points="364.2,267.1 342.6,245.5 321,267.1 	"/>
	<polygon class="st0" points="364.2,310.1 342.6,288.5 321,310.1 	"/>
	<polygon class="st0" points="321,310.1 342.6,331.7 364.2,310.1 	"/>
	<polygon class="st0" points="299.5,288.6 321.1,310.2 342.7,288.6 	"/>
	<polygon class="st0" points="342.7,288.6 321.1,267 299.5,288.6 	"/>
	<polygon class="st0" points="321,353.3 342.6,331.7 321,310.1 	"/>
	<polygon class="st0" points="321,310.1 299.4,331.7 321,353.3 	"/>
	<polygon class="st0" points="277.9,310.2 299.5,331.8 321.1,310.2 	"/>
	<polygon class="st0" points="321.1,310.2 299.5,288.6 277.9,310.2 	"/>
	<polygon class="st0" points="342.6,202.4 364.2,224 385.8,202.4 	"/>
	<polygon class="st0" points="385.8,202.5 364.2,180.9 342.6,202.5 	"/>
	<polygon class="st0" points="342.6,202.5 364.2,180.9 342.6,159.3 	"/>
	<polygon class="st0" points="342.6,159.3 321,180.9 342.6,202.5 	"/>
	<polygon class="st0" points="407.2,180.8 407.2,159.3 385.7,159.3 	"/>
	<polygon class="st0" points="385.7,159.3 407.2,159.3 407.2,137.7 	"/>
	<polygon class="st0" points="407.2,137.7 407.2,159.3 428.8,159.3 	"/>
	<polygon class="st0" points="428.8,159.3 407.2,159.3 407.2,180.8 	"/>
	<polygon class="st0" points="428.8,202.4 428.8,180.8 407.2,180.8 	"/>
	<polygon class="st0" points="407.2,180.8 428.8,180.8 428.8,159.3 	"/>
	<polygon class="st0" points="428.8,159.3 428.8,180.8 450.4,180.8 	"/>
	<polygon class="st0" points="450.4,180.8 428.8,180.8 428.8,202.4 	"/>
</g>
</svg>
