<svg xmlns="http://www.w3.org/2000/svg" width="641" height="481" viewBox="0 0 641 481">
  <title>rocket-cases</title>
  <g id="Layer_2" data-name="Layer 2">
    <rect x="0.5" y="0.5" width="640" height="480" fill="#fff" stroke="#000" stroke-miterlimit="10"/>
  </g>
  <g id="Layer_3" data-name="Layer 3">
    <polygon points="82.03 50.26 73.44 58.85 64.84 50.26 82.03 50.26" fill="#fff" opacity="0.35"/>
    <polygon points="32.23 191.69 22.55 201.37 12.88 191.69 32.23 191.69" fill="#fff" opacity="0.17"/>
    <polygon points="129.63 99.94 122.98 106.59 116.33 99.94 129.63 99.94" fill="#fff" opacity="0.2"/>
    <polygon points="86.73 115.98 80.08 122.63 73.44 115.98 86.73 115.98" fill="#fff" opacity="0.31"/>
    <polygon points="483.83 140.8 475.63 149 467.43 140.8 483.83 140.8" fill="#fff" opacity="0.2"/>
    <polygon points="511.1 103.44 502.9 111.64 494.7 103.44 511.1 103.44" fill="#fff" opacity="0.35"/>
    <polygon points="575.77 151.66 571.68 155.76 567.58 151.66 575.77 151.66" fill="#fff" opacity="0.37"/>
    <polygon points="27.26 422.49 19.06 430.69 10.87 422.49 27.26 422.49" fill="#fff" opacity="0.2"/>
    <polygon points="51.6 464.68 47.5 468.78 43.41 464.68 51.6 464.68" fill="#fff" opacity="0.37"/>
    <polygon points="511.1 293.49 507 297.59 502.9 293.49 511.1 293.49" fill="#fff" opacity="0.37"/>
    <polygon points="609.1 379.87 605 383.97 600.9 379.87 609.1 379.87" fill="#fff" opacity="0.37"/>
    <polygon points="624.34 273.73 614.67 283.4 605 273.73 624.34 273.73" fill="#fff" opacity="0.2"/>
    <polygon points="452.21 348.76 447.37 353.59 442.54 348.76 452.21 348.76" fill="#fff" opacity="0.2"/>
    <polygon points="595.27 346.93 583.48 358.73 571.68 346.93 595.27 346.93" fill="#fff" opacity="0.37"/>
    <polygon points="221.09 298.54 221.09 290.73 228.9 290.73 221.09 298.54" fill="#2ddeee" stroke="#fff" stroke-miterlimit="10" stroke-width="0.24" opacity="0.84"/>
    <polygon points="228.9 290.73 228.9 298.54 221.09 298.54 228.9 290.73" fill="#2ddeee" stroke="#fff" stroke-miterlimit="10" stroke-width="0.24" opacity="0.84"/>
    <polygon points="214.75 266.57 212.78 266.57 212.78 264.61 214.75 266.57" fill="#2ddeee" stroke="#fff" stroke-miterlimit="10" stroke-width="0.39" opacity="0.84"/>
    <polygon points="212.78 264.61 214.75 264.61 214.75 266.57 212.78 264.61" fill="#2ddeee" stroke="#fff" stroke-miterlimit="10" stroke-width="0.39" opacity="0.84"/>
    <polygon points="267.59 292.13 261.83 292.13 261.83 286.37 267.59 292.13" fill="#2ddeee" stroke="#fff" stroke-miterlimit="10" stroke-width="0.43" opacity="0.84"/>
    <polygon points="261.83 286.37 267.59 286.37 267.59 292.13 261.83 286.37" fill="#2ddeee" stroke="#fff" stroke-miterlimit="10" stroke-width="0.43" opacity="0.84"/>
    <polygon points="255.06 272.25 250.98 272.25 250.98 268.18 255.06 272.25" fill="#2ddeee" stroke="#fff" stroke-miterlimit="10" stroke-width="0.4" opacity="0.84"/>
    <polygon points="250.98 268.18 255.06 268.18 255.06 272.25 250.98 268.18" fill="#2ddeee" stroke="#fff" stroke-miterlimit="10" stroke-width="0.4" opacity="0.84"/>
    <polygon points="208.01 293.44 205.64 293.44 205.64 291.06 208.01 293.44" fill="#2ddeee" stroke="#fff" stroke-miterlimit="10" stroke-width="0.24" opacity="0.84"/>
    <polygon points="205.64 291.06 208.01 291.06 208.01 293.44 205.64 291.06" fill="#2ddeee" stroke="#fff" stroke-miterlimit="10" stroke-width="0.24" opacity="0.84"/>
    <polygon points="240.75 283.62 238.38 283.62 238.38 281.25 240.75 283.62" fill="#2ddeee" stroke="#fff" stroke-miterlimit="10" stroke-width="0.24" opacity="0.84"/>
    <polygon points="238.38 281.25 240.75 281.25 240.75 283.62 238.38 281.25" fill="#2ddeee" stroke="#fff" stroke-miterlimit="10" stroke-width="0.24" opacity="0.84"/>
    <polygon points="256.95 235.3 253.78 235.3 253.78 232.14 256.95 235.3" fill="#2ddeee" stroke="#fff" stroke-miterlimit="10" stroke-width="0.24" opacity="0.84"/>
    <polygon points="253.78 232.14 256.95 232.14 256.95 235.3 253.78 232.14" fill="#2ddeee" stroke="#fff" stroke-miterlimit="10" stroke-width="0.24" opacity="0.84"/>
    <polygon points="222.62 261.27 222.62 256.74 227.16 256.74 222.62 261.27" fill="#2ddeee" stroke="#fff" stroke-miterlimit="10" stroke-width="0.24" opacity="0.84"/>
    <polygon points="227.16 256.74 227.16 261.27 222.62 261.27 227.16 256.74" fill="#2ddeee" stroke="#fff" stroke-miterlimit="10" stroke-width="0.24" opacity="0.84"/>
    <polygon points="243.15 258.31 243.15 249.62 251.83 249.62 243.15 258.31" fill="#2ddeee" stroke="#fff" stroke-miterlimit="10" stroke-width="0.24" opacity="0.84"/>
    <polygon points="251.83 249.62 251.83 258.31 243.15 258.31 251.83 249.62" fill="#2ddeee" stroke="#fff" stroke-miterlimit="10" stroke-width="0.24" opacity="0.84"/>
    <polygon points="267.73 261.75 267.73 256.34 273.14 256.34 267.73 261.75" fill="#2ddeee" stroke="#fff" stroke-miterlimit="10" stroke-width="0.24" opacity="0.84"/>
    <polygon points="273.14 256.34 273.14 261.75 267.73 261.75 273.14 256.34" fill="#2ddeee" stroke="#fff" stroke-miterlimit="10" stroke-width="0.24" opacity="0.84"/>
    <polygon points="411.19 91.84 395.47 107.56 379.74 91.84 411.19 91.84" fill="#2ddeee" stroke="#fff" stroke-miterlimit="10" stroke-width="0.24" opacity="0.85"/>
    <polygon points="426.92 139.01 411.19 123.28 426.92 107.56 426.92 139.01" fill="#2ddeee" stroke="#fff" stroke-miterlimit="10" stroke-width="0.24" opacity="0.95"/>
    <polygon points="426.92 170.46 411.19 154.74 426.92 139.01 426.92 170.46" fill="#2ddeee" stroke="#fff" stroke-miterlimit="10" stroke-width="0.24" opacity="0.95"/>
    <polygon points="395.47 107.56 411.19 91.84 426.92 107.56 395.47 107.56" fill="#2ddeee" stroke="#fff" stroke-miterlimit="10" stroke-width="0.24" opacity="0.85"/>
    <polygon points="426.91 107.55 411.19 123.28 395.46 107.55 426.91 107.55" fill="#2ddeee" stroke="#fff" stroke-miterlimit="10" stroke-width="0.24" opacity="0.85"/>
    <polygon points="413.08 89.92 420.95 82.06 436.69 97.8 413.08 89.92" fill="#2ddeee" stroke="#fff" stroke-miterlimit="10" stroke-width="0.33" opacity="0.95"/>
    <polygon points="436.68 97.79 428.82 105.66 413.07 89.92 436.68 97.79" fill="#2ddeee" stroke="#fff" stroke-miterlimit="10" stroke-width="0.33" opacity="0.95"/>
    <polygon points="428.81 82.06 424.88 85.99 420.95 82.06 428.81 82.06" fill="#2ddeee" stroke="#fff" stroke-miterlimit="10" stroke-width="0.24" opacity="0.85"/>
    <polygon points="424.88 86 428.81 82.06 432.74 86 424.88 86" fill="#2ddeee" stroke="#fff" stroke-miterlimit="10" stroke-width="0.24" opacity="0.85"/>
    <polygon points="432.74 85.99 428.81 89.92 424.88 85.99 432.74 85.99" fill="#2ddeee" stroke="#fff" stroke-miterlimit="10" stroke-width="0.24" opacity="0.85"/>
    <polygon points="436.69 89.94 432.76 93.87 436.69 97.8 436.69 89.94" fill="#2ddeee" stroke="#fff" stroke-miterlimit="10" stroke-width="0.24" opacity="0.95"/>
    <polygon points="432.75 93.86 436.68 89.93 432.75 86 432.75 93.86" fill="#2ddeee" stroke="#fff" stroke-miterlimit="10" stroke-width="0.24" opacity="0.95"/>
    <polygon points="432.75 86.01 428.83 89.94 432.75 93.86 432.75 86.01" fill="#2ddeee" stroke="#fff" stroke-miterlimit="10" stroke-width="0.24" opacity="0.95"/>
    <polygon points="264.31 207.27 276.07 219.04 264.31 230.8 264.31 207.27" fill="#2ddeee" stroke="#fff" stroke-miterlimit="10" stroke-width="0.24" opacity="0.95"/>
    <polygon points="287.84 254.34 299.61 242.57 311.37 254.34 287.84 254.34" fill="#2ddeee" stroke="#fff" stroke-miterlimit="10" stroke-width="0.24" opacity="0.95"/>
    <polygon points="379.74 91.84 364.02 107.56 348.29 91.84 379.74 91.84" fill="#2ddeee" stroke="#fff" stroke-miterlimit="10" stroke-width="0.24" opacity="0.85"/>
    <polygon points="364.02 107.56 379.74 91.84 395.47 107.56 364.02 107.56" fill="#2ddeee" stroke="#fff" stroke-miterlimit="10" stroke-width="0.24" opacity="0.85"/>
    <polygon points="395.46 107.55 379.74 123.28 364.01 107.55 395.46 107.55" fill="#2ddeee" stroke="#fff" stroke-miterlimit="10" stroke-width="0.24" opacity="0.85"/>
    <polygon points="379.75 123.29 395.47 107.56 411.2 123.29 379.75 123.29" fill="#2ddeee" stroke="#fff" stroke-miterlimit="10" stroke-width="0.24" opacity="0.85"/>
    <polygon points="411.19 123.28 395.46 139.01 379.74 123.28 411.19 123.28" fill="#2ddeee" stroke="#fff" stroke-miterlimit="10" stroke-width="0.24" opacity="0.85"/>
    <polygon points="395.47 139.01 411.2 123.29 426.92 139.01 395.47 139.01" fill="#2ddeee" stroke="#fff" stroke-miterlimit="10" stroke-width="0.24" opacity="0.85"/>
    <polygon points="426.91 139.01 411.19 154.73 395.46 139.01 426.91 139.01" fill="#2ddeee" stroke="#fff" stroke-miterlimit="10" stroke-width="0.24" opacity="0.95"/>
    <polygon points="326.33 113.79 342.05 98.07 357.78 113.79 326.33 113.79" fill="#2ddeee" stroke="#fff" stroke-miterlimit="10" stroke-width="0.24" opacity="0.95"/>
    <polygon points="357.77 113.78 342.04 129.51 326.32 113.78 357.77 113.78" fill="#2ddeee" stroke="#fff" stroke-miterlimit="10" stroke-width="0.24" opacity="0.95"/>
    <polygon points="287.86 207.25 276.07 219.04 264.29 207.25 287.86 207.25" fill="#2ddeee" stroke="#fff" stroke-miterlimit="10" stroke-width="0.24" opacity="0.95"/>
    <polygon points="264.3 207.26 276.08 195.48 287.86 207.26 264.3 207.26" fill="#2ddeee" stroke="#fff" stroke-miterlimit="10" stroke-width="0.24" opacity="0.95"/>
    <polygon points="276.07 219.04 287.86 207.25 299.64 219.04 276.07 219.04" fill="#2ddeee" stroke="#fff" stroke-miterlimit="10" stroke-width="0.24" opacity="0.95"/>
    <polygon points="299.63 219.03 287.85 230.81 276.07 219.03 299.63 219.03" fill="#2ddeee" stroke="#fff" stroke-miterlimit="10" stroke-width="0.24" opacity="0.95"/>
    <polygon points="287.83 230.79 299.61 219.01 311.39 230.79 287.83 230.79" fill="#2ddeee" stroke="#fff" stroke-miterlimit="10" stroke-width="0.24" opacity="0.95"/>
    <polygon points="311.39 230.79 299.61 242.57 287.82 230.79 311.39 230.79" fill="#2ddeee" stroke="#fff" stroke-miterlimit="10" stroke-width="0.24" opacity="0.95"/>
    <polygon points="264.3 230.81 276.08 219.03 287.87 230.81 264.3 230.81" fill="#2ddeee" stroke="#fff" stroke-miterlimit="10" stroke-width="0.24" opacity="0.95"/>
    <polygon points="287.86 230.81 276.08 242.59 264.29 230.81 287.86 230.81" fill="#2ddeee" stroke="#fff" stroke-miterlimit="10" stroke-width="0.24" opacity="0.95"/>
    <polygon points="276.05 242.57 287.84 230.78 299.62 242.57 276.05 242.57" fill="#2ddeee" stroke="#fff" stroke-miterlimit="10" stroke-width="0.24" opacity="0.95"/>
    <polygon points="299.62 242.56 287.83 254.34 276.05 242.56 299.62 242.56" fill="#2ddeee" stroke="#fff" stroke-miterlimit="10" stroke-width="0.24" opacity="0.95"/>
    <polygon points="311.38 230.79 323.17 242.57 311.38 254.35 311.38 230.79" fill="#2ddeee" stroke="#fff" stroke-miterlimit="10" stroke-width="0.24" opacity="0.95"/>
    <polygon points="311.39 254.35 299.61 242.56 311.39 230.78 311.39 254.35" fill="#2ddeee" stroke="#fff" stroke-miterlimit="10" stroke-width="0.24" opacity="0.95"/>
    <polygon points="263.46 176.7 326.35 113.81 389.24 176.7 263.46 176.7" fill="#2ddeee" stroke="#fff" stroke-miterlimit="10" stroke-width="0.24" opacity="0.84"/>
    <polygon points="389.21 176.67 326.32 239.56 263.43 176.67 389.21 176.67" fill="#2ddeee" stroke="#fff" stroke-miterlimit="10" stroke-width="0.24" opacity="0.84"/>
    <polygon points="370.7 283.96 344.45 257.72 370.7 231.47 370.7 283.96" fill="#2ddeee" stroke="#fff" stroke-miterlimit="10" stroke-width="0.24" opacity="0.8"/>
    <polygon points="352.45 265.72 370.7 283.96 352.45 302.21 352.45 265.72" fill="#2ddeee" stroke="#fff" stroke-miterlimit="10" stroke-width="0.24" opacity="0.85"/>
    <polygon points="352.45 276.41 352.45 302.21 326.65 302.21 352.45 276.41" fill="#2ddeee" stroke="#fff" stroke-miterlimit="10" stroke-width="0.24" opacity="0.95"/>
    <polygon points="234.78 148.04 261.03 174.29 287.28 148.04 234.78 148.04" fill="#2ddeee" stroke="#fff" stroke-miterlimit="10" stroke-width="0.24" opacity="0.8"/>
    <polygon points="253.03 166.29 234.78 148.04 216.53 166.29 253.03 166.29" fill="#2ddeee" stroke="#fff" stroke-miterlimit="10" stroke-width="0.24" opacity="0.85"/>
    <polygon points="242.34 166.29 216.53 166.29 216.53 192.09 242.34 166.29" fill="#2ddeee" stroke="#fff" stroke-miterlimit="10" stroke-width="0.24" opacity="0.95"/>
    <polygon points="342.06 129.52 357.78 113.8 373.5 129.52 342.06 129.52" fill="#2ddeee" stroke="#fff" stroke-miterlimit="10" stroke-width="0.24" opacity="0.95"/>
    <polygon points="373.5 129.51 357.77 145.24 342.05 129.51 373.5 129.51" fill="#2ddeee" stroke="#fff" stroke-miterlimit="10" stroke-width="0.24" opacity="0.95"/>
    <polygon points="290.83 176.53 306.56 160.8 322.28 176.53 290.83 176.53" fill="#2ddeee" stroke="#fff" stroke-miterlimit="10" stroke-width="0.24" opacity="0.84"/>
    <polygon points="322.28 176.52 306.55 192.24 290.83 176.52 322.28 176.52" fill="#2ddeee" stroke="#fff" stroke-miterlimit="10" stroke-width="0.24" opacity="0.84"/>
    <polygon points="357.78 145.24 373.5 129.52 389.23 145.24 357.78 145.24" fill="#2ddeee" stroke="#fff" stroke-miterlimit="10" stroke-width="0.24" opacity="0.95"/>
    <polygon points="389.22 145.24 373.5 160.96 357.77 145.24 389.22 145.24" fill="#2ddeee" stroke="#fff" stroke-miterlimit="10" stroke-width="0.24" opacity="0.95"/>
    <polygon points="373.51 160.98 389.24 145.25 404.96 160.98 373.51 160.98" fill="#2ddeee" stroke="#fff" stroke-miterlimit="10" stroke-width="0.24" opacity="0.95"/>
    <polygon points="404.96 160.97 389.23 176.7 373.51 160.97 404.96 160.97" fill="#2ddeee" stroke="#fff" stroke-miterlimit="10" stroke-width="0.24" opacity="0.95"/>
    <polygon points="389.24 176.7 404.96 160.98 420.69 176.7 389.24 176.7" fill="#2ddeee" stroke="#fff" stroke-miterlimit="10" stroke-width="0.24" opacity="0.95"/>
    <polygon points="420.68 176.7 404.96 192.42 389.23 176.7 420.68 176.7" fill="#2ddeee" stroke="#fff" stroke-miterlimit="10" stroke-width="0.24" opacity="0.95"/>
    <polygon points="373.51 192.43 389.24 176.7 404.96 192.43 373.51 192.43" fill="#2ddeee" stroke="#fff" stroke-miterlimit="10" stroke-width="0.24" opacity="0.95"/>
    <polygon points="404.96 192.42 389.23 208.15 373.51 192.42 404.96 192.42" fill="#2ddeee" stroke="#fff" stroke-miterlimit="10" stroke-width="0.24" opacity="0.95"/>
    <polygon points="357.79 208.15 373.51 192.43 389.24 208.15 357.79 208.15" fill="#2ddeee" stroke="#fff" stroke-miterlimit="10" stroke-width="0.24" opacity="0.95"/>
    <polygon points="389.23 208.15 373.51 223.87 357.78 208.15 389.23 208.15" fill="#2ddeee" stroke="#fff" stroke-miterlimit="10" stroke-width="0.24" opacity="0.95"/>
    <polygon points="342.06 223.88 357.79 208.15 373.51 223.88 342.06 223.88" fill="#2ddeee" stroke="#fff" stroke-miterlimit="10" stroke-width="0.24" opacity="0.95"/>
    <polygon points="373.51 223.87 357.78 239.6 342.06 223.87 373.51 223.87" fill="#2ddeee" stroke="#fff" stroke-miterlimit="10" stroke-width="0.24" opacity="0.95"/>
    <polygon points="326.34 239.6 342.06 223.88 357.79 239.6 326.34 239.6" fill="#2ddeee" stroke="#fff" stroke-miterlimit="10" stroke-width="0.24" opacity="0.95"/>
    <polygon points="357.78 239.6 342.06 255.32 326.33 239.6 357.78 239.6" fill="#2ddeee" stroke="#fff" stroke-miterlimit="10" stroke-width="0.24" opacity="0.95"/>
    <polygon points="146.45 390.06 157.08 379.43 167.71 390.06 146.45 390.06" fill="#fff" stroke="#fff" stroke-miterlimit="10" stroke-width="0.24" opacity="0.13"/>
    <polygon points="167.71 390.06 157.08 379.43 167.71 368.8 167.71 390.06" fill="#fff" stroke="#fff" stroke-miterlimit="10" stroke-width="0.24" opacity="0.13"/>
    <polygon points="167.71 368.8 157.08 379.43 146.45 368.8 167.71 368.8" fill="#fff" stroke="#fff" stroke-miterlimit="10" stroke-width="0.24" opacity="0.13"/>
    <polygon points="146.45 368.8 157.08 379.43 146.45 390.06 146.45 368.8" fill="#fff" stroke="#fff" stroke-miterlimit="10" stroke-width="0.24" opacity="0.13"/>
    <polygon points="138.22 398.29 142.31 394.2 146.41 398.29 138.22 398.29" fill="#fff" stroke="#fff" stroke-miterlimit="10" stroke-width="0.24" opacity="0.13"/>
    <polygon points="146.41 398.29 142.31 394.2 146.41 390.1 146.41 398.29" fill="#fff" stroke="#fff" stroke-miterlimit="10" stroke-width="0.24" opacity="0.13"/>
    <polygon points="146.41 390.1 142.31 394.2 138.22 390.1 146.41 390.1" fill="#fff" stroke="#fff" stroke-miterlimit="10" stroke-width="0.24" opacity="0.13"/>
    <polygon points="138.22 390.1 142.31 394.2 138.22 398.29 138.22 390.1" fill="#fff" stroke="#fff" stroke-miterlimit="10" stroke-width="0.24" opacity="0.13"/>
    <polygon points="216.08 349.86 223.44 342.5 230.81 349.86 216.08 349.86" fill="#fff" stroke="#fff" stroke-miterlimit="10" stroke-width="0.24" opacity="0.13"/>
    <polygon points="230.81 349.86 223.44 342.5 230.81 335.13 230.81 349.86" fill="#fff" stroke="#fff" stroke-miterlimit="10" stroke-width="0.24" opacity="0.13"/>
    <polygon points="230.81 335.13 223.44 342.5 216.08 335.13 230.81 335.13" fill="#fff" stroke="#fff" stroke-miterlimit="10" stroke-width="0.24" opacity="0.13"/>
    <polygon points="216.08 335.13 223.44 342.5 216.08 349.86 216.08 335.13" fill="#fff" stroke="#fff" stroke-miterlimit="10" stroke-width="0.24" opacity="0.13"/>
    <polygon points="210.38 355.57 213.22 352.73 216.05 355.57 210.38 355.57" fill="#fff" stroke="#fff" stroke-miterlimit="10" stroke-width="0.24" opacity="0.13"/>
    <polygon points="216.05 355.57 213.22 352.73 216.05 349.89 216.05 355.57" fill="#fff" stroke="#fff" stroke-miterlimit="10" stroke-width="0.24" opacity="0.13"/>
    <polygon points="216.05 349.89 213.22 352.73 210.38 349.89 216.05 349.89" fill="#fff" stroke="#fff" stroke-miterlimit="10" stroke-width="0.24" opacity="0.13"/>
    <polygon points="210.38 349.89 213.22 352.73 210.38 355.57 210.38 349.89" fill="#fff" stroke="#fff" stroke-miterlimit="10" stroke-width="0.24" opacity="0.13"/>
    <polygon points="173.76 391.94 181.13 384.58 188.49 391.94 173.76 391.94" fill="#fff" stroke="#fff" stroke-miterlimit="10" stroke-width="0.24" opacity="0.13"/>
    <polygon points="188.49 391.94 181.13 384.58 188.49 377.21 188.49 391.94" fill="#fff" stroke="#fff" stroke-miterlimit="10" stroke-width="0.24" opacity="0.13"/>
    <polygon points="188.49 377.21 181.13 384.58 173.76 377.21 188.49 377.21" fill="#fff" stroke="#fff" stroke-miterlimit="10" stroke-width="0.24" opacity="0.13"/>
    <polygon points="173.76 377.21 181.13 384.58 173.76 391.94 173.76 377.21" fill="#fff" stroke="#fff" stroke-miterlimit="10" stroke-width="0.24" opacity="0.13"/>
    <polygon points="168.06 397.65 170.9 394.81 173.74 397.65 168.06 397.65" fill="#fff" stroke="#fff" stroke-miterlimit="10" stroke-width="0.24" opacity="0.13"/>
    <polygon points="173.74 397.65 170.9 394.81 173.74 391.97 173.74 397.65" fill="#fff" stroke="#fff" stroke-miterlimit="10" stroke-width="0.24" opacity="0.13"/>
    <polygon points="173.74 391.97 170.9 394.81 168.06 391.97 173.74 391.97" fill="#fff" stroke="#fff" stroke-miterlimit="10" stroke-width="0.24" opacity="0.13"/>
    <polygon points="168.06 391.97 170.9 394.81 168.06 397.65 168.06 391.97" fill="#fff" stroke="#fff" stroke-miterlimit="10" stroke-width="0.24" opacity="0.13"/>
    <polygon points="107.8 398.07 118.43 387.44 129.06 398.07 107.8 398.07" fill="#fff" stroke="#fff" stroke-miterlimit="10" stroke-width="0.24" opacity="0.13"/>
    <polygon points="129.06 398.07 118.43 387.44 129.06 376.81 129.06 398.07" fill="#fff" stroke="#fff" stroke-miterlimit="10" stroke-width="0.24" opacity="0.13"/>
    <polygon points="129.06 376.81 118.43 387.44 107.8 376.81 129.06 376.81" fill="#fff" stroke="#fff" stroke-miterlimit="10" stroke-width="0.24" opacity="0.13"/>
    <polygon points="107.8 376.81 118.43 387.44 107.8 398.07 107.8 376.81" fill="#fff" stroke="#fff" stroke-miterlimit="10" stroke-width="0.24" opacity="0.13"/>
    <polygon points="99.57 406.31 103.66 402.21 107.76 406.31 99.57 406.31" fill="#fff" stroke="#fff" stroke-miterlimit="10" stroke-width="0.24" opacity="0.13"/>
    <polygon points="107.76 406.31 103.66 402.21 107.76 398.11 107.76 406.31" fill="#fff" stroke="#fff" stroke-miterlimit="10" stroke-width="0.24" opacity="0.13"/>
    <polygon points="107.76 398.11 103.66 402.21 99.57 398.11 107.76 398.11" fill="#fff" stroke="#fff" stroke-miterlimit="10" stroke-width="0.24" opacity="0.13"/>
    <polygon points="99.57 398.11 103.66 402.21 99.57 406.31 99.57 398.11" fill="#fff" stroke="#fff" stroke-miterlimit="10" stroke-width="0.24" opacity="0.13"/>
    <polygon points="120.93 376.75 125.03 372.65 129.13 376.75 120.93 376.75" fill="#fff" stroke="#fff" stroke-miterlimit="10" stroke-width="0.24" opacity="0.1"/>
    <polygon points="129.13 376.75 125.03 372.65 129.13 368.55 129.13 376.75" fill="#fff" stroke="#fff" stroke-miterlimit="10" stroke-width="0.24" opacity="0.1"/>
    <polygon points="129.13 368.55 125.03 372.65 120.93 368.55 129.13 368.55" fill="#fff" stroke="#fff" stroke-miterlimit="10" stroke-width="0.24" opacity="0.1"/>
    <polygon points="120.93 368.55 125.03 372.65 120.93 376.75 120.93 368.55" fill="#fff" stroke="#fff" stroke-miterlimit="10" stroke-width="0.24" opacity="0.1"/>
    <polygon points="90.94 412.5 95.03 408.4 99.13 412.5 90.94 412.5" fill="#fff" stroke="#fff" stroke-miterlimit="10" stroke-width="0.24" opacity="0.07"/>
    <polygon points="99.13 412.5 95.03 408.4 99.13 404.31 99.13 412.5" fill="#fff" stroke="#fff" stroke-miterlimit="10" stroke-width="0.24" opacity="0.07"/>
    <polygon points="99.13 404.31 95.03 408.4 90.94 404.31 99.13 404.31" fill="#fff" stroke="#fff" stroke-miterlimit="10" stroke-width="0.24" opacity="0.07"/>
    <polygon points="90.94 404.31 95.03 408.4 90.94 412.5 90.94 404.31" fill="#fff" stroke="#fff" stroke-miterlimit="10" stroke-width="0.24" opacity="0.07"/>
    <polygon points="201.15 364.8 205.44 360.5 209.74 364.8 201.15 364.8" fill="#fff" stroke="#fff" stroke-miterlimit="10" stroke-width="0.24" opacity="0.13"/>
    <polygon points="209.74 364.8 205.44 360.5 209.74 356.2 209.74 364.8" fill="#fff" stroke="#fff" stroke-miterlimit="10" stroke-width="0.24" opacity="0.13"/>
    <polygon points="209.74 356.2 205.44 360.5 201.15 356.2 209.74 356.2" fill="#fff" stroke="#fff" stroke-miterlimit="10" stroke-width="0.24" opacity="0.13"/>
    <polygon points="201.15 356.2 205.44 360.5 201.15 364.8 201.15 356.2" fill="#fff" stroke="#fff" stroke-miterlimit="10" stroke-width="0.24" opacity="0.13"/>
    <polygon points="197.82 368.12 199.48 366.47 201.13 368.12 197.82 368.12" fill="#fff" stroke="#fff" stroke-miterlimit="10" stroke-width="0.24" opacity="0.13"/>
    <polygon points="201.13 368.12 199.48 366.47 201.13 364.81 201.13 368.12" fill="#fff" stroke="#fff" stroke-miterlimit="10" stroke-width="0.24" opacity="0.13"/>
    <polygon points="201.13 364.81 199.48 366.47 197.82 364.81 201.13 364.81" fill="#fff" stroke="#fff" stroke-miterlimit="10" stroke-width="0.24" opacity="0.13"/>
    <polygon points="197.82 364.81 199.48 366.47 197.82 368.12 197.82 364.81" fill="#fff" stroke="#fff" stroke-miterlimit="10" stroke-width="0.24" opacity="0.13"/>
    <polygon points="175.5 339.74 184.88 330.37 194.25 339.74 175.5 339.74" fill="#f8feff" opacity="0.74"/>
    <polygon points="194.25 339.74 184.88 330.37 194.25 321 194.25 339.74" fill="#f8feff"/>
    <polygon points="194.25 321 184.88 330.37 175.5 321 194.25 321" fill="#def2f9"/>
    <polygon points="175.5 321 184.88 330.37 175.5 339.74 175.5 321" fill="#fdffff" opacity="0.74"/>
    <polygon points="234.27 331.44 243.64 322.06 253.02 331.44 234.27 331.44" fill="#f8feff" opacity="0.74"/>
    <polygon points="253.02 331.44 243.64 322.06 253.02 312.69 253.02 331.44" fill="#f8feff"/>
    <polygon points="253.02 312.69 243.64 322.06 234.27 312.69 253.02 312.69" fill="#def2f9"/>
    <polygon points="234.27 312.69 243.64 322.06 234.27 331.44 234.27 312.69" fill="#fdffff" opacity="0.74"/>
    <polygon points="146.47 368.78 162.63 352.61 178.8 368.78 146.47 368.78" fill="#fdffff"/>
    <polygon points="178.8 368.78 162.63 352.61 178.8 336.44 178.8 368.78" fill="#f8feff"/>
    <polygon points="178.8 336.44 162.63 352.61 146.47 336.44 178.8 336.44" fill="#def2f9"/>
    <polygon points="146.47 336.44 162.63 352.61 146.47 368.78 146.47 336.44" fill="#f0f9fc" opacity="0.89"/>
    <polygon points="129.29 376.91 137.94 368.47 146.38 377.12 129.29 376.91" fill="#f8feff" opacity="0.74"/>
    <polygon points="146.44 377.02 137.89 368.47 146.44 359.93 146.44 377.02" fill="#f0f9fc" opacity="0.74"/>
    <polygon points="146.44 359.93 137.89 368.47 129.34 359.93 146.44 359.93" fill="#def2f9" opacity="0.74"/>
    <polygon points="129.34 359.93 137.89 368.47 129.34 377.02 129.34 359.93" fill="#fdffff" opacity="0.74"/>
  </g>
</svg>
