<?xml version="1.0" encoding="utf-8"?>
<!-- Generator: Adobe Illustrator 22.0.1, SVG Export Plug-In . SVG Version: 6.00 Build 0)  -->
<svg version="1.1" id="Layer_1" xmlns="http://www.w3.org/2000/svg" xmlns:xlink="http://www.w3.org/1999/xlink" x="0px" y="0px"
	 viewBox="0 0 641 481" style="enable-background:new 0 0 641 481;" xml:space="preserve">
<style type="text/css">
	.st0{fill:none;}
	.st1{fill:none;stroke:#000000;stroke-width:0.5;stroke-miterlimit:10;}
</style>
<title>rocket-cases</title>
<g id="Layer_2_1_">
	<rect x="0.5" y="0.5" class="st0" width="640" height="480"/>
</g>
<g id="Layer_3">
	<polygon class="st1" points="82,50.3 73.4,58.8 64.8,50.3 	"/>
	<polygon class="st1" points="32.2,191.7 22.5,201.4 12.9,191.7 	"/>
	<polygon class="st1" points="129.6,99.9 123,106.6 116.3,99.9 	"/>
	<polygon class="st1" points="86.7,116 80.1,122.6 73.4,116 	"/>
	<polygon class="st1" points="483.8,140.8 475.6,149 467.4,140.8 	"/>
	<polygon class="st1" points="511.1,103.4 502.9,111.6 494.7,103.4 	"/>
	<polygon class="st1" points="575.8,151.7 571.7,155.8 567.6,151.7 	"/>
	<polygon class="st1" points="27.3,422.5 19.1,430.7 10.9,422.5 	"/>
	<polygon class="st1" points="51.6,464.7 47.5,468.8 43.4,464.7 	"/>
	<polygon class="st1" points="511.1,293.5 507,297.6 502.9,293.5 	"/>
	<polygon class="st1" points="609.1,379.9 605,384 600.9,379.9 	"/>
	<polygon class="st1" points="624.3,273.7 614.7,283.4 605,273.7 	"/>
	<polygon class="st1" points="452.2,348.8 447.4,353.6 442.5,348.8 	"/>
	<polygon class="st1" points="595.3,346.9 583.5,358.7 571.7,346.9 	"/>
	<polygon class="st1" points="221.1,298.5 221.1,290.7 228.9,290.7 	"/>
	<polygon class="st1" points="228.9,290.7 228.9,298.5 221.1,298.5 	"/>
	<polygon class="st1" points="214.8,266.6 212.8,266.6 212.8,264.6 	"/>
	<polygon class="st1" points="212.8,264.6 214.8,264.6 214.8,266.6 	"/>
	<polygon class="st1" points="267.6,292.1 261.8,292.1 261.8,286.4 	"/>
	<polygon class="st1" points="261.8,286.4 267.6,286.4 267.6,292.1 	"/>
	<polygon class="st1" points="255.1,272.2 251,272.2 251,268.2 	"/>
	<polygon class="st1" points="251,268.2 255.1,268.2 255.1,272.2 	"/>
	<polygon class="st1" points="208,293.4 205.6,293.4 205.6,291.1 	"/>
	<polygon class="st1" points="205.6,291.1 208,291.1 208,293.4 	"/>
	<polygon class="st1" points="240.8,283.6 238.4,283.6 238.4,281.2 	"/>
	<polygon class="st1" points="238.4,281.2 240.8,281.2 240.8,283.6 	"/>
	<polygon class="st1" points="257,235.3 253.8,235.3 253.8,232.1 	"/>
	<polygon class="st1" points="253.8,232.1 257,232.1 257,235.3 	"/>
	<polygon class="st1" points="222.6,261.3 222.6,256.7 227.2,256.7 	"/>
	<polygon class="st1" points="227.2,256.7 227.2,261.3 222.6,261.3 	"/>
	<polygon class="st1" points="243.1,258.3 243.1,249.6 251.8,249.6 	"/>
	<polygon class="st1" points="251.8,249.6 251.8,258.3 243.1,258.3 	"/>
	<polygon class="st1" points="267.7,261.8 267.7,256.3 273.1,256.3 	"/>
	<polygon class="st1" points="273.1,256.3 273.1,261.8 267.7,261.8 	"/>
	<polygon class="st1" points="411.2,91.8 395.5,107.6 379.7,91.8 	"/>
	<polygon class="st1" points="426.9,139 411.2,123.3 426.9,107.6 	"/>
	<polygon class="st1" points="426.9,170.5 411.2,154.7 426.9,139 	"/>
	<polygon class="st1" points="395.5,107.6 411.2,91.8 426.9,107.6 	"/>
	<polygon class="st1" points="426.9,107.5 411.2,123.3 395.5,107.5 	"/>
	<polygon class="st1" points="413.1,89.9 421,82.1 436.7,97.8 	"/>
	<polygon class="st1" points="436.7,97.8 428.8,105.7 413.1,89.9 	"/>
	<polygon class="st1" points="428.8,82.1 424.9,86 421,82.1 	"/>
	<polygon class="st1" points="424.9,86 428.8,82.1 432.7,86 	"/>
	<polygon class="st1" points="432.7,86 428.8,89.9 424.9,86 	"/>
	<polygon class="st1" points="436.7,89.9 432.8,93.9 436.7,97.8 	"/>
	<polygon class="st1" points="432.8,93.9 436.7,89.9 432.8,86 	"/>
	<polygon class="st1" points="432.8,86 428.8,89.9 432.8,93.9 	"/>
	<polygon class="st1" points="264.3,207.3 276.1,219 264.3,230.8 	"/>
	<polygon class="st1" points="287.8,254.3 299.6,242.6 311.4,254.3 	"/>
	<polygon class="st1" points="379.7,91.8 364,107.6 348.3,91.8 	"/>
	<polygon class="st1" points="364,107.6 379.7,91.8 395.5,107.6 	"/>
	<polygon class="st1" points="395.5,107.5 379.7,123.3 364,107.5 	"/>
	<polygon class="st1" points="379.8,123.3 395.5,107.6 411.2,123.3 	"/>
	<polygon class="st1" points="411.2,123.3 395.5,139 379.7,123.3 	"/>
	<polygon class="st1" points="395.5,139 411.2,123.3 426.9,139 	"/>
	<polygon class="st1" points="426.9,139 411.2,154.7 395.5,139 	"/>
	<polygon class="st1" points="326.3,113.8 342,98.1 357.8,113.8 	"/>
	<polygon class="st1" points="357.8,113.8 342,129.5 326.3,113.8 	"/>
	<polygon class="st1" points="287.9,207.2 276.1,219 264.3,207.2 	"/>
	<polygon class="st1" points="264.3,207.3 276.1,195.5 287.9,207.3 	"/>
	<polygon class="st1" points="276.1,219 287.9,207.2 299.6,219 	"/>
	<polygon class="st1" points="299.6,219 287.9,230.8 276.1,219 	"/>
	<polygon class="st1" points="287.8,230.8 299.6,219 311.4,230.8 	"/>
	<polygon class="st1" points="311.4,230.8 299.6,242.6 287.8,230.8 	"/>
	<polygon class="st1" points="264.3,230.8 276.1,219 287.9,230.8 	"/>
	<polygon class="st1" points="287.9,230.8 276.1,242.6 264.3,230.8 	"/>
	<polygon class="st1" points="276,242.6 287.8,230.8 299.6,242.6 	"/>
	<polygon class="st1" points="299.6,242.6 287.8,254.3 276,242.6 	"/>
	<polygon class="st1" points="311.4,230.8 323.2,242.6 311.4,254.3 	"/>
	<polygon class="st1" points="311.4,254.3 299.6,242.6 311.4,230.8 	"/>
	<polygon class="st1" points="263.5,176.7 326.4,113.8 389.2,176.7 	"/>
	<polygon class="st1" points="389.2,176.7 326.3,239.6 263.4,176.7 	"/>
	<polygon class="st1" points="370.7,284 344.5,257.7 370.7,231.5 	"/>
	<polygon class="st1" points="352.5,265.7 370.7,284 352.5,302.2 	"/>
	<polygon class="st1" points="352.5,276.4 352.5,302.2 326.6,302.2 	"/>
	<polygon class="st1" points="234.8,148 261,174.3 287.3,148 	"/>
	<polygon class="st1" points="253,166.3 234.8,148 216.5,166.3 	"/>
	<polygon class="st1" points="242.3,166.3 216.5,166.3 216.5,192.1 	"/>
	<polygon class="st1" points="342.1,129.5 357.8,113.8 373.5,129.5 	"/>
	<polygon class="st1" points="373.5,129.5 357.8,145.2 342,129.5 	"/>
	<polygon class="st1" points="290.8,176.5 306.6,160.8 322.3,176.5 	"/>
	<polygon class="st1" points="322.3,176.5 306.5,192.2 290.8,176.5 	"/>
	<polygon class="st1" points="357.8,145.2 373.5,129.5 389.2,145.2 	"/>
	<polygon class="st1" points="389.2,145.2 373.5,161 357.8,145.2 	"/>
	<polygon class="st1" points="373.5,161 389.2,145.2 405,161 	"/>
	<polygon class="st1" points="405,161 389.2,176.7 373.5,161 	"/>
	<polygon class="st1" points="389.2,176.7 405,161 420.7,176.7 	"/>
	<polygon class="st1" points="420.7,176.7 405,192.4 389.2,176.7 	"/>
	<polygon class="st1" points="373.5,192.4 389.2,176.7 405,192.4 	"/>
	<polygon class="st1" points="405,192.4 389.2,208.1 373.5,192.4 	"/>
	<polygon class="st1" points="357.8,208.1 373.5,192.4 389.2,208.1 	"/>
	<polygon class="st1" points="389.2,208.1 373.5,223.9 357.8,208.1 	"/>
	<polygon class="st1" points="342.1,223.9 357.8,208.1 373.5,223.9 	"/>
	<polygon class="st1" points="373.5,223.9 357.8,239.6 342.1,223.9 	"/>
	<polygon class="st1" points="326.3,239.6 342.1,223.9 357.8,239.6 	"/>
	<polygon class="st1" points="357.8,239.6 342.1,255.3 326.3,239.6 	"/>
	<polygon class="st1" points="146.4,390.1 157.1,379.4 167.7,390.1 	"/>
	<polygon class="st1" points="167.7,390.1 157.1,379.4 167.7,368.8 	"/>
	<polygon class="st1" points="167.7,368.8 157.1,379.4 146.4,368.8 	"/>
	<polygon class="st1" points="146.4,368.8 157.1,379.4 146.4,390.1 	"/>
	<polygon class="st1" points="138.2,398.3 142.3,394.2 146.4,398.3 	"/>
	<polygon class="st1" points="146.4,398.3 142.3,394.2 146.4,390.1 	"/>
	<polygon class="st1" points="146.4,390.1 142.3,394.2 138.2,390.1 	"/>
	<polygon class="st1" points="138.2,390.1 142.3,394.2 138.2,398.3 	"/>
	<polygon class="st1" points="216.1,349.9 223.4,342.5 230.8,349.9 	"/>
	<polygon class="st1" points="230.8,349.9 223.4,342.5 230.8,335.1 	"/>
	<polygon class="st1" points="230.8,335.1 223.4,342.5 216.1,335.1 	"/>
	<polygon class="st1" points="216.1,335.1 223.4,342.5 216.1,349.9 	"/>
	<polygon class="st1" points="210.4,355.6 213.2,352.7 216.1,355.6 	"/>
	<polygon class="st1" points="216.1,355.6 213.2,352.7 216.1,349.9 	"/>
	<polygon class="st1" points="216.1,349.9 213.2,352.7 210.4,349.9 	"/>
	<polygon class="st1" points="210.4,349.9 213.2,352.7 210.4,355.6 	"/>
	<polygon class="st1" points="173.8,391.9 181.1,384.6 188.5,391.9 	"/>
	<polygon class="st1" points="188.5,391.9 181.1,384.6 188.5,377.2 	"/>
	<polygon class="st1" points="188.5,377.2 181.1,384.6 173.8,377.2 	"/>
	<polygon class="st1" points="173.8,377.2 181.1,384.6 173.8,391.9 	"/>
	<polygon class="st1" points="168.1,397.6 170.9,394.8 173.7,397.6 	"/>
	<polygon class="st1" points="173.7,397.6 170.9,394.8 173.7,392 	"/>
	<polygon class="st1" points="173.7,392 170.9,394.8 168.1,392 	"/>
	<polygon class="st1" points="168.1,392 170.9,394.8 168.1,397.6 	"/>
	<polygon class="st1" points="107.8,398.1 118.4,387.4 129.1,398.1 	"/>
	<polygon class="st1" points="129.1,398.1 118.4,387.4 129.1,376.8 	"/>
	<polygon class="st1" points="129.1,376.8 118.4,387.4 107.8,376.8 	"/>
	<polygon class="st1" points="107.8,376.8 118.4,387.4 107.8,398.1 	"/>
	<polygon class="st1" points="99.6,406.3 103.7,402.2 107.8,406.3 	"/>
	<polygon class="st1" points="107.8,406.3 103.7,402.2 107.8,398.1 	"/>
	<polygon class="st1" points="107.8,398.1 103.7,402.2 99.6,398.1 	"/>
	<polygon class="st1" points="99.6,398.1 103.7,402.2 99.6,406.3 	"/>
	<polygon class="st1" points="120.9,376.8 125,372.6 129.1,376.8 	"/>
	<polygon class="st1" points="129.1,376.8 125,372.6 129.1,368.5 	"/>
	<polygon class="st1" points="129.1,368.5 125,372.6 120.9,368.5 	"/>
	<polygon class="st1" points="120.9,368.5 125,372.6 120.9,376.8 	"/>
	<polygon class="st1" points="90.9,412.5 95,408.4 99.1,412.5 	"/>
	<polygon class="st1" points="99.1,412.5 95,408.4 99.1,404.3 	"/>
	<polygon class="st1" points="99.1,404.3 95,408.4 90.9,404.3 	"/>
	<polygon class="st1" points="90.9,404.3 95,408.4 90.9,412.5 	"/>
	<polygon class="st1" points="201.1,364.8 205.4,360.5 209.7,364.8 	"/>
	<polygon class="st1" points="209.7,364.8 205.4,360.5 209.7,356.2 	"/>
	<polygon class="st1" points="209.7,356.2 205.4,360.5 201.1,356.2 	"/>
	<polygon class="st1" points="201.1,356.2 205.4,360.5 201.1,364.8 	"/>
	<polygon class="st1" points="197.8,368.1 199.5,366.5 201.1,368.1 	"/>
	<polygon class="st1" points="201.1,368.1 199.5,366.5 201.1,364.8 	"/>
	<polygon class="st1" points="201.1,364.8 199.5,366.5 197.8,364.8 	"/>
	<polygon class="st1" points="197.8,364.8 199.5,366.5 197.8,368.1 	"/>
	<polygon class="st1" points="175.5,339.7 184.9,330.4 194.2,339.7 	"/>
	<polygon class="st1" points="194.2,339.7 184.9,330.4 194.2,321 	"/>
	<polygon class="st1" points="194.2,321 184.9,330.4 175.5,321 	"/>
	<polygon class="st1" points="175.5,321 184.9,330.4 175.5,339.7 	"/>
	<polygon class="st1" points="234.3,331.4 243.6,322.1 253,331.4 	"/>
	<polygon class="st1" points="253,331.4 243.6,322.1 253,312.7 	"/>
	<polygon class="st1" points="253,312.7 243.6,322.1 234.3,312.7 	"/>
	<polygon class="st1" points="234.3,312.7 243.6,322.1 234.3,331.4 	"/>
	<polygon class="st1" points="146.5,368.8 162.6,352.6 178.8,368.8 	"/>
	<polygon class="st1" points="178.8,368.8 162.6,352.6 178.8,336.4 	"/>
	<polygon class="st1" points="178.8,336.4 162.6,352.6 146.5,336.4 	"/>
	<polygon class="st1" points="146.5,336.4 162.6,352.6 146.5,368.8 	"/>
	<polygon class="st1" points="129.3,376.9 137.9,368.5 146.4,377.1 	"/>
	<polygon class="st1" points="146.4,377 137.9,368.5 146.4,359.9 	"/>
	<polygon class="st1" points="146.4,359.9 137.9,368.5 129.3,359.9 	"/>
	<polygon class="st1" points="129.3,359.9 137.9,368.5 129.3,377 	"/>
</g>
</svg>
