<svg xmlns="http://www.w3.org/2000/svg" width="662.11" height="481" viewBox="0 0 662.11 481">
  <title>stats</title>
  <g id="Layer_2" data-name="Layer 2">
    <rect x="21.61" y="0.5" width="640" height="480" fill="#fff" stroke="#000" stroke-miterlimit="10"/>
  </g>
  <g id="Layer_3" data-name="Layer 3">
    <polygon points="640.73 12.72 634.17 19.28 627.6 12.72 640.73 12.72" fill="#a3365d" opacity="0.45"/>
    <polygon points="120.28 363.76 113.72 370.32 107.15 363.76 120.28 363.76" fill="#a3365d" opacity="0.45"/>
    <polygon points="86.32 409.36 82.26 413.41 78.21 409.36 86.32 409.36" fill="#a3365d" opacity="0.75"/>
    <polygon points="548.96 261.84 538.74 272.06 528.52 261.84 548.96 261.84" fill="#a3365d" opacity="0.45"/>
    <polygon points="149.25 391.75 139.03 401.97 128.81 391.75 149.25 391.75" fill="#a3365d" opacity="0.45"/>
    <polygon points="590.53 340.69 574.31 356.9 558.1 340.69 590.53 340.69" fill="#a3365d" opacity="0.33"/>
    <polygon points="162.37 253.79 155.81 260.36 149.25 253.79 162.37 253.79" fill="#a3365d" opacity="0.75"/>
    <polygon points="47.44 115.4 37.22 125.62 27 115.4 47.44 115.4" fill="#a3365d" opacity="0.45"/>
    <polygon points="32.42 238.56 16.21 254.78 0 238.56 32.42 238.56" fill="#a3365d" opacity="0.75"/>
    <polygon points="627.6 173.11 619.83 180.88 612.06 173.11 627.6 173.11" fill="#a3365d" opacity="0.33"/>
    <polygon points="561.11 114.92 549.92 126.1 538.74 114.92 561.11 114.92" fill="#a3365d" opacity="0.75"/>
    <polygon points="307.19 54.74 299.41 62.51 291.64 54.74 307.19 54.74" fill="#a3365d" opacity="0.33"/>
    <polygon points="529.19 85.36 522.59 91.96 515.99 85.36 529.19 85.36" fill="#a3365d" opacity="0.45"/>
    <polygon points="224.26 29.32 212.06 41.52 199.86 29.32 224.26 29.32" fill="#a3365d" opacity="0.33"/>
    <polygon points="264.75 68.5 247.44 85.81 230.13 68.5 264.75 68.5" fill="#a3365d" opacity="0.45"/>
    <polygon points="289.82 244.83 183.77 244.83 183.77 138.78 289.82 244.83" fill="#262838" stroke="#fff" stroke-miterlimit="10" stroke-width="0.3" opacity="0.8"/>
    <polygon points="183.81 138.74 289.86 138.74 289.86 244.79 183.81 138.74" fill="#262838" stroke="#fff" stroke-miterlimit="10" stroke-width="0.3" opacity="0.55"/>
    <polygon points="396.08 244.83 290.04 244.83 290.04 138.78 396.08 244.83" fill="#262838" stroke="#fff" stroke-miterlimit="10" stroke-width="0.3" opacity="0.55"/>
    <polygon points="290.25 138.19 396.3 138.93 395.57 244.97 290.25 138.19" fill="#262838" stroke="#fff" stroke-miterlimit="10" stroke-width="0.3" opacity="0.55"/>
    <polygon points="502.1 244.83 396.05 244.83 396.05 138.78 502.1 244.83" fill="#262838" stroke="#fff" stroke-miterlimit="10" stroke-width="0.3" opacity="0.55"/>
    <polygon points="396.08 138.74 502.13 138.74 502.13 244.79 396.08 138.74" fill="#262838" stroke="#fff" stroke-miterlimit="10" stroke-width="0.3" opacity="0.55"/>
    <polygon points="289.93 350.88 183.88 350.88 183.88 244.83 289.93 350.88" fill="#262838" stroke="#fff" stroke-miterlimit="10" stroke-width="0.3" opacity="0.8"/>
    <polygon points="183.91 244.79 289.96 244.79 289.96 350.84 183.91 244.79" fill="#262838" stroke="#fff" stroke-miterlimit="10" stroke-width="0.3" opacity="0.75"/>
    <polygon points="396.19 350.88 290.14 350.88 290.14 244.83 396.19 350.88" fill="#262838" stroke="#fff" stroke-miterlimit="10" stroke-width="0.3" opacity="0.8"/>
    <polygon points="290.18 244.79 396.23 244.79 396.23 350.84 290.18 244.79" fill="#262838" stroke="#fff" stroke-miterlimit="10" stroke-width="0.3" opacity="0.7"/>
    <polygon points="502.2 350.88 396.15 350.88 396.15 244.83 502.2 350.88" fill="#262838" stroke="#fff" stroke-miterlimit="10" stroke-width="0.3" opacity="0.8"/>
    <polygon points="396.19 244.79 502.24 244.79 502.24 350.84 396.19 244.79" fill="#262838" stroke="#fff" stroke-miterlimit="10" stroke-width="0.3" opacity="0.6"/>
    <polygon points="298.43 245.87 207.91 245.87 207.91 155.35 298.43 245.87" fill="#262838" stroke="#fff" stroke-miterlimit="10" stroke-width="0.3" opacity="0.9"/>
    <polygon points="207.94 155.32 298.45 155.32 298.45 245.84 207.94 155.32" fill="#262838" stroke="#fff" stroke-miterlimit="10" stroke-width="0.3" opacity="0.85"/>
    <polygon points="389.12 245.87 298.61 245.87 298.61 155.35 389.12 245.87" fill="#262838" stroke="#fff" stroke-miterlimit="10" stroke-width="0.3" opacity="0.94"/>
    <polygon points="298.64 155.32 389.15 155.32 389.15 245.84 298.64 155.32" fill="#262838" stroke="#fff" stroke-miterlimit="10" stroke-width="0.3" opacity="0.85"/>
    <polygon points="479.61 245.87 389.09 245.87 389.09 155.35 479.61 245.87" fill="#262838" stroke="#fff" stroke-miterlimit="10" stroke-width="0.3" opacity="0.85"/>
    <polygon points="389.12 155.32 479.63 155.32 479.63 245.84 389.12 155.32" fill="#262838" stroke="#fff" stroke-miterlimit="10" stroke-width="0.3" opacity="0.94"/>
    <polygon points="298.52 336.39 208 336.39 208 245.87 298.52 336.39" fill="#262838" stroke="#fff" stroke-miterlimit="10" stroke-width="0.3" opacity="0.9"/>
    <polygon points="208.03 245.84 298.55 245.84 298.55 336.36 208.03 245.84" fill="#262838" stroke="#fff" stroke-miterlimit="10" stroke-width="0.3" opacity="0.9"/>
    <polygon points="389.21 336.39 298.7 336.39 298.7 245.87 389.21 336.39" fill="#262838" stroke="#fff" stroke-miterlimit="10" stroke-width="0.3" opacity="0.9"/>
    <polygon points="298.73 245.84 389.24 245.84 389.24 336.36 298.73 245.84" fill="#262838" stroke="#fff" stroke-miterlimit="10" stroke-width="0.3" opacity="0.98"/>
    <polygon points="479.7 336.39 389.18 336.39 389.18 245.87 479.7 336.39" fill="#262838" stroke="#fff" stroke-miterlimit="10" stroke-width="0.3" opacity="0.9"/>
    <polygon points="389.21 245.84 479.73 245.84 479.73 336.36 389.21 245.84" fill="#262838" stroke="#fff" stroke-miterlimit="10" stroke-width="0.3" opacity="0.98"/>
    <polygon points="517.81 366.06 517.85 359.92 511.71 359.88 517.81 366.06" fill="#262838" stroke="#fff" stroke-miterlimit="10" stroke-width="0.3" opacity="0.55"/>
    <polygon points="511.71 359.88 511.67 366.02 517.81 366.06 511.71 359.88" fill="#262838" stroke="#fff" stroke-miterlimit="10" stroke-width="0.3" opacity="0.8"/>
    <polygon points="511.75 353.74 511.71 359.88 517.85 359.92 511.75 353.74" fill="#262838" stroke="#fff" stroke-miterlimit="10" stroke-width="0.3" opacity="0.65"/>
    <polygon points="511.63 372.16 511.67 366.02 517.81 366.06 511.63 372.16" fill="#262838" stroke="#fff" stroke-miterlimit="10" stroke-width="0.3" opacity="0.8"/>
    <polygon points="165.02 366.05 164.9 359.91 171.04 359.79 165.02 366.05" fill="#262838" stroke="#fff" stroke-miterlimit="10" stroke-width="0.3" opacity="0.65"/>
    <polygon points="171.04 359.79 171.16 365.93 165.02 366.05 171.04 359.79" fill="#262838" stroke="#fff" stroke-miterlimit="10" stroke-width="0.3" opacity="0.8"/>
    <polygon points="170.92 353.65 171.04 359.79 164.9 359.91 170.92 353.65" fill="#262838" stroke="#fff" stroke-miterlimit="10" stroke-width="0.3" opacity="0.65"/>
    <polygon points="171.28 372.06 171.16 365.93 165.02 366.05 171.28 372.06" fill="#262838" stroke="#fff" stroke-miterlimit="10" stroke-width="0.3" opacity="0.8"/>
    <polygon points="511.63 371.94 511.69 362.77 171.22 362.8 511.63 371.94" fill="#262838" stroke="#fff" stroke-miterlimit="10" stroke-width="0.3" opacity="0.8"/>
    <polygon points="171.22 362.8 171.16 371.98 511.63 371.94 171.22 362.8" fill="#262838" stroke="#fff" stroke-miterlimit="10" stroke-width="0.3" opacity="0.8"/>
    <polygon points="511.75 353.57 511.69 362.75 171.22 362.78 511.75 353.57" fill="#262838" stroke="#fff" stroke-miterlimit="10" stroke-width="0.3" opacity="0.65"/>
    <polygon points="171.22 362.78 171.28 353.6 511.75 353.57 171.22 362.78" fill="#262838" stroke="#fff" stroke-miterlimit="10" stroke-width="0.3" opacity="0.55"/>
    <polygon points="339.59 147.44 343.88 143.16 348.16 147.44 339.59 147.44" fill="#262838" stroke="#fff" stroke-miterlimit="10" stroke-width="0.3"/>
    <polygon points="348.16 147.44 343.88 151.72 339.59 147.44 348.16 147.44" fill="#262838" stroke="#fff" stroke-miterlimit="10" stroke-width="0.3"/>
    <polygon points="341.27 215.84 352.24 204.87 363.21 215.84 341.27 215.84" fill="#f6715e" stroke="#fff" stroke-miterlimit="10" stroke-width="0.3"/>
    <polygon points="350.52 210.5 366.04 210.5 366.04 226.01 350.52 210.5" fill="#f6715e" stroke="#fff" stroke-miterlimit="10" stroke-width="0.3"/>
    <polygon points="360.84 213.27 371.8 224.24 360.84 235.21 360.84 213.27" fill="#f6715e" stroke="#fff" stroke-miterlimit="10" stroke-width="0.3"/>
    <polygon points="366.17 222.52 366.17 238.03 350.66 238.03 366.17 222.52" fill="#f6715e" stroke="#fff" stroke-miterlimit="10" stroke-width="0.3"/>
    <polygon points="363.4 232.83 352.43 243.8 341.47 232.83 363.4 232.83" fill="#f6715e" stroke="#fff" stroke-miterlimit="10" stroke-width="0.3"/>
    <polygon points="354.15 238.17 338.64 238.17 338.64 222.66 354.15 238.17" fill="#f6715e" stroke="#fff" stroke-miterlimit="10" stroke-width="0.3"/>
    <polygon points="343.84 235.4 332.87 224.43 343.84 213.46 343.84 235.4" fill="#f6715e" stroke="#fff" stroke-miterlimit="10" stroke-width="0.3"/>
    <polygon points="338.51 226.15 338.51 210.64 354.02 210.64 338.51 226.15" fill="#f6715e" stroke="#fff" stroke-miterlimit="10" stroke-width="0.3"/>
    <polygon points="342.7 234.23 342.7 214.83 362.1 214.83 342.7 234.23" fill="#f6715e" stroke="#fff" stroke-miterlimit="10" stroke-width="0.3"/>
    <polygon points="362.35 214.92 362.35 234.31 342.95 234.31 362.35 214.92" fill="#f6715e" stroke="#fff" stroke-miterlimit="10" stroke-width="0.3"/>
    <polygon points="288.96 280.42 293.94 275.43 298.93 280.42 288.96 280.42" fill="#f6715e" stroke="#fff" stroke-miterlimit="10" stroke-width="0.3" opacity="0.95"/>
    <polygon points="293.16 277.99 300.21 277.99 300.21 285.04 293.16 277.99" fill="#f6715e" stroke="#fff" stroke-miterlimit="10" stroke-width="0.3" opacity="0.95"/>
    <polygon points="297.85 279.25 302.84 284.24 297.85 289.22 297.85 279.25" fill="#f6715e" stroke="#fff" stroke-miterlimit="10" stroke-width="0.3" opacity="0.95"/>
    <polygon points="300.27 283.45 300.27 290.51 293.22 290.51 300.27 283.45" fill="#f6715e" stroke="#fff" stroke-miterlimit="10" stroke-width="0.3" opacity="0.95"/>
    <polygon points="299.02 288.14 294.03 293.13 289.04 288.14 299.02 288.14" fill="#f6715e" stroke="#fff" stroke-miterlimit="10" stroke-width="0.3" opacity="0.95"/>
    <polygon points="294.81 290.57 287.76 290.57 287.76 283.52 294.81 290.57" fill="#f6715e" stroke="#fff" stroke-miterlimit="10" stroke-width="0.3" opacity="0.95"/>
    <polygon points="290.12 289.31 285.14 284.32 290.12 279.34 290.12 289.31" fill="#f6715e" stroke="#fff" stroke-miterlimit="10" stroke-width="0.3" opacity="0.95"/>
    <polygon points="287.7 285.11 287.7 278.05 294.75 278.05 287.7 285.11" fill="#f6715e" stroke="#fff" stroke-miterlimit="10" stroke-width="0.3" opacity="0.95"/>
    <polygon points="289.61 288.78 289.61 279.96 298.42 279.96 289.61 288.78" fill="#f6715e" stroke="#fff" stroke-miterlimit="10" stroke-width="0.3" opacity="0.95"/>
    <polygon points="298.54 280 298.54 288.82 289.72 288.82 298.54 280" fill="#f6715e" stroke="#fff" stroke-miterlimit="10" stroke-width="0.3" opacity="0.95"/>
    <polygon points="290.56 265.89 293.98 262.47 297.4 265.89 290.56 265.89" fill="#f6715e" stroke="#fff" stroke-miterlimit="10" stroke-width="0.3" opacity="0.62"/>
    <polygon points="293.45 264.23 298.28 264.23 298.28 269.06 293.45 264.23" fill="#f6715e" stroke="#fff" stroke-miterlimit="10" stroke-width="0.3" opacity="0.62"/>
    <polygon points="296.66 265.09 300.08 268.51 296.66 271.93 296.66 265.09" fill="#f6715e" stroke="#fff" stroke-miterlimit="10" stroke-width="0.3" opacity="0.62"/>
    <polygon points="298.33 267.97 298.33 272.81 293.49 272.81 298.33 267.97" fill="#f6715e" stroke="#fff" stroke-miterlimit="10" stroke-width="0.3" opacity="0.62"/>
    <polygon points="297.46 271.19 294.04 274.61 290.63 271.19 297.46 271.19" fill="#f6715e" stroke="#fff" stroke-miterlimit="10" stroke-width="0.3" opacity="0.62"/>
    <polygon points="294.58 272.85 289.74 272.85 289.74 268.01 294.58 272.85" fill="#f6715e" stroke="#fff" stroke-miterlimit="10" stroke-width="0.3" opacity="0.62"/>
    <polygon points="291.37 271.99 287.95 268.57 291.37 265.15 291.37 271.99" fill="#f6715e" stroke="#fff" stroke-miterlimit="10" stroke-width="0.3" opacity="0.62"/>
    <polygon points="289.7 269.1 289.7 264.27 294.54 264.27 289.7 269.1" fill="#f6715e" stroke="#fff" stroke-miterlimit="10" stroke-width="0.3" opacity="0.62"/>
    <polygon points="291.01 271.62 291.01 265.58 297.06 265.58 291.01 271.62" fill="#f6715e" stroke="#fff" stroke-miterlimit="10" stroke-width="0.3" opacity="0.62"/>
    <polygon points="297.13 265.6 297.13 271.65 291.09 271.65 297.13 265.6" fill="#f6715e" stroke="#fff" stroke-miterlimit="10" stroke-width="0.3" opacity="0.62"/>
    <polygon points="273.88 272.71 277.39 269.2 280.89 272.71 273.88 272.71" fill="#f6715e" stroke="#fff" stroke-miterlimit="10" stroke-width="0.3" opacity="0.95"/>
    <polygon points="276.84 271.01 281.8 271.01 281.8 275.97 276.84 271.01" fill="#f6715e" stroke="#fff" stroke-miterlimit="10" stroke-width="0.3" opacity="0.95"/>
    <polygon points="280.13 271.89 283.64 275.4 280.13 278.91 280.13 271.89" fill="#f6715e" stroke="#fff" stroke-miterlimit="10" stroke-width="0.3" opacity="0.95"/>
    <polygon points="281.84 274.85 281.84 279.81 276.88 279.81 281.84 274.85" fill="#f6715e" stroke="#fff" stroke-miterlimit="10" stroke-width="0.3" opacity="0.95"/>
    <polygon points="280.96 278.15 277.45 281.66 273.94 278.15 280.96 278.15" fill="#f6715e" stroke="#fff" stroke-miterlimit="10" stroke-width="0.3" opacity="0.95"/>
    <polygon points="278 279.86 273.04 279.86 273.04 274.89 278 279.86" fill="#f6715e" stroke="#fff" stroke-miterlimit="10" stroke-width="0.3" opacity="0.95"/>
    <polygon points="274.7 278.97 271.19 275.46 274.7 271.95 274.7 278.97" fill="#f6715e" stroke="#fff" stroke-miterlimit="10" stroke-width="0.3" opacity="0.95"/>
    <polygon points="272.99 276.01 272.99 271.05 277.95 271.05 272.99 276.01" fill="#f6715e" stroke="#fff" stroke-miterlimit="10" stroke-width="0.3" opacity="0.95"/>
    <polygon points="274.33 278.6 274.33 272.39 280.54 272.39 274.33 278.6" fill="#f6715e" stroke="#fff" stroke-miterlimit="10" stroke-width="0.3" opacity="0.95"/>
    <polygon points="280.62 272.42 280.62 278.62 274.42 278.62 280.62 272.42" fill="#f6715e" stroke="#fff" stroke-miterlimit="10" stroke-width="0.3" opacity="0.95"/>
    <polygon points="260.83 292.29 264.34 288.78 267.85 292.29 260.83 292.29" fill="#f6715e" stroke="#fff" stroke-miterlimit="10" stroke-width="0.3" opacity="0.48"/>
    <polygon points="263.79 290.58 268.75 290.58 268.75 295.54 263.79 290.58" fill="#f6715e" stroke="#fff" stroke-miterlimit="10" stroke-width="0.3" opacity="0.48"/>
    <polygon points="267.09 291.46 270.6 294.97 267.09 298.48 267.09 291.46" fill="#f6715e" stroke="#fff" stroke-miterlimit="10" stroke-width="0.3" opacity="0.48"/>
    <polygon points="268.79 294.42 268.79 299.38 263.83 299.38 268.79 294.42" fill="#f6715e" stroke="#fff" stroke-miterlimit="10" stroke-width="0.3" opacity="0.48"/>
    <polygon points="267.91 297.72 264.4 301.23 260.89 297.72 267.91 297.72" fill="#f6715e" stroke="#fff" stroke-miterlimit="10" stroke-width="0.3" opacity="0.48"/>
    <polygon points="264.95 299.43 259.99 299.43 259.99 294.47 264.95 299.43" fill="#f6715e" stroke="#fff" stroke-miterlimit="10" stroke-width="0.3" opacity="0.48"/>
    <polygon points="261.65 298.54 258.14 295.04 261.65 291.53 261.65 298.54" fill="#f6715e" stroke="#fff" stroke-miterlimit="10" stroke-width="0.3" opacity="0.48"/>
    <polygon points="259.94 295.58 259.94 290.62 264.91 290.62 259.94 295.58" fill="#f6715e" stroke="#fff" stroke-miterlimit="10" stroke-width="0.3" opacity="0.48"/>
    <polygon points="261.29 298.17 261.29 291.96 267.49 291.96 261.29 298.17" fill="#f6715e" stroke="#fff" stroke-miterlimit="10" stroke-width="0.3" opacity="0.48"/>
    <polygon points="267.57 291.99 267.57 298.19 261.37 298.19 267.57 291.99" fill="#f6715e" stroke="#fff" stroke-miterlimit="10" stroke-width="0.3" opacity="0.48"/>
    <polygon points="312.07 257.89 317.92 252.04 323.76 257.89 312.07 257.89" fill="#f6715e" stroke="#fff" stroke-miterlimit="10" stroke-width="0.3" opacity="0.95"/>
    <polygon points="317 255.04 325.27 255.04 325.27 263.31 317 255.04" fill="#f6715e" stroke="#fff" stroke-miterlimit="10" stroke-width="0.3" opacity="0.95"/>
    <polygon points="322.5 256.52 328.35 262.37 322.5 268.22 322.5 256.52" fill="#f6715e" stroke="#fff" stroke-miterlimit="10" stroke-width="0.3" opacity="0.95"/>
    <polygon points="325.34 261.45 325.34 269.72 317.07 269.72 325.34 261.45" fill="#f6715e" stroke="#fff" stroke-miterlimit="10" stroke-width="0.3" opacity="0.95"/>
    <polygon points="323.87 266.95 318.02 272.8 312.17 266.95 323.87 266.95" fill="#f6715e" stroke="#fff" stroke-miterlimit="10" stroke-width="0.3" opacity="0.95"/>
    <polygon points="318.93 269.8 310.66 269.8 310.66 261.52 318.93 269.8" fill="#f6715e" stroke="#fff" stroke-miterlimit="10" stroke-width="0.3" opacity="0.95"/>
    <polygon points="313.44 268.32 307.59 262.47 313.44 256.62 313.44 268.32" fill="#f6715e" stroke="#fff" stroke-miterlimit="10" stroke-width="0.3" opacity="0.95"/>
    <polygon points="310.59 263.39 310.59 255.12 318.86 255.12 310.59 263.39" fill="#f6715e" stroke="#fff" stroke-miterlimit="10" stroke-width="0.3" opacity="0.95"/>
    <polygon points="312.83 267.69 312.83 257.35 323.17 257.35 312.83 267.69" fill="#f6715e" stroke="#fff" stroke-miterlimit="10" stroke-width="0.3" opacity="0.95"/>
    <polygon points="323.3 257.4 323.3 267.74 312.96 267.74 323.3 257.4" fill="#f6715e" stroke="#fff" stroke-miterlimit="10" stroke-width="0.3" opacity="0.95"/>
    <polygon points="337.94 251.24 343.79 245.39 349.64 251.24 337.94 251.24" fill="#f6715e" stroke="#fff" stroke-miterlimit="10" stroke-width="0.3" opacity="0.64"/>
    <polygon points="342.87 248.39 351.14 248.39 351.14 256.66 342.87 248.39" fill="#f6715e" stroke="#fff" stroke-miterlimit="10" stroke-width="0.3" opacity="0.64"/>
    <polygon points="348.37 249.87 354.22 255.72 348.37 261.57 348.37 249.87" fill="#f6715e" stroke="#fff" stroke-miterlimit="10" stroke-width="0.3" opacity="0.64"/>
    <polygon points="351.22 254.8 351.22 263.07 342.94 263.07 351.22 254.8" fill="#f6715e" stroke="#fff" stroke-miterlimit="10" stroke-width="0.3" opacity="0.64"/>
    <polygon points="349.74 260.3 343.89 266.15 338.04 260.3 349.74 260.3" fill="#f6715e" stroke="#fff" stroke-miterlimit="10" stroke-width="0.3" opacity="0.64"/>
    <polygon points="344.81 263.14 336.54 263.14 336.54 254.87 344.81 263.14" fill="#f6715e" stroke="#fff" stroke-miterlimit="10" stroke-width="0.3" opacity="0.64"/>
    <polygon points="339.31 261.67 333.46 255.82 339.31 249.97 339.31 261.67" fill="#f6715e" stroke="#fff" stroke-miterlimit="10" stroke-width="0.3" opacity="0.64"/>
    <polygon points="336.46 256.74 336.46 248.47 344.74 248.47 336.46 256.74" fill="#f6715e" stroke="#fff" stroke-miterlimit="10" stroke-width="0.3" opacity="0.64"/>
    <polygon points="338.7 261.04 338.7 250.7 349.04 250.7 338.7 261.04" fill="#f6715e" stroke="#fff" stroke-miterlimit="10" stroke-width="0.3" opacity="0.64"/>
    <polygon points="349.18 250.75 349.18 261.09 338.84 261.09 349.18 250.75" fill="#f6715e" stroke="#fff" stroke-miterlimit="10" stroke-width="0.3" opacity="0.64"/>
    <polygon points="379.74 181.96 389.67 172.03 399.6 181.96 379.74 181.96" fill="#f6715e" stroke="#fff" stroke-miterlimit="10" stroke-width="0.3" opacity="0.64"/>
    <polygon points="388.12 177.13 402.15 177.13 402.15 191.17 388.12 177.13" fill="#f6715e" stroke="#fff" stroke-miterlimit="10" stroke-width="0.3" opacity="0.64"/>
    <polygon points="397.45 179.64 407.38 189.57 397.45 199.49 397.45 179.64" fill="#f6715e" stroke="#fff" stroke-miterlimit="10" stroke-width="0.3" opacity="0.64"/>
    <polygon points="402.28 188.01 402.28 202.05 388.24 202.05 402.28 188.01" fill="#f6715e" stroke="#fff" stroke-miterlimit="10" stroke-width="0.3" opacity="0.64"/>
    <polygon points="399.77 197.34 389.84 207.27 379.92 197.34 399.77 197.34" fill="#f6715e" stroke="#fff" stroke-miterlimit="10" stroke-width="0.3" opacity="0.64"/>
    <polygon points="391.4 202.17 377.36 202.17 377.36 188.13 391.4 202.17" fill="#f6715e" stroke="#fff" stroke-miterlimit="10" stroke-width="0.3" opacity="0.64"/>
    <polygon points="382.07 199.67 372.14 189.74 382.07 179.81 382.07 199.67" fill="#f6715e" stroke="#fff" stroke-miterlimit="10" stroke-width="0.3" opacity="0.64"/>
    <polygon points="377.24 191.29 377.24 177.26 391.28 177.26 377.24 191.29" fill="#f6715e" stroke="#fff" stroke-miterlimit="10" stroke-width="0.3" opacity="0.64"/>
    <polygon points="381.03 198.61 381.03 181.05 398.59 181.05 381.03 198.61" fill="#f6715e" stroke="#fff" stroke-miterlimit="10" stroke-width="0.3" opacity="0.64"/>
    <polygon points="398.82 181.13 398.82 198.68 381.26 198.68 398.82 181.13" fill="#f6715e" stroke="#fff" stroke-miterlimit="10" stroke-width="0.3" opacity="0.64"/>
    <polygon points="295.93 222.83 300.05 218.71 304.16 222.83 295.93 222.83" fill="#f6715e" stroke="#fff" stroke-miterlimit="10" stroke-width="0.3" opacity="0.95"/>
    <polygon points="299.4 220.82 305.22 220.82 305.22 226.64 299.4 220.82" fill="#f6715e" stroke="#fff" stroke-miterlimit="10" stroke-width="0.3" opacity="0.95"/>
    <polygon points="303.27 221.86 307.39 225.98 303.27 230.09 303.27 221.86" fill="#f6715e" stroke="#fff" stroke-miterlimit="10" stroke-width="0.3" opacity="0.95"/>
    <polygon points="305.27 225.33 305.27 231.15 299.45 231.15 305.27 225.33" fill="#f6715e" stroke="#fff" stroke-miterlimit="10" stroke-width="0.3" opacity="0.95"/>
    <polygon points="304.23 229.2 300.12 233.32 296 229.2 304.23 229.2" fill="#f6715e" stroke="#fff" stroke-miterlimit="10" stroke-width="0.3" opacity="0.95"/>
    <polygon points="300.76 231.2 294.94 231.2 294.94 225.38 300.76 231.2" fill="#f6715e" stroke="#fff" stroke-miterlimit="10" stroke-width="0.3" opacity="0.95"/>
    <polygon points="296.89 230.16 292.78 226.05 296.89 221.94 296.89 230.16" fill="#f6715e" stroke="#fff" stroke-miterlimit="10" stroke-width="0.3" opacity="0.95"/>
    <polygon points="294.89 226.69 294.89 220.88 300.71 220.88 294.89 226.69" fill="#f6715e" stroke="#fff" stroke-miterlimit="10" stroke-width="0.3" opacity="0.95"/>
    <polygon points="296.47 229.72 296.47 222.45 303.74 222.45 296.47 229.72" fill="#f6715e" stroke="#fff" stroke-miterlimit="10" stroke-width="0.3" opacity="0.95"/>
    <polygon points="303.84 222.48 303.84 229.76 296.56 229.76 303.84 222.48" fill="#f6715e" stroke="#fff" stroke-miterlimit="10" stroke-width="0.3" opacity="0.95"/>
    <polygon points="279.87 256.11 283.98 252 288.1 256.11 279.87 256.11" fill="#f6715e" stroke="#fff" stroke-miterlimit="10" stroke-width="0.3" opacity="0.81"/>
    <polygon points="283.34 254.11 289.16 254.11 289.16 259.93 283.34 254.11" fill="#f6715e" stroke="#fff" stroke-miterlimit="10" stroke-width="0.3" opacity="0.81"/>
    <polygon points="287.2 255.15 291.32 259.27 287.2 263.38 287.2 255.15" fill="#f6715e" stroke="#fff" stroke-miterlimit="10" stroke-width="0.3" opacity="0.81"/>
    <polygon points="289.21 258.62 289.21 264.44 283.39 264.44 289.21 258.62" fill="#f6715e" stroke="#fff" stroke-miterlimit="10" stroke-width="0.3" opacity="0.81"/>
    <polygon points="288.17 262.49 284.05 266.61 279.94 262.49 288.17 262.49" fill="#f6715e" stroke="#fff" stroke-miterlimit="10" stroke-width="0.3" opacity="0.81"/>
    <polygon points="284.7 264.49 278.88 264.49 278.88 258.67 284.7 264.49" fill="#f6715e" stroke="#fff" stroke-miterlimit="10" stroke-width="0.3" opacity="0.81"/>
    <polygon points="280.83 263.45 276.71 259.34 280.83 255.22 280.83 263.45" fill="#f6715e" stroke="#fff" stroke-miterlimit="10" stroke-width="0.3" opacity="0.81"/>
    <polygon points="278.83 259.98 278.83 254.16 284.65 254.16 278.83 259.98" fill="#f6715e" stroke="#fff" stroke-miterlimit="10" stroke-width="0.3" opacity="0.81"/>
    <polygon points="280.4 263.01 280.4 255.74 287.68 255.74 280.4 263.01" fill="#f6715e" stroke="#fff" stroke-miterlimit="10" stroke-width="0.3" opacity="0.81"/>
    <polygon points="287.77 255.77 287.77 263.05 280.5 263.05 287.77 255.77" fill="#f6715e" stroke="#fff" stroke-miterlimit="10" stroke-width="0.3" opacity="0.81"/>
    <polygon points="401.35 233.31 405.47 229.19 409.58 233.31 401.35 233.31" fill="#f6715e" stroke="#fff" stroke-miterlimit="10" stroke-width="0.3" opacity="0.81"/>
    <polygon points="404.82 231.31 410.64 231.31 410.64 237.13 404.82 231.31" fill="#f6715e" stroke="#fff" stroke-miterlimit="10" stroke-width="0.3" opacity="0.81"/>
    <polygon points="408.69 232.34 412.81 236.46 408.69 240.58 408.69 232.34" fill="#f6715e" stroke="#fff" stroke-miterlimit="10" stroke-width="0.3" opacity="0.81"/>
    <polygon points="410.69 235.82 410.69 241.64 404.87 241.64 410.69 235.82" fill="#f6715e" stroke="#fff" stroke-miterlimit="10" stroke-width="0.3" opacity="0.81"/>
    <polygon points="409.65 239.69 405.54 243.8 401.43 239.69 409.65 239.69" fill="#f6715e" stroke="#fff" stroke-miterlimit="10" stroke-width="0.3" opacity="0.81"/>
    <polygon points="406.19 241.69 400.37 241.69 400.37 235.87 406.19 241.69" fill="#f6715e" stroke="#fff" stroke-miterlimit="10" stroke-width="0.3" opacity="0.81"/>
    <polygon points="402.32 240.65 398.2 236.53 402.32 232.42 402.32 240.65" fill="#f6715e" stroke="#fff" stroke-miterlimit="10" stroke-width="0.3" opacity="0.81"/>
    <polygon points="400.31 237.18 400.31 231.36 406.13 231.36 400.31 237.18" fill="#f6715e" stroke="#fff" stroke-miterlimit="10" stroke-width="0.3" opacity="0.81"/>
    <polygon points="401.89 240.21 401.89 232.93 409.17 232.93 401.89 240.21" fill="#f6715e" stroke="#fff" stroke-miterlimit="10" stroke-width="0.3" opacity="0.81"/>
    <polygon points="409.26 232.96 409.26 240.24 401.98 240.24 409.26 232.96" fill="#f6715e" stroke="#fff" stroke-miterlimit="10" stroke-width="0.3" opacity="0.81"/>
    <polygon points="232.98 179.27 236.6 175.66 240.22 179.27 232.98 179.27" fill="#fff" stroke="#fff" stroke-miterlimit="10" stroke-width="0.3" opacity="0.84"/>
    <polygon points="452.67 309.63 456.29 313.25 452.67 316.86 452.67 309.63" fill="#fff" stroke="#fff" stroke-miterlimit="10" stroke-width="0.3" opacity="0.84"/>
    <polygon points="235.78 179.27 237.43 314.07 235.78 314.07 235.78 179.27" fill="#fff" stroke="#fff" stroke-miterlimit="10" stroke-width="0.3" opacity="0.84"/>
    <polygon points="237.43 314.07 237.43 179.27 235.78 179.27 237.43 314.07" fill="#fff" stroke="#fff" stroke-miterlimit="10" stroke-width="0.3" opacity="0.84"/>
    <polygon points="452.67 312.42 237.43 314.07 237.43 312.42 452.67 312.42" fill="#fff" stroke="#fff" stroke-miterlimit="10" stroke-width="0.3" opacity="0.84"/>
    <polygon points="237.43 314.07 452.67 314.07 452.67 312.42 237.43 314.07" fill="#fff" stroke="#fff" stroke-miterlimit="10" stroke-width="0.3" opacity="0.84"/>
  </g>
</svg>
