<?xml version="1.0" encoding="utf-8"?>
<!-- Generator: Adobe Illustrator 22.0.1, SVG Export Plug-In . SVG Version: 6.00 Build 0)  -->
<svg version="1.1" id="Layer_1" xmlns="http://www.w3.org/2000/svg" xmlns:xlink="http://www.w3.org/1999/xlink" x="0px" y="0px"
	 viewBox="0 0 640 481" style="enable-background:new 0 0 640 481;" xml:space="preserve">
<style type="text/css">
	.st0{fill:none;}
	.st1{fill:none;stroke:#000000;stroke-width:0.5;stroke-miterlimit:10;}
</style>
<title>stats</title>
<g id="Layer_2_1_">
	<rect x="-1.2" y="0.5" class="st0" width="640" height="480"/>
</g>
<g id="Layer_3">
	<polygon class="st1" points="617.9,12.7 611.3,19.3 604.7,12.7 	"/>
	<polygon class="st1" points="97.4,363.8 90.9,370.3 84.3,363.8 	"/>
	<polygon class="st1" points="63.5,409.4 59.4,413.4 55.4,409.4 	"/>
	<polygon class="st1" points="526.1,261.8 515.9,272.1 505.7,261.8 	"/>
	<polygon class="st1" points="126.4,391.8 116.2,402 106,391.8 	"/>
	<polygon class="st1" points="567.7,340.7 551.5,356.9 535.2,340.7 	"/>
	<polygon class="st1" points="139.5,253.8 133,260.4 126.4,253.8 	"/>
	<polygon class="st1" points="24.6,115.4 14.4,125.6 4.1,115.4 	"/>
	<polygon class="st1" points="9.6,238.6 -6.6,254.8 -22.9,238.6 	"/>
	<polygon class="st1" points="604.7,173.1 597,180.9 589.2,173.1 	"/>
	<polygon class="st1" points="538.2,114.9 527.1,126.1 515.9,114.9 	"/>
	<polygon class="st1" points="284.3,54.7 276.6,62.5 268.8,54.7 	"/>
	<polygon class="st1" points="506.3,85.4 499.7,92 493.1,85.4 	"/>
	<polygon class="st1" points="201.4,29.3 189.2,41.5 177,29.3 	"/>
	<polygon class="st1" points="241.9,68.5 224.6,85.8 207.3,68.5 	"/>
	<polygon class="st1" points="267,244.8 160.9,244.8 160.9,138.8 	"/>
	<polygon class="st1" points="161,138.7 267,138.7 267,244.8 	"/>
	<polygon class="st1" points="373.2,244.8 267.2,244.8 267.2,138.8 	"/>
	<polygon class="st1" points="267.4,138.2 373.4,138.9 372.7,245 	"/>
	<polygon class="st1" points="479.2,244.8 373.2,244.8 373.2,138.8 	"/>
	<polygon class="st1" points="373.2,138.7 479.3,138.7 479.3,244.8 	"/>
	<polygon class="st1" points="267.1,350.9 161,350.9 161,244.8 	"/>
	<polygon class="st1" points="161.1,244.8 267.1,244.8 267.1,350.8 	"/>
	<polygon class="st1" points="373.3,350.9 267.3,350.9 267.3,244.8 	"/>
	<polygon class="st1" points="267.3,244.8 373.4,244.8 373.4,350.8 	"/>
	<polygon class="st1" points="479.3,350.9 373.3,350.9 373.3,244.8 	"/>
	<polygon class="st1" points="373.3,244.8 479.4,244.8 479.4,350.8 	"/>
	<polygon class="st1" points="275.6,245.9 185.1,245.9 185.1,155.3 	"/>
	<polygon class="st1" points="185.1,155.3 275.6,155.3 275.6,245.8 	"/>
	<polygon class="st1" points="366.3,245.9 275.8,245.9 275.8,155.3 	"/>
	<polygon class="st1" points="275.8,155.3 366.3,155.3 366.3,245.8 	"/>
	<polygon class="st1" points="456.8,245.9 366.2,245.9 366.2,155.3 	"/>
	<polygon class="st1" points="366.3,155.3 456.8,155.3 456.8,245.8 	"/>
	<polygon class="st1" points="275.7,336.4 185.1,336.4 185.1,245.9 	"/>
	<polygon class="st1" points="185.2,245.8 275.7,245.8 275.7,336.4 	"/>
	<polygon class="st1" points="366.4,336.4 275.8,336.4 275.8,245.9 	"/>
	<polygon class="st1" points="275.9,245.8 366.4,245.8 366.4,336.4 	"/>
	<polygon class="st1" points="456.8,336.4 366.3,336.4 366.3,245.9 	"/>
	<polygon class="st1" points="366.4,245.8 456.9,245.8 456.9,336.4 	"/>
	<polygon class="st1" points="495,366.1 495,359.9 488.9,359.9 	"/>
	<polygon class="st1" points="488.9,359.9 488.8,366 495,366.1 	"/>
	<polygon class="st1" points="488.9,353.7 488.9,359.9 495,359.9 	"/>
	<polygon class="st1" points="488.8,372.2 488.8,366 495,366.1 	"/>
	<polygon class="st1" points="142.2,366 142,359.9 148.2,359.8 	"/>
	<polygon class="st1" points="148.2,359.8 148.3,365.9 142.2,366 	"/>
	<polygon class="st1" points="148.1,353.6 148.2,359.8 142,359.9 	"/>
	<polygon class="st1" points="148.4,372.1 148.3,365.9 142.2,366 	"/>
	<polygon class="st1" points="488.8,371.9 488.8,362.8 148.4,362.8 	"/>
	<polygon class="st1" points="148.4,362.8 148.3,372 488.8,371.9 	"/>
	<polygon class="st1" points="488.9,353.6 488.8,362.8 148.4,362.8 	"/>
	<polygon class="st1" points="148.4,362.8 148.4,353.6 488.9,353.6 	"/>
	<polygon class="st1" points="316.7,147.4 321,143.2 325.3,147.4 	"/>
	<polygon class="st1" points="325.3,147.4 321,151.7 316.7,147.4 	"/>
	<polygon class="st1" points="318.4,215.8 329.4,204.9 340.4,215.8 	"/>
	<polygon class="st1" points="327.7,210.5 343.2,210.5 343.2,226 	"/>
	<polygon class="st1" points="338,213.3 348.9,224.2 338,235.2 	"/>
	<polygon class="st1" points="343.3,222.5 343.3,238 327.8,238 	"/>
	<polygon class="st1" points="340.5,232.8 329.6,243.8 318.6,232.8 	"/>
	<polygon class="st1" points="331.3,238.2 315.8,238.2 315.8,222.7 	"/>
	<polygon class="st1" points="321,235.4 310,224.4 321,213.5 	"/>
	<polygon class="st1" points="315.7,226.1 315.7,210.6 331.2,210.6 	"/>
	<polygon class="st1" points="319.8,234.2 319.8,214.8 339.2,214.8 	"/>
	<polygon class="st1" points="339.5,214.9 339.5,234.3 320.1,234.3 	"/>
	<polygon class="st1" points="266.1,280.4 271.1,275.4 276.1,280.4 	"/>
	<polygon class="st1" points="270.3,278 277.4,278 277.4,285 	"/>
	<polygon class="st1" points="275,279.2 280,284.2 275,289.2 	"/>
	<polygon class="st1" points="277.4,283.5 277.4,290.5 270.4,290.5 	"/>
	<polygon class="st1" points="276.2,288.1 271.2,293.1 266.2,288.1 	"/>
	<polygon class="st1" points="272,290.6 264.9,290.6 264.9,283.5 	"/>
	<polygon class="st1" points="267.3,289.3 262.3,284.3 267.3,279.3 	"/>
	<polygon class="st1" points="264.8,285.1 264.8,278 271.9,278 	"/>
	<polygon class="st1" points="266.8,288.8 266.8,280 275.6,280 	"/>
	<polygon class="st1" points="275.7,280 275.7,288.8 266.9,288.8 	"/>
	<polygon class="st1" points="267.7,265.9 271.1,262.5 274.5,265.9 	"/>
	<polygon class="st1" points="270.6,264.2 275.4,264.2 275.4,269.1 	"/>
	<polygon class="st1" points="273.8,265.1 277.2,268.5 273.8,271.9 	"/>
	<polygon class="st1" points="275.5,268 275.5,272.8 270.6,272.8 	"/>
	<polygon class="st1" points="274.6,271.2 271.2,274.6 267.8,271.2 	"/>
	<polygon class="st1" points="271.7,272.9 266.9,272.9 266.9,268 	"/>
	<polygon class="st1" points="268.5,272 265.1,268.6 268.5,265.1 	"/>
	<polygon class="st1" points="266.8,269.1 266.8,264.3 271.7,264.3 	"/>
	<polygon class="st1" points="268.2,271.6 268.2,265.6 274.2,265.6 	"/>
	<polygon class="st1" points="274.3,265.6 274.3,271.6 268.2,271.6 	"/>
	<polygon class="st1" points="251,272.7 254.5,269.2 258,272.7 	"/>
	<polygon class="st1" points="254,271 258.9,271 258.9,276 	"/>
	<polygon class="st1" points="257.3,271.9 260.8,275.4 257.3,278.9 	"/>
	<polygon class="st1" points="259,274.9 259,279.8 254,279.8 	"/>
	<polygon class="st1" points="258.1,278.1 254.6,281.7 251.1,278.1 	"/>
	<polygon class="st1" points="255.1,279.9 250.2,279.9 250.2,274.9 	"/>
	<polygon class="st1" points="251.8,279 248.3,275.5 251.8,272 	"/>
	<polygon class="st1" points="250.1,276 250.1,271 255.1,271 	"/>
	<polygon class="st1" points="251.5,278.6 251.5,272.4 257.7,272.4 	"/>
	<polygon class="st1" points="257.8,272.4 257.8,278.6 251.6,278.6 	"/>
	<polygon class="st1" points="238,292.3 241.5,288.8 245,292.3 	"/>
	<polygon class="st1" points="240.9,290.6 245.9,290.6 245.9,295.5 	"/>
	<polygon class="st1" points="244.2,291.5 247.7,295 244.2,298.5 	"/>
	<polygon class="st1" points="245.9,294.4 245.9,299.4 241,299.4 	"/>
	<polygon class="st1" points="245.1,297.7 241.5,301.2 238,297.7 	"/>
	<polygon class="st1" points="242.1,299.4 237.1,299.4 237.1,294.5 	"/>
	<polygon class="st1" points="238.8,298.5 235.3,295 238.8,291.5 	"/>
	<polygon class="st1" points="237.1,295.6 237.1,290.6 242.1,290.6 	"/>
	<polygon class="st1" points="238.4,298.2 238.4,292 244.6,292 	"/>
	<polygon class="st1" points="244.7,292 244.7,298.2 238.5,298.2 	"/>
	<polygon class="st1" points="289.2,257.9 295.1,252 300.9,257.9 	"/>
	<polygon class="st1" points="294.1,255 302.4,255 302.4,263.3 	"/>
	<polygon class="st1" points="299.6,256.5 305.5,262.4 299.6,268.2 	"/>
	<polygon class="st1" points="302.5,261.5 302.5,269.7 294.2,269.7 	"/>
	<polygon class="st1" points="301,267 295.2,272.8 289.3,267 	"/>
	<polygon class="st1" points="296.1,269.8 287.8,269.8 287.8,261.5 	"/>
	<polygon class="st1" points="290.6,268.3 284.7,262.5 290.6,256.6 	"/>
	<polygon class="st1" points="287.7,263.4 287.7,255.1 296,255.1 	"/>
	<polygon class="st1" points="290,267.7 290,257.4 300.3,257.4 	"/>
	<polygon class="st1" points="300.4,257.4 300.4,267.7 290.1,267.7 	"/>
	<polygon class="st1" points="315.1,251.2 320.9,245.4 326.8,251.2 	"/>
	<polygon class="st1" points="320,248.4 328.3,248.4 328.3,256.7 	"/>
	<polygon class="st1" points="325.5,249.9 331.4,255.7 325.5,261.6 	"/>
	<polygon class="st1" points="328.4,254.8 328.4,263.1 320.1,263.1 	"/>
	<polygon class="st1" points="326.9,260.3 321,266.1 315.2,260.3 	"/>
	<polygon class="st1" points="322,263.1 313.7,263.1 313.7,254.9 	"/>
	<polygon class="st1" points="316.5,261.7 310.6,255.8 316.5,250 	"/>
	<polygon class="st1" points="313.6,256.7 313.6,248.5 321.9,248.5 	"/>
	<polygon class="st1" points="315.8,261 315.8,250.7 326.2,250.7 	"/>
	<polygon class="st1" points="326.3,250.7 326.3,261.1 316,261.1 	"/>
	<polygon class="st1" points="356.9,182 366.8,172 376.7,182 	"/>
	<polygon class="st1" points="365.3,177.1 379.3,177.1 379.3,191.2 	"/>
	<polygon class="st1" points="374.6,179.6 384.5,189.6 374.6,199.5 	"/>
	<polygon class="st1" points="379.4,188 379.4,202 365.4,202 	"/>
	<polygon class="st1" points="376.9,197.3 367,207.3 357.1,197.3 	"/>
	<polygon class="st1" points="368.5,202.2 354.5,202.2 354.5,188.1 	"/>
	<polygon class="st1" points="359.2,199.7 349.3,189.7 359.2,179.8 	"/>
	<polygon class="st1" points="354.4,191.3 354.4,177.3 368.4,177.3 	"/>
	<polygon class="st1" points="358.2,198.6 358.2,181 375.7,181 	"/>
	<polygon class="st1" points="376,181.1 376,198.7 358.4,198.7 	"/>
	<polygon class="st1" points="273.1,222.8 277.2,218.7 281.3,222.8 	"/>
	<polygon class="st1" points="276.5,220.8 282.4,220.8 282.4,226.6 	"/>
	<polygon class="st1" points="280.4,221.9 284.5,226 280.4,230.1 	"/>
	<polygon class="st1" points="282.4,225.3 282.4,231.1 276.6,231.1 	"/>
	<polygon class="st1" points="281.4,229.2 277.3,233.3 273.1,229.2 	"/>
	<polygon class="st1" points="277.9,231.2 272.1,231.2 272.1,225.4 	"/>
	<polygon class="st1" points="274,230.2 269.9,226 274,221.9 	"/>
	<polygon class="st1" points="272,226.7 272,220.9 277.9,220.9 	"/>
	<polygon class="st1" points="273.6,229.7 273.6,222.4 280.9,222.4 	"/>
	<polygon class="st1" points="281,222.5 281,229.8 273.7,229.8 	"/>
	<polygon class="st1" points="257,256.1 261.1,252 265.2,256.1 	"/>
	<polygon class="st1" points="260.5,254.1 266.3,254.1 266.3,259.9 	"/>
	<polygon class="st1" points="264.3,255.1 268.5,259.3 264.3,263.4 	"/>
	<polygon class="st1" points="266.4,258.6 266.4,264.4 260.5,264.4 	"/>
	<polygon class="st1" points="265.3,262.5 261.2,266.6 257.1,262.5 	"/>
	<polygon class="st1" points="261.8,264.5 256,264.5 256,258.7 	"/>
	<polygon class="st1" points="258,263.5 253.9,259.3 258,255.2 	"/>
	<polygon class="st1" points="256,260 256,254.2 261.8,254.2 	"/>
	<polygon class="st1" points="257.5,263 257.5,255.7 264.8,255.7 	"/>
	<polygon class="st1" points="264.9,255.8 264.9,263 257.6,263 	"/>
	<polygon class="st1" points="378.5,233.3 382.6,229.2 386.7,233.3 	"/>
	<polygon class="st1" points="382,231.3 387.8,231.3 387.8,237.1 	"/>
	<polygon class="st1" points="385.8,232.3 390,236.5 385.8,240.6 	"/>
	<polygon class="st1" points="387.8,235.8 387.8,241.6 382,241.6 	"/>
	<polygon class="st1" points="386.8,239.7 382.7,243.8 378.6,239.7 	"/>
	<polygon class="st1" points="383.3,241.7 377.5,241.7 377.5,235.9 	"/>
	<polygon class="st1" points="379.5,240.6 375.3,236.5 379.5,232.4 	"/>
	<polygon class="st1" points="377.5,237.2 377.5,231.4 383.3,231.4 	"/>
	<polygon class="st1" points="379,240.2 379,232.9 386.3,232.9 	"/>
	<polygon class="st1" points="386.4,233 386.4,240.2 379.1,240.2 	"/>
	<polygon class="st1" points="210.1,179.3 213.7,175.7 217.4,179.3 	"/>
	<polygon class="st1" points="429.8,309.6 433.4,313.2 429.8,316.9 	"/>
	<polygon class="st1" points="212.9,179.3 214.6,314.1 212.9,314.1 	"/>
	<polygon class="st1" points="214.6,314.1 214.6,179.3 212.9,179.3 	"/>
	<polygon class="st1" points="429.8,312.4 214.6,314.1 214.6,312.4 	"/>
	<polygon class="st1" points="214.6,314.1 429.8,314.1 429.8,312.4 	"/>
</g>
</svg>
