<?xml version="1.0" encoding="utf-8"?>
<!-- Generator: Adobe Illustrator 22.0.1, SVG Export Plug-In . SVG Version: 6.00 Build 0)  -->
<svg version="1.1" id="Layer_1" xmlns="http://www.w3.org/2000/svg" xmlns:xlink="http://www.w3.org/1999/xlink" x="0px" y="0px"
	 viewBox="0 0 641 481" style="enable-background:new 0 0 641 481;" xml:space="preserve">
<style type="text/css">
	.st0{fill:none;}
	.st1{fill:none;stroke:#000000;stroke-width:0.5;stroke-miterlimit:10;}
</style>
<title>tablet</title>
<g id="Layer_2_1_">
	<rect x="0.5" y="0.5" class="st0" width="640" height="480"/>
</g>
<g id="Layer_3">
	<polygon class="st1" points="167.7,405 162.8,409.9 157.9,405 	"/>
	<polygon class="st1" points="108.3,385.9 100.7,393.5 93.1,385.9 	"/>
	<polygon class="st1" points="138.6,412.7 126.5,424.7 114.4,412.7 	"/>
	<polygon class="st1" points="573,108.4 565.4,116.1 557.8,108.4 	"/>
	<polygon class="st1" points="539,118.5 528.1,129.5 517.1,118.5 	"/>
	<polygon class="st1" points="369,66.8 361.4,74.4 353.8,66.8 	"/>
	<polygon class="st1" points="507.8,89.6 501.3,96 494.9,89.6 	"/>
	<polygon class="st1" points="638.5,392.2 630.9,399.8 623.3,392.2 	"/>
	<polygon class="st1" points="604.5,402.3 593.6,413.2 582.6,402.3 	"/>
	<polygon class="st1" points="573.3,373.3 566.8,379.8 560.4,373.3 	"/>
	<polygon class="st1" points="270.5,35.9 258.5,47.8 246.6,35.9 	"/>
	<polygon class="st1" points="327.5,80.2 310.5,97.2 293.6,80.2 	"/>
	<polygon class="st1" points="108.8,145.5 93,161.3 77.2,145.5 	"/>
	<polygon class="st1" points="50.1,269.2 27.6,291.6 5.2,269.2 	"/>
	<polygon class="st1" points="271.2,253.5 163.1,253.5 163.1,145.5 	"/>
	<polygon class="st1" points="163.2,145.5 271.2,145.5 271.2,253.5 	"/>
	<polygon class="st1" points="379.4,253.5 271.4,253.5 271.4,145.5 	"/>
	<polygon class="st1" points="271.4,145.5 379.4,145.5 379.4,253.5 	"/>
	<polygon class="st1" points="487.4,253.5 379.3,253.5 379.3,145.5 	"/>
	<polygon class="st1" points="379.4,145.5 487.4,145.5 487.4,253.5 	"/>
	<polygon class="st1" points="271.3,361.5 163.3,361.5 163.3,253.5 	"/>
	<polygon class="st1" points="163.3,253.5 271.3,253.5 271.3,361.5 	"/>
	<polygon class="st1" points="379.5,361.5 271.5,361.5 271.5,253.5 	"/>
	<polygon class="st1" points="271.5,253.5 379.5,253.5 379.5,361.5 	"/>
	<polygon class="st1" points="487.5,361.5 379.5,361.5 379.5,253.5 	"/>
	<polygon class="st1" points="379.5,253.5 487.5,253.5 487.5,361.5 	"/>
	<polygon class="st1" points="469.4,264.5 458.4,253.5 469.4,242.5 	"/>
	<polygon class="st1" points="469.4,242.5 480.4,253.5 469.4,264.5 	"/>
	<polygon class="st1" points="271.1,253.5 182.5,253.5 182.5,164.8 	"/>
	<polygon class="st1" points="182.5,164.8 271.2,164.8 271.2,253.5 	"/>
	<polygon class="st1" points="271.1,342.2 182.5,342.2 182.5,253.5 	"/>
	<polygon class="st1" points="182.5,253.5 271.2,253.5 271.2,342.1 	"/>
	<polygon class="st1" points="359.8,253.5 271.1,253.5 271.1,164.8 	"/>
	<polygon class="st1" points="271.2,164.8 359.8,164.8 359.8,253.5 	"/>
	<polygon class="st1" points="359.8,342.2 271.1,342.2 271.1,253.5 	"/>
	<polygon class="st1" points="271.2,253.5 359.8,253.5 359.8,342.1 	"/>
	<polygon class="st1" points="448.5,253.5 359.8,253.5 359.8,164.8 	"/>
	<polygon class="st1" points="359.8,164.8 448.5,164.8 448.5,253.5 	"/>
	<polygon class="st1" points="448.5,342.2 359.8,342.2 359.8,253.5 	"/>
	<polygon class="st1" points="359.8,253.5 448.5,253.5 448.5,342.1 	"/>
	<polygon class="st1" points="278.5,308 278.5,297.4 289.1,297.4 	"/>
	<polygon class="st1" points="289.1,297.4 289.1,308 278.5,308 	"/>
	<polygon class="st1" points="288.5,290 288.5,286.2 292.3,286.2 	"/>
	<polygon class="st1" points="292.3,286.2 292.3,290 288.5,290 	"/>
	<polygon class="st1" points="282.3,279.4 281.1,279.4 281.1,278.2 	"/>
	<polygon class="st1" points="281.1,278.2 282.3,278.2 282.3,279.4 	"/>
	<polygon class="st1" points="291.2,281.6 290.1,281.6 290.1,280.5 	"/>
	<polygon class="st1" points="290.1,280.5 291.2,280.5 291.2,281.6 	"/>
	<polygon class="st1" points="263.1,278.7 264.8,278.7 264.8,280.4 	"/>
	<polygon class="st1" points="282.1,269 281,269 281,267.8 	"/>
	<polygon class="st1" points="281,267.8 282.1,267.8 282.1,269 	"/>
	<polygon class="st1" points="282.2,270.7 281.6,270.7 281.6,270.1 	"/>
	<polygon class="st1" points="281.6,270.1 282.2,270.1 282.2,270.7 	"/>
	<polygon class="st1" points="288.5,275.3 287.9,275.3 287.9,274.7 	"/>
	<polygon class="st1" points="287.9,274.7 288.5,274.7 288.5,275.3 	"/>
	<polygon class="st1" points="291.3,283.3 290.7,283.3 290.7,282.8 	"/>
	<polygon class="st1" points="290.7,282.8 291.3,282.8 291.3,283.3 	"/>
	<polygon class="st1" points="297.4,277.3 296.8,277.3 296.8,276.7 	"/>
	<polygon class="st1" points="296.8,276.7 297.4,276.7 297.4,277.3 	"/>
	<polygon class="st1" points="301.5,284.9 299.3,284.9 299.3,282.8 	"/>
	<polygon class="st1" points="299.3,282.8 301.5,282.8 301.5,284.9 	"/>
	<polygon class="st1" points="272.8,285.7 272.8,287.5 271,287.5 	"/>
	<polygon class="st1" points="308.9,303.6 307.7,304.9 306.5,303.6 	"/>
	<polygon class="st1" points="298.3,318.8 297.1,320 295.8,318.8 	"/>
	<polygon class="st1" points="307.6,282.6 306.1,282.6 306.1,281.1 	"/>
	<polygon class="st1" points="306.1,281.1 307.6,281.1 307.6,282.6 	"/>
	<polygon class="st1" points="314.1,287.2 315.2,287.2 315.2,288.3 	"/>
	<polygon class="st1" points="304.3,276.1 303.1,276.1 303.1,275 	"/>
	<polygon class="st1" points="303.1,275 304.3,275 304.3,276.1 	"/>
	<polygon class="st1" points="312.1,264.6 310.9,264.6 310.9,263.5 	"/>
	<polygon class="st1" points="310.9,263.5 312.1,263.5 312.1,264.6 	"/>
	<polygon class="st1" points="315.8,281.2 314.7,281.2 314.7,280 	"/>
	<polygon class="st1" points="314.7,280 315.8,280 315.8,281.2 	"/>
	<polygon class="st1" points="315.3,278.8 314.7,278.8 314.7,278.3 	"/>
	<polygon class="st1" points="314.7,278.3 315.3,278.3 315.3,278.8 	"/>
	<polygon class="st1" points="307.4,267 306.9,267 306.9,266.4 	"/>
	<polygon class="st1" points="306.9,266.4 307.4,266.4 307.4,267 	"/>
	<polygon class="st1" points="308.5,291.4 307.4,291.4 307.4,290.3 	"/>
	<polygon class="st1" points="307.4,290.3 308.5,290.3 308.5,291.4 	"/>
	<polygon class="st1" points="308.6,293.1 308,293.1 308,292.6 	"/>
	<polygon class="st1" points="308,292.6 308.6,292.6 308.6,293.1 	"/>
	<polygon class="st1" points="296.3,302.5 295.2,302.5 295.2,301.4 	"/>
	<polygon class="st1" points="295.2,301.4 296.3,301.4 296.3,302.5 	"/>
	<polygon class="st1" points="287.9,331.4 287.3,331.4 287.3,330.8 	"/>
	<polygon class="st1" points="287.3,330.8 287.9,330.8 287.9,331.4 	"/>
	<polygon class="st1" points="305.6,260 304.1,260 304.1,258.5 	"/>
	<polygon class="st1" points="304.1,258.5 305.6,258.5 305.6,260 	"/>
	<polygon class="st1" points="293,260.7 294.5,260.7 294.5,262.2 	"/>
	<polygon class="st1" points="291.9,273.4 291.9,271.3 294.1,271.3 	"/>
	<polygon class="st1" points="294.1,271.3 294.1,273.4 291.9,273.4 	"/>
	<polygon class="st1" points="298.1,271.6 298.1,267.5 302.2,267.5 	"/>
	<polygon class="st1" points="302.2,267.5 302.2,271.6 298.1,271.6 	"/>
	<polygon class="st1" points="310.7,272.5 310.7,269.9 313.2,269.9 	"/>
	<polygon class="st1" points="313.2,269.9 313.2,272.5 310.7,272.5 	"/>
	<polygon class="st1" points="258.5,312.1 258.5,301.5 269.1,301.5 	"/>
	<polygon class="st1" points="269.1,301.5 269.1,312.1 258.5,312.1 	"/>
	<polygon class="st1" points="378.7,191.9 371.3,199.4 363.8,191.9 	"/>
	<polygon class="st1" points="386.2,214.3 378.7,206.8 386.2,199.4 	"/>
	<polygon class="st1" points="386.2,229.2 378.7,221.7 386.2,214.3 	"/>
	<polygon class="st1" points="371.3,199.4 378.7,191.9 386.2,199.4 	"/>
	<polygon class="st1" points="386.2,199.4 378.7,206.8 371.3,199.4 	"/>
	<polygon class="st1" points="379.6,191 383.4,187.3 387.1,191 	"/>
	<polygon class="st1" points="387.1,191 383.4,194.7 379.6,191 	"/>
	<polygon class="st1" points="383.4,194.7 387.1,191 390.8,194.7 	"/>
	<polygon class="st1" points="390.8,194.7 387.1,198.5 383.4,194.7 	"/>
	<polygon class="st1" points="387.1,187.3 385.2,189.1 383.4,187.3 	"/>
	<polygon class="st1" points="385.2,189.1 387.1,187.3 389,189.1 	"/>
	<polygon class="st1" points="389,189.1 387.1,191 385.2,189.1 	"/>
	<polygon class="st1" points="390.8,191 389,192.9 390.8,194.7 	"/>
	<polygon class="st1" points="389,192.9 390.8,191 389,189.1 	"/>
	<polygon class="st1" points="389,189.1 387.1,191 389,192.9 	"/>
	<polygon class="st1" points="309.1,246.7 314.6,252.2 309.1,257.8 	"/>
	<polygon class="st1" points="320.2,269 325.8,263.4 331.4,269 	"/>
	<polygon class="st1" points="363.8,191.9 356.4,199.4 348.9,191.9 	"/>
	<polygon class="st1" points="356.4,199.4 363.8,191.9 371.3,199.4 	"/>
	<polygon class="st1" points="371.3,199.4 363.8,206.8 356.4,199.4 	"/>
	<polygon class="st1" points="363.8,206.8 371.3,199.4 378.7,206.8 	"/>
	<polygon class="st1" points="378.7,206.8 371.3,214.3 363.8,206.8 	"/>
	<polygon class="st1" points="371.3,214.3 378.7,206.8 386.2,214.3 	"/>
	<polygon class="st1" points="386.2,214.3 378.7,221.7 371.3,214.3 	"/>
	<polygon class="st1" points="338.5,202.3 345.9,194.9 353.4,202.3 	"/>
	<polygon class="st1" points="353.4,202.3 345.9,209.8 338.5,202.3 	"/>
	<polygon class="st1" points="320.2,246.7 314.6,252.2 309,246.7 	"/>
	<polygon class="st1" points="309,246.7 314.6,241.1 320.2,246.7 	"/>
	<polygon class="st1" points="314.6,252.2 320.2,246.7 325.8,252.2 	"/>
	<polygon class="st1" points="325.8,252.2 320.2,257.8 314.6,252.2 	"/>
	<polygon class="st1" points="320.2,257.8 325.8,252.2 331.4,257.8 	"/>
	<polygon class="st1" points="331.4,257.8 325.8,263.4 320.2,257.8 	"/>
	<polygon class="st1" points="331.4,257.8 337,263.4 331.4,269 	"/>
	<polygon class="st1" points="331.4,269 325.8,263.4 331.4,257.8 	"/>
	<polygon class="st1" points="308.6,232.2 338.5,202.3 368.3,232.2 	"/>
	<polygon class="st1" points="368.3,232.1 338.5,262 308.6,232.1 	"/>
	<polygon class="st1" points="359.5,283 347.1,270.6 359.5,258.1 	"/>
	<polygon class="st1" points="350.9,274.4 359.5,283 350.9,291.7 	"/>
	<polygon class="st1" points="350.9,279.5 350.9,291.7 338.6,291.7 	"/>
	<polygon class="st1" points="295,218.6 307.5,231 320,218.6 	"/>
	<polygon class="st1" points="303.7,227.2 295,218.6 286.4,227.2 	"/>
	<polygon class="st1" points="298.6,227.2 286.4,227.2 286.4,239.5 	"/>
	<polygon class="st1" points="345.9,209.8 353.4,202.3 360.9,209.8 	"/>
	<polygon class="st1" points="360.9,209.8 353.4,217.2 345.9,209.8 	"/>
	<polygon class="st1" points="321.6,232.1 329.1,224.6 336.6,232.1 	"/>
	<polygon class="st1" points="336.5,232.1 329.1,239.5 321.6,232.1 	"/>
	<polygon class="st1" points="353.4,217.2 360.9,209.8 368.3,217.2 	"/>
	<polygon class="st1" points="368.3,217.2 360.9,224.7 353.4,217.2 	"/>
	<polygon class="st1" points="360.9,224.7 368.3,217.2 375.8,224.7 	"/>
	<polygon class="st1" points="375.8,224.7 368.3,232.2 360.9,224.7 	"/>
	<polygon class="st1" points="368.3,232.2 375.8,224.7 383.2,232.2 	"/>
	<polygon class="st1" points="383.2,232.2 375.8,239.6 368.3,232.2 	"/>
	<polygon class="st1" points="375.8,239.6 368.3,239.6 368.3,232.2 	"/>
	<polygon class="st1" points="368.3,232.2 368.3,239.6 360.9,239.6 	"/>
	<polygon class="st1" points="360.9,239.6 368.3,239.6 368.3,247.1 	"/>
	<polygon class="st1" points="368.3,247.1 368.3,239.6 375.8,239.6 	"/>
	<polygon class="st1" points="368.3,247.1 360.9,247.1 360.9,239.6 	"/>
	<polygon class="st1" points="360.9,239.6 360.9,247.1 353.4,247.1 	"/>
	<polygon class="st1" points="353.4,247.1 360.9,247.1 360.9,254.5 	"/>
	<polygon class="st1" points="360.9,254.5 360.9,247.1 368.3,247.1 	"/>
	<polygon class="st1" points="360.9,254.5 353.4,254.5 353.4,247.1 	"/>
	<polygon class="st1" points="353.4,247.1 353.4,254.5 345.9,254.5 	"/>
	<polygon class="st1" points="345.9,254.5 353.4,254.5 353.4,262 	"/>
	<polygon class="st1" points="353.4,262 353.4,254.5 360.9,254.5 	"/>
	<polygon class="st1" points="353.4,262 345.9,262 345.9,254.5 	"/>
	<polygon class="st1" points="345.9,254.5 345.9,262 338.5,262 	"/>
	<polygon class="st1" points="338.5,262 345.9,262 345.9,269.5 	"/>
	<polygon class="st1" points="345.9,269.5 345.9,262 353.4,262 	"/>
	<polygon class="st1" points="320.2,257.8 314.6,257.8 314.6,252.2 	"/>
	<polygon class="st1" points="314.6,252.2 314.6,257.8 309.1,257.8 	"/>
	<polygon class="st1" points="309.1,257.8 314.6,257.8 314.6,263.4 	"/>
	<polygon class="st1" points="314.6,263.4 314.6,257.8 320.2,257.8 	"/>
	<polygon class="st1" points="325.8,263.4 320.2,263.4 320.2,257.8 	"/>
	<polygon class="st1" points="320.2,257.8 320.2,263.4 314.6,263.4 	"/>
	<polygon class="st1" points="314.6,263.4 320.2,263.4 320.2,269 	"/>
	<polygon class="st1" points="320.2,269 320.2,263.4 325.8,263.4 	"/>
</g>
</svg>
