<svg xmlns="http://www.w3.org/2000/svg" width="641" height="481" viewBox="0 0 641 481">
  <title>tablet</title>
  <g id="Layer_2" data-name="Layer 2">
    <rect x="0.5" y="0.5" width="640" height="480" fill="transparent" stroke-miterlimit="10"/>
  </g>
  <g id="Layer_3" data-name="Layer 3">
    <polygon points="167.68 405.05 162.79 409.94 157.9 405.05 167.68 405.05" fill="#fff" opacity="0.45"/>
    <polygon points="108.3 385.94 100.69 393.55 93.08 385.94 108.3 385.94" fill="#fff" opacity="0.75"/>
    <polygon points="138.6 412.66 126.52 424.74 114.44 412.66 138.6 412.66" fill="#fff" opacity="0.33"/>
    <polygon points="572.98 108.45 565.37 116.06 557.76 108.45 572.98 108.45" fill="#fff" opacity="0.33"/>
    <polygon points="539.03 118.52 528.08 129.47 517.13 118.52 539.03 118.52" fill="#fff" opacity="0.75"/>
    <polygon points="369.04 66.76 361.43 74.37 353.82 66.76 369.04 66.76" fill="#fff" opacity="0.33"/>
    <polygon points="507.79 89.58 501.32 96.04 494.86 89.58 507.79 89.58" fill="#fff" opacity="0.45"/>
    <polygon points="638.49 392.2 630.88 399.81 623.27 392.2 638.49 392.2" fill="#fff" opacity="0.33"/>
    <polygon points="604.54 402.26 593.59 413.21 582.64 402.26 604.54 402.26" fill="#fff" opacity="0.75"/>
    <polygon points="573.3 373.32 566.83 379.78 560.37 373.32 573.3 373.32" fill="#fff" opacity="0.45"/>
    <polygon points="270.47 35.91 258.53 47.85 246.58 35.91 270.47 35.91" fill="#fff" opacity="0.33"/>
    <polygon points="327.5 80.24 310.55 97.19 293.6 80.24 327.5 80.24" fill="#fff" opacity="0.65"/>
    <polygon points="108.85 145.48 93.04 161.29 77.24 145.48 108.85 145.48" fill="#fff" opacity="0.33"/>
    <polygon points="50.06 269.21 27.64 291.63 5.21 269.21 50.06 269.21" fill="#fff" opacity="0.65"/>
    <polygon points="271.16 253.53 163.15 253.53 163.15 145.52 271.16 253.53" fill="#262838" stroke="#fff" stroke-miterlimit="10" stroke-width="0.3" opacity="0.75"/>
    <polygon points="163.18 145.48 271.19 145.48 271.19 253.49 163.18 145.48" fill="#262838" stroke="#fff" stroke-miterlimit="10" stroke-width="0.3" opacity="0.55"/>
    <polygon points="379.38 253.53 271.37 253.53 271.37 145.52 379.38 253.53" fill="#262838" stroke="#fff" stroke-miterlimit="10" stroke-width="0.3" opacity="0.55"/>
    <polygon points="271.41 145.48 379.42 145.48 379.42 253.49 271.41 145.48" fill="#262838" stroke="#fff" stroke-miterlimit="10" stroke-width="0.3" opacity="0.55"/>
    <polygon points="487.35 253.53 379.34 253.53 379.34 145.52 487.35 253.53" fill="#262838" stroke="#fff" stroke-miterlimit="10" stroke-width="0.3" opacity="0.55"/>
    <polygon points="379.38 145.48 487.39 145.48 487.39 253.49 379.38 145.48" fill="#262838" stroke="#fff" stroke-miterlimit="10" stroke-width="0.3" opacity="0.55"/>
    <polygon points="271.27 361.54 163.26 361.54 163.26 253.53 271.27 361.54" fill="#262838" stroke="#fff" stroke-miterlimit="10" stroke-width="0.3" opacity="0.75"/>
    <polygon points="163.29 253.49 271.3 253.49 271.3 361.5 163.29 253.49" fill="#262838" stroke="#fff" stroke-miterlimit="10" stroke-width="0.3" opacity="0.75"/>
    <polygon points="379.49 361.54 271.48 361.54 271.48 253.53 379.49 361.54" fill="#262838" stroke="#fff" stroke-miterlimit="10" stroke-width="0.3" opacity="0.75"/>
    <polygon points="271.52 253.49 379.53 253.49 379.53 361.5 271.52 253.49" fill="#262838" stroke="#fff" stroke-miterlimit="10" stroke-width="0.3" opacity="0.55"/>
    <polygon points="487.46 361.54 379.45 361.54 379.45 253.53 487.46 361.54" fill="#262838" stroke="#fff" stroke-miterlimit="10" stroke-width="0.3" opacity="0.75"/>
    <polygon points="379.49 253.49 487.5 253.49 487.5 361.5 379.49 253.49" fill="#262838" stroke="#fff" stroke-miterlimit="10" stroke-width="0.3" opacity="0.55"/>
    <polygon points="469.43 264.46 458.43 253.46 469.43 242.47 469.43 264.46" fill="#231f20" stroke="#fff" stroke-miterlimit="10" stroke-width="0.3"/>
    <polygon points="469.43 242.47 480.42 253.46 469.43 264.46 469.43 242.47" fill="#231f20" stroke="#fff" stroke-miterlimit="10" stroke-width="0.3"/>
    <polygon points="271.13 253.49 182.46 253.49 182.46 164.82 271.13 253.49" fill="#262838" stroke="#fff" stroke-miterlimit="10" stroke-width="0.3" opacity="0.9"/>
    <polygon points="182.49 164.79 271.16 164.79 271.16 253.46 182.49 164.79" fill="#262838" stroke="#fff" stroke-miterlimit="10" stroke-width="0.3" opacity="0.85"/>
    <polygon points="271.13 342.16 182.46 342.16 182.46 253.49 271.13 342.16" fill="#262838" stroke="#fff" stroke-miterlimit="10" stroke-width="0.3" opacity="0.9"/>
    <polygon points="182.49 253.46 271.16 253.46 271.16 342.13 182.49 253.46" fill="#262838" stroke="#fff" stroke-miterlimit="10" stroke-width="0.3" opacity="0.9"/>
    <polygon points="359.8 253.49 271.13 253.49 271.13 164.82 359.8 253.49" fill="#262838" stroke="#fff" stroke-miterlimit="10" stroke-width="0.3" opacity="0.94"/>
    <polygon points="271.16 164.79 359.82 164.79 359.82 253.46 271.16 164.79" fill="#262838" stroke="#fff" stroke-miterlimit="10" stroke-width="0.3" opacity="0.85"/>
    <polygon points="359.8 342.16 271.13 342.16 271.13 253.49 359.8 342.16" fill="#262838" stroke="#fff" stroke-miterlimit="10" stroke-width="0.3" opacity="0.9"/>
    <polygon points="271.16 253.46 359.82 253.46 359.82 342.13 271.16 253.46" fill="#262838" stroke="#fff" stroke-miterlimit="10" stroke-width="0.3" opacity="0.98"/>
    <polygon points="448.46 253.49 359.8 253.49 359.8 164.82 448.46 253.49" fill="#262838" stroke="#fff" stroke-miterlimit="10" stroke-width="0.3" opacity="0.85"/>
    <polygon points="359.82 164.79 448.49 164.79 448.49 253.46 359.82 164.79" fill="#262838" stroke="#fff" stroke-miterlimit="10" stroke-width="0.3" opacity="0.94"/>
    <polygon points="448.46 342.16 359.8 342.16 359.8 253.49 448.46 342.16" fill="#262838" stroke="#fff" stroke-miterlimit="10" stroke-width="0.3" opacity="0.9"/>
    <polygon points="359.82 253.46 448.49 253.46 448.49 342.13 359.82 253.46" fill="#262838" stroke="#fff" stroke-miterlimit="10" stroke-width="0.3" opacity="0.98"/>
    <polygon points="278.45 307.97 278.45 297.35 289.07 297.35 278.45 307.97" fill="#47ffc0" stroke="#fff" stroke-miterlimit="10" stroke-width="0.3" opacity="0.32"/>
    <polygon points="289.07 297.35 289.07 307.97 278.45 307.97 289.07 297.35" fill="#47ffc0" stroke="#fff" stroke-miterlimit="10" stroke-width="0.3" opacity="0.32"/>
    <polygon points="288.55 289.96 288.55 286.25 292.26 286.25 288.55 289.96" fill="#47ffc0" stroke="#fff" stroke-miterlimit="10" stroke-width="0.3" opacity="0.84"/>
    <polygon points="292.26 286.25 292.26 289.96 288.55 289.96 292.26 286.25" fill="#47ffc0" stroke="#fff" stroke-miterlimit="10" stroke-width="0.3" opacity="0.84"/>
    <polygon points="282.27 279.37 281.14 279.37 281.14 278.24 282.27 279.37" fill="#47ffc0" stroke="#fff" stroke-miterlimit="10" stroke-width="0.3" opacity="0.84"/>
    <polygon points="281.14 278.24 282.27 278.24 282.27 279.37 281.14 278.24" fill="#47ffc0" stroke="#fff" stroke-miterlimit="10" stroke-width="0.3" opacity="0.84"/>
    <polygon points="291.24 281.59 290.11 281.59 290.11 280.47 291.24 281.59" fill="#47ffc0" stroke="#fff" stroke-miterlimit="10" stroke-width="0.3" opacity="0.84"/>
    <polygon points="290.11 280.47 291.24 280.47 291.24 281.59 290.11 280.47" fill="#47ffc0" stroke="#fff" stroke-miterlimit="10" stroke-width="0.3" opacity="0.84"/>
    <polygon points="263.12 278.67 264.83 278.67 264.83 280.39 263.12 278.67" fill="#47ffc0" stroke="#fff" stroke-miterlimit="10" stroke-width="0.3" opacity="0.84"/>
    <polygon points="282.13 268.97 281 268.97 281 267.84 282.13 268.97" fill="#47ffc0" stroke="#fff" stroke-miterlimit="10" stroke-width="0.3" opacity="0.32"/>
    <polygon points="281 267.84 282.13 267.84 282.13 268.97 281 267.84" fill="#47ffc0" stroke="#fff" stroke-miterlimit="10" stroke-width="0.3" opacity="0.32"/>
    <polygon points="282.18 270.71 281.62 270.71 281.62 270.14 282.18 270.71" fill="#47ffc0" stroke="#fff" stroke-miterlimit="10" stroke-width="0.3" opacity="0.84"/>
    <polygon points="281.62 270.14 282.18 270.14 282.18 270.71 281.62 270.14" fill="#47ffc0" stroke="#fff" stroke-miterlimit="10" stroke-width="0.3" opacity="0.84"/>
    <polygon points="288.45 275.29 287.89 275.29 287.89 274.73 288.45 275.29" fill="#47ffc0" stroke="#fff" stroke-miterlimit="10" stroke-width="0.3" opacity="0.84"/>
    <polygon points="287.89 274.73 288.45 274.73 288.45 275.29 287.89 274.73" fill="#47ffc0" stroke="#fff" stroke-miterlimit="10" stroke-width="0.3" opacity="0.84"/>
    <polygon points="291.29 283.33 290.73 283.33 290.73 282.77 291.29 283.33" fill="#47ffc0" stroke="#fff" stroke-miterlimit="10" stroke-width="0.3" opacity="0.84"/>
    <polygon points="290.73 282.77 291.29 282.77 291.29 283.33 290.73 282.77" fill="#47ffc0" stroke="#fff" stroke-miterlimit="10" stroke-width="0.3" opacity="0.84"/>
    <polygon points="297.35 277.27 296.78 277.27 296.78 276.71 297.35 277.27" fill="#47ffc0" stroke="#fff" stroke-miterlimit="10" stroke-width="0.3" opacity="0.84"/>
    <polygon points="296.78 276.71 297.35 276.71 297.35 277.27 296.78 276.71" fill="#47ffc0" stroke="#fff" stroke-miterlimit="10" stroke-width="0.3" opacity="0.84"/>
    <polygon points="301.49 284.92 299.34 284.92 299.34 282.77 301.49 284.92" fill="#47ffc0" stroke="#fff" stroke-miterlimit="10" stroke-width="0.3" opacity="0.32"/>
    <polygon points="299.34 282.77 301.49 282.77 301.49 284.92 299.34 282.77" fill="#47ffc0" stroke="#fff" stroke-miterlimit="10" stroke-width="0.3" opacity="0.32"/>
    <polygon points="272.79 285.73 272.79 287.49 271.04 287.49 272.79 285.73" fill="#47ffc0" stroke="#fff" stroke-miterlimit="10" stroke-width="0.3" opacity="0.84"/>
    <polygon points="308.93 303.61 307.69 304.85 306.45 303.61 308.93 303.61" fill="#47ffc0" stroke="#fff" stroke-miterlimit="10" stroke-width="0.3" opacity="0.32"/>
    <polygon points="298.3 318.77 297.06 320.01 295.82 318.77 298.3 318.77" fill="#47ffc0" stroke="#fff" stroke-miterlimit="10" stroke-width="0.3" opacity="0.84"/>
    <polygon points="307.56 282.63 306.06 282.63 306.06 281.13 307.56 282.63" fill="#47ffc0" stroke="#fff" stroke-miterlimit="10" stroke-width="0.3" opacity="0.84"/>
    <polygon points="306.06 281.13 307.56 281.13 307.56 282.63 306.06 281.13" fill="#47ffc0" stroke="#fff" stroke-miterlimit="10" stroke-width="0.3" opacity="0.84"/>
    <polygon points="314.07 287.19 315.2 287.19 315.2 288.32 314.07 287.19" fill="#47ffc0" stroke="#fff" stroke-miterlimit="10" stroke-width="0.3" opacity="0.84"/>
    <polygon points="304.26 276.08 303.14 276.08 303.14 274.96 304.26 276.08" fill="#47ffc0" stroke="#fff" stroke-miterlimit="10" stroke-width="0.3" opacity="0.84"/>
    <polygon points="303.14 274.96 304.26 274.96 304.26 276.08 303.14 274.96" fill="#47ffc0" stroke="#fff" stroke-miterlimit="10" stroke-width="0.3" opacity="0.84"/>
    <polygon points="312.06 264.58 310.94 264.58 310.94 263.46 312.06 264.58" fill="#47ffc0" stroke="#fff" stroke-miterlimit="10" stroke-width="0.3" opacity="0.84"/>
    <polygon points="310.94 263.46 312.06 263.46 312.06 264.58 310.94 263.46" fill="#47ffc0" stroke="#fff" stroke-miterlimit="10" stroke-width="0.3" opacity="0.84"/>
    <polygon points="315.84 281.17 314.71 281.17 314.71 280.05 315.84 281.17" fill="#47ffc0" stroke="#fff" stroke-miterlimit="10" stroke-width="0.3" opacity="0.84"/>
    <polygon points="314.71 280.05 315.84 280.05 315.84 281.17 314.71 280.05" fill="#47ffc0" stroke="#fff" stroke-miterlimit="10" stroke-width="0.3" opacity="0.84"/>
    <polygon points="315.27 278.82 314.71 278.82 314.71 278.26 315.27 278.82" fill="#47ffc0" stroke="#fff" stroke-miterlimit="10" stroke-width="0.3" opacity="0.84"/>
    <polygon points="314.71 278.26 315.27 278.26 315.27 278.82 314.71 278.26" fill="#47ffc0" stroke="#fff" stroke-miterlimit="10" stroke-width="0.3" opacity="0.84"/>
    <polygon points="307.42 266.97 306.86 266.97 306.86 266.41 307.42 266.97" fill="#47ffc0" stroke="#fff" stroke-miterlimit="10" stroke-width="0.3" opacity="0.84"/>
    <polygon points="306.86 266.41 307.42 266.41 307.42 266.97 306.86 266.41" fill="#47ffc0" stroke="#fff" stroke-miterlimit="10" stroke-width="0.3" opacity="0.84"/>
    <polygon points="308.53 291.39 307.4 291.39 307.4 290.27 308.53 291.39" fill="#47ffc0" stroke="#fff" stroke-miterlimit="10" stroke-width="0.3" opacity="0.84"/>
    <polygon points="307.4 290.27 308.53 290.27 308.53 291.39 307.4 290.27" fill="#47ffc0" stroke="#fff" stroke-miterlimit="10" stroke-width="0.3" opacity="0.84"/>
    <polygon points="308.58 293.13 308.02 293.13 308.02 292.57 308.58 293.13" fill="#47ffc0" stroke="#fff" stroke-miterlimit="10" stroke-width="0.3" opacity="0.84"/>
    <polygon points="308.02 292.57 308.58 292.57 308.58 293.13 308.02 292.57" fill="#47ffc0" stroke="#fff" stroke-miterlimit="10" stroke-width="0.3" opacity="0.84"/>
    <polygon points="296.31 302.49 295.19 302.49 295.19 301.36 296.31 302.49" fill="#47ffc0" stroke="#fff" stroke-miterlimit="10" stroke-width="0.3" opacity="0.84"/>
    <polygon points="295.19 301.36 296.31 301.36 296.31 302.49 295.19 301.36" fill="#47ffc0" stroke="#fff" stroke-miterlimit="10" stroke-width="0.3" opacity="0.84"/>
    <polygon points="287.91 331.43 287.29 331.43 287.29 330.82 287.91 331.43" fill="#47ffc0" stroke="#fff" stroke-miterlimit="10" stroke-width="0.3" opacity="0.32"/>
    <polygon points="287.29 330.82 287.91 330.82 287.91 331.43 287.29 330.82" fill="#47ffc0" stroke="#fff" stroke-miterlimit="10" stroke-width="0.3" opacity="0.32"/>
    <polygon points="305.56 259.96 304.06 259.96 304.06 258.46 305.56 259.96" fill="#47ffc0" stroke="#fff" stroke-miterlimit="10" stroke-width="0.3" opacity="0.84"/>
    <polygon points="304.06 258.46 305.56 258.46 305.56 259.96 304.06 258.46" fill="#47ffc0" stroke="#fff" stroke-miterlimit="10" stroke-width="0.3" opacity="0.84"/>
    <polygon points="292.96 260.73 294.46 260.73 294.46 262.23 292.96 260.73" fill="#47ffc0" stroke="#fff" stroke-miterlimit="10" stroke-width="0.3" opacity="0.32"/>
    <polygon points="291.91 273.42 291.91 271.27 294.06 271.27 291.91 273.42" fill="#47ffc0" stroke="#fff" stroke-miterlimit="10" stroke-width="0.3" opacity="0.84"/>
    <polygon points="294.06 271.27 294.06 273.42 291.91 273.42 294.06 271.27" fill="#47ffc0" stroke="#fff" stroke-miterlimit="10" stroke-width="0.3" opacity="0.84"/>
    <polygon points="298.07 271.64 298.07 267.52 302.19 267.52 298.07 271.64" fill="#47ffc0" stroke="#fff" stroke-miterlimit="10" stroke-width="0.3" opacity="0.84"/>
    <polygon points="302.19 267.52 302.19 271.64 298.07 271.64 302.19 267.52" fill="#47ffc0" stroke="#fff" stroke-miterlimit="10" stroke-width="0.3" opacity="0.84"/>
    <polygon points="310.68 272.51 310.68 269.94 313.25 269.94 310.68 272.51" fill="#47ffc0" stroke="#fff" stroke-miterlimit="10" stroke-width="0.3" opacity="0.84"/>
    <polygon points="313.25 269.94 313.25 272.51 310.68 272.51 313.25 269.94" fill="#47ffc0" stroke="#fff" stroke-miterlimit="10" stroke-width="0.3" opacity="0.84"/>
    <polygon points="258.53 312.11 258.53 301.49 269.15 301.49 258.53 312.11" fill="#47ffc0" stroke="#fff" stroke-miterlimit="10" stroke-width="0.3" opacity="0.84"/>
    <polygon points="269.15 301.49 269.15 312.11 258.53 312.11 269.15 301.49" fill="#47ffc0" stroke="#fff" stroke-miterlimit="10" stroke-width="0.3" opacity="0.84"/>
    <polygon points="378.73 191.9 371.27 199.36 363.81 191.9 378.73 191.9" fill="#47ffc0" stroke="#fff" stroke-miterlimit="10" stroke-width="0.3" opacity="0.85"/>
    <polygon points="386.19 214.28 378.73 206.82 386.19 199.36 386.19 214.28" fill="#47ffc0" stroke="#fff" stroke-miterlimit="10" stroke-width="0.3" opacity="0.95"/>
    <polygon points="386.19 229.2 378.73 221.74 386.19 214.28 386.19 229.2" fill="#47ffc0" stroke="#fff" stroke-miterlimit="10" stroke-width="0.3" opacity="0.95"/>
    <polygon points="371.27 199.36 378.73 191.9 386.19 199.36 371.27 199.36" fill="#47ffc0" stroke="#fff" stroke-miterlimit="10" stroke-width="0.3" opacity="0.85"/>
    <polygon points="386.19 199.36 378.73 206.82 371.27 199.36 386.19 199.36" fill="#47ffc0" stroke="#fff" stroke-miterlimit="10" stroke-width="0.3" opacity="0.85"/>
    <polygon points="379.63 191 383.37 187.27 387.1 191 379.63 191" fill="#47ffc0" stroke="#fff" stroke-miterlimit="10" stroke-width="0.3" opacity="0.85"/>
    <polygon points="387.1 191 383.36 194.73 379.63 191 387.1 191" fill="#47ffc0" stroke="#fff" stroke-miterlimit="10" stroke-width="0.3" opacity="0.85"/>
    <polygon points="383.37 194.73 387.1 191 390.83 194.73 383.37 194.73" fill="#47ffc0" stroke="#fff" stroke-miterlimit="10" stroke-width="0.3" opacity="0.95"/>
    <polygon points="390.83 194.73 387.1 198.46 383.37 194.73 390.83 194.73" fill="#47ffc0" stroke="#fff" stroke-miterlimit="10" stroke-width="0.3" opacity="0.95"/>
    <polygon points="387.09 187.27 385.23 189.13 383.36 187.27 387.09 187.27" fill="#47ffc0" stroke="#fff" stroke-miterlimit="10" stroke-width="0.3" opacity="0.85"/>
    <polygon points="385.23 189.13 387.09 187.27 388.96 189.13 385.23 189.13" fill="#47ffc0" stroke="#fff" stroke-miterlimit="10" stroke-width="0.3" opacity="0.85"/>
    <polygon points="388.96 189.13 387.09 191 385.23 189.13 388.96 189.13" fill="#47ffc0" stroke="#fff" stroke-miterlimit="10" stroke-width="0.3" opacity="0.85"/>
    <polygon points="390.83 191 388.96 192.87 390.83 194.73 390.83 191" fill="#47ffc0" stroke="#fff" stroke-miterlimit="10" stroke-width="0.3" opacity="0.95"/>
    <polygon points="388.96 192.87 390.83 191 388.96 189.14 388.96 192.87" fill="#47ffc0" stroke="#fff" stroke-miterlimit="10" stroke-width="0.3" opacity="0.95"/>
    <polygon points="388.96 189.14 387.1 191 388.96 192.87 388.96 189.14" fill="#47ffc0" stroke="#fff" stroke-miterlimit="10" stroke-width="0.3" opacity="0.95"/>
    <polygon points="309.06 246.66 314.64 252.25 309.06 257.83 309.06 246.66" fill="#47ffc0" stroke="#fff" stroke-miterlimit="10" stroke-width="0.3" opacity="0.95"/>
    <polygon points="320.22 268.99 325.8 263.41 331.38 268.99 320.22 268.99" fill="#47ffc0" stroke="#fff" stroke-miterlimit="10" stroke-width="0.3" opacity="0.95"/>
    <polygon points="363.81 191.9 356.36 199.36 348.9 191.9 363.81 191.9" fill="#47ffc0" stroke="#fff" stroke-miterlimit="10" stroke-width="0.3" opacity="0.85"/>
    <polygon points="356.36 199.36 363.81 191.9 371.27 199.36 356.36 199.36" fill="#47ffc0" stroke="#fff" stroke-miterlimit="10" stroke-width="0.3" opacity="0.85"/>
    <polygon points="371.27 199.36 363.81 206.82 356.35 199.36 371.27 199.36" fill="#47ffc0" stroke="#fff" stroke-miterlimit="10" stroke-width="0.3" opacity="0.85"/>
    <polygon points="363.82 206.82 371.28 199.37 378.74 206.82 363.82 206.82" fill="#47ffc0" stroke="#fff" stroke-miterlimit="10" stroke-width="0.3" opacity="0.85"/>
    <polygon points="378.73 206.82 371.27 214.28 363.81 206.82 378.73 206.82" fill="#47ffc0" stroke="#fff" stroke-miterlimit="10" stroke-width="0.3" opacity="0.85"/>
    <polygon points="371.28 214.28 378.74 206.82 386.2 214.28 371.28 214.28" fill="#47ffc0" stroke="#fff" stroke-miterlimit="10" stroke-width="0.3" opacity="0.85"/>
    <polygon points="386.19 214.28 378.73 221.74 371.27 214.28 386.19 214.28" fill="#47ffc0" stroke="#fff" stroke-miterlimit="10" stroke-width="0.3" opacity="0.95"/>
    <polygon points="338.48 202.32 345.94 194.86 353.39 202.32 338.48 202.32" fill="#47ffc0" stroke="#fff" stroke-miterlimit="10" stroke-width="0.3" opacity="0.95"/>
    <polygon points="353.39 202.32 345.93 209.78 338.47 202.32 353.39 202.32" fill="#47ffc0" stroke="#fff" stroke-miterlimit="10" stroke-width="0.3" opacity="0.95"/>
    <polygon points="320.23 246.66 314.64 252.25 309.05 246.66 320.23 246.66" fill="#47ffc0" stroke="#fff" stroke-miterlimit="10" stroke-width="0.3" opacity="0.95"/>
    <polygon points="309.05 246.66 314.64 241.07 320.23 246.66 309.05 246.66" fill="#47ffc0" stroke="#fff" stroke-miterlimit="10" stroke-width="0.3" opacity="0.95"/>
    <polygon points="314.64 252.25 320.23 246.66 325.82 252.25 314.64 252.25" fill="#47ffc0" stroke="#fff" stroke-miterlimit="10" stroke-width="0.3" opacity="0.95"/>
    <polygon points="325.81 252.24 320.22 257.83 314.63 252.24 325.81 252.24" fill="#47ffc0" stroke="#fff" stroke-miterlimit="10" stroke-width="0.3" opacity="0.95"/>
    <polygon points="320.21 257.82 325.8 252.23 331.39 257.82 320.21 257.82" fill="#47ffc0" stroke="#fff" stroke-miterlimit="10" stroke-width="0.3" opacity="0.95"/>
    <polygon points="331.39 257.82 325.8 263.41 320.21 257.82 331.39 257.82" fill="#47ffc0" stroke="#fff" stroke-miterlimit="10" stroke-width="0.3" opacity="0.95"/>
    <polygon points="331.39 257.82 336.98 263.41 331.39 269 331.39 257.82" fill="#47ffc0" stroke="#fff" stroke-miterlimit="10" stroke-width="0.3" opacity="0.95"/>
    <polygon points="331.39 269 325.8 263.41 331.39 257.82 331.39 269" fill="#47ffc0" stroke="#fff" stroke-miterlimit="10" stroke-width="0.3" opacity="0.95"/>
    <polygon points="308.65 232.16 338.49 202.33 368.32 232.16 308.65 232.16" fill="#47ffc0" stroke="#fff" stroke-miterlimit="10" stroke-width="0.3" opacity="0.84"/>
    <polygon points="368.31 232.15 338.47 261.98 308.64 232.15 368.31 232.15" fill="#47ffc0" stroke="#fff" stroke-miterlimit="10" stroke-width="0.3" opacity="0.84"/>
    <polygon points="359.53 283.05 347.07 270.6 359.53 258.14 359.53 283.05" fill="#47ffc0" stroke="#fff" stroke-miterlimit="10" stroke-width="0.3" opacity="0.8"/>
    <polygon points="350.87 274.39 359.53 283.05 350.87 291.7 350.87 274.39" fill="#47ffc0" stroke="#fff" stroke-miterlimit="10" stroke-width="0.3" opacity="0.85"/>
    <polygon points="350.87 279.46 350.87 291.7 338.63 291.7 350.87 279.46" fill="#47ffc0" stroke="#fff" stroke-miterlimit="10" stroke-width="0.3" opacity="0.95"/>
    <polygon points="295.05 218.57 307.5 231.02 319.95 218.57 295.05 218.57" fill="#47ffc0" stroke="#fff" stroke-miterlimit="10" stroke-width="0.3" opacity="0.8"/>
    <polygon points="303.7 227.22 295.05 218.57 286.39 227.22 303.7 227.22" fill="#47ffc0" stroke="#fff" stroke-miterlimit="10" stroke-width="0.3" opacity="0.85"/>
    <polygon points="298.63 227.22 286.39 227.22 286.39 239.47 298.63 227.22" fill="#47ffc0" stroke="#fff" stroke-miterlimit="10" stroke-width="0.3" opacity="0.95"/>
    <polygon points="345.94 209.78 353.4 202.32 360.86 209.78 345.94 209.78" fill="#47ffc0" stroke="#fff" stroke-miterlimit="10" stroke-width="0.3" opacity="0.95"/>
    <polygon points="360.85 209.78 353.39 217.24 345.93 209.78 360.85 209.78" fill="#47ffc0" stroke="#fff" stroke-miterlimit="10" stroke-width="0.3" opacity="0.95"/>
    <polygon points="321.64 232.08 329.1 224.62 336.56 232.08 321.64 232.08" fill="#47ffc0" stroke="#fff" stroke-miterlimit="10" stroke-width="0.3" opacity="0.84"/>
    <polygon points="336.55 232.08 329.1 239.54 321.63 232.08 336.55 232.08" fill="#47ffc0" stroke="#fff" stroke-miterlimit="10" stroke-width="0.3" opacity="0.84"/>
    <polygon points="353.4 217.24 360.86 209.78 368.32 217.24 353.4 217.24" fill="#47ffc0" stroke="#fff" stroke-miterlimit="10" stroke-width="0.3" opacity="0.95"/>
    <polygon points="368.31 217.24 360.85 224.7 353.39 217.24 368.31 217.24" fill="#47ffc0" stroke="#fff" stroke-miterlimit="10" stroke-width="0.3" opacity="0.95"/>
    <polygon points="360.86 224.7 368.32 217.25 375.78 224.7 360.86 224.7" fill="#47ffc0" stroke="#fff" stroke-miterlimit="10" stroke-width="0.3" opacity="0.95"/>
    <polygon points="375.78 224.7 368.32 232.16 360.86 224.7 375.78 224.7" fill="#47ffc0" stroke="#fff" stroke-miterlimit="10" stroke-width="0.3" opacity="0.95"/>
    <polygon points="368.32 232.16 375.78 224.7 383.24 232.16 368.32 232.16" fill="#47ffc0" stroke="#fff" stroke-miterlimit="10" stroke-width="0.3" opacity="0.95"/>
    <polygon points="383.24 232.16 375.78 239.62 368.32 232.16 383.24 232.16" fill="#47ffc0" stroke="#fff" stroke-miterlimit="10" stroke-width="0.3" opacity="0.95"/>
    <polygon points="375.78 239.62 368.32 239.62 368.32 232.16 375.78 239.62" fill="#47ffc0" stroke="#fff" stroke-miterlimit="10" stroke-width="0.3" opacity="0.95"/>
    <polygon points="368.32 232.16 368.32 239.62 360.86 239.62 368.32 232.16" fill="#47ffc0" stroke="#fff" stroke-miterlimit="10" stroke-width="0.3" opacity="0.95"/>
    <polygon points="360.86 239.62 368.32 239.62 368.32 247.08 360.86 239.62" fill="#47ffc0" stroke="#fff" stroke-miterlimit="10" stroke-width="0.3" opacity="0.95"/>
    <polygon points="368.32 247.08 368.32 239.62 375.78 239.62 368.32 247.08" fill="#47ffc0" stroke="#fff" stroke-miterlimit="10" stroke-width="0.3" opacity="0.95"/>
    <polygon points="368.32 247.08 360.86 247.08 360.86 239.62 368.32 247.08" fill="#47ffc0" stroke="#fff" stroke-miterlimit="10" stroke-width="0.3" opacity="0.95"/>
    <polygon points="360.86 239.62 360.86 247.08 353.4 247.08 360.86 239.62" fill="#47ffc0" stroke="#fff" stroke-miterlimit="10" stroke-width="0.3" opacity="0.95"/>
    <polygon points="353.4 247.08 360.86 247.08 360.86 254.54 353.4 247.08" fill="#47ffc0" stroke="#fff" stroke-miterlimit="10" stroke-width="0.3" opacity="0.95"/>
    <polygon points="360.86 254.54 360.86 247.08 368.32 247.08 360.86 254.54" fill="#47ffc0" stroke="#fff" stroke-miterlimit="10" stroke-width="0.3" opacity="0.95"/>
    <polygon points="360.86 254.54 353.4 254.54 353.4 247.08 360.86 254.54" fill="#47ffc0" stroke="#fff" stroke-miterlimit="10" stroke-width="0.3" opacity="0.95"/>
    <polygon points="353.4 247.08 353.4 254.54 345.94 254.54 353.4 247.08" fill="#47ffc0" stroke="#fff" stroke-miterlimit="10" stroke-width="0.3" opacity="0.95"/>
    <polygon points="345.94 254.54 353.4 254.54 353.4 262 345.94 254.54" fill="#47ffc0" stroke="#fff" stroke-miterlimit="10" stroke-width="0.3" opacity="0.95"/>
    <polygon points="353.4 262 353.4 254.54 360.86 254.54 353.4 262" fill="#47ffc0" stroke="#fff" stroke-miterlimit="10" stroke-width="0.3" opacity="0.95"/>
    <polygon points="353.4 262 345.94 262 345.94 254.54 353.4 262" fill="#47ffc0" stroke="#fff" stroke-miterlimit="10" stroke-width="0.3" opacity="0.95"/>
    <polygon points="345.94 254.54 345.94 262 338.48 262 345.94 254.54" fill="#47ffc0" stroke="#fff" stroke-miterlimit="10" stroke-width="0.3" opacity="0.95"/>
    <polygon points="338.48 262 345.94 262 345.94 269.46 338.48 262" fill="#47ffc0" stroke="#fff" stroke-miterlimit="10" stroke-width="0.3" opacity="0.95"/>
    <polygon points="345.94 269.46 345.94 262 353.4 262 345.94 269.46" fill="#47ffc0" stroke="#fff" stroke-miterlimit="10" stroke-width="0.3" opacity="0.95"/>
    <polygon points="320.22 257.83 314.64 257.83 314.64 252.25 320.22 257.83" fill="#47ffc0" stroke="#fff" stroke-miterlimit="10" stroke-width="0.3" opacity="0.95"/>
    <polygon points="314.64 252.25 314.64 257.83 309.06 257.83 314.64 252.25" fill="#47ffc0" stroke="#fff" stroke-miterlimit="10" stroke-width="0.3" opacity="0.95"/>
    <polygon points="309.06 257.83 314.64 257.83 314.64 263.41 309.06 257.83" fill="#47ffc0" stroke="#fff" stroke-miterlimit="10" stroke-width="0.3" opacity="0.95"/>
    <polygon points="314.64 263.41 314.64 257.83 320.22 257.83 314.64 263.41" fill="#47ffc0" stroke="#fff" stroke-miterlimit="10" stroke-width="0.3" opacity="0.95"/>
    <polygon points="325.81 263.42 320.22 263.42 320.22 257.83 325.81 263.42" fill="#47ffc0" stroke="#fff" stroke-miterlimit="10" stroke-width="0.3" opacity="0.95"/>
    <polygon points="320.22 257.83 320.22 263.42 314.64 263.42 320.22 257.83" fill="#47ffc0" stroke="#fff" stroke-miterlimit="10" stroke-width="0.3" opacity="0.95"/>
    <polygon points="314.64 263.42 320.22 263.42 320.22 269 314.64 263.42" fill="#47ffc0" stroke="#fff" stroke-miterlimit="10" stroke-width="0.3" opacity="0.95"/>
    <polygon points="320.22 269 320.22 263.42 325.81 263.42 320.22 269" fill="#47ffc0" stroke="#fff" stroke-miterlimit="10" stroke-width="0.3" opacity="0.95"/>
  </g>
</svg>
