<?xml version="1.0" encoding="utf-8"?>
<!-- Generator: Adobe Illustrator 22.0.1, SVG Export Plug-In . SVG Version: 6.00 Build 0)  -->
<svg version="1.1" id="Layer_1" xmlns="http://www.w3.org/2000/svg" xmlns:xlink="http://www.w3.org/1999/xlink" x="0px" y="0px"
	 viewBox="0 0 641 481" style="enable-background:new 0 0 641 481;" xml:space="preserve">
<style type="text/css">
	.st0{fill:none;}
	.st1{fill:none;stroke:#000000;stroke-width:0.5;stroke-miterlimit:10;}
</style>
<title>webdevelopment</title>
<g id="Layer_2_1_">
	<rect x="0.5" y="0.5" class="st0" width="640" height="480"/>
</g>
<g id="Layer_3">
	<polygon class="st1" points="54.4,434.7 50.4,438.7 46.5,434.7 	"/>
	<polygon class="st1" points="587.7,296.1 577.6,306.1 567.6,296.1 	"/>
	<polygon class="st1" points="571.2,339.2 555.2,355.1 539.3,339.2 	"/>
	<polygon class="st1" points="52.9,39.5 46.5,46 40,39.5 	"/>
	<polygon class="st1" points="37.9,118 27.9,128 17.9,118 	"/>
	<polygon class="st1" points="640.5,421.1 632.9,428.8 625.2,421.1 	"/>
	<polygon class="st1" points="598.8,102.1 587.9,113 576.9,102.1 	"/>
	<polygon class="st1" points="298.9,69.4 291.3,77 283.7,69.4 	"/>
	<polygon class="st1" points="577.6,66.1 571.2,72.6 564.7,66.1 	"/>
	<polygon class="st1" points="180.6,22.3 168.7,34.2 156.7,22.3 	"/>
	<polygon class="st1" points="114.5,404.2 97.5,421.1 80.5,404.2 	"/>
	<polygon class="st1" points="238.8,313.1 137.6,313.1 137.6,303.8 	"/>
	<polygon class="st1" points="137.6,303.8 238.8,303.8 238.8,313.1 	"/>
	<polygon class="st1" points="373,313.1 239,313.1 239,303.8 	"/>
	<polygon class="st1" points="239.1,303.8 373,303.8 373,313.1 	"/>
	<polygon class="st1" points="297.4,316 349.8,316 349.8,344.9 	"/>
	<polygon class="st1" points="349.8,345 297.4,345 297.4,316 	"/>
	<polygon class="st1" points="506.9,313.1 372.9,313.1 372.9,303.8 	"/>
	<polygon class="st1" points="373,303.8 506.9,303.8 506.9,313.1 	"/>
	<polygon class="st1" points="229.7,212.2 137.3,212.2 137.3,119.9 	"/>
	<polygon class="st1" points="137.4,119.9 229.7,119.9 229.7,212.2 	"/>
	<polygon class="st1" points="322.2,212.2 229.9,212.2 229.9,119.9 	"/>
	<polygon class="st1" points="229.9,119.9 322.2,119.9 322.2,212.2 	"/>
	<polygon class="st1" points="414.5,212.2 322.1,212.2 322.1,119.9 	"/>
	<polygon class="st1" points="322.2,119.9 414.5,119.9 414.5,212.2 	"/>
	<polygon class="st1" points="229.8,304.6 137.4,304.6 137.4,212.2 	"/>
	<polygon class="st1" points="137.5,212.2 229.8,212.2 229.8,304.5 	"/>
	<polygon class="st1" points="322.3,304.6 229.9,304.6 229.9,212.2 	"/>
	<polygon class="st1" points="230,212.2 322.3,212.2 322.3,304.5 	"/>
	<polygon class="st1" points="414.6,304.6 322.2,304.6 322.2,212.2 	"/>
	<polygon class="st1" points="322.3,212.2 414.6,212.2 414.6,304.5 	"/>
	<polygon class="st1" points="506.9,212.2 414.6,212.2 414.6,119.9 	"/>
	<polygon class="st1" points="414.6,119.9 506.9,119.9 506.9,212.2 	"/>
	<polygon class="st1" points="507,304.6 414.7,304.6 414.7,212.2 	"/>
	<polygon class="st1" points="414.7,212.2 507,212.2 507,304.5 	"/>
	<polygon class="st1" points="371.9,354.1 371.9,350 367.7,349.9 	"/>
	<polygon class="st1" points="367.7,349.9 367.7,354.1 371.9,354.1 	"/>
	<polygon class="st1" points="367.7,345.7 367.7,349.9 371.9,350 	"/>
	<polygon class="st1" points="367.6,358.3 367.7,354.1 371.9,354.1 	"/>
	<polygon class="st1" points="271.6,354.1 271.6,349.9 275.7,349.9 	"/>
	<polygon class="st1" points="275.7,349.9 275.8,354 271.6,354.1 	"/>
	<polygon class="st1" points="275.6,345.7 275.7,349.9 271.6,349.9 	"/>
	<polygon class="st1" points="275.9,358.2 275.8,354 271.6,354.1 	"/>
	<polygon class="st1" points="367.6,358.1 367.6,351.9 275.9,351.9 	"/>
	<polygon class="st1" points="275.9,351.9 275.9,358.2 367.6,358.1 	"/>
	<polygon class="st1" points="367.6,345.6 367.6,351.9 275.9,351.9 	"/>
	<polygon class="st1" points="275.9,351.9 275.9,345.6 367.6,345.6 	"/>
	<polygon class="st1" points="382,160.7 432.9,160.7 432.9,167.5 	"/>
	<polygon class="st1" points="432.9,167.5 382,167.5 382,160.7 	"/>
	<polygon class="st1" points="285.7,160.7 319.9,160.7 319.9,167.5 	"/>
	<polygon class="st1" points="319.9,167.5 285.7,167.5 285.7,160.7 	"/>
	<polygon class="st1" points="287.4,166.8 287.4,265.7 285.7,265.7 	"/>
	<polygon class="st1" points="285.7,265.6 285.7,166.8 287.4,166.8 	"/>
	<polygon class="st1" points="326.4,160.7 374.9,160.7 374.9,167.5 	"/>
	<polygon class="st1" points="374.9,167.5 326.4,167.5 326.4,160.7 	"/>
	<polygon class="st1" points="440.4,160.7 475.7,160.7 475.7,167.5 	"/>
	<polygon class="st1" points="475.6,167.5 440.4,167.5 440.4,160.7 	"/>
	<polygon class="st1" points="372.4,183.9 398.7,183.9 398.7,190.6 	"/>
	<polygon class="st1" points="398.7,190.6 372.3,190.6 372.3,183.9 	"/>
	<polygon class="st1" points="406.4,183.9 434.2,183.9 434.2,190.6 	"/>
	<polygon class="st1" points="434.1,190.6 406.4,190.6 406.4,183.9 	"/>
	<polygon class="st1" points="440.1,183.9 475.7,183.9 475.7,190.6 	"/>
	<polygon class="st1" points="475.6,190.6 440.1,190.6 440.1,183.9 	"/>
	<polygon class="st1" points="312.4,211.7 344.5,211.7 344.5,217.1 	"/>
	<polygon class="st1" points="344.4,217.1 312.4,217.1 312.4,211.7 	"/>
	<polygon class="st1" points="351,211.7 382.2,211.7 382.2,217.1 	"/>
	<polygon class="st1" points="382.2,217.1 351,217.1 351,211.7 	"/>
	<polygon class="st1" points="390.6,211.7 402.6,211.7 402.6,217.1 	"/>
	<polygon class="st1" points="402.6,217.1 390.6,217.1 390.6,211.7 	"/>
	<polygon class="st1" points="409.6,211.7 451.9,211.7 451.9,217.1 	"/>
	<polygon class="st1" points="451.9,217.1 409.6,217.1 409.6,211.7 	"/>
	<polygon class="st1" points="312.4,243.1 326.2,243.1 326.2,248.5 	"/>
	<polygon class="st1" points="326.2,248.6 312.4,248.6 312.4,243.1 	"/>
	<polygon class="st1" points="287.4,267.3 287.4,274.2 284.7,274.2 	"/>
	<polygon class="st1" points="284.7,274.2 284.7,267.3 287.4,267.3 	"/>
	<polygon class="st1" points="299.1,190 299.1,254.1 297.4,254.1 	"/>
	<polygon class="st1" points="297.4,254 297.4,190 299.1,190 	"/>
	<polygon class="st1" points="299.1,255.7 299.1,262.6 296.4,262.6 	"/>
	<polygon class="st1" points="296.4,262.6 296.4,255.7 299.1,255.7 	"/>
	<polygon class="st1" points="332.8,243.1 356.4,243.1 356.4,248.5 	"/>
	<polygon class="st1" points="356.4,248.6 332.8,248.6 332.8,243.1 	"/>
	<polygon class="st1" points="363.6,243.1 412.4,243.1 412.4,248.5 	"/>
	<polygon class="st1" points="412.4,248.6 363.6,248.6 363.6,243.1 	"/>
	<polygon class="st1" points="420.9,243.4 451.9,243.4 451.9,248.8 	"/>
	<polygon class="st1" points="451.9,248.8 420.9,248.8 420.9,243.4 	"/>
	<polygon class="st1" points="312.4,227.6 356.3,227.6 356.3,233 	"/>
	<polygon class="st1" points="356.3,233 312.4,233 312.4,227.6 	"/>
	<polygon class="st1" points="363.6,227.6 396.8,227.6 396.8,233 	"/>
	<polygon class="st1" points="396.8,233 363.6,233 363.6,227.6 	"/>
	<polygon class="st1" points="405.5,227.6 419.3,227.6 419.3,233 	"/>
	<polygon class="st1" points="419.3,233 405.5,233 405.5,227.6 	"/>
	<polygon class="st1" points="428.1,227.6 451.9,227.6 451.9,233 	"/>
	<polygon class="st1" points="451.9,233 428.1,233 428.1,227.6 	"/>
	<polygon class="st1" points="297.2,183.9 320.5,183.9 320.5,190.6 	"/>
	<polygon class="st1" points="320.5,190.6 297.2,190.6 297.2,183.9 	"/>
	<polygon class="st1" points="326.4,183.9 366.5,183.9 366.5,190.6 	"/>
	<polygon class="st1" points="366.5,190.6 326.4,190.6 326.4,183.9 	"/>
	<polygon class="st1" points="208.2,169.7 208.2,180.7 197.2,180.7 	"/>
	<polygon class="st1" points="230.2,180.7 219.2,180.7 219.2,169.7 	"/>
	<polygon class="st1" points="241.2,191.7 230.2,191.7 230.2,180.7 	"/>
	<polygon class="st1" points="208.2,180.7 208.2,169.7 219.2,169.7 	"/>
	<polygon class="st1" points="219.2,169.7 219.2,180.7 208.2,180.7 	"/>
	<polygon class="st1" points="208.2,168.3 208.2,162.8 213.7,162.8 	"/>
	<polygon class="st1" points="213.7,162.8 213.7,168.3 208.2,168.3 	"/>
	<polygon class="st1" points="213.7,168.3 213.7,162.8 219.2,162.8 	"/>
	<polygon class="st1" points="219.2,162.8 219.2,168.3 213.7,168.3 	"/>
	<polygon class="st1" points="210.9,160.1 210.9,162.8 208.2,162.8 	"/>
	<polygon class="st1" points="210.9,162.8 210.9,160.1 213.7,160.1 	"/>
	<polygon class="st1" points="213.7,160.1 213.7,162.8 210.9,162.8 	"/>
	<polygon class="st1" points="216.4,160.1 216.4,162.8 219.2,162.8 	"/>
	<polygon class="st1" points="216.4,162.8 216.4,160.1 213.7,160.1 	"/>
	<polygon class="st1" points="213.7,160.1 213.7,162.8 216.4,162.8 	"/>
	<polygon class="st1" points="197.2,261.6 205.4,261.6 205.4,269.8 	"/>
	<polygon class="st1" points="221.9,269.8 221.9,261.6 230.1,261.6 	"/>
	<polygon class="st1" points="197.2,180.7 197.2,191.7 186.1,191.7 	"/>
	<polygon class="st1" points="197.2,191.7 197.2,180.7 208.2,180.7 	"/>
	<polygon class="st1" points="208.2,180.7 208.2,191.7 197.2,191.7 	"/>
	<polygon class="st1" points="208.2,191.7 208.2,180.7 219.2,180.7 	"/>
	<polygon class="st1" points="219.2,180.7 219.2,191.7 208.2,191.7 	"/>
	<polygon class="st1" points="219.2,191.7 219.2,180.7 230.2,180.7 	"/>
	<polygon class="st1" points="230.2,180.7 230.2,191.7 219.2,191.7 	"/>
	<polygon class="st1" points="186.1,207.1 186.1,196.1 197.2,196.1 	"/>
	<polygon class="st1" points="197.1,196.1 197.1,207.1 186.1,207.1 	"/>
	<polygon class="st1" points="205.4,253.3 205.4,261.6 197.1,261.6 	"/>
	<polygon class="st1" points="197.1,261.6 197.1,253.3 205.4,253.3 	"/>
	<polygon class="st1" points="205.4,261.6 205.4,253.3 213.7,253.3 	"/>
	<polygon class="st1" points="213.7,253.3 213.7,261.6 205.4,261.6 	"/>
	<polygon class="st1" points="213.6,261.6 213.6,253.3 221.9,253.3 	"/>
	<polygon class="st1" points="221.9,253.3 221.9,261.6 213.6,261.6 	"/>
	<polygon class="st1" points="205.4,269.8 205.4,261.6 213.7,261.6 	"/>
	<polygon class="st1" points="213.7,261.6 213.7,269.8 205.4,269.8 	"/>
	<polygon class="st1" points="213.6,269.8 213.6,261.6 221.9,261.6 	"/>
	<polygon class="st1" points="221.9,261.6 221.9,269.8 213.6,269.8 	"/>
	<polygon class="st1" points="221.9,253.3 230.1,253.3 230.1,261.6 	"/>
	<polygon class="st1" points="230.1,261.6 221.9,261.6 221.9,253.3 	"/>
	<polygon class="st1" points="186.1,251.2 186.1,207.1 230.2,207.1 	"/>
	<polygon class="st1" points="230.2,207.1 230.2,251.2 186.1,251.2 	"/>
	<polygon class="st1" points="261.3,251.2 242.9,251.2 242.9,232.8 	"/>
	<polygon class="st1" points="248.5,251.2 261.3,251.2 261.3,264 	"/>
	<polygon class="st1" points="252.3,254.9 261.3,264 252.3,273 	"/>
	<polygon class="st1" points="166.1,251.2 184.5,251.2 184.5,232.8 	"/>
	<polygon class="st1" points="178.9,251.2 166.1,251.2 166.1,264 	"/>
	<polygon class="st1" points="175.1,254.9 166.1,264 175.1,273 	"/>
	<polygon class="st1" points="197.2,207.1 197.2,196.1 208.2,196.1 	"/>
	<polygon class="st1" points="208.2,196.1 208.2,207.1 197.2,207.1 	"/>
	<polygon class="st1" points="195.7,241.5 195.7,230.5 206.7,230.5 	"/>
	<polygon class="st1" points="206.7,230.5 206.7,241.5 195.7,241.5 	"/>
	<polygon class="st1" points="208.2,207.1 208.2,196.1 219.2,196.1 	"/>
	<polygon class="st1" points="219.2,196.1 219.2,207.1 208.2,207.1 	"/>
	<polygon class="st1" points="219.2,207.1 219.2,196.1 230.2,196.1 	"/>
	<polygon class="st1" points="230.2,196.1 230.2,207.1 219.2,207.1 	"/>
	<polygon class="st1" points="230.2,207.1 230.2,196.1 241.2,196.1 	"/>
	<polygon class="st1" points="241.2,196.1 241.2,207.1 230.2,207.1 	"/>
	<polygon class="st1" points="230.2,218.1 230.2,207.1 241.2,207.1 	"/>
	<polygon class="st1" points="241.2,207.1 241.2,218.1 230.2,218.1 	"/>
	<polygon class="st1" points="230.2,229.1 230.2,218.1 241.2,218.1 	"/>
	<polygon class="st1" points="241.2,218.1 241.2,229.1 230.2,229.1 	"/>
	<polygon class="st1" points="230.2,240.2 230.2,229.1 241.2,229.1 	"/>
	<polygon class="st1" points="241.2,229.1 241.2,240.2 230.2,240.2 	"/>
	<polygon class="st1" points="230.2,251.2 230.2,240.2 241.2,240.2 	"/>
	<polygon class="st1" points="241.2,240.2 241.2,251.2 230.2,251.2 	"/>
</g>
</svg>
